<svg xmlns="http://www.w3.org/2000/svg" xmlns:xlink="http://www.w3.org/1999/xlink" width="297.506" height="491.15" viewBox="0 0 297.506 491.15">
  <defs>
    <clipPath id="clip-path">
      <path id="Trazado_986121" data-name="Trazado 986121" d="M732.013,880.846s-22.054,29.441-29.107,67.611-21.934,203.595-21.934,203.595,38.107,8.94,63.416,4.376l8.071-190.795,28.79,191.12s45.44.493,67.43-10.295c0,0-52.059-234.148-73.693-263.192C774.986,883.269,754.417,877.942,732.013,880.846Z" transform="translate(-680.972 -879.98)" fill="#3b89e1"/>
    </clipPath>
    <clipPath id="clip-path-2">
      <path id="Trazado_986130" data-name="Trazado 986130" d="M732.013,880.846s-22.054,29.441-29.107,67.611-21.934,203.595-21.934,203.595,38.107,8.94,63.416,4.376l8.071-190.795,28.79,191.12s45.44.493,67.43-10.295c0,0-52.059-234.148-73.693-263.192C774.986,883.269,754.417,877.942,732.013,880.846Z" transform="translate(-680.972 -879.98)"/>
    </clipPath>
  </defs>
  <g id="Grupo_1151795" data-name="Grupo 1151795" transform="translate(-1021.478 -3912.929)">
    <g id="Grupo_1151354" data-name="Grupo 1151354" transform="translate(1027.815 4027.684)" opacity="0.61">
      <g id="Grupo_1151353" data-name="Grupo 1151353" transform="translate(0 0)">
        <path id="Trazado_986096" data-name="Trazado 986096" d="M415.291,633.494c24.61-10.506,51.338-61.342,126.147-45.8s55.749,103.526,79.1,125.121c61.281,56.662,31.33,128.7-30.67,145.048-82.274,21.691-102.511-46.143-147.993-44.9s-74.87-54.326-76.969-74.089S352.316,660.379,415.291,633.494Z" transform="translate(-362.962 -584.761)" fill="#fed6c4"/>
      </g>
    </g>
    <g id="Grupo_1151356" data-name="Grupo 1151356" transform="translate(1059.82 3912.929)">
      <g id="Grupo_1151355" data-name="Grupo 1151355" transform="translate(0 0)">
        <path id="Trazado_986097" data-name="Trazado 986097" d="M656.635,212.973c-10.961-21.477-39.808-31.534-62.505-26.42-15.4,3.469-30.224,13.481-35.724,28.649-4.764,13.136-3.86,28.391,4.715,39.77,6.71,8.9,17.616,14.326,27.754,18.379,10.934,4.372,23.354,7.549,35.2,7.206,2.936-.085,5.135.068,11.844-.239,0,0-10.159-3.27-16.329-11.21,3.164-.525,6.274-1.187,9.286-2C655.7,260.451,668.831,236.869,656.635,212.973Z" transform="translate(-555.537 -185.242)" fill="#82e0e0"/>
      </g>
    </g>
    <g id="Grupo_1151359" data-name="Grupo 1151359" transform="translate(1044.337 4083.463)">
      <g id="Grupo_1151358" data-name="Grupo 1151358" transform="translate(0 0)">
        <g id="Grupo_1151357" data-name="Grupo 1151357">
          <path id="Trazado_986098" data-name="Trazado 986098" d="M542.366,909.861l7.9,1.8,2.889-12.658-7.916-1.807a21.912,21.912,0,0,0-1.469-6.422l6.316-5.037-8.1-10.151-6.331,5.049a21.947,21.947,0,0,0-5.954-2.855v-8.065H516.724v8.1a21.941,21.941,0,0,0-5.93,2.886l-6.32-5.04-8.1,10.151,6.354,5.067a21.916,21.916,0,0,0-1.435,6.411l-7.909,1.805,2.889,12.658,7.947-1.814a22.135,22.135,0,0,0,4.1,5.11l-3.527,7.323,11.7,5.633,3.538-7.347a22.128,22.128,0,0,0,6.554-.01l3.523,7.316,11.7-5.633L538.277,915A22.027,22.027,0,0,0,542.366,909.861Zm-30.976-11a11.882,11.882,0,1,1,11.882,11.882A11.882,11.882,0,0,1,511.391,898.865Z" transform="translate(-493.389 -869.718)" fill="#b0cff2"/>
        </g>
      </g>
    </g>
    <g id="Grupo_1151362" data-name="Grupo 1151362" transform="translate(1211.517 3985.806)">
      <g id="Grupo_1151361" data-name="Grupo 1151361" transform="translate(0 0)">
        <g id="Grupo_1151360" data-name="Grupo 1151360">
          <path id="Trazado_986099" data-name="Trazado 986099" d="M1209.48,514.694l7.271,1.66,2.659-11.649-7.285-1.663a20.152,20.152,0,0,0-1.352-5.91l5.813-4.635-7.45-9.342-5.826,4.646a20.2,20.2,0,0,0-5.479-2.627v-7.422h-11.949V485.2a20.2,20.2,0,0,0-5.458,2.656l-5.816-4.638-7.45,9.342,5.847,4.663a20.17,20.17,0,0,0-1.321,5.9l-7.279,1.661,2.659,11.649,7.314-1.669a20.36,20.36,0,0,0,3.773,4.7l-3.246,6.74,10.765,5.185,3.256-6.761a20.376,20.376,0,0,0,6.031-.009l3.243,6.733,10.766-5.185-3.252-6.752A20.409,20.409,0,0,0,1209.48,514.694Zm-28.507-10.121a10.935,10.935,0,1,1,10.935,10.935A10.935,10.935,0,0,1,1180.973,504.573Z" transform="translate(-1164.406 -477.751)" fill="#fd7940"/>
        </g>
      </g>
    </g>
    <g id="Grupo_1151365" data-name="Grupo 1151365" transform="translate(1096.76 3930.635)">
      <g id="Grupo_1151364" data-name="Grupo 1151364" transform="translate(0 0)">
        <g id="Grupo_1151363" data-name="Grupo 1151363">
          <path id="Trazado_986100" data-name="Trazado 986100" d="M713.94,292.9v-1.07c0-5.071,1.8-8.2,7.091-13.536,3.046-3.083,4.321-5.353,4.33-8.021.009-3.441-1.827-5.891-5.612-5.891-3.825,0-5.971,2.5-6.359,7.712H703.8c.3-8.186,4.457-15.849,16.3-15.782,12.006.067,15.536,7.3,15.536,13.951,0,4.483-1.314,8.092-6.675,13.471-3.1,3.108-4.3,5.222-4.3,8.351v.813Zm0,16.46V296.932h10.72V309.36Z" transform="translate(-703.803 -256.312)" fill="#efeeea"/>
        </g>
      </g>
    </g>
    <g id="Grupo_1151368" data-name="Grupo 1151368" transform="translate(1060.802 4224.878)">
      <g id="Grupo_1151367" data-name="Grupo 1151367" transform="translate(0 0)">
        <g id="Grupo_1151366" data-name="Grupo 1151366">
          <path id="Trazado_986101" data-name="Trazado 986101" d="M566.126,1458.24l-.048-.6c-.226-2.855.647-4.7,3.387-7.937,1.578-1.871,2.194-3.207,2.079-4.708-.149-1.938-1.292-3.235-3.422-3.066-2.153.171-3.25,1.672-3.235,4.626l-5.4.428c-.2-4.621,1.8-9.121,8.471-9.612,6.762-.5,9.072,3.418,9.369,7.16.2,2.524-.378,4.614-3.156,7.882-1.606,1.888-2.189,3.132-2.049,4.893l.036.458Zm.735,9.266-.555-7,6.035-.478.555,7Z" transform="translate(-559.477 -1437.325)" fill="#e5782d"/>
        </g>
      </g>
    </g>
    <g id="Grupo_1151371" data-name="Grupo 1151371" transform="translate(1228.621 4151.128)">
      <g id="Grupo_1151370" data-name="Grupo 1151370" transform="translate(0 0)">
        <g id="Grupo_1151369" data-name="Grupo 1151369">
          <path id="Trazado_986102" data-name="Trazado 986102" d="M1244.126,1145.854l.527.3c2.5,1.4,3.542,3.151,4.71,7.23.678,2.352,1.444,3.607,2.756,4.348,1.692.954,3.406.727,4.451-1.138,1.057-1.884.419-3.631-2.043-5.262l2.647-4.722c3.95,2.407,6.577,6.572,3.274,12.387-3.348,5.9-7.888,5.636-11.162,3.8-2.208-1.238-3.623-2.882-4.793-7.008-.675-2.384-1.384-3.561-2.926-4.426l-.4-.224Zm-8.107-4.545,6.122,3.432-2.96,5.281-6.121-3.431Z" transform="translate(-1233.059 -1141.31)" fill="#e5782d"/>
        </g>
      </g>
    </g>
    <g id="Grupo_1151374" data-name="Grupo 1151374" transform="translate(1091.224 4047.737)">
      <g id="Grupo_1151373" data-name="Grupo 1151373" transform="translate(0 0)">
        <g id="Grupo_1151372" data-name="Grupo 1151372">
          <path id="Trazado_986103" data-name="Trazado 986103" d="M701.262,737.327l-.392.459c-1.859,2.178-3.78,2.862-8.008,3.213-2.439.207-3.819.715-4.8,1.857-1.265,1.474-1.375,3.2.25,4.588,1.643,1.4,3.479,1.117,5.559-.981l4.117,3.515c-3.129,3.407-7.726,5.173-12.787.8-5.132-4.431-3.994-8.833-1.557-11.688,1.644-1.925,3.531-2.994,7.806-3.338,2.47-.2,3.763-.665,4.91-2.009l.3-.349Zm6.035-7.069-4.557,5.337-4.6-3.931,4.557-5.337Z" transform="translate(-681.581 -726.327)" fill="#e5782d"/>
        </g>
      </g>
    </g>
    <g id="Grupo_1151377" data-name="Grupo 1151377" transform="translate(1262.813 4193.628)">
      <g id="Grupo_1151376" data-name="Grupo 1151376" transform="translate(0 0)">
        <g id="Grupo_1151375" data-name="Grupo 1151375">
          <path id="Trazado_986104" data-name="Trazado 986104" d="M1384.36,1350.15l-.187-1.076c-.887-5.1.377-8.564,4.765-14.857,2.525-3.634,3.41-6.141,2.953-8.826-.593-3.463-2.869-5.607-6.677-4.944-3.848.669-5.569,3.556-5.047,8.871l-9.644,1.677c-1.133-8.286,1.711-16.724,13.636-18.728,12.089-2.032,16.906,4.631,18.069,11.317.784,4.51.094,8.37-4.358,14.719-2.574,3.668-3.415,6.006-2.868,9.154l.142.818Zm2.88,16.558-2.174-12.5,10.784-1.875,2.174,12.5Z" transform="translate(-1370.295 -1311.895)" fill="#b0cff2"/>
        </g>
      </g>
    </g>
    <g id="Grupo_1151379" data-name="Grupo 1151379" transform="translate(1238.052 4070.458)">
      <g id="Grupo_1151378" data-name="Grupo 1151378" transform="translate(0 0)">
        <path id="Trazado_986105" data-name="Trazado 986105" d="M1333.052,823.883a.528.528,0,0,1-.273-.076l-8.53-5.137-8.53,5.137a.531.531,0,0,1-.547,0l-8.529-5.137-8.529,5.137a.53.53,0,0,1-.547,0l-8.525-5.137-8.528,5.137a.531.531,0,0,1-.547,0l-8.8-5.3a.53.53,0,1,1,.547-.908l8.527,5.137,8.527-5.137a.53.53,0,0,1,.547,0l8.525,5.137,8.528-5.137a.53.53,0,0,1,.547,0l8.529,5.137,8.53-5.137a.53.53,0,0,1,.547,0l8.8,5.3a.53.53,0,0,1-.274.984Z" transform="translate(-1270.91 -817.521)" fill="#1c241b"/>
      </g>
    </g>
    <g id="Grupo_1151381" data-name="Grupo 1151381" transform="translate(1021.478 4203.634)">
      <g id="Grupo_1151380" data-name="Grupo 1151380" transform="translate(0 0)">
        <path id="Trazado_986106" data-name="Trazado 986106" d="M463.781,1358.417a.524.524,0,0,1-.273-.076l-8.53-5.136-8.53,5.136a.529.529,0,0,1-.547,0l-8.529-5.136-8.528,5.136a.529.529,0,0,1-.547,0l-8.525-5.136-8.528,5.136a.529.529,0,0,1-.547,0l-8.8-5.3a.53.53,0,1,1,.547-.908l8.526,5.136,8.528-5.136a.529.529,0,0,1,.547,0l8.525,5.136,8.528-5.136a.529.529,0,0,1,.547,0l8.529,5.136,8.53-5.136a.529.529,0,0,1,.547,0l8.8,5.3a.53.53,0,0,1-.274.984Z" transform="translate(-401.64 -1352.055)" fill="#1c241b"/>
      </g>
    </g>
    <g id="Grupo_1151383" data-name="Grupo 1151383" transform="translate(1231.096 4094.364)">
      <g id="Grupo_1151382" data-name="Grupo 1151382" transform="translate(0 0)">
        <path id="Trazado_986107" data-name="Trazado 986107" d="M1247,921.494a4.009,4.009,0,1,1,4.009-4.009A4.013,4.013,0,0,1,1247,921.494Zm0-6.956a2.948,2.948,0,1,0,2.948,2.948A2.952,2.952,0,0,0,1247,914.538Z" transform="translate(-1242.99 -913.477)" fill="#1c241b"/>
      </g>
    </g>
    <g id="Grupo_1151516" data-name="Grupo 1151516" transform="translate(1060.772 3965.719)">
      <g id="Grupo_1151388" data-name="Grupo 1151388" transform="translate(0 430.39)">
        <ellipse id="Elipse_11710" data-name="Elipse 11710" cx="115.34" cy="3.985" rx="115.34" ry="3.985" fill="#262325"/>
      </g>
      <g id="Grupo_1151389" data-name="Grupo 1151389" transform="translate(51.906 354.723)">
        <rect id="Rectángulo_408057" data-name="Rectángulo 408057" width="23.602" height="64.117" fill="#e09579"/>
      </g>
      <g id="Grupo_1151390" data-name="Grupo 1151390" transform="translate(143.533 356.712)">
        <rect id="Rectángulo_408058" data-name="Rectángulo 408058" width="23.602" height="64.117" transform="translate(0 4.043) rotate(-9.864)" fill="#e09579"/>
      </g>
      <g id="Grupo_1151404" data-name="Grupo 1151404" transform="translate(19.955 398.768)">
        <g id="Grupo_1151395" data-name="Grupo 1151395" transform="translate(0.388)">
          <g id="Grupo_1151392" data-name="Grupo 1151392">
            <g id="Grupo_1151391" data-name="Grupo 1151391">
              <path id="Trazado_986110" data-name="Trazado 986110" d="M641.382,2025.632a28.722,28.722,0,0,1,11.272-10.5v12.05h1.909V2014.2a40.632,40.632,0,0,1,13.734-3.322,70.817,70.817,0,0,1,0-8.966c.555-11.041,10.7,2.987,10.7,2.987h17.3l-.249,24.4H642.532C641.042,2029.295,640.611,2026.908,641.382,2025.632Z" transform="translate(-641.006 -1997.674)" fill="#262325"/>
            </g>
          </g>
          <g id="Grupo_1151394" data-name="Grupo 1151394" transform="translate(11.647 16.525)">
            <g id="Grupo_1151393" data-name="Grupo 1151393">
              <path id="Trazado_986111" data-name="Trazado 986111" d="M687.755,2076.981v-12.049q.912-.485,1.909-.931v12.98h-1.909Z" transform="translate(-687.755 -2064.001)" fill="#efd1ca"/>
            </g>
          </g>
        </g>
        <g id="Grupo_1151397" data-name="Grupo 1151397" transform="translate(44.853 13.321)">
          <g id="Grupo_1151396" data-name="Grupo 1151396">
            <circle id="Elipse_11711" data-name="Elipse 11711" cx="4.233" cy="4.233" r="4.233" fill="#efd1ca"/>
          </g>
        </g>
        <g id="Grupo_1151399" data-name="Grupo 1151399" transform="translate(16.06 12.844)">
          <g id="Grupo_1151398" data-name="Grupo 1151398">
            <path id="Trazado_986112" data-name="Trazado 986112" d="M704.386,2056.346a.474.474,0,0,0,.333-.135l6.181-6,8.361,1.092a.478.478,0,0,0,.123-.947l-8.589-1.122a.472.472,0,0,0-.394.131l-6.347,6.164a.478.478,0,0,0,.333.819Z" transform="translate(-703.909 -2049.228)" fill="#efd1ca"/>
          </g>
        </g>
        <g id="Grupo_1151401" data-name="Grupo 1151401" transform="translate(15.151 10.606)">
          <g id="Grupo_1151400" data-name="Grupo 1151400">
            <path id="Trazado_986113" data-name="Trazado 986113" d="M709.861,2047.667a.475.475,0,0,0,.437-.286l2.822-6.471a.477.477,0,0,0-.874-.382l-2.67,6.122-8.749-1.671a.477.477,0,1,0-.179.937l9.124,1.743A.515.515,0,0,0,709.861,2047.667Z" transform="translate(-700.26 -2040.243)" fill="#efd1ca"/>
          </g>
        </g>
        <g id="Grupo_1151403" data-name="Grupo 1151403" transform="translate(0 25.398)">
          <g id="Grupo_1151402" data-name="Grupo 1151402">
            <path id="Trazado_986114" data-name="Trazado 986114" d="M639.758,2107.832H695.7a.309.309,0,0,0,.309-.309v-7.6a.309.309,0,0,0-.309-.309H639.758a.309.309,0,0,0-.309.309v7.6A.31.31,0,0,0,639.758,2107.832Z" transform="translate(-639.449 -2099.616)" fill="#ffe5dc"/>
          </g>
        </g>
      </g>
      <g id="Grupo_1151418" data-name="Grupo 1151418" transform="translate(149.728 398.768)">
        <g id="Grupo_1151409" data-name="Grupo 1151409" transform="translate(0.873)">
          <g id="Grupo_1151406" data-name="Grupo 1151406">
            <g id="Grupo_1151405" data-name="Grupo 1151405">
              <path id="Trazado_986115" data-name="Trazado 986115" d="M1218.744,2025.632a28.724,28.724,0,0,0-11.272-10.5v12.05h-1.908V2014.2a40.632,40.632,0,0,0-13.733-3.322,70.847,70.847,0,0,0,0-8.966c-.555-11.041-10.7,2.987-10.7,2.987h-17.3l.249,24.4h53.521C1219.083,2029.295,1219.514,2026.908,1218.744,2025.632Z" transform="translate(-1163.823 -1997.674)" fill="#262325"/>
            </g>
          </g>
          <g id="Grupo_1151408" data-name="Grupo 1151408" transform="translate(41.738 16.525)">
            <g id="Grupo_1151407" data-name="Grupo 1151407">
              <path id="Trazado_986116" data-name="Trazado 986116" d="M1333.258,2076.981v-12.049q-.912-.485-1.909-.931v12.98h1.909Z" transform="translate(-1331.349 -2064.001)" fill="#efd1ca"/>
            </g>
          </g>
        </g>
        <g id="Grupo_1151411" data-name="Grupo 1151411" transform="translate(3.236 13.321)">
          <g id="Grupo_1151410" data-name="Grupo 1151410">
            <circle id="Elipse_11712" data-name="Elipse 11712" cx="4.233" cy="4.233" r="4.233" fill="#efd1ca"/>
          </g>
        </g>
        <g id="Grupo_1151413" data-name="Grupo 1151413" transform="translate(24.604 12.844)">
          <g id="Grupo_1151412" data-name="Grupo 1151412">
            <path id="Trazado_986117" data-name="Trazado 986117" d="M1274.488,2056.346a.474.474,0,0,1-.333-.135l-6.182-6-8.361,1.092a.478.478,0,0,1-.123-.947l8.589-1.122a.472.472,0,0,1,.394.131l6.348,6.164a.478.478,0,0,1-.333.819Z" transform="translate(-1259.074 -2049.228)" fill="#efd1ca"/>
          </g>
        </g>
        <g id="Grupo_1151415" data-name="Grupo 1151415" transform="translate(28.504 10.606)">
          <g id="Grupo_1151414" data-name="Grupo 1151414">
            <path id="Trazado_986118" data-name="Trazado 986118" d="M1278.028,2047.667a.475.475,0,0,1-.437-.286l-2.822-6.471a.477.477,0,0,1,.874-.382l2.67,6.122,8.749-1.671a.477.477,0,0,1,.179.937l-9.124,1.743A.506.506,0,0,1,1278.028,2047.667Z" transform="translate(-1274.729 -2040.243)" fill="#efd1ca"/>
          </g>
        </g>
        <g id="Grupo_1151417" data-name="Grupo 1151417" transform="translate(0 25.398)">
          <g id="Grupo_1151416" data-name="Grupo 1151416">
            <path id="Trazado_986119" data-name="Trazado 986119" d="M1216.568,2107.832H1160.63a.309.309,0,0,1-.308-.309v-7.6a.309.309,0,0,1,.308-.309h55.938a.309.309,0,0,1,.309.309v7.6A.309.309,0,0,1,1216.568,2107.832Z" transform="translate(-1160.321 -2099.616)" fill="#ffe5dc"/>
          </g>
        </g>
      </g>
      <g id="Grupo_1151433" data-name="Grupo 1151433" transform="translate(30.3 120.301)">
        <g id="Grupo_1151419" data-name="Grupo 1151419" clip-path="url(#clip-path)">
          <path id="Trazado_986120" data-name="Trazado 986120" d="M732.183,880.739s-22.223,29.47-29.276,67.641-21.934,203.595-21.934,203.595,38.107,8.94,63.416,4.376l8.071-190.795,28.79,191.12s45.44.492,67.43-10.3c0,0-52.059-234.148-73.693-263.191C774.986,883.19,754.587,877.834,732.183,880.739Z" transform="translate(-680.972 -879.901)" fill="#3b89e1"/>
        </g>
        <g id="Grupo_1151428" data-name="Grupo 1151428" clip-path="url(#clip-path-2)">
          <g id="Grupo_1151420" data-name="Grupo 1151420" transform="translate(-3.045 -14.093)">
            <path id="Trazado_986122" data-name="Trazado 986122" d="M669.016,1130.075l-.03,0a.265.265,0,0,1-.233-.293c.152-1.329,15.188-133.651,18.879-199.473A224.111,224.111,0,0,1,706.4,851.921c8.125-18.156,15.9-28.3,15.977-28.4a.265.265,0,0,1,.419.324c-.077.1-7.821,10.21-15.921,28.315a223.582,223.582,0,0,0-18.715,78.182c-3.691,65.836-18.729,198.174-18.881,199.5A.264.264,0,0,1,669.016,1130.075Z" transform="translate(-668.751 -823.414)" fill="#754c24"/>
          </g>
          <g id="Grupo_1151421" data-name="Grupo 1151421" transform="translate(16.322 -13.761)">
            <path id="Trazado_986123" data-name="Trazado 986123" d="M746.75,1131.629h-.014a.265.265,0,0,1-.251-.278c.07-1.373,7-138.11,9.529-203.911,1.322-34.423,9.31-60.476,15.779-76.271,7.012-17.123,13.808-26.227,13.875-26.317a.265.265,0,1,1,.424.319c-.068.089-6.83,9.154-13.817,26.221-6.448,15.751-14.412,41.734-15.731,76.068-2.528,65.8-9.459,202.543-9.529,203.917A.265.265,0,0,1,746.75,1131.629Z" transform="translate(-746.485 -824.747)" fill="#754c24"/>
          </g>
          <g id="Grupo_1151422" data-name="Grupo 1151422" transform="translate(45.074 -11.174)">
            <path id="Trazado_986124" data-name="Trazado 986124" d="M862.151,1141.562h-.014a.265.265,0,0,1-.251-.278c.066-1.241,6.57-125.049,8.777-204.106,1.837-65.814,17.03-101.532,17.183-101.886a.265.265,0,1,1,.486.211c-.153.352-15.305,35.989-17.139,101.689-2.207,79.064-8.712,202.877-8.777,204.119A.265.265,0,0,1,862.151,1141.562Z" transform="translate(-861.886 -835.132)" fill="#754c24"/>
          </g>
          <g id="Grupo_1151423" data-name="Grupo 1151423" transform="translate(60.182 96.425)">
            <path id="Trazado_986125" data-name="Trazado 986125" d="M922.791,1464.806h-.016a.264.264,0,0,1-.248-.281c.081-1.307,8.115-131.518,8.315-197.257a.265.265,0,0,1,.265-.265h0a.265.265,0,0,1,.264.266c-.2,65.754-8.235,195.98-8.317,197.287A.264.264,0,0,1,922.791,1464.806Z" transform="translate(-922.526 -1267.003)" fill="#754c24"/>
          </g>
          <g id="Grupo_1151424" data-name="Grupo 1151424" transform="translate(72.029 -9.484)">
            <path id="Trazado_986126" data-name="Trazado 986126" d="M1007.084,1147.514a.265.265,0,0,1-.263-.238c-.117-1.151-11.842-116.023-26.4-197.331-12.385-69.153-10.2-107.4-10.175-107.781a.259.259,0,0,1,.281-.248.265.265,0,0,1,.248.281c-.023.378-2.205,38.573,10.168,107.655,14.566,81.329,26.293,196.22,26.41,197.371a.264.264,0,0,1-.237.291Z" transform="translate(-970.078 -841.914)" fill="#754c24"/>
          </g>
          <g id="Grupo_1151425" data-name="Grupo 1151425" transform="translate(73.125 -3.522)">
            <path id="Trazado_986127" data-name="Trazado 986127" d="M1028.247,1169.883a.265.265,0,0,1-.262-.233c-.161-1.292-16.212-130-29.3-197.671-12.491-64.577-24.081-105.4-24.2-105.8a.265.265,0,1,1,.51-.145c.115.4,11.712,41.243,24.208,105.845,13.092,67.683,29.146,196.414,29.307,197.706a.265.265,0,0,1-.231.3A.192.192,0,0,1,1028.247,1169.883Z" transform="translate(-974.476 -865.842)" fill="#754c24"/>
          </g>
          <g id="Grupo_1151426" data-name="Grupo 1151426" transform="translate(107.802 46.737)">
            <path id="Trazado_986128" data-name="Trazado 986128" d="M1163.664,1313.954a.265.265,0,0,1-.26-.218c-.235-1.291-23.667-129.85-37.506-194.225-1.085-5.048-2.044-9.661-2.89-13.731-2.961-14.243-5.1-24.534-9.334-37.865a.265.265,0,0,1,.505-.161c4.243,13.358,6.385,23.66,9.348,37.918.846,4.069,1.8,8.681,2.889,13.727,13.841,64.384,37.274,192.95,37.509,194.241a.266.266,0,0,1-.213.309A.19.19,0,0,1,1163.664,1313.954Z" transform="translate(-1113.66 -1067.57)" fill="#754c24"/>
          </g>
          <g id="Grupo_1151427" data-name="Grupo 1151427" transform="translate(89.361 -12.507)">
            <path id="Trazado_986129" data-name="Trazado 986129" d="M1117.988,1129.136a.265.265,0,0,1-.26-.217c-.221-1.207-22.368-121.543-39.038-193.745-14.823-64.2-38.769-104.594-39.009-104.995a.265.265,0,0,1,.455-.273c.24.4,24.23,40.866,39.071,105.149,16.672,72.214,38.821,192.56,39.043,193.767a.266.266,0,0,1-.213.309A.189.189,0,0,1,1117.988,1129.136Z" transform="translate(-1039.643 -829.779)" fill="#754c24"/>
          </g>
        </g>
        <g id="Grupo_1151429" data-name="Grupo 1151429" clip-path="url(#clip-path-2)">
          <path id="Trazado_986131" data-name="Trazado 986131" d="M726.128,1907.479c-22.5,0-45.611-4.827-45.909-4.891a.53.53,0,0,1,.22-1.038c.382.082,38.494,8.039,64.3,3.441a.53.53,0,1,1,.186,1.044A108.942,108.942,0,0,1,726.128,1907.479Z" transform="translate(-680.09 -1647.023)" fill="#1c241b"/>
        </g>
        <g id="Grupo_1151430" data-name="Grupo 1151430" clip-path="url(#clip-path-2)">
          <path id="Trazado_986133" data-name="Trazado 986133" d="M1085.455,1875.032a105.354,105.354,0,0,1-16.524-1.144.53.53,0,1,1,.187-1.044c.337.061,34.071,5.878,66.058-9.482a.53.53,0,0,1,.459.956C1117.316,1873.114,1098.433,1875.032,1085.455,1875.032Z" transform="translate(-971.945 -1618.318)" fill="#1c241b"/>
        </g>
        <g id="Grupo_1151431" data-name="Grupo 1151431" clip-path="url(#clip-path-2)">
          <path id="Trazado_986135" data-name="Trazado 986135" d="M807.455,1273.8h-.007a.265.265,0,0,1-.258-.272c1.687-67.258,12.231-239.687,12.338-241.421a.268.268,0,0,1,.281-.248.265.265,0,0,1,.248.281c-.106,1.734-10.65,174.153-12.337,241.4A.265.265,0,0,1,807.455,1273.8Z" transform="translate(-775.743 -994.022)" fill="#754c24"/>
        </g>
        <g id="Grupo_1151432" data-name="Grupo 1151432" clip-path="url(#clip-path-2)">
          <path id="Trazado_986137" data-name="Trazado 986137" d="M1119.224,1287.889a.265.265,0,0,1-.263-.24c-5.459-58.4-39.375-227.825-39.717-229.53a.265.265,0,0,1,.52-.1c.342,1.7,34.263,171.16,39.725,229.584a.266.266,0,0,1-.239.289Z" transform="translate(-980.013 -1013.499)" fill="#754c24"/>
        </g>
      </g>
      <g id="Grupo_1151434" data-name="Grupo 1151434" transform="translate(78.059 121.887)">
        <rect id="Rectángulo_408059" data-name="Rectángulo 408059" width="45.761" height="10.768" fill="#1c241b"/>
      </g>
      <g id="Grupo_1151435" data-name="Grupo 1151435" transform="translate(97.246 141.473)">
        <path id="Trazado_986139" data-name="Trazado 986139" d="M951.414,1010.38a.529.529,0,0,1-.432-.223c-3.954-5.544,2.292-43.155,2.56-44.754a.53.53,0,1,1,1.046.175c-1.8,10.768-5.814,39.656-2.742,43.963a.531.531,0,0,1-.431.838Z" transform="translate(-949.673 -964.961)" fill="#1c241b"/>
      </g>
      <g id="Grupo_1151436" data-name="Grupo 1151436" transform="translate(61.482 138.457)">
        <path id="Trazado_986140" data-name="Trazado 986140" d="M806.656,979.8a.53.53,0,0,1-.116-1.047c.2-.045,19.831-4.707,21.993-25.422a.53.53,0,0,1,1.055.11c-2.243,21.485-22.61,26.3-22.815,26.346A.6.6,0,0,1,806.656,979.8Z" transform="translate(-806.126 -952.855)" fill="#1c241b"/>
      </g>
      <g id="Grupo_1151437" data-name="Grupo 1151437" transform="translate(119.966 141.106)">
        <path id="Trazado_986141" data-name="Trazado 986141" d="M1057.429,990.371a10.363,10.363,0,0,1-5.565-1.6c-9.027-5.61-10.918-23.929-10.994-24.706a.53.53,0,1,1,1.055-.1c.018.185,1.916,18.576,10.5,23.909,2.74,1.7,5.92,1.89,9.454.556a.53.53,0,0,1,.375.992A13.657,13.657,0,0,1,1057.429,990.371Z" transform="translate(-1040.868 -963.485)" fill="#1c241b"/>
      </g>
      <g id="Grupo_1151438" data-name="Grupo 1151438" transform="translate(123.906 137.388)">
        <path id="Trazado_986142" data-name="Trazado 986142" d="M1056.68,959.753s12.63,7.249,18.093,2.667-1.832-13.858-1.832-13.858Z" transform="translate(-1056.68 -948.563)" fill="#e09579"/>
      </g>
      <g id="Grupo_1151439" data-name="Grupo 1151439" transform="translate(95.576 36.844)">
        <path id="Trazado_986143" data-name="Trazado 986143" d="M968.353,557.972l1.534-12.966-14.9,1.342-1.43,9.078a1.627,1.627,0,0,1-1.841,1.355c-5.078-.738-8.7-1.2-8.7-1.2s-1.3,40.938,10.883,37.412,26.351-30.676,26.351-30.676a90.746,90.746,0,0,0-10.589-2.564A1.627,1.627,0,0,1,968.353,557.972Z" transform="translate(-942.97 -545.006)" fill="#e09579"/>
      </g>
      <g id="Grupo_1151473" data-name="Grupo 1151473" transform="translate(103.379 0)">
        <g id="Grupo_1151452" data-name="Grupo 1151452">
          <g id="Grupo_1151440" data-name="Grupo 1151440" transform="translate(21.736)">
            <path id="Trazado_986144" data-name="Trazado 986144" d="M1074.532,403.954c0,3.772-5.153,5.5-8.925,5.5s-4.075-1.728-4.075-5.5,2.4-6.83,6.17-6.83A6.83,6.83,0,0,1,1074.532,403.954Z" transform="translate(-1061.532 -397.124)" fill="#42210b"/>
          </g>
          <g id="Grupo_1151443" data-name="Grupo 1151443" transform="translate(0 7.737)">
            <g id="Grupo_1151441" data-name="Grupo 1151441" transform="translate(0.771)">
              <path id="Trazado_986145" data-name="Trazado 986145" d="M1010.806,466.219s5.015-29.96-7.208-35.889c-10.6-5.14-26.923-.993-26.193,11.656,0,0,12.108,2.017,18.5-1.09,2.445-1.188.7,11.515-.378,18.867-.429,2.936-.572,5.027-.572,5.027Z" transform="translate(-977.381 -428.18)" fill="#42210b"/>
            </g>
            <g id="Grupo_1151442" data-name="Grupo 1151442" transform="translate(0 12.434)">
              <path id="Trazado_986146" data-name="Trazado 986146" d="M990.8,499.635c3.226-1.973,4.894-6.322,5.8-10.525a2.9,2.9,0,0,0,2.987-2.532c.294-2.6-1.88-2.669-2.423-1.443-.449,1.014-.214-3.794-1.852-6.174a2.027,2.027,0,0,0-2.255-.788,41.735,41.735,0,0,1-17.977,1.285s-4.144,20.27,6.5,21.474C981.582,500.933,986.771,502.1,990.8,499.635Z" transform="translate(-974.289 -478.087)" fill="#e09579"/>
            </g>
          </g>
          <g id="Grupo_1151444" data-name="Grupo 1151444" transform="translate(1.003 17.218)">
            <path id="Trazado_986147" data-name="Trazado 986147" d="M983.664,470.378a45.034,45.034,0,0,1-5.229-.285.141.141,0,1,1,.037-.279c.137.018,13.719,1.747,19.822-3.546a.141.141,0,0,1,.184.213C994.734,469.73,988.243,470.378,983.664,470.378Z" transform="translate(-978.313 -466.234)" fill="#bc7964"/>
          </g>
          <g id="Grupo_1151445" data-name="Grupo 1151445" transform="translate(1.003 13.915)">
            <path id="Trazado_986148" data-name="Trazado 986148" d="M978.454,459.093a.141.141,0,0,1-.011-.281c.148-.011,14.884-1.207,20.292-5.8a.141.141,0,1,1,.182.214c-5.477,4.656-20.3,5.858-20.453,5.87Z" transform="translate(-978.313 -452.975)" fill="#bc7964"/>
          </g>
          <g id="Grupo_1151446" data-name="Grupo 1151446" transform="translate(1.278 11.907)">
            <path id="Trazado_986149" data-name="Trazado 986149" d="M979.559,451.94a.141.141,0,0,1-.086-.252c.1-.079,10.357-7.892,21.19-6.636a.141.141,0,0,1-.032.28c-10.721-1.248-20.885,6.5-20.987,6.579A.139.139,0,0,1,979.559,451.94Z" transform="translate(-979.418 -444.915)" fill="#bc7964"/>
          </g>
          <g id="Grupo_1151447" data-name="Grupo 1151447" transform="translate(1.939 8.637)">
            <path id="Trazado_986150" data-name="Trazado 986150" d="M982.211,440.267a.141.141,0,0,1-.127-.2c.062-.131,6.378-12.984,22.151-6.4a.141.141,0,0,1-.109.26c-8.113-3.387-13.6-1.506-16.777.667a15.971,15.971,0,0,0-5.011,5.6A.14.14,0,0,1,982.211,440.267Z" transform="translate(-982.07 -431.79)" fill="#bc7964"/>
          </g>
          <g id="Grupo_1151448" data-name="Grupo 1151448" transform="translate(21.595 17.824)">
            <path id="Trazado_986151" data-name="Trazado 986151" d="M1061.107,494.277a.141.141,0,0,1-.114-.223c2.1-2.954,4.8-13.7,4.379-17.413-.43-3.763-4.056-7.7-4.092-7.739a.141.141,0,0,1,.206-.192c.038.04,3.726,4.043,4.166,7.9.43,3.759-2.3,14.62-4.43,17.608A.139.139,0,0,1,1061.107,494.277Z" transform="translate(-1060.966 -468.665)" fill="#bc7964"/>
          </g>
          <g id="Grupo_1151449" data-name="Grupo 1151449" transform="translate(23.908 13.915)">
            <path id="Trazado_986152" data-name="Trazado 986152" d="M1074.025,482.935a.136.136,0,0,1-.043-.007.14.14,0,0,1-.09-.177c3.737-11.466,2.563-18.882.92-23.085a14.432,14.432,0,0,0-4.5-6.433.141.141,0,1,1,.157-.233,14.689,14.689,0,0,1,4.595,6.542c1.667,4.248,2.861,11.737-.906,23.3A.14.14,0,0,1,1074.025,482.935Z" transform="translate(-1070.25 -452.976)" fill="#bc7964"/>
          </g>
          <g id="Grupo_1151450" data-name="Grupo 1151450" transform="translate(25.67 10.997)">
            <path id="Trazado_986153" data-name="Trazado 986153" d="M1084.29,474.139h-.021a.141.141,0,0,1-.118-.16c3.9-26.412-6.648-32.394-6.755-32.452a.141.141,0,1,1,.133-.248c.112.06,2.765,1.516,4.962,6.3,2.018,4.391,3.991,12.543,1.939,26.443A.14.14,0,0,1,1084.29,474.139Z" transform="translate(-1077.322 -441.261)" fill="#bc7964"/>
          </g>
          <g id="Grupo_1151451" data-name="Grupo 1151451" transform="translate(22.655 27.189)">
            <path id="Trazado_986154" data-name="Trazado 986154" d="M1065.982,509.656a1.035,1.035,0,0,1-.671-.284.265.265,0,0,1,.347-.4c.287.248.457.153.6.014a2.673,2.673,0,0,0,.514-2.148c-.036-.044-.067-.06-.107-.052-.23,0-.636.345-.839.578a.265.265,0,0,1-.4-.347c.111-.127.689-.761,1.24-.761h.005a.654.654,0,0,1,.507.241c.43.511.1,2.225-.547,2.867A.917.917,0,0,1,1065.982,509.656Z" transform="translate(-1065.219 -506.254)" fill="#754c24"/>
          </g>
        </g>
        <g id="Grupo_1151453" data-name="Grupo 1151453" transform="translate(23.326 1.282)">
          <path id="Trazado_986155" data-name="Trazado 986155" d="M1072.445,411h-.047a4.1,4.1,0,0,1-4.224-2.96c-.676-2.358.094-3.714.858-4.436a5.9,5.9,0,0,1,5.362-1.105,3.577,3.577,0,0,1,2.356,3.682,2.445,2.445,0,0,1-2.115,2.319,2.412,2.412,0,0,1-2.086-.479,2.45,2.45,0,0,1-.64-1.834.119.119,0,0,1,.238.02,2.25,2.25,0,0,0,.568,1.641,2.4,2.4,0,0,0,3.8-1.69,3.335,3.335,0,0,0-2.2-3.434,5.727,5.727,0,0,0-5.118,1.053c-1.042.985-1.308,2.4-.792,4.2a3.873,3.873,0,0,0,4,2.786h.048c2.212,0,4.445-1.149,4.734-2.1a.119.119,0,1,1,.229.07C1077.062,409.881,1074.613,411,1072.445,411Z" transform="translate(-1067.914 -402.268)" fill="#bc7964"/>
        </g>
        <g id="Grupo_1151460" data-name="Grupo 1151460" transform="translate(21.136 6.497)">
          <g id="Grupo_1151455" data-name="Grupo 1151455" transform="translate(0 1.24)">
            <g id="Grupo_1151454" data-name="Grupo 1151454">
              <path id="Trazado_986156" data-name="Trazado 986156" d="M1068.168,432.228a24.18,24.18,0,0,0-8.854-4.049l-.192.652a20.785,20.785,0,0,1,8.527,3.767Z" transform="translate(-1059.122 -428.179)"/>
            </g>
          </g>
          <g id="Grupo_1151457" data-name="Grupo 1151457" transform="translate(0.18 0.631)">
            <g id="Grupo_1151456" data-name="Grupo 1151456">
              <path id="Trazado_986157" data-name="Trazado 986157" d="M1069.223,430.046a27.775,27.775,0,0,0-9.188-4.31l-.192.652a23.659,23.659,0,0,1,8.866,4.006Z" transform="translate(-1059.843 -425.736)" fill="#fff"/>
            </g>
          </g>
          <g id="Grupo_1151459" data-name="Grupo 1151459" transform="translate(0.363)">
            <g id="Grupo_1151458" data-name="Grupo 1151458">
              <path id="Trazado_986158" data-name="Trazado 986158" d="M1070.517,427.842c-3.533-3.166-8.849-4.432-9.744-4.64l-.192.652a26.975,26.975,0,0,1,9.194,4.289Z" transform="translate(-1060.581 -423.202)"/>
            </g>
          </g>
        </g>
        <g id="Grupo_1151461" data-name="Grupo 1151461" transform="translate(11.889 23.779)">
          <path id="Trazado_986159" data-name="Trazado 986159" d="M1029.4,495.714a.35.35,0,0,1-.295-.161,5.635,5.635,0,0,0-6.638-1.939.349.349,0,0,1-.211-.666,6.417,6.417,0,0,1,7.438,2.229.349.349,0,0,1-.106.482A.354.354,0,0,1,1029.4,495.714Z" transform="translate(-1022.008 -492.567)" fill="#42210b"/>
        </g>
        <g id="Grupo_1151462" data-name="Grupo 1151462" transform="translate(0.538 21.327)">
          <path id="Trazado_986160" data-name="Trazado 986160" d="M983.837,485.872a.35.35,0,0,1-.294-.16,5.634,5.634,0,0,0-6.638-1.94.349.349,0,0,1-.211-.666,6.413,6.413,0,0,1,7.437,2.229.349.349,0,0,1-.294.537Z" transform="translate(-976.45 -482.725)" fill="#42210b"/>
        </g>
        <g id="Grupo_1151465" data-name="Grupo 1151465" transform="translate(12.7 25.817)">
          <g id="Grupo_1151463" data-name="Grupo 1151463" transform="translate(1.249)">
            <path id="Trazado_986161" data-name="Trazado 986161" d="M1030.775,501.879a1.752,1.752,0,0,0-.173-1.127,3.947,3.947,0,0,1,.769.042c1.194.181,2.084.842,1.988,1.476s-1.142,1-2.336.821a3.925,3.925,0,0,1-.747-.188A1.758,1.758,0,0,0,1030.775,501.879Z" transform="translate(-1030.276 -500.749)" fill="#fff"/>
          </g>
          <g id="Grupo_1151464" data-name="Grupo 1151464" transform="translate(0 0.004)">
            <path id="Trazado_986162" data-name="Trazado 986162" d="M1025.269,501.627c.075-.493.722-.824,1.567-.863a1.911,1.911,0,0,1-.326,2.151C1025.715,502.628,1025.194,502.119,1025.269,501.627Z" transform="translate(-1025.262 -500.764)" fill="#42210b"/>
          </g>
        </g>
        <g id="Grupo_1151468" data-name="Grupo 1151468" transform="translate(1.592 23.435)">
          <g id="Grupo_1151466" data-name="Grupo 1151466" transform="translate(1.261)">
            <path id="Trazado_986163" data-name="Trazado 986163" d="M986.244,492.318a1.748,1.748,0,0,0-.175-1.13,3.961,3.961,0,0,1,.755.043c1.194.181,2.084.842,1.988,1.476s-1.142,1-2.336.821a3.934,3.934,0,0,1-.734-.183A1.747,1.747,0,0,0,986.244,492.318Z" transform="translate(-985.741 -491.185)" fill="#fff"/>
          </g>
          <g id="Grupo_1151467" data-name="Grupo 1151467" transform="translate(0 0.003)">
            <path id="Trazado_986164" data-name="Trazado 986164" d="M980.688,492.062c.075-.5.729-.828,1.581-.863a1.908,1.908,0,0,1-.327,2.157C981.138,493.068,980.612,492.557,980.688,492.062Z" transform="translate(-980.68 -491.198)" fill="#42210b"/>
          </g>
        </g>
        <g id="Grupo_1151469" data-name="Grupo 1151469" transform="translate(14.471 30.038)">
          <ellipse id="Elipse_11713" data-name="Elipse 11713" cx="1.631" cy="0.991" rx="1.631" ry="0.991" fill="#f4a587"/>
        </g>
        <g id="Grupo_1151470" data-name="Grupo 1151470" transform="translate(0.359 27.056)">
          <path id="Trazado_986165" data-name="Trazado 986165" d="M975.8,506.136c-.247.488.205,1.214,1.009,1.62s1.656.339,1.9-.149-.205-1.214-1.009-1.62S976.042,505.648,975.8,506.136Z" transform="translate(-975.728 -505.721)" fill="#f4a587"/>
        </g>
        <g id="Grupo_1151471" data-name="Grupo 1151471" transform="translate(6.214 24.785)">
          <path id="Trazado_986166" data-name="Trazado 986166" d="M1001.375,504.235a.265.265,0,0,1-.1-.02l-1.44-.6a.926.926,0,0,1-.536-1.208l2.327-5.645a.265.265,0,0,1,.49.2l-2.327,5.644a.4.4,0,0,0,.248.516l1.44.595a.265.265,0,0,1-.1.51Z" transform="translate(-999.23 -496.603)" fill="#754c24"/>
        </g>
        <g id="Grupo_1151472" data-name="Grupo 1151472" transform="translate(6.216 34.044)">
          <path id="Trazado_986167" data-name="Trazado 986167" d="M1000.819,534.88a1.844,1.844,0,0,1-1.524-.684.265.265,0,0,1,.419-.325c.646.834,2,.323,2.011.318a.265.265,0,0,1,.191.495A3.34,3.34,0,0,1,1000.819,534.88Z" transform="translate(-999.239 -533.769)" fill="#754c24"/>
        </g>
      </g>
      <g id="Grupo_1151474" data-name="Grupo 1151474" transform="translate(55.533 46.91)">
        <path id="Trazado_986168" data-name="Trazado 986168" d="M859.565,592.657a73.666,73.666,0,0,1-15.635,19.366l-4.473.829c.062.985.031,2.118.1,3.082a50.118,50.118,0,0,1-6.589,4.287c-8.235-10.787-10.632-34.3-10.632-34.3s-18.616-5.253-26.675,17.843c-7.8,22.342-18.805,55.872-10.379,69.149s39.336,22.375,57.28,14.714l1.138-15.751s-14.933-8.847-25.029-11.1l25.7.873c4.433,23.594,10.507,28.723,20.425,28.783,14.665.089,17.852-31.482,15.5-65.918C878.012,591.069,859.565,592.657,859.565,592.657Z" transform="translate(-782.248 -585.408)" fill="#eaf2fb"/>
      </g>
      <g id="Grupo_1151475" data-name="Grupo 1151475" transform="translate(128.453 73.604)">
        <path id="Trazado_986169" data-name="Trazado 986169" d="M1088.147,735.787a.265.265,0,0,1-.261-.225,158.132,158.132,0,0,0-12.927-42.625.265.265,0,0,1,.474-.239,158.785,158.785,0,0,1,12.978,42.784.266.266,0,0,1-.263.3Z" transform="translate(-1074.929 -692.552)" fill="#754c24"/>
      </g>
      <g id="Grupo_1151476" data-name="Grupo 1151476" transform="translate(81.247 75.649)">
        <path id="Trazado_986170" data-name="Trazado 986170" d="M921.192,758.754a.261.261,0,0,1-.126-.032c-.287-.155-28.788-15.459-35.226-12.235a.265.265,0,0,1-.376-.3c.083-.344,8.261-34.5,6.221-45.112a.265.265,0,0,1,.521-.1c1.949,10.139-5.054,40.39-6.107,44.834,7.462-2.456,34.064,11.823,35.219,12.446a.265.265,0,0,1,.108.359A.269.269,0,0,1,921.192,758.754Z" transform="translate(-885.457 -700.761)" fill="#754c24"/>
      </g>
      <g id="Grupo_1151485" data-name="Grupo 1151485" transform="translate(72.396 46.61)">
        <g id="Grupo_1151477" data-name="Grupo 1151477" transform="translate(0 74.292)">
          <path id="Trazado_986171" data-name="Trazado 986171" d="M850.2,887.211a.265.265,0,0,1-.186-.454c.168-.166,4.164-4.071,8.85-4.363a.265.265,0,0,1,.033.529c-4.486.279-8.471,4.172-8.511,4.211A.262.262,0,0,1,850.2,887.211Z" transform="translate(-849.932 -882.393)" fill="#754c24"/>
        </g>
        <g id="Grupo_1151478" data-name="Grupo 1151478" transform="translate(0.553 75.676)">
          <path id="Trazado_986172" data-name="Trazado 986172" d="M852.417,894.975a.265.265,0,0,1-.241-.375,14.3,14.3,0,0,1,6.353-6.631.265.265,0,0,1,.224.48,14.022,14.022,0,0,0-6.094,6.369A.264.264,0,0,1,852.417,894.975Z" transform="translate(-852.151 -887.945)" fill="#754c24"/>
        </g>
        <g id="Grupo_1151479" data-name="Grupo 1151479" transform="translate(13.732)">
          <path id="Trazado_986173" data-name="Trazado 986173" d="M916.861,598.805a.265.265,0,0,1-.2-.092l-11.548-13.4a.265.265,0,0,1,.094-.416c3.275-1.445,9.139-.193,9.388-.14a.265.265,0,0,1-.113.518c-.057-.012-5.54-1.181-8.725-.028l11.306,13.12a.265.265,0,0,1-.2.438Z" transform="translate(-905.049 -584.203)" fill="#754c24"/>
        </g>
        <g id="Grupo_1151480" data-name="Grupo 1151480" transform="translate(53.417 7.314)">
          <path id="Trazado_986174" data-name="Trazado 986174" d="M1064.6,624.142a.265.265,0,0,1-.1-.51l15.847-6.6a20.221,20.221,0,0,0-9.167-2.949.265.265,0,0,1-.237-.29.269.269,0,0,1,.29-.237c6.5.649,9.691,3.225,9.824,3.334a.265.265,0,0,1-.067.449l-16.285,6.778A.264.264,0,0,1,1064.6,624.142Z" transform="translate(-1064.336 -613.56)" fill="#754c24"/>
        </g>
        <g id="Grupo_1151481" data-name="Grupo 1151481" transform="translate(33.036 40.234)">
          <path id="Trazado_986175" data-name="Trazado 986175" d="M984.4,746.624a.934.934,0,1,1-.934-.934A.934.934,0,0,1,984.4,746.624Z" transform="translate(-982.529 -745.69)" fill="#998675"/>
        </g>
        <g id="Grupo_1151482" data-name="Grupo 1151482" transform="translate(31.077 53.798)">
          <path id="Trazado_986176" data-name="Trazado 986176" d="M976.533,801.069a.934.934,0,1,1-.934-.934A.934.934,0,0,1,976.533,801.069Z" transform="translate(-974.666 -800.135)" fill="#998675"/>
        </g>
        <g id="Grupo_1151483" data-name="Grupo 1151483" transform="translate(30.271 68.784)">
          <path id="Trazado_986177" data-name="Trazado 986177" d="M973.3,861.217a.934.934,0,1,1-.933-.933A.934.934,0,0,1,973.3,861.217Z" transform="translate(-971.432 -860.283)" fill="#998675"/>
        </g>
        <g id="Grupo_1151484" data-name="Grupo 1151484" transform="translate(26.264 26.223)">
          <circle id="Elipse_11714" data-name="Elipse 11714" cx="1.037" cy="1.037" r="1.037" fill="#998675"/>
        </g>
      </g>
      <g id="Grupo_1151486" data-name="Grupo 1151486" transform="translate(115.844 133.378)">
        <path id="Trazado_986178" data-name="Trazado 986178" d="M1025.459,932.466h13.847l-1.52,14.106h-2.317l2.232,1.094-.234,2.667-13.147-2.116Z" transform="translate(-1024.32 -932.466)" fill="#eaf2fb"/>
      </g>
      <g id="Grupo_1151487" data-name="Grupo 1151487" transform="translate(116.716 133.112)">
        <path id="Trazado_986179" data-name="Trazado 986179" d="M1040.415,946.038l-.029,0a.265.265,0,0,1-.235-.292l1.489-13.812h-13.554a.265.265,0,0,1,0-.53h13.849a.265.265,0,0,1,.264.293l-1.521,14.106A.264.264,0,0,1,1040.415,946.038Z" transform="translate(-1027.821 -931.402)" fill="#c7b299"/>
      </g>
      <g id="Grupo_1151488" data-name="Grupo 1151488" transform="translate(115.618 134.429)">
        <path id="Trazado_986180" data-name="Trazado 986180" d="M1023.68,951.1a.24.24,0,0,1-.047,0,.265.265,0,0,1-.214-.307c1.882-10.56,1.018-13.733,1.01-13.764a.265.265,0,0,1,.508-.151c.038.128.917,3.27-1,14.008A.266.266,0,0,1,1023.68,951.1Z" transform="translate(-1023.414 -936.685)" fill="#754c24"/>
      </g>
      <g id="Grupo_1151489" data-name="Grupo 1151489" transform="translate(119.374 128.191)">
        <path id="Trazado_986181" data-name="Trazado 986181" d="M1038.49,915.361s3.1,14.412,9.317,17.832l9.677-5.293-.415-16.25Z" transform="translate(-1038.49 -911.65)" fill="#eaf2fb"/>
      </g>
      <g id="Grupo_1151490" data-name="Grupo 1151490" transform="translate(112.725 79.535)">
        <path id="Trazado_986182" data-name="Trazado 986182" d="M1028.058,786.823a.261.261,0,0,1-.155-.05c-8.827-6.363-13.341-26.026-16.1-70.133a.265.265,0,0,1,.248-.281.27.27,0,0,1,.281.248c2.749,43.927,7.2,63.479,15.881,69.736a.265.265,0,0,1-.155.48Z" transform="translate(-1011.802 -716.359)" fill="#754c24"/>
      </g>
      <g id="Grupo_1151491" data-name="Grupo 1151491" transform="translate(123.265 31.783)">
        <path id="Trazado_986183" data-name="Trazado 986183" d="M1056.568,529.612a2.459,2.459,0,1,1,2.459-2.459A2.462,2.462,0,0,1,1056.568,529.612Zm0-4.389a1.929,1.929,0,1,0,1.929,1.929A1.932,1.932,0,0,0,1056.568,525.223Z" transform="translate(-1054.108 -524.693)" fill="#d98b19"/>
      </g>
      <g id="Grupo_1151492" data-name="Grupo 1151492" transform="translate(125.137 30.489)">
        <path id="Trazado_986184" data-name="Trazado 986184" d="M1063.338,520.355a.858.858,0,1,1-.858-.858A.858.858,0,0,1,1063.338,520.355Z" transform="translate(-1061.621 -519.497)" fill="#efeeea"/>
      </g>
      <g id="Grupo_1151493" data-name="Grupo 1151493" transform="translate(104.643 48.33)">
        <path id="Trazado_986185" data-name="Trazado 986185" d="M988.46,596.8a9.714,9.714,0,0,1-2.145-.238,11.661,11.661,0,0,1-6.917-5.05.265.265,0,1,1,.457-.269,11.326,11.326,0,0,0,6.583,4.8c2.942.663,6.134-.152,9.487-2.419a.265.265,0,1,1,.3.439A13.981,13.981,0,0,1,988.46,596.8Z" transform="translate(-979.362 -591.108)" fill="#d98b19"/>
      </g>
      <g id="Grupo_1151494" data-name="Grupo 1151494" transform="translate(104.693 49.491)">
        <path id="Trazado_986186" data-name="Trazado 986186" d="M980.336,596.155a.387.387,0,1,1-.387-.387A.387.387,0,0,1,980.336,596.155Z" transform="translate(-979.562 -595.768)" fill="#d98b19"/>
      </g>
      <g id="Grupo_1151495" data-name="Grupo 1151495" transform="translate(107.443 52.087)">
        <path id="Trazado_986187" data-name="Trazado 986187" d="M991.376,606.577a.387.387,0,1,1-.387-.387A.387.387,0,0,1,991.376,606.577Z" transform="translate(-990.601 -606.189)" fill="#d98b19"/>
      </g>
      <g id="Grupo_1151496" data-name="Grupo 1151496" transform="translate(112.306 53.801)">
        <path id="Trazado_986188" data-name="Trazado 986188" d="M1010.9,613.456a.387.387,0,1,1-.387-.387A.387.387,0,0,1,1010.9,613.456Z" transform="translate(-1010.121 -613.068)" fill="#d98b19"/>
      </g>
      <g id="Grupo_1151497" data-name="Grupo 1151497" transform="translate(116.626 53.414)">
        <path id="Trazado_986189" data-name="Trazado 986189" d="M1028.236,611.9a.387.387,0,1,1-.387-.387A.388.388,0,0,1,1028.236,611.9Z" transform="translate(-1027.461 -611.514)" fill="#d98b19"/>
      </g>
      <g id="Grupo_1151498" data-name="Grupo 1151498" transform="translate(120.302 51.782)">
        <path id="Trazado_986190" data-name="Trazado 986190" d="M1042.927,605.558a.387.387,0,1,1-.12-.534A.387.387,0,0,1,1042.927,605.558Z" transform="translate(-1042.213 -604.963)" fill="#d98b19"/>
      </g>
      <g id="Grupo_1151500" data-name="Grupo 1151500" transform="translate(104.121 48.42)">
        <g id="Grupo_1151499" data-name="Grupo 1151499">
          <path id="Trazado_986191" data-name="Trazado 986191" d="M983,613a2.057,2.057,0,0,1-1.8-1.408c-3.415-7.01-3.933-19.792-3.938-19.92a.2.2,0,0,1,.191-.206.191.191,0,0,1,.206.191c0,.127.52,12.827,3.9,19.761.4.812.887,1.2,1.473,1.184,4.1-.1,11.762-17.966,11.839-18.147a.2.2,0,1,1,.366.156c-.318.746-7.839,18.278-12.2,18.388Z" transform="translate(-977.266 -591.468)" fill="#efeeea"/>
        </g>
      </g>
      <g id="Grupo_1151501" data-name="Grupo 1151501" transform="translate(106.589 68.964)">
        <path id="Trazado_986192" data-name="Trazado 986192" d="M991.849,676.263a2.708,2.708,0,0,1-2.513,2.576,2.411,2.411,0,0,1-2.159-2.576,2.336,2.336,0,1,1,4.672,0Z" transform="translate(-987.176 -673.927)" fill="#efeeea"/>
      </g>
      <g id="Grupo_1151502" data-name="Grupo 1151502" transform="translate(93.34 206.664)">
        <path id="Trazado_986193" data-name="Trazado 986193" d="M942.291,1226.62s-14.577,34.171-5.088,120.286Z" transform="translate(-933.994 -1226.62)" fill="#262325"/>
      </g>
      <g id="Grupo_1151503" data-name="Grupo 1151503" transform="translate(106.193 41.535)">
        <path id="Trazado_986194" data-name="Trazado 986194" d="M986.414,563.834l-.831,5.274s12.358,4.732,13.249,2.682-.346-7.414-.346-7.414-3.984,2.1-7.213,1.3A17.78,17.78,0,0,1,986.414,563.834Z" transform="translate(-985.583 -563.834)" fill="#bf6f5c"/>
      </g>
      <g id="Grupo_1151508" data-name="Grupo 1151508" transform="translate(102.074 35.488)">
        <g id="Grupo_1151504" data-name="Grupo 1151504">
          <path id="Trazado_986195" data-name="Trazado 986195" d="M969.058,548.506c-.14,1.741,2.279,1.988,5.6,2.2.274.017.524.075.762.11.3.044.581.085.853.126a2.178,2.178,0,0,0-1.21.2,1.456,1.456,0,0,0-.943,1.248l-.022.269a1.456,1.456,0,0,0,1.1,1.529,4.35,4.35,0,0,0,1.526.143l.061.005a1.829,1.829,0,0,0-2.016,1.626h0a1.667,1.667,0,0,0,1.528,1.8l1.581.127a1.484,1.484,0,0,0-1.6,1.36l-.032.4a1.484,1.484,0,0,0,1.356,1.6,2.42,2.42,0,0,0,.567.225L982,572.926l8.285-.488-.261-14.688-.133-11.16s1.1-6.855-1.038-7.023c-3.148-.249-3.562,10.106-3.562,10.106s-4.985-2.479-6.8-2.351S969.207,546.646,969.058,548.506Z" transform="translate(-969.052 -539.563)" fill="#e09579"/>
        </g>
        <g id="Grupo_1151505" data-name="Grupo 1151505" transform="translate(7.01 11.331)">
          <path id="Trazado_986196" data-name="Trazado 986196" d="M1002.768,586.132h0c-.044-.012-4.365-1.234-5.56-1.041a.018.018,0,0,1-.017-.012.015.015,0,0,1,.012-.017,2.026,2.026,0,0,1,.312-.021,30.752,30.752,0,0,1,5.262,1.063.014.014,0,0,1,.01.018A.013.013,0,0,1,1002.768,586.132Z" transform="translate(-997.186 -585.041)" fill="#754c24"/>
        </g>
        <g id="Grupo_1151506" data-name="Grupo 1151506" transform="translate(7.562 14.764)">
          <path id="Trazado_986197" data-name="Trazado 986197" d="M1004.159,599.88h0l-4.74-1.028a.015.015,0,0,1-.011-.017.014.014,0,0,1,.017-.011l4.741,1.028a.015.015,0,0,1,.012.018C1004.174,599.875,1004.167,599.88,1004.159,599.88Z" transform="translate(-999.404 -598.823)" fill="#754c24"/>
        </g>
        <g id="Grupo_1151507" data-name="Grupo 1151507" transform="translate(8.641 18.296)">
          <path id="Trazado_986198" data-name="Trazado 986198" d="M1006.829,613.856h0l-3.082-.829a.014.014,0,0,1-.01-.018.014.014,0,0,1,.018-.01l3.081.829a.015.015,0,0,1,.01.018A.013.013,0,0,1,1006.829,613.856Z" transform="translate(-1003.733 -612.998)" fill="#754c24"/>
        </g>
      </g>
      <g id="Grupo_1151513" data-name="Grupo 1151513" transform="translate(101.809 35.223)">
        <g id="Grupo_1151509" data-name="Grupo 1151509">
          <path id="Trazado_986199" data-name="Trazado 986199" d="M981.207,572.392a.265.265,0,0,1-.251-.181l-3.8-11.332a2.839,2.839,0,0,1-.438-.183,1.752,1.752,0,0,1-1.541-1.878l.032-.4a1.738,1.738,0,0,1,.591-1.175l-.331-.027a1.979,1.979,0,0,1-1.005-3.534c-.055-.015-.109-.031-.159-.048a1.707,1.707,0,0,1-1.276-1.8l.022-.269a1.729,1.729,0,0,1,.91-1.382l-.124-.011c-2.7-.172-4.674-.365-5.476-1.292a1.563,1.563,0,0,1-.366-1.192h0c.124-1.542,3.522-1.567,7.619-1.446.88.026,1.64.048,2.06.019,1.6-.119,5.383,1.628,6.579,2.2.1-1.651.583-7.762,2.52-9.482a1.726,1.726,0,0,1,1.307-.475,1.219,1.219,0,0,1,.883.5c1.227,1.56.43,6.62.4,6.835l.136,11.115.261,14.686a.265.265,0,0,1-.25.269l-8.285.488Zm-4.255-15.054a1.22,1.22,0,0,0-1.213,1.121l-.032.4a1.221,1.221,0,0,0,1.113,1.312.258.258,0,0,1,.1.031,2.19,2.19,0,0,0,.5.2.266.266,0,0,1,.193.174l3.777,11.272,7.828-.461-.256-14.434-.133-11.162c.228-1.444.614-5.324-.286-6.468a.7.7,0,0,0-.508-.294,1.2,1.2,0,0,0-.914.343c-2.031,1.8-2.359,9.433-2.362,9.509a.265.265,0,0,1-.383.227c-.049-.025-4.93-2.437-6.667-2.324-.447.032-1.219.009-2.113-.018-2.264-.066-6.98-.206-7.075.959h0a1.038,1.038,0,0,0,.239.8c.666.77,2.622.952,5.109,1.11a5.127,5.127,0,0,1,.555.074c.078.014.153.027.228.038.3.043.583.085.855.126a.265.265,0,0,1,.223.294.268.268,0,0,1-.287.232,1.9,1.9,0,0,0-1.058.164,1.219,1.219,0,0,0-.807,1.037l-.022.269a1.185,1.185,0,0,0,.9,1.251,4.178,4.178,0,0,0,1.452.135l.091.005a.265.265,0,0,1,.021.526.89.89,0,0,1-.1.006c-1.049.028-1.619.492-1.695,1.381a1.4,1.4,0,0,0,1.285,1.509l1.581.127a.265.265,0,1,1-.042.529h0C977.016,557.339,976.984,557.338,976.951,557.338Z" transform="translate(-967.99 -538.498)" fill="#754c24"/>
        </g>
        <g id="Grupo_1151510" data-name="Grupo 1151510" transform="translate(6.578 11.341)">
          <path id="Trazado_986200" data-name="Trazado 986200" d="M1000.671,585.7a.267.267,0,0,1-.066-.008,36.408,36.408,0,0,0-5.928-1.14.26.26,0,0,1-.283-.246.265.265,0,0,1,.246-.283c1.223-.093,5.9,1.1,6.1,1.155a.265.265,0,0,1-.066.522Z" transform="translate(-994.393 -584.016)" fill="#754c24"/>
        </g>
        <g id="Grupo_1151511" data-name="Grupo 1151511" transform="translate(7.666 14.762)">
          <path id="Trazado_986201" data-name="Trazado 986201" d="M1004.042,599.2a.239.239,0,0,1-.048,0l-5.016-.924a.265.265,0,1,1,.1-.521l5.017.924a.265.265,0,0,1-.048.526Z" transform="translate(-998.76 -597.748)" fill="#754c24"/>
        </g>
        <g id="Grupo_1151512" data-name="Grupo 1151512" transform="translate(8.818 18.314)">
          <path id="Trazado_986202" data-name="Trazado 986202" d="M1006.565,613.362a.26.26,0,0,1-.072-.01l-2.919-.825a.265.265,0,1,1,.144-.51l2.919.825a.265.265,0,0,1-.072.52Z" transform="translate(-1003.381 -612.006)" fill="#754c24"/>
        </g>
      </g>
      <g id="Grupo_1151514" data-name="Grupo 1151514" transform="translate(108.75 57.831)">
        <path id="Trazado_986203" data-name="Trazado 986203" d="M999.842,645.765,995.847,632.5l13.945-2.61,1.2,3.973-.122-4.207,2-.416,2.384,13.07Z" transform="translate(-995.847 -629.242)" fill="#efeeea"/>
      </g>
      <g id="Grupo_1151515" data-name="Grupo 1151515" transform="translate(113.568 71.154)">
        <path id="Trazado_986204" data-name="Trazado 986204" d="M1015.451,685.939a.265.265,0,0,1-.064-.522c.086-.021,8.63-2.146,13.3-2.7a.265.265,0,0,1,.062.527c-4.632.545-13.144,2.662-13.229,2.683A.275.275,0,0,1,1015.451,685.939Z" transform="translate(-1015.186 -682.719)" fill="#754c24"/>
      </g>
    </g>
  </g>
</svg>
