<svg xmlns="http://www.w3.org/2000/svg" xmlns:xlink="http://www.w3.org/1999/xlink" width="108" height="108" viewBox="0 0 108 108">
  <defs>
    <filter id="Trazado_982548" x="0" y="0" width="108" height="108" filterUnits="userSpaceOnUse">
      <feOffset dy="3" input="SourceAlpha"/>
      <feGaussianBlur stdDeviation="3" result="blur"/>
      <feFlood flood-opacity="0.161"/>
      <feComposite operator="in" in2="blur"/>
      <feComposite in="SourceGraphic"/>
    </filter>
  </defs>
  <g id="Grupo_1157423" data-name="Grupo 1157423" transform="translate(9 6)">
    <g id="Grupo_1155746" data-name="Grupo 1155746">
      <g id="Grupo_1149912" data-name="Grupo 1149912">
        <g transform="matrix(1, 0, 0, 1, -9, -6)" filter="url(#Trazado_982548)">
          <g id="Trazado_982548-2" data-name="Trazado 982548" transform="translate(9 6)" fill="#fef0ea">
            <path d="M 45 88.5 C 39.12687683105469 88.5 33.43022537231445 87.35007476806641 28.06830024719238 85.08217620849609 C 22.88852500915527 82.89131164550781 18.23629951477051 79.75458526611328 14.2408504486084 75.75914764404297 C 10.24541282653809 71.76370239257812 7.108687400817871 67.11147308349609 4.917825222015381 61.93170166015625 C 2.649924993515015 56.56977462768555 1.5 50.87312316894531 1.5 45 C 1.5 39.12687683105469 2.649924993515015 33.43022537231445 4.917825222015381 28.06830024719238 C 7.108687400817871 22.88852500915527 10.24541282653809 18.23629951477051 14.2408504486084 14.2408504486084 C 18.23629951477051 10.24541282653809 22.88852500915527 7.108687400817871 28.06830024719238 4.917825222015381 C 33.43022537231445 2.649924993515015 39.12687683105469 1.5 45 1.5 C 50.87312316894531 1.5 56.56977462768555 2.649924993515015 61.93170166015625 4.917825222015381 C 67.11147308349609 7.108687400817871 71.76370239257812 10.24541282653809 75.75914764404297 14.2408504486084 C 79.75458526611328 18.23629951477051 82.89131164550781 22.88852500915527 85.08217620849609 28.06830024719238 C 87.35007476806641 33.43022537231445 88.5 39.12687683105469 88.5 45 C 88.5 50.87312316894531 87.35007476806641 56.56977462768555 85.08217620849609 61.93170166015625 C 82.89131164550781 67.11147308349609 79.75458526611328 71.76370239257812 75.75914764404297 75.75914764404297 C 71.76370239257812 79.75458526611328 67.11147308349609 82.89131164550781 61.93170166015625 85.08217620849609 C 56.56977462768555 87.35007476806641 50.87312316894531 88.5 45 88.5 Z" stroke="none"/>
            <path d="M 45 3 C 39.32871246337891 3 33.82865524291992 4.110054016113281 28.65262985229492 6.299339294433594 C 23.65165710449219 8.414573669433594 19.15968322753906 11.44334411621094 15.301513671875 15.301513671875 C 11.44334411621094 19.15968322753906 8.414573669433594 23.65165710449219 6.299339294433594 28.65262985229492 C 4.110054016113281 33.82865524291992 3 39.32871246337891 3 45 C 3 50.67128753662109 4.110054016113281 56.17134475708008 6.299339294433594 61.34737396240234 C 8.414573669433594 66.34834289550781 11.44334411621094 70.84031677246094 15.301513671875 74.698486328125 C 19.15968322753906 78.55665588378906 23.65165710449219 81.58542633056641 28.65262985229492 83.70066070556641 C 33.82865524291992 85.88994598388672 39.32871246337891 87 45 87 C 50.67128753662109 87 56.17134475708008 85.88994598388672 61.34737396240234 83.70066070556641 C 66.34834289550781 81.58542633056641 70.84031677246094 78.55665588378906 74.698486328125 74.698486328125 C 78.55665588378906 70.84031677246094 81.58542633056641 66.34834289550781 83.70066070556641 61.34737396240234 C 85.88994598388672 56.17134475708008 87 50.67128753662109 87 45 C 87 39.32871246337891 85.88994598388672 33.82865524291992 83.70066070556641 28.65262985229492 C 81.58542633056641 23.65165710449219 78.55665588378906 19.15968322753906 74.698486328125 15.301513671875 C 70.84031677246094 11.44334411621094 66.34834289550781 8.414573669433594 61.34737396240234 6.299339294433594 C 56.17134475708008 4.110054016113281 50.67128753662109 3 45 3 M 45 0 C 69.85281372070312 0 90 20.14718627929688 90 45 C 90 69.85281372070312 69.85281372070312 90 45 90 C 20.14718627929688 90 0 69.85281372070312 0 45 C 0 20.14718627929688 20.14718627929688 0 45 0 Z" stroke="none" fill="#fd7940"/>
          </g>
        </g>
      </g>
    </g>
    <g id="emprendedores" transform="translate(14 12)">
      <g id="Grupo_1157421" data-name="Grupo 1157421" transform="translate(5.762 6.757)">
        <g id="Grupo_1157395" data-name="Grupo 1157395" transform="translate(36.981 1.391)">
          <g id="Grupo_1157393" data-name="Grupo 1157393" transform="translate(0 0)">
            <ellipse id="Elipse_11768" data-name="Elipse 11768" cx="8.357" cy="8.357" rx="8.357" ry="8.357" transform="translate(0 3.845) rotate(-13.3)" fill="#ffc338"/>
          </g>
          <g id="Grupo_1157394" data-name="Grupo 1157394" transform="translate(9.348 1.715)">
            <path id="Trazado_990596" data-name="Trazado 990596" d="M413.459,82.5a8.358,8.358,0,1,1,0,16.716c-.241,0-.48-.011-.716-.031a8.358,8.358,0,0,0,0-16.654Q413.1,82.5,413.459,82.5Z" transform="translate(-412.743 -82.5)" fill="#f5b829" fill-rule="evenodd"/>
          </g>
        </g>
        <g id="Grupo_1157403" data-name="Grupo 1157403" transform="translate(0)">
          <g id="Grupo_1157396" data-name="Grupo 1157396" transform="translate(6.358 25.061)">
            <path id="Trazado_990597" data-name="Trazado 990597" d="M114.964,248.092h-3.7v2.124a1.4,1.4,0,0,0,1.4,1.4h1.818a1.4,1.4,0,0,0,1.4-1.4v-2.124Z" transform="translate(-111.266 -248.092)" fill="#b1b1b5" fill-rule="evenodd"/>
          </g>
          <g id="Grupo_1157397" data-name="Grupo 1157397" transform="translate(4.89 22.33)">
            <path id="Trazado_990598" data-name="Trazado 990598" d="M100.2,227.5l.031,2.052a1.413,1.413,0,0,0,1.4,1.4h4.691a1.4,1.4,0,0,0,1.4-1.4l-.031-2.053C105.242,227.576,102.658,227.5,100.2,227.5Z" transform="translate(-100.196 -227.499)" fill="#d1d1d6" fill-rule="evenodd"/>
          </g>
          <g id="Grupo_1157398" data-name="Grupo 1157398" transform="translate(0)">
            <path id="Trazado_990599" data-name="Trazado 990599" d="M77.082,79.256C77.5,72.2,80.555,72.485,80.555,67.7a8.621,8.621,0,0,0-17.242,0c0,4.788,3.059,4.5,3.473,11.559.185,1.394.981,1.708,1.442,1.708C75.089,80.964,76.3,81.642,77.082,79.256Z" transform="translate(-63.313 -59.076)" fill="#ffe177" fill-rule="evenodd"/>
          </g>
          <g id="Grupo_1157399" data-name="Grupo 1157399" transform="translate(8.142)">
            <path id="Trazado_990600" data-name="Trazado 990600" d="M130.349,79.256c.415-7.057,3.473-6.771,3.473-11.559a8.621,8.621,0,0,0-8.621-8.621q-.241,0-.479.014a8.621,8.621,0,0,1,8.142,8.607c0,4.788-3.059,4.5-3.473,11.559-.461,1.416-1.077,1.753-2.937,1.793C129.077,81.088,129.816,80.892,130.349,79.256Z" transform="translate(-124.722 -59.076)" fill="#ffd064" fill-rule="evenodd"/>
          </g>
          <g id="Grupo_1157400" data-name="Grupo 1157400" transform="translate(10.055 22.33)">
            <path id="Trazado_990601" data-name="Trazado 990601" d="M139.155,230.952h.958a1.4,1.4,0,0,0,1.4-1.4l-.031-2.053q-.476.015-.958.023l.031,2.03A1.4,1.4,0,0,1,139.155,230.952Z" transform="translate(-139.155 -227.498)" fill="#b1b1b5" fill-rule="evenodd"/>
          </g>
          <g id="Grupo_1157401" data-name="Grupo 1157401" transform="translate(3.473 20.18)">
            <path id="Trazado_990602" data-name="Trazado 990602" d="M89.511,211.281v1.4a1.4,1.4,0,0,0,1.4,1.4h7.493a1.4,1.4,0,0,0,1.4-1.4v-1.4Z" transform="translate(-89.511 -211.281)" fill="#eceff1" fill-rule="evenodd"/>
          </g>
          <g id="Grupo_1157402" data-name="Grupo 1157402" transform="translate(11.41 20.18)">
            <path id="Trazado_990603" data-name="Trazado 990603" d="M149.368,214.083h.958a1.4,1.4,0,0,0,1.4-1.4v-1.4h-.958v1.4A1.4,1.4,0,0,1,149.368,214.083Z" transform="translate(-149.368 -211.281)" fill="#d1d1d6" fill-rule="evenodd"/>
          </g>
        </g>
        <g id="Grupo_1157414" data-name="Grupo 1157414" transform="translate(12.613 12.507)">
          <g id="Grupo_1157406" data-name="Grupo 1157406" transform="translate(6.094 0)">
            <g id="Grupo_1157404" data-name="Grupo 1157404">
              <ellipse id="Elipse_11769" data-name="Elipse 11769" cx="7.685" cy="7.685" rx="7.685" ry="7.685" transform="matrix(0.16, -0.987, 0.987, 0.16, 0, 15.171)" fill="#f6dccd"/>
            </g>
            <g id="Grupo_1157405" data-name="Grupo 1157405" transform="translate(7.754 1.132)">
              <path id="Trazado_990604" data-name="Trazado 990604" d="M263.964,161.944a7.685,7.685,0,1,1-1.071,15.3,7.686,7.686,0,0,0,0-15.222,7.79,7.79,0,0,1,1.071-.074Z" transform="translate(-262.893 -161.944)" fill="#f1cbbc" fill-rule="evenodd"/>
            </g>
          </g>
          <g id="Grupo_1157409" data-name="Grupo 1157409" transform="translate(0 17.911)">
            <g id="Grupo_1157407" data-name="Grupo 1157407">
              <path id="Trazado_990605" data-name="Trazado 990605" d="M159.628,302.065H187.1a1.175,1.175,0,0,0,1.156-1.415,15.2,15.2,0,0,0-29.788,0A1.175,1.175,0,0,0,159.628,302.065Z" transform="translate(-158.448 -288.5)" fill="#8ac9fe" fill-rule="evenodd"/>
            </g>
            <g id="Grupo_1157408" data-name="Grupo 1157408" transform="translate(13.575)">
              <path id="Trazado_990606" data-name="Trazado 990606" d="M273.233,302.065h2.686a1.175,1.175,0,0,0,1.156-1.415,15.206,15.206,0,0,0-14.894-12.15q-.679,0-1.343.059a15.21,15.21,0,0,1,13.551,12.091A1.176,1.176,0,0,1,273.233,302.065Z" transform="translate(-260.838 -288.5)" fill="#60b7ff" fill-rule="evenodd"/>
            </g>
          </g>
          <g id="Grupo_1157413" data-name="Grupo 1157413" transform="translate(11.253 17.911)">
            <g id="Grupo_1157410" data-name="Grupo 1157410" transform="translate(0 0.039)">
              <path id="Trazado_990607" data-name="Trazado 990607" d="M245.89,288.8h2.194l2.549,8.015a.388.388,0,0,1-.081.384l-3.267,3.689a.4.4,0,0,1-.6,0l-3.267-3.689a.388.388,0,0,1-.081-.384Z" transform="translate(-243.321 -288.795)" fill="#eceff1" fill-rule="evenodd"/>
            </g>
            <g id="Grupo_1157411" data-name="Grupo 1157411" transform="translate(3.003 0.002)">
              <path id="Trazado_990608" data-name="Trazado 990608" d="M266.39,288.514l1.336.038,2.551,8.014a.388.388,0,0,1-.081.384l-3.267,3.689a.4.4,0,0,1-.6,0l-.365-.412,2.9-3.276a.388.388,0,0,0,.081-.384Z" transform="translate(-265.968 -288.514)" fill="#d1d1d6" fill-rule="evenodd"/>
            </g>
            <g id="Grupo_1157412" data-name="Grupo 1157412" transform="translate(2.555)">
              <path id="Trazado_990609" data-name="Trazado 990609" d="M263.662,288.5h.049q.55,0,1.09.04l.151.476a15.143,15.143,0,0,0-2.358-.434l.014-.042Q263.13,288.5,263.662,288.5Z" transform="translate(-262.594 -288.501)" fill="#d1d1d6" fill-rule="evenodd"/>
            </g>
          </g>
        </g>
        <g id="Grupo_1157420" data-name="Grupo 1157420" transform="translate(0.371 33.92)">
          <g id="Grupo_1157415" data-name="Grupo 1157415" transform="translate(3.509)">
            <path id="Trazado_990610" data-name="Trazado 990610" d="M93.593,322.741l10.825-6.272c2.032-1.177,4.1-2.012,6.331-1.287,2.49.807,6.555,2.541,10.7,3.289a3.007,3.007,0,0,1,2.08,3.6c-.419,1.563-1.739,2.368-3.6,2.08l1.449.232a6.748,6.748,0,0,0,4.64-.808l10.408-6.062c8.09-4.712,9.279,2.537,6.589,4.193l-18.887,11.63a6.926,6.926,0,0,1-5.608.791l-13.7-3.671-5.073,2.929a2.049,2.049,0,0,1-2.794-.749l-4.1-7.106A2.049,2.049,0,0,1,93.593,322.741Z" transform="translate(-92.574 -314.912)" fill="#f6dccd" fill-rule="evenodd"/>
          </g>
          <g id="Grupo_1157416" data-name="Grupo 1157416" transform="translate(23.299 5.226)">
            <path id="Trazado_990611" data-name="Trazado 990611" d="M252.759,356.909a2.97,2.97,0,0,1-3.355,1.432c-2.244-.593-4.486-1.2-6.728-1.8a1.126,1.126,0,0,1,.583-2.175Z" transform="translate(-241.841 -354.325)" fill="#f1cbbc" fill-rule="evenodd"/>
          </g>
          <g id="Grupo_1157417" data-name="Grupo 1157417" transform="translate(3.509)">
            <path id="Trazado_990612" data-name="Trazado 990612" d="M93.593,322.741l10.825-6.272c2.032-1.177,4.1-2.012,6.331-1.287,1.332.432,3.115,1.129,5.12,1.8L94.9,329.087l-2.052-3.554a2.049,2.049,0,0,1,.746-2.792Z" transform="translate(-92.574 -314.912)" fill="#f1cbbc" fill-rule="evenodd"/>
          </g>
          <g id="Grupo_1157418" data-name="Grupo 1157418" transform="translate(0 3.933)">
            <path id="Trazado_990613" data-name="Trazado 990613" d="M71.894,345.353l8.585,15.169a1.537,1.537,0,0,1-.579,2.088l-2.92,1.653a1.537,1.537,0,0,1-2.088-.579l-8.585-15.169a1.537,1.537,0,0,1,.579-2.088l2.92-1.653A1.537,1.537,0,0,1,71.894,345.353Z" transform="translate(-66.109 -344.577)" fill="#d1d1d6" fill-rule="evenodd"/>
          </g>
          <g id="Grupo_1157419" data-name="Grupo 1157419" transform="translate(4 3.933)">
            <path id="Trazado_990614" data-name="Trazado 990614" d="M102.58,355.775l1.52,2.685,1.5,2.655a1.537,1.537,0,0,1-.574,2.086l1.043-.59a1.537,1.537,0,0,0,.579-2.088l-1.508-2.664-3.027-5.349-3.031-5.355-1.019-1.8a1.538,1.538,0,0,0-1.785-.709l1.765,3.118,3.027,5.349,1.508,2.664Z" transform="translate(-96.28 -344.576)" fill="#b1b1b5" fill-rule="evenodd"/>
          </g>
        </g>
      </g>
      <g id="Grupo_1157422" data-name="Grupo 1157422">
        <path id="Trazado_990615" data-name="Trazado 990615" d="M30.347,56.624a1.056,1.056,0,1,1-1.2-.892A1.051,1.051,0,0,1,30.347,56.624ZM34.489,8.112h-.508a1.06,1.06,0,0,0-.807,1.03v2.077a1.061,1.061,0,1,0,2.122,0V9.142A1.061,1.061,0,0,0,34.489,8.112ZM79.548,54.946,60.414,66.726a5.97,5.97,0,0,1-4.849.68L41.686,63.688a1.066,1.066,0,0,0-.805.106l-2,1.155-5.092-9,7.751-4.488c1.729-1,3.6-1.844,5.554-1.212.637.207,1.373.474,2.228.782a54.825,54.825,0,0,0,8.668,2.57,1.969,1.969,0,0,1,1.348,2.345,1.888,1.888,0,0,1-2.3,1.355c-1.541-.318-3.014-.738-4.568-1.183-.743-.212-1.51-.43-2.3-.641a1.061,1.061,0,0,0-.549,2.049c.768.207,1.529.423,2.259.632,1.61.459,3.133.894,4.768,1.229l.031.006.025.005,1.3.212a7.87,7.87,0,0,0,5.4-.949l10.54-6.14c2.964-1.728,5.242-1.925,6.078-.524a2.329,2.329,0,0,1-.493,2.952ZM38.959,69.689a.464.464,0,0,0-.044-.373L30.222,53.951a.493.493,0,0,0-.3-.23.486.486,0,0,0-.131-.019.46.46,0,0,0-.237.062L26.6,55.439a.473.473,0,0,0-.231.3.463.463,0,0,0,.044.373L35.1,71.474a.5.5,0,0,0,.674.185l2.958-1.674a.479.479,0,0,0,.225-.3Zm7.389-33.166a7,7,0,1,1,7,7h-.006A7.007,7.007,0,0,1,46.348,36.523Zm6.634,9.126-1.267,3.985c1.142.4,2.365.808,3.632,1.165L53.712,45.65c-.119,0-.243-.007-.362-.007h-.006C53.225,45.644,53.106,45.646,52.982,45.649Zm-3.264,3.269c-.711-.258-1.385-.5-1.972-.687a6.552,6.552,0,0,0-2.3-.32,14.7,14.7,0,0,1,5.242-2.029Zm17.112,5.3a14.788,14.788,0,0,0-10.821-8.338l1.754,5.512c.231.047.456.092.687.134a.883.883,0,0,1,.137.035,4.123,4.123,0,0,1,2.808,4.932,4.423,4.423,0,0,1-.349.9,5.669,5.669,0,0,0,1.3-.566ZM81.863,50.9c-.568-.946-2.889-3.758-8.968-.218l-4.225,2.461a17.021,17.021,0,0,0-10.453-8.916,9.123,9.123,0,1,0-9.742,0,16.957,16.957,0,0,0-8.337,5.592l-7.4,4.282-.674-1.2a2.621,2.621,0,0,0-3.563-.987l-2.958,1.674a2.615,2.615,0,0,0-.986,3.561l8.693,15.365a2.6,2.6,0,0,0,1.579,1.229,2.628,2.628,0,0,0,.705.1,2.6,2.6,0,0,0,1.279-.339l2.958-1.674a2.615,2.615,0,0,0,.986-3.561L39.927,66.8l1.635-.944,13.455,3.6a8.665,8.665,0,0,0,2.247.3,8.051,8.051,0,0,0,4.262-1.226l19.134-11.78a4.441,4.441,0,0,0,1.2-5.849ZM44.831,18.4a1.058,1.058,0,0,1,.393-1.449l1.8-1.038a1.061,1.061,0,0,1,1.061,1.837l-1.8,1.038a1.019,1.019,0,0,1-.524.142A1.069,1.069,0,0,1,44.831,18.4Zm-4.868-5.929,1.042-1.8a1.06,1.06,0,1,1,1.835,1.06l-1.036,1.8a1.062,1.062,0,1,1-1.841-1.06ZM23.632,18.4a1.059,1.059,0,0,1-1.448.388l-1.8-1.038a1.061,1.061,0,1,1,1.061-1.837l1.8,1.038A1.062,1.062,0,0,1,23.632,18.4Zm1.991-6.668a1.062,1.062,0,1,1,1.841-1.06l1.036,1.8a1.06,1.06,0,0,1-.917,1.591,1.051,1.051,0,0,1-.917-.531Zm11.2,12.338v-.989a.986.986,0,1,1,.986.989Zm-2.584-8.811a7.768,7.768,0,0,1,7.757,7.758,7.19,7.19,0,0,1-1.3,4.2,14.253,14.253,0,0,0-2.178,6.558h-1.7V26.193H37.8a3.11,3.11,0,1,0-3.108-3.11v.989h-.924v-.989a3.111,3.111,0,1,0-3.114,3.11h.992v7.588h-1.7a14.254,14.254,0,0,0-2.178-6.558,7.189,7.189,0,0,1-1.292-4.2,7.763,7.763,0,0,1,7.757-7.758Zm.93,27.118h-1.86a.376.376,0,0,1-.374-.373v-.372h2.6v.372A.375.375,0,0,1,35.165,42.379Zm1.467-2.866h-4.8a.38.38,0,0,1-.374-.372v-.373h5.548v.373A.376.376,0,0,1,36.631,39.512Zm1.8-3.61v.373a.375.375,0,0,1-.368.372H30.4a.375.375,0,0,1-.368-.372V35.9ZM34.7,33.781h-.924V26.193H34.7Zm-3.045-9.71v-.989a.989.989,0,1,0-.992.989Zm-3.744,10.8a12.535,12.535,0,0,0-1.966-6.582,9.246,9.246,0,0,1-1.585-5.276,9.879,9.879,0,1,1,19.758,0,9.244,9.244,0,0,1-1.591,5.276,12.6,12.6,0,0,0-1.966,6.584v1.4a2.5,2.5,0,0,1-1.429,2.253v.612a2.494,2.494,0,0,1-1.473,2.271v.595a2.494,2.494,0,0,1-2.49,2.494H33.3a2.5,2.5,0,0,1-2.5-2.494v-.595a2.489,2.489,0,0,1-1.467-2.271v-.613a2.49,2.49,0,0,1-1.435-2.253Zm46.087-6.038a.541.541,0,0,0,.119-.462c-.031-.237-.094-.792-1.779-1.068-2.765-.455-3.251-2.032-3.295-2.931a3.07,3.07,0,0,1,2.4-3.105V21a1.061,1.061,0,0,1,2.122,0v.259a3.489,3.489,0,0,1,2.378,2.08,1.059,1.059,0,1,1-1.953.821,1.6,1.6,0,0,0-1.885-.871c-.225.052-.974.277-.942.982.012.19.037.7,1.523.94,2.159.355,3.351,1.332,3.545,2.906a2.676,2.676,0,0,1-.624,2.106,3.728,3.728,0,0,1-2.041,1.123v.231a1.061,1.061,0,0,1-2.122,0V31.33A3.5,3.5,0,0,1,68.789,28.8a1.061,1.061,0,0,1,2.059-.513,1.628,1.628,0,0,0,1.735,1.055,2.083,2.083,0,0,0,1.411-.5Zm-1.5-9.844a7.3,7.3,0,1,1-7.3,7.3A7.308,7.308,0,0,1,72.5,18.994Zm0,16.715a9.419,9.419,0,1,1,9.423-9.418A9.429,9.429,0,0,1,72.5,35.709Z" transform="translate(-19.852 -8.112)" fill="#242222" fill-rule="evenodd"/>
      </g>
    </g>
  </g>
</svg>
