<svg xmlns="http://www.w3.org/2000/svg" width="821" height="404.962" viewBox="0 0 821 404.962">
  <g id="Grupo_1157341" data-name="Grupo 1157341" transform="translate(-409 -7317.038)">
    <path id="Trazado_989367" data-name="Trazado 989367" d="M-247.5,7219v-34.553h568v34.747" transform="translate(782 219.038)" fill="none" stroke="#204a7b" stroke-width="1"/>
    <path id="Trazado_989368" data-name="Trazado 989368" d="M120.5,7065.24v80.534" transform="translate(680 296.038)" fill="none" stroke="#204a7b" stroke-width="1"/>
    <rect id="Rectángulo_404730" data-name="Rectángulo 404730" width="247" height="70" transform="translate(678 7317.038)" fill="#fd3"/>
    <path id="Trazado_994637" data-name="Trazado 994637" d="M17.066,20.2a8.292,8.292,0,0,1-4-.88,5.737,5.737,0,0,1-2.44-2.5,8.407,8.407,0,0,1-.82-3.84,8.033,8.033,0,0,1,.88-3.87,6.1,6.1,0,0,1,2.53-2.52,8.256,8.256,0,0,1,3.97-.89,8.1,8.1,0,0,1,2.7.41,6.111,6.111,0,0,1,2.04,1.19l-.86,2a7.914,7.914,0,0,0-1.22-.8,4.7,4.7,0,0,0-1.2-.43,7.077,7.077,0,0,0-1.44-.13A4.5,4.5,0,0,0,13.7,9.25,5.387,5.387,0,0,0,12.506,13a5.455,5.455,0,0,0,1.13,3.72A4.5,4.5,0,0,0,17.186,18a8.7,8.7,0,0,0,1.65-.16,10.056,10.056,0,0,0,1.63-.46l-.48,1.08V14.24h-3.3V12.36h5.44v6.78a9.259,9.259,0,0,1-2.34.78A13.456,13.456,0,0,1,17.066,20.2Zm12.682,0a5.468,5.468,0,0,1-3.98-1.4,5.107,5.107,0,0,1-1.44-3.84,5.852,5.852,0,0,1,.62-2.76,4.561,4.561,0,0,1,1.73-1.84,4.972,4.972,0,0,1,2.59-.66,4.48,4.48,0,0,1,2.44.62,3.93,3.93,0,0,1,1.49,1.74,6.27,6.27,0,0,1,.51,2.62v.66h-7.36V14.02h5.58l-.34.28A3.367,3.367,0,0,0,31,12.16a2.058,2.058,0,0,0-1.71-.74,2.258,2.258,0,0,0-1.91.88,3.982,3.982,0,0,0-.67,2.46v.26a3.33,3.33,0,0,0,.81,2.45,3.1,3.1,0,0,0,2.29.81,5.464,5.464,0,0,0,1.61-.23,4.54,4.54,0,0,0,1.43-.75l.74,1.68a5.271,5.271,0,0,1-1.72.9A6.915,6.915,0,0,1,29.748,20.2ZM35.81,20V12.48q0-.64-.03-1.3T35.67,9.9h2.42l.28,2.76h-.4A4.275,4.275,0,0,1,38.64,11a2.938,2.938,0,0,1,1.15-.98,3.432,3.432,0,0,1,1.48-.32,4.475,4.475,0,0,1,.58.03,2.126,2.126,0,0,1,.44.11l-.02,2.2a2.789,2.789,0,0,0-.65-.2,4.688,4.688,0,0,0-.67-.04,2.736,2.736,0,0,0-1.45.36,2.214,2.214,0,0,0-.88,1,3.5,3.5,0,0,0-.29,1.46V20Zm12.6.2a5.468,5.468,0,0,1-3.98-1.4,5.107,5.107,0,0,1-1.44-3.84,5.852,5.852,0,0,1,.62-2.76,4.561,4.561,0,0,1,1.73-1.84,4.972,4.972,0,0,1,2.59-.66,4.48,4.48,0,0,1,2.44.62,3.93,3.93,0,0,1,1.49,1.74,6.27,6.27,0,0,1,.51,2.62v.66h-7.36V14.02h5.58l-.34.28a3.367,3.367,0,0,0-.59-2.14,2.058,2.058,0,0,0-1.71-.74,2.258,2.258,0,0,0-1.91.88,3.982,3.982,0,0,0-.67,2.46v.26a3.33,3.33,0,0,0,.81,2.45,3.1,3.1,0,0,0,2.29.81,5.464,5.464,0,0,0,1.61-.23,4.54,4.54,0,0,0,1.43-.75l.74,1.68a5.271,5.271,0,0,1-1.72.9A6.915,6.915,0,0,1,48.412,20.2Zm6.082-.2V12.42q0-.62-.04-1.26t-.12-1.26h2.42l.2,2h-.24a3.577,3.577,0,0,1,1.42-1.63,4.121,4.121,0,0,1,2.18-.57,3.422,3.422,0,0,1,2.68,1,4.565,4.565,0,0,1,.9,3.12V20h-2.5V13.94a2.618,2.618,0,0,0-.47-1.75,1.787,1.787,0,0,0-1.41-.53,2.41,2.41,0,0,0-1.84.72,2.682,2.682,0,0,0-.68,1.92V20Zm16.382.2a3.642,3.642,0,0,1-2.72-.94,3.882,3.882,0,0,1-.92-2.82V11.78H65.3V9.9h1.94V7.32l2.5-.64V9.9h2.7v1.88h-2.7v4.5a2.1,2.1,0,0,0,.4,1.46,1.447,1.447,0,0,0,1.1.42,3.039,3.039,0,0,0,.65-.06,3.726,3.726,0,0,0,.53-.16v1.98a3.523,3.523,0,0,1-.75.21A4.694,4.694,0,0,1,70.876,20.2Zm8.042,0a5.468,5.468,0,0,1-3.98-1.4,5.107,5.107,0,0,1-1.44-3.84,5.852,5.852,0,0,1,.62-2.76,4.561,4.561,0,0,1,1.73-1.84,4.972,4.972,0,0,1,2.59-.66,4.48,4.48,0,0,1,2.44.62,3.93,3.93,0,0,1,1.49,1.74,6.27,6.27,0,0,1,.51,2.62v.66h-7.36V14.02H81.1l-.34.28a3.367,3.367,0,0,0-.59-2.14,2.058,2.058,0,0,0-1.71-.74,2.258,2.258,0,0,0-1.91.88,3.982,3.982,0,0,0-.67,2.46v.26a3.33,3.33,0,0,0,.81,2.45,3.1,3.1,0,0,0,2.29.81,5.464,5.464,0,0,0,1.61-.23,4.54,4.54,0,0,0,1.43-.75l.74,1.68a5.271,5.271,0,0,1-1.72.9A6.915,6.915,0,0,1,78.918,20.2Zm18.564,0a8.292,8.292,0,0,1-4-.88,5.737,5.737,0,0,1-2.44-2.5,8.407,8.407,0,0,1-.82-3.84,8.033,8.033,0,0,1,.88-3.87,6.1,6.1,0,0,1,2.53-2.52A8.256,8.256,0,0,1,97.6,5.7a8.1,8.1,0,0,1,2.7.41,6.11,6.11,0,0,1,2.04,1.19l-.86,2a7.914,7.914,0,0,0-1.22-.8,4.7,4.7,0,0,0-1.2-.43,7.077,7.077,0,0,0-1.44-.13,4.5,4.5,0,0,0-3.51,1.31A5.387,5.387,0,0,0,92.922,13a5.455,5.455,0,0,0,1.13,3.72A4.5,4.5,0,0,0,97.6,18a8.7,8.7,0,0,0,1.65-.16,10.056,10.056,0,0,0,1.63-.46l-.48,1.08V14.24H97.1V12.36h5.44v6.78a9.259,9.259,0,0,1-2.34.78A13.456,13.456,0,0,1,97.482,20.2Zm12.682,0a5.468,5.468,0,0,1-3.98-1.4,5.107,5.107,0,0,1-1.44-3.84,5.852,5.852,0,0,1,.62-2.76,4.561,4.561,0,0,1,1.73-1.84,4.972,4.972,0,0,1,2.59-.66,4.48,4.48,0,0,1,2.44.62,3.93,3.93,0,0,1,1.49,1.74,6.27,6.27,0,0,1,.51,2.62v.66h-7.36V14.02h5.58l-.34.28a3.367,3.367,0,0,0-.59-2.14,2.058,2.058,0,0,0-1.71-.74,2.258,2.258,0,0,0-1.91.88,3.982,3.982,0,0,0-.67,2.46v.26a3.33,3.33,0,0,0,.81,2.45,3.1,3.1,0,0,0,2.29.81,5.464,5.464,0,0,0,1.61-.23,4.54,4.54,0,0,0,1.43-.75l.74,1.68a5.271,5.271,0,0,1-1.72.9A6.915,6.915,0,0,1,110.164,20.2Zm6.082-.2V12.42q0-.62-.04-1.26t-.12-1.26h2.42l.2,2h-.24a3.577,3.577,0,0,1,1.42-1.63,4.121,4.121,0,0,1,2.18-.57,3.422,3.422,0,0,1,2.68,1,4.565,4.565,0,0,1,.9,3.12V20h-2.5V13.94a2.618,2.618,0,0,0-.47-1.75,1.787,1.787,0,0,0-1.41-.53,2.41,2.41,0,0,0-1.84.72,2.682,2.682,0,0,0-.68,1.92V20Zm16.942.2a5.468,5.468,0,0,1-3.98-1.4,5.107,5.107,0,0,1-1.44-3.84,5.852,5.852,0,0,1,.62-2.76,4.561,4.561,0,0,1,1.73-1.84,4.972,4.972,0,0,1,2.59-.66,4.48,4.48,0,0,1,2.44.62,3.93,3.93,0,0,1,1.49,1.74,6.27,6.27,0,0,1,.51,2.62v.66h-7.36V14.02h5.58l-.34.28a3.367,3.367,0,0,0-.59-2.14,2.058,2.058,0,0,0-1.71-.74,2.258,2.258,0,0,0-1.91.88,3.982,3.982,0,0,0-.67,2.46v.26a3.33,3.33,0,0,0,.81,2.45,3.1,3.1,0,0,0,2.29.81,5.464,5.464,0,0,0,1.61-.23,4.54,4.54,0,0,0,1.43-.75l.74,1.68a5.271,5.271,0,0,1-1.72.9A6.915,6.915,0,0,1,133.188,20.2Zm6.062-.2V12.48q0-.64-.03-1.3t-.11-1.28h2.42l.28,2.76h-.4a4.275,4.275,0,0,1,.67-1.66,2.938,2.938,0,0,1,1.15-.98,3.432,3.432,0,0,1,1.48-.32,4.475,4.475,0,0,1,.58.03,2.126,2.126,0,0,1,.44.11l-.02,2.2a2.789,2.789,0,0,0-.65-.2,4.688,4.688,0,0,0-.67-.04,2.736,2.736,0,0,0-1.45.36,2.214,2.214,0,0,0-.88,1,3.5,3.5,0,0,0-.29,1.46V20Zm11.682.2a4.26,4.26,0,0,1-2.32-.63,4.207,4.207,0,0,1-1.56-1.81,6.527,6.527,0,0,1-.56-2.82,6.46,6.46,0,0,1,.56-2.81,4.1,4.1,0,0,1,3.88-2.43,4.038,4.038,0,0,1,2.25.63,3,3,0,0,1,1.29,1.69h-.22l.22-2.12h2.4q-.06.62-.11,1.26t-.05,1.26V20h-2.48l-.02-2.08h.24a2.951,2.951,0,0,1-1.3,1.66A4.064,4.064,0,0,1,150.932,20.2Zm.7-1.92a2.392,2.392,0,0,0,1.9-.83,3.747,3.747,0,0,0,.72-2.51,3.706,3.706,0,0,0-.72-2.5,2.611,2.611,0,0,0-3.8,0,3.706,3.706,0,0,0-.72,2.5,3.784,3.784,0,0,0,.71,2.51A2.385,2.385,0,0,0,151.632,18.28Zm7.8,1.72V5.28h2.5V20Z" transform="translate(716 7340.038)" fill="#212429"/>
    <path id="Trazado_989372" data-name="Trazado 989372" d="M-371.084,7211.089v215.045h26.721" transform="translate(1083.816 268.366)" fill="none" stroke="#204a7b" stroke-width="1"/>
    <path id="Trazado_989373" data-name="Trazado 989373" d="M-351.911,7383.572h-24.045" transform="translate(1088.911 234.794)" fill="none" stroke="#204a7b" stroke-width="1"/>
    <path id="Trazado_989374" data-name="Trazado 989374" d="M-351.911,7281.146h-24.342" transform="translate(1088.911 259.22)" fill="none" stroke="#204a7b" stroke-width="1"/>
    <g id="Rectángulo_404730-2" data-name="Rectángulo 404730" transform="translate(697 7428)" fill="#d8f5f5" stroke="#204a7b" stroke-width="1">
      <rect width="251" height="58" stroke="none"/>
      <rect x="0.5" y="0.5" width="250" height="57" fill="none"/>
    </g>
    <path id="Trazado_994642" data-name="Trazado 994642" d="M10.854,18.18a7.463,7.463,0,0,1-3.6-.792,5.164,5.164,0,0,1-2.2-2.25,7.567,7.567,0,0,1-.738-3.456A7.23,7.23,0,0,1,5.112,8.2,5.494,5.494,0,0,1,7.389,5.931a7.43,7.43,0,0,1,3.573-.8,7.286,7.286,0,0,1,2.43.369A5.5,5.5,0,0,1,15.228,6.57l-.774,1.8a7.123,7.123,0,0,0-1.1-.72,4.233,4.233,0,0,0-1.08-.387,6.37,6.37,0,0,0-1.3-.117A4.053,4.053,0,0,0,7.821,8.325,4.848,4.848,0,0,0,6.75,11.7a4.91,4.91,0,0,0,1.017,3.348,4.05,4.05,0,0,0,3.2,1.152,7.83,7.83,0,0,0,1.485-.144,9.05,9.05,0,0,0,1.467-.414l-.432.972v-3.8h-2.97V11.124h4.9v6.1a8.333,8.333,0,0,1-2.106.7A12.111,12.111,0,0,1,10.854,18.18ZM17.622,18V15.5h2.52V18Zm13.176.18a3.879,3.879,0,0,1-2.1-.567,3.765,3.765,0,0,1-1.413-1.629,5.874,5.874,0,0,1-.5-2.538,5.814,5.814,0,0,1,.5-2.529A3.775,3.775,0,0,1,28.7,9.3a3.879,3.879,0,0,1,2.1-.567,3.69,3.69,0,0,1,2.007.549,2.628,2.628,0,0,1,1.161,1.485h-.234V4.752h2.25V18H33.768V16.074h.216a2.7,2.7,0,0,1-1.161,1.539A3.634,3.634,0,0,1,30.8,18.18Zm.63-1.728a2.153,2.153,0,0,0,1.71-.747,3.373,3.373,0,0,0,.648-2.259,3.335,3.335,0,0,0-.648-2.25,2.165,2.165,0,0,0-1.71-.738,2.192,2.192,0,0,0-1.719.738,3.3,3.3,0,0,0-.657,2.25,3.34,3.34,0,0,0,.657,2.259A2.18,2.18,0,0,0,31.428,16.452ZM42.822,18.18a4.921,4.921,0,0,1-3.582-1.26,4.6,4.6,0,0,1-1.3-3.456A5.267,5.267,0,0,1,38.5,10.98a4.1,4.1,0,0,1,1.557-1.656A4.475,4.475,0,0,1,42.39,8.73a4.032,4.032,0,0,1,2.2.558,3.537,3.537,0,0,1,1.341,1.566,5.643,5.643,0,0,1,.459,2.358v.594H39.762V12.618h5.022l-.306.252a3.031,3.031,0,0,0-.531-1.926,1.852,1.852,0,0,0-1.539-.666,2.032,2.032,0,0,0-1.719.792,3.584,3.584,0,0,0-.6,2.214v.234a3,3,0,0,0,.729,2.2,2.787,2.787,0,0,0,2.061.729,4.918,4.918,0,0,0,1.449-.207,4.086,4.086,0,0,0,1.287-.675l.666,1.512a4.744,4.744,0,0,1-1.548.81A6.223,6.223,0,0,1,42.822,18.18Zm14.58,0a5.04,5.04,0,0,1-2.457-.576,3.99,3.99,0,0,1-1.629-1.647,5.3,5.3,0,0,1-.576-2.547,5.081,5.081,0,0,1,.585-2.52,3.989,3.989,0,0,1,1.629-1.6A5.119,5.119,0,0,1,57.4,8.73a5.622,5.622,0,0,1,1.755.279,3.558,3.558,0,0,1,1.4.8l-.684,1.566a3.277,3.277,0,0,0-1.089-.675,3.36,3.36,0,0,0-1.179-.225,2.391,2.391,0,0,0-1.881.756,3.2,3.2,0,0,0-.675,2.2,3.267,3.267,0,0,0,.675,2.214,2.364,2.364,0,0,0,1.881.774,3.437,3.437,0,0,0,1.161-.216,3.348,3.348,0,0,0,1.107-.666l.684,1.548a3.819,3.819,0,0,1-1.413.81A5.408,5.408,0,0,1,57.4,18.18Zm8.82,0a4.885,4.885,0,0,1-2.43-.576A3.992,3.992,0,0,1,62.2,15.966a5.279,5.279,0,0,1-.567-2.52,5.225,5.225,0,0,1,.567-2.511,4.006,4.006,0,0,1,1.593-1.629,4.885,4.885,0,0,1,2.43-.576,4.937,4.937,0,0,1,2.439.576,3.99,3.99,0,0,1,1.6,1.629,5.225,5.225,0,0,1,.567,2.511,5.279,5.279,0,0,1-.567,2.52,3.976,3.976,0,0,1-1.6,1.638A4.937,4.937,0,0,1,66.222,18.18Zm0-1.728a2.1,2.1,0,0,0,1.692-.747,3.44,3.44,0,0,0,.63-2.259,3.4,3.4,0,0,0-.63-2.25,2.309,2.309,0,0,0-3.384,0,3.4,3.4,0,0,0-.63,2.25,3.44,3.44,0,0,0,.63,2.259A2.1,2.1,0,0,0,66.222,16.452ZM72.774,18V11.178q0-.558-.036-1.134T72.63,8.91h2.178l.18,1.8h-.216a3.093,3.093,0,0,1,1.161-1.458A3.28,3.28,0,0,1,77.8,8.73a2.983,2.983,0,0,1,1.791.513,2.751,2.751,0,0,1,1,1.593H80.3A3.171,3.171,0,0,1,81.54,9.3a3.527,3.527,0,0,1,1.98-.567,2.817,2.817,0,0,1,2.286.9,4.314,4.314,0,0,1,.756,2.808V18h-2.25V12.528a2.622,2.622,0,0,0-.36-1.557,1.35,1.35,0,0,0-1.152-.477,1.808,1.808,0,0,0-1.476.657,2.708,2.708,0,0,0-.54,1.773V18h-2.25V12.528a2.622,2.622,0,0,0-.36-1.557,1.35,1.35,0,0,0-1.152-.477,1.783,1.783,0,0,0-1.467.657,2.74,2.74,0,0,0-.531,1.773V18Zm20.574.18a4.921,4.921,0,0,1-3.582-1.26,4.6,4.6,0,0,1-1.3-3.456,5.267,5.267,0,0,1,.558-2.484,4.1,4.1,0,0,1,1.557-1.656,4.475,4.475,0,0,1,2.331-.594,4.032,4.032,0,0,1,2.2.558,3.537,3.537,0,0,1,1.341,1.566,5.643,5.643,0,0,1,.459,2.358v.594H90.288V12.618H95.31L95,12.87a3.031,3.031,0,0,0-.531-1.926,1.852,1.852,0,0,0-1.539-.666,2.032,2.032,0,0,0-1.719.792,3.584,3.584,0,0,0-.6,2.214v.234a3,3,0,0,0,.729,2.2,2.787,2.787,0,0,0,2.061.729,4.918,4.918,0,0,0,1.449-.207,4.086,4.086,0,0,0,1.287-.675l.666,1.512a4.744,4.744,0,0,1-1.548.81A6.223,6.223,0,0,1,93.348,18.18ZM98.8,18V11.232q0-.576-.027-1.17t-.1-1.152h2.178l.252,2.484h-.36a3.848,3.848,0,0,1,.6-1.494,2.644,2.644,0,0,1,1.035-.882,3.089,3.089,0,0,1,1.332-.288,4.028,4.028,0,0,1,.522.027,1.913,1.913,0,0,1,.4.1l-.018,1.98a2.51,2.51,0,0,0-.585-.18,4.219,4.219,0,0,0-.6-.036,2.462,2.462,0,0,0-1.305.324,1.993,1.993,0,0,0-.792.9,3.152,3.152,0,0,0-.261,1.314V18Zm11.124.18a5.04,5.04,0,0,1-2.457-.576,3.99,3.99,0,0,1-1.629-1.647,5.3,5.3,0,0,1-.576-2.547,5.081,5.081,0,0,1,.585-2.52,3.989,3.989,0,0,1,1.629-1.6,5.119,5.119,0,0,1,2.448-.558,5.622,5.622,0,0,1,1.755.279,3.558,3.558,0,0,1,1.4.8l-.684,1.566A3.277,3.277,0,0,0,111.3,10.7a3.36,3.36,0,0,0-1.179-.225,2.391,2.391,0,0,0-1.881.756,3.2,3.2,0,0,0-.675,2.2,3.267,3.267,0,0,0,.675,2.214,2.364,2.364,0,0,0,1.881.774,3.437,3.437,0,0,0,1.161-.216,3.348,3.348,0,0,0,1.107-.666l.684,1.548a3.819,3.819,0,0,1-1.413.81A5.408,5.408,0,0,1,109.926,18.18Zm4.9-.18V8.91h2.25V18ZM114.7,7.2V5h2.5V7.2Zm8.334,10.98a3.834,3.834,0,0,1-2.088-.567,3.786,3.786,0,0,1-1.4-1.629,5.874,5.874,0,0,1-.5-2.538,5.814,5.814,0,0,1,.5-2.529A3.694,3.694,0,0,1,123.03,8.73a3.634,3.634,0,0,1,2.025.567,2.7,2.7,0,0,1,1.161,1.521h-.2l.2-1.908h2.16q-.054.558-.1,1.134t-.045,1.134V18H126l-.018-1.872h.216a2.656,2.656,0,0,1-1.17,1.494A3.658,3.658,0,0,1,123.03,18.18Zm.63-1.728a2.153,2.153,0,0,0,1.71-.747,3.373,3.373,0,0,0,.648-2.259,3.335,3.335,0,0,0-.648-2.25,2.35,2.35,0,0,0-3.42,0,3.335,3.335,0,0,0-.648,2.25,3.406,3.406,0,0,0,.639,2.259A2.146,2.146,0,0,0,123.66,16.452ZM130.68,18V4.752h2.25V18Zm4.7,0V8.91h2.25V18Zm-.126-10.8V5h2.5V7.2ZM139.716,18V16.524l5.688-6.462v.54h-5.688V8.91h7.722v1.476L141.7,16.9l-.018-.594h5.958V18Zm13.248.18a3.834,3.834,0,0,1-2.088-.567,3.786,3.786,0,0,1-1.4-1.629,5.874,5.874,0,0,1-.5-2.538,5.814,5.814,0,0,1,.5-2.529,3.694,3.694,0,0,1,3.492-2.187,3.634,3.634,0,0,1,2.025.567,2.7,2.7,0,0,1,1.161,1.521h-.2l.2-1.908h2.16q-.054.558-.1,1.134t-.045,1.134V18h-2.232l-.018-1.872h.216a2.656,2.656,0,0,1-1.17,1.494A3.658,3.658,0,0,1,152.964,18.18Zm.63-1.728a2.153,2.153,0,0,0,1.71-.747,3.373,3.373,0,0,0,.648-2.259,3.335,3.335,0,0,0-.648-2.25,2.35,2.35,0,0,0-3.42,0,3.335,3.335,0,0,0-.648,2.25,3.406,3.406,0,0,0,.639,2.259A2.146,2.146,0,0,0,153.594,16.452Zm11.2,1.728a5.04,5.04,0,0,1-2.457-.576,3.99,3.99,0,0,1-1.629-1.647,5.3,5.3,0,0,1-.576-2.547,5.081,5.081,0,0,1,.585-2.52,3.989,3.989,0,0,1,1.629-1.6,5.119,5.119,0,0,1,2.448-.558,5.622,5.622,0,0,1,1.755.279,3.558,3.558,0,0,1,1.4.8l-.684,1.566a3.277,3.277,0,0,0-1.089-.675,3.36,3.36,0,0,0-1.179-.225,2.391,2.391,0,0,0-1.881.756,3.2,3.2,0,0,0-.675,2.2,3.267,3.267,0,0,0,.675,2.214,2.364,2.364,0,0,0,1.881.774,3.437,3.437,0,0,0,1.161-.216,3.348,3.348,0,0,0,1.107-.666l.684,1.548a3.819,3.819,0,0,1-1.413.81A5.408,5.408,0,0,1,164.79,18.18Zm4.9-.18V8.91h2.25V18ZM169.56,7.2V5h2.5V7.2Zm8.928,10.98a4.886,4.886,0,0,1-2.43-.576,3.992,3.992,0,0,1-1.593-1.638,5.279,5.279,0,0,1-.567-2.52,5.225,5.225,0,0,1,.567-2.511,4.006,4.006,0,0,1,1.593-1.629,4.886,4.886,0,0,1,2.43-.576,4.937,4.937,0,0,1,2.439.576,3.99,3.99,0,0,1,1.6,1.629,5.225,5.225,0,0,1,.567,2.511,5.279,5.279,0,0,1-.567,2.52,3.976,3.976,0,0,1-1.6,1.638A4.937,4.937,0,0,1,178.488,18.18Zm0-1.728a2.1,2.1,0,0,0,1.692-.747,3.44,3.44,0,0,0,.63-2.259,3.4,3.4,0,0,0-.63-2.25,2.309,2.309,0,0,0-3.384,0,3.4,3.4,0,0,0-.63,2.25,3.44,3.44,0,0,0,.63,2.259A2.1,2.1,0,0,0,178.488,16.452Zm-.738-8.424L179.6,4.374h2.214l-2.556,3.654ZM185.04,18V11.178q0-.558-.036-1.134T184.9,8.91h2.178l.18,1.8h-.216a3.219,3.219,0,0,1,1.278-1.467,3.709,3.709,0,0,1,1.962-.513,3.08,3.08,0,0,1,2.412.9,4.109,4.109,0,0,1,.81,2.808V18h-2.25V12.546a2.356,2.356,0,0,0-.423-1.575,1.608,1.608,0,0,0-1.269-.477,2.169,2.169,0,0,0-1.656.648,2.414,2.414,0,0,0-.612,1.728V18Z" transform="translate(724 7446)" fill="#212429"/>
    <g id="Grupo_1155740" data-name="Grupo 1155740" transform="translate(736.863 7512.366)">
      <g id="Rectángulo_404730-3" data-name="Rectángulo 404730" transform="translate(0.137)" fill="#fef6e9" stroke="#fdc621" stroke-width="1">
        <rect width="211" height="56" stroke="none"/>
        <rect x="0.5" y="0.5" width="210" height="55" fill="none"/>
      </g>
      <path id="Trazado_994643" data-name="Trazado 994643" d="M1.584,18V5.31H6.75a4.474,4.474,0,0,1,3.078.963,3.4,3.4,0,0,1,1.08,2.673A3.409,3.409,0,0,1,9.828,11.6a4.42,4.42,0,0,1-3.078.981H3.078V18Zm1.494-6.66H6.606a3.074,3.074,0,0,0,2.1-.63,2.234,2.234,0,0,0,.711-1.764A2.256,2.256,0,0,0,8.7,7.164a3.074,3.074,0,0,0-2.1-.63H3.078ZM16.22,18.162A3.144,3.144,0,0,1,13.8,17.28a3.855,3.855,0,0,1-.819-2.7V8.964h1.458v5.58a2.757,2.757,0,0,0,.5,1.827,1.957,1.957,0,0,0,1.566.585,2.482,2.482,0,0,0,1.908-.774,2.918,2.918,0,0,0,.72-2.07V8.964h1.458V18H19.172V15.966h.234a3.243,3.243,0,0,1-1.215,1.62A3.391,3.391,0,0,1,16.22,18.162Zm7.2-.162V11.052q0-.5-.045-1.035t-.1-1.053h1.4l.18,1.98h-.216a3.127,3.127,0,0,1,1.269-1.593A3.723,3.723,0,0,1,27.94,8.8a3.2,3.2,0,0,1,2.421.855,3.781,3.781,0,0,1,.819,2.691V18H29.722V12.438a2.787,2.787,0,0,0-.513-1.863,2.01,2.01,0,0,0-1.593-.585,2.63,2.63,0,0,0-2,.774,2.875,2.875,0,0,0-.738,2.07V18Zm13.754.162a2.623,2.623,0,0,1-2.034-.765,3.323,3.323,0,0,1-.7-2.313V10.1H32.675V8.964h1.764V6.5L35.9,6.084v2.88h2.592V10.1H35.9v4.824a2.486,2.486,0,0,0,.369,1.539,1.335,1.335,0,0,0,1.107.459,2.7,2.7,0,0,0,.612-.063,3.093,3.093,0,0,0,.486-.153v1.224a2.791,2.791,0,0,1-.6.171A3.917,3.917,0,0,1,37.175,18.162Zm6.716,0a4.371,4.371,0,0,1-2.259-.567,3.776,3.776,0,0,1-1.485-1.62,5.554,5.554,0,0,1-.522-2.493,5.541,5.541,0,0,1,.522-2.5,3.787,3.787,0,0,1,1.485-1.611,4.819,4.819,0,0,1,4.536,0,3.844,3.844,0,0,1,1.494,1.611,5.461,5.461,0,0,1,.531,2.5,5.475,5.475,0,0,1-.531,2.493,3.833,3.833,0,0,1-1.494,1.62A4.407,4.407,0,0,1,43.891,18.162Zm0-1.188a2.551,2.551,0,0,0,2.052-.891,3.922,3.922,0,0,0,.756-2.6,3.92,3.92,0,0,0-.765-2.619,2.557,2.557,0,0,0-2.043-.891,2.531,2.531,0,0,0-2.034.891,3.953,3.953,0,0,0-.756,2.619,3.922,3.922,0,0,0,.756,2.6A2.531,2.531,0,0,0,43.891,16.974Zm9.578,1.188a6.631,6.631,0,0,1-2.016-.3,4.246,4.246,0,0,1-1.548-.837l.5-1.026a4.637,4.637,0,0,0,1.449.774,5.284,5.284,0,0,0,1.629.252,2.826,2.826,0,0,0,1.629-.387,1.239,1.239,0,0,0,.549-1.071,1.07,1.07,0,0,0-.351-.837,2.581,2.581,0,0,0-1.143-.495L52.5,13.9a3.3,3.3,0,0,1-1.728-.855,2.137,2.137,0,0,1-.576-1.539,2.4,2.4,0,0,1,.414-1.395,2.784,2.784,0,0,1,1.206-.954A4.543,4.543,0,0,1,53.667,8.8a5.428,5.428,0,0,1,1.827.3,3.677,3.677,0,0,1,1.4.855l-.522,1.008a3.566,3.566,0,0,0-1.233-.783A4.028,4.028,0,0,0,53.7,9.918a2.524,2.524,0,0,0-1.593.423,1.348,1.348,0,0,0-.531,1.107,1.157,1.157,0,0,0,.333.855,2.113,2.113,0,0,0,1.035.5l1.674.342a3.841,3.841,0,0,1,1.827.837,1.988,1.988,0,0,1,.6,1.521,2.3,2.3,0,0,1-.45,1.413,2.849,2.849,0,0,1-1.251.927A5,5,0,0,1,53.469,18.162Zm14.044,0a3.834,3.834,0,0,1-2.088-.567,3.747,3.747,0,0,1-1.395-1.611,5.8,5.8,0,0,1-.5-2.5,5.844,5.844,0,0,1,.5-2.52,3.688,3.688,0,0,1,1.395-1.6A3.88,3.88,0,0,1,67.513,8.8a3.643,3.643,0,0,1,2.115.612,2.962,2.962,0,0,1,1.2,1.656h-.216V4.752h1.458V18h-1.44V15.84h.2a2.911,2.911,0,0,1-1.188,1.7A3.647,3.647,0,0,1,67.513,18.162Zm.306-1.188a2.584,2.584,0,0,0,2.052-.891,3.859,3.859,0,0,0,.774-2.6,3.889,3.889,0,0,0-.774-2.619,2.584,2.584,0,0,0-2.052-.891,2.557,2.557,0,0,0-2.043.891,3.92,3.92,0,0,0-.765,2.619,3.89,3.89,0,0,0,.765,2.6A2.557,2.557,0,0,0,67.819,16.974Zm11.09,1.188a4.505,4.505,0,0,1-3.348-1.233A4.654,4.654,0,0,1,74.336,13.5a5.356,5.356,0,0,1,.54-2.475,3.992,3.992,0,0,1,1.512-1.638A4.243,4.243,0,0,1,78.62,8.8a3.907,3.907,0,0,1,2.088.522A3.374,3.374,0,0,1,82,10.809a5.334,5.334,0,0,1,.45,2.277v.54h-7v-.918H81.5l-.306.234a3.512,3.512,0,0,0-.648-2.25,2.319,2.319,0,0,0-1.926-.81,2.546,2.546,0,0,0-2.106.945,3.963,3.963,0,0,0-.756,2.547v.162A3.569,3.569,0,0,0,76.6,16.1a3.1,3.1,0,0,0,2.349.873,4.672,4.672,0,0,0,1.521-.243,4.135,4.135,0,0,0,1.359-.8l.5,1.026a4.005,4.005,0,0,1-1.5.891A5.813,5.813,0,0,1,78.908,18.162ZM92.052,18l-3.87-9.036h1.584l3.24,7.956H92.52L95.8,8.964h1.512L93.438,18Zm10.784.162a4.505,4.505,0,0,1-3.348-1.233A4.654,4.654,0,0,1,98.264,13.5a5.356,5.356,0,0,1,.54-2.475,3.992,3.992,0,0,1,1.512-1.638,4.243,4.243,0,0,1,2.232-.585,3.907,3.907,0,0,1,2.088.522,3.374,3.374,0,0,1,1.3,1.485,5.334,5.334,0,0,1,.45,2.277v.54h-7v-.918h6.048l-.306.234a3.512,3.512,0,0,0-.648-2.25,2.319,2.319,0,0,0-1.926-.81,2.546,2.546,0,0,0-2.106.945,3.963,3.963,0,0,0-.756,2.547v.162a3.569,3.569,0,0,0,.837,2.565,3.1,3.1,0,0,0,2.349.873,4.672,4.672,0,0,0,1.521-.243,4.135,4.135,0,0,0,1.359-.8l.5,1.026a4.005,4.005,0,0,1-1.5.891A5.813,5.813,0,0,1,102.836,18.162Zm5.78-.162V11.052q0-.5-.045-1.035t-.1-1.053h1.4l.18,1.98h-.216a3.127,3.127,0,0,1,1.269-1.593,3.723,3.723,0,0,1,2.025-.549,3.2,3.2,0,0,1,2.421.855,3.781,3.781,0,0,1,.819,2.691V18h-1.458V12.438a2.787,2.787,0,0,0-.513-1.863,2.01,2.01,0,0,0-1.593-.585,2.63,2.63,0,0,0-2,.774,2.875,2.875,0,0,0-.738,2.07V18Zm13.754.162a2.623,2.623,0,0,1-2.034-.765,3.323,3.323,0,0,1-.7-2.313V10.1h-1.764V8.964h1.764V6.5l1.458-.414v2.88h2.592V10.1h-2.592v4.824a2.486,2.486,0,0,0,.369,1.539,1.335,1.335,0,0,0,1.107.459,2.7,2.7,0,0,0,.612-.063,3.092,3.092,0,0,0,.486-.153v1.224a2.791,2.791,0,0,1-.6.171A3.917,3.917,0,0,1,122.369,18.162Zm6.536,0a3.867,3.867,0,0,1-2.106-.567,3.747,3.747,0,0,1-1.395-1.611,5.8,5.8,0,0,1-.5-2.5,5.844,5.844,0,0,1,.5-2.52,3.688,3.688,0,0,1,1.395-1.6,3.914,3.914,0,0,1,2.106-.558,3.605,3.605,0,0,1,2.115.621,2.92,2.92,0,0,1,1.179,1.683h-.216l.2-2.142h1.4q-.054.522-.1,1.053t-.045,1.035V18h-1.458V15.876h.2a2.869,2.869,0,0,1-1.188,1.674A3.624,3.624,0,0,1,128.905,18.162Zm.288-1.188a2.551,2.551,0,0,0,2.052-.891,3.922,3.922,0,0,0,.756-2.6,3.953,3.953,0,0,0-.756-2.619,2.8,2.8,0,0,0-4.095,0,3.92,3.92,0,0,0-.765,2.619,3.89,3.89,0,0,0,.765,2.6A2.557,2.557,0,0,0,129.193,16.974Z" transform="translate(20.137 17)" fill="#212429"/>
    </g>
    <g id="Rectángulo_409117" data-name="Rectángulo 409117" transform="translate(737 7589.366)" fill="#fef6e9" stroke="#fdc621" stroke-width="1">
      <rect width="211" height="56" stroke="none"/>
      <rect x="0.5" y="0.5" width="210" height="55" fill="none"/>
    </g>
    <path id="Trazado_994644" data-name="Trazado 994644" d="M5.58,18,.054,5.31h1.6l4.914,11.5H6.012l4.95-11.5H12.51L6.948,18Zm11.36.162a4.505,4.505,0,0,1-3.348-1.233A4.654,4.654,0,0,1,12.368,13.5a5.356,5.356,0,0,1,.54-2.475A3.992,3.992,0,0,1,14.42,9.387,4.243,4.243,0,0,1,16.652,8.8a3.906,3.906,0,0,1,2.088.522,3.374,3.374,0,0,1,1.3,1.485,5.334,5.334,0,0,1,.45,2.277v.54h-7v-.918h6.048l-.306.234a3.512,3.512,0,0,0-.648-2.25,2.319,2.319,0,0,0-1.926-.81,2.546,2.546,0,0,0-2.106.945,3.963,3.963,0,0,0-.756,2.547v.162a3.569,3.569,0,0,0,.837,2.565,3.1,3.1,0,0,0,2.349.873,4.672,4.672,0,0,0,1.521-.243,4.135,4.135,0,0,0,1.359-.8l.5,1.026a4.005,4.005,0,0,1-1.5.891A5.813,5.813,0,0,1,16.94,18.162ZM22.72,18V11.052q0-.5-.045-1.035t-.1-1.053h1.4l.18,1.98h-.216a3.127,3.127,0,0,1,1.269-1.593A3.723,3.723,0,0,1,27.238,8.8a3.2,3.2,0,0,1,2.421.855,3.781,3.781,0,0,1,.819,2.691V18H29.02V12.438a2.787,2.787,0,0,0-.513-1.863,2.01,2.01,0,0,0-1.593-.585,2.63,2.63,0,0,0-2,.774,2.875,2.875,0,0,0-.738,2.07V18Zm13.97.162a3.834,3.834,0,0,1-2.088-.567,3.747,3.747,0,0,1-1.4-1.611,5.8,5.8,0,0,1-.5-2.5,5.844,5.844,0,0,1,.5-2.52,3.688,3.688,0,0,1,1.4-1.6A3.88,3.88,0,0,1,36.689,8.8a3.643,3.643,0,0,1,2.115.612A2.962,2.962,0,0,1,40,11.07h-.216V4.752h1.458V18H39.8V15.84H40a2.911,2.911,0,0,1-1.188,1.7A3.647,3.647,0,0,1,36.689,18.162ZM37,16.974a2.584,2.584,0,0,0,2.052-.891,3.859,3.859,0,0,0,.774-2.6,3.889,3.889,0,0,0-.774-2.619A2.584,2.584,0,0,0,37,9.972a2.557,2.557,0,0,0-2.043.891,3.92,3.92,0,0,0-.765,2.619,3.89,3.89,0,0,0,.765,2.6A2.557,2.557,0,0,0,37,16.974Zm11.09,1.188a4.505,4.505,0,0,1-3.348-1.233A4.654,4.654,0,0,1,43.513,13.5a5.356,5.356,0,0,1,.54-2.475,3.992,3.992,0,0,1,1.512-1.638A4.243,4.243,0,0,1,47.8,8.8a3.907,3.907,0,0,1,2.088.522,3.374,3.374,0,0,1,1.3,1.485,5.335,5.335,0,0,1,.45,2.277v.54h-7v-.918h6.048l-.306.234a3.512,3.512,0,0,0-.648-2.25,2.319,2.319,0,0,0-1.926-.81,2.546,2.546,0,0,0-2.106.945,3.963,3.963,0,0,0-.756,2.547v.162a3.569,3.569,0,0,0,.837,2.565,3.1,3.1,0,0,0,2.349.873,4.672,4.672,0,0,0,1.521-.243A4.135,4.135,0,0,0,51,15.93l.5,1.026a4.005,4.005,0,0,1-1.5.891A5.813,5.813,0,0,1,48.085,18.162Zm9.2,0a3.834,3.834,0,0,1-2.088-.567,3.747,3.747,0,0,1-1.4-1.611,5.8,5.8,0,0,1-.5-2.5,5.844,5.844,0,0,1,.5-2.52,3.688,3.688,0,0,1,1.4-1.6A3.88,3.88,0,0,1,57.285,8.8a3.643,3.643,0,0,1,2.115.612,2.962,2.962,0,0,1,1.2,1.656h-.216V4.752h1.458V18H60.4V15.84h.2a2.911,2.911,0,0,1-1.188,1.7A3.647,3.647,0,0,1,57.285,18.162Zm.306-1.188a2.584,2.584,0,0,0,2.052-.891,3.859,3.859,0,0,0,.774-2.6,3.889,3.889,0,0,0-.774-2.619,2.584,2.584,0,0,0-2.052-.891,2.557,2.557,0,0,0-2.043.891,3.92,3.92,0,0,0-.765,2.619,3.89,3.89,0,0,0,.765,2.6A2.557,2.557,0,0,0,57.591,16.974Zm10.784,1.188a4.371,4.371,0,0,1-2.259-.567,3.776,3.776,0,0,1-1.485-1.62,5.554,5.554,0,0,1-.522-2.493,5.541,5.541,0,0,1,.522-2.5,3.787,3.787,0,0,1,1.485-1.611,4.819,4.819,0,0,1,4.536,0,3.844,3.844,0,0,1,1.494,1.611,5.461,5.461,0,0,1,.531,2.5,5.475,5.475,0,0,1-.531,2.493,3.833,3.833,0,0,1-1.494,1.62A4.407,4.407,0,0,1,68.375,18.162Zm0-1.188a2.551,2.551,0,0,0,2.052-.891,3.922,3.922,0,0,0,.756-2.6,3.92,3.92,0,0,0-.765-2.619,2.557,2.557,0,0,0-2.043-.891,2.531,2.531,0,0,0-2.034.891,3.953,3.953,0,0,0-.756,2.619,3.922,3.922,0,0,0,.756,2.6A2.531,2.531,0,0,0,68.375,16.974ZM74.911,18V11.142q0-.54-.027-1.1T74.8,8.964h1.4l.18,2.2-.252.018a3,3,0,0,1,.63-1.332,2.881,2.881,0,0,1,1.062-.783A3.225,3.225,0,0,1,79.1,8.8q.27,0,.477.018a1.351,1.351,0,0,1,.387.09l-.018,1.3a2.537,2.537,0,0,0-.5-.117,4.347,4.347,0,0,0-.513-.027,2.481,2.481,0,0,0-1.377.378,2.448,2.448,0,0,0-.882.972,2.78,2.78,0,0,0-.3,1.26V18Zm15.286.162a4.505,4.505,0,0,1-3.348-1.233A4.654,4.654,0,0,1,85.624,13.5a5.356,5.356,0,0,1,.54-2.475,3.992,3.992,0,0,1,1.512-1.638A4.243,4.243,0,0,1,89.908,8.8,3.907,3.907,0,0,1,92,9.324a3.374,3.374,0,0,1,1.3,1.485,5.334,5.334,0,0,1,.45,2.277v.54h-7v-.918h6.048l-.306.234a3.512,3.512,0,0,0-.648-2.25,2.319,2.319,0,0,0-1.926-.81,2.546,2.546,0,0,0-2.106.945,3.963,3.963,0,0,0-.756,2.547v.162a3.569,3.569,0,0,0,.837,2.565,3.1,3.1,0,0,0,2.349.873,4.672,4.672,0,0,0,1.521-.243,4.135,4.135,0,0,0,1.359-.8l.5,1.026a4.005,4.005,0,0,1-1.5.891A5.813,5.813,0,0,1,90.2,18.162ZM94.68,18l4.05-5.022v.72L94.9,8.964H96.66l2.9,3.69h-.522l2.88-3.69h1.746l-3.78,4.716v-.666L103.9,18h-1.782l-3.1-3.942h.54L96.426,18Zm14.06.162a2.623,2.623,0,0,1-2.034-.765,3.323,3.323,0,0,1-.7-2.313V10.1H104.24V8.964H106V6.5l1.458-.414v2.88h2.592V10.1h-2.592v4.824a2.486,2.486,0,0,0,.369,1.539,1.335,1.335,0,0,0,1.107.459,2.7,2.7,0,0,0,.612-.063,3.092,3.092,0,0,0,.486-.153v1.224a2.791,2.791,0,0,1-.6.171A3.917,3.917,0,0,1,108.74,18.162Zm7.022,0a4.505,4.505,0,0,1-3.348-1.233A4.654,4.654,0,0,1,111.19,13.5a5.356,5.356,0,0,1,.54-2.475,3.992,3.992,0,0,1,1.512-1.638,4.243,4.243,0,0,1,2.232-.585,3.907,3.907,0,0,1,2.088.522,3.374,3.374,0,0,1,1.3,1.485,5.334,5.334,0,0,1,.45,2.277v.54h-7v-.918h6.048l-.306.234a3.512,3.512,0,0,0-.648-2.25,2.319,2.319,0,0,0-1.926-.81,2.546,2.546,0,0,0-2.106.945,3.963,3.963,0,0,0-.756,2.547v.162a3.569,3.569,0,0,0,.837,2.565,3.1,3.1,0,0,0,2.349.873,4.672,4.672,0,0,0,1.521-.243,4.135,4.135,0,0,0,1.359-.8l.5,1.026a4.005,4.005,0,0,1-1.5.891A5.813,5.813,0,0,1,115.762,18.162ZM121.505,18V11.142q0-.54-.027-1.1t-.081-1.08h1.4l.18,2.2-.252.018a3,3,0,0,1,.63-1.332,2.881,2.881,0,0,1,1.062-.783A3.225,3.225,0,0,1,125.7,8.8q.27,0,.477.018a1.351,1.351,0,0,1,.387.09l-.018,1.3a2.537,2.537,0,0,0-.5-.117,4.347,4.347,0,0,0-.513-.027,2.481,2.481,0,0,0-1.377.378,2.448,2.448,0,0,0-.882.972,2.78,2.78,0,0,0-.3,1.26V18Zm6.572,0V11.052q0-.5-.045-1.035t-.1-1.053h1.4l.18,1.98H129.3a3.127,3.127,0,0,1,1.269-1.593A3.723,3.723,0,0,1,132.6,8.8a3.2,3.2,0,0,1,2.421.855,3.781,3.781,0,0,1,.819,2.691V18h-1.458V12.438a2.787,2.787,0,0,0-.513-1.863,2.01,2.01,0,0,0-1.593-.585,2.63,2.63,0,0,0-2,.774,2.875,2.875,0,0,0-.738,2.07V18Zm14.258.162a4.371,4.371,0,0,1-2.259-.567,3.776,3.776,0,0,1-1.485-1.62,5.554,5.554,0,0,1-.522-2.493,5.541,5.541,0,0,1,.522-2.5,3.787,3.787,0,0,1,1.485-1.611,4.819,4.819,0,0,1,4.536,0,3.844,3.844,0,0,1,1.494,1.611,5.461,5.461,0,0,1,.531,2.5,5.475,5.475,0,0,1-.531,2.493,3.833,3.833,0,0,1-1.494,1.62A4.407,4.407,0,0,1,142.335,18.162Zm0-1.188a2.551,2.551,0,0,0,2.052-.891,3.922,3.922,0,0,0,.756-2.6,3.92,3.92,0,0,0-.765-2.619,2.557,2.557,0,0,0-2.043-.891,2.531,2.531,0,0,0-2.034.891,3.953,3.953,0,0,0-.756,2.619,3.922,3.922,0,0,0,.756,2.6A2.531,2.531,0,0,0,142.335,16.974ZM154.471,18V16.722h2.988V6.588h.792l-3.492,2.178V7.272l3.114-1.962h1.08V16.722h2.808V18Z" transform="translate(757 7606.366)" fill="#212429"/>
    <g id="Rectángulo_409118" data-name="Rectángulo 409118" transform="translate(737 7666)" fill="#fef6e9" stroke="#fdc621" stroke-width="1">
      <rect width="211" height="56" stroke="none"/>
      <rect x="0.5" y="0.5" width="210" height="55" fill="none"/>
    </g>
    <path id="Trazado_994645" data-name="Trazado 994645" d="M5.58,18,.054,5.31h1.6l4.914,11.5H6.012l4.95-11.5H12.51L6.948,18Zm11.36.162a4.505,4.505,0,0,1-3.348-1.233A4.654,4.654,0,0,1,12.368,13.5a5.356,5.356,0,0,1,.54-2.475A3.992,3.992,0,0,1,14.42,9.387,4.243,4.243,0,0,1,16.652,8.8a3.906,3.906,0,0,1,2.088.522,3.374,3.374,0,0,1,1.3,1.485,5.334,5.334,0,0,1,.45,2.277v.54h-7v-.918h6.048l-.306.234a3.512,3.512,0,0,0-.648-2.25,2.319,2.319,0,0,0-1.926-.81,2.546,2.546,0,0,0-2.106.945,3.963,3.963,0,0,0-.756,2.547v.162a3.569,3.569,0,0,0,.837,2.565,3.1,3.1,0,0,0,2.349.873,4.672,4.672,0,0,0,1.521-.243,4.135,4.135,0,0,0,1.359-.8l.5,1.026a4.005,4.005,0,0,1-1.5.891A5.813,5.813,0,0,1,16.94,18.162ZM22.72,18V11.052q0-.5-.045-1.035t-.1-1.053h1.4l.18,1.98h-.216a3.127,3.127,0,0,1,1.269-1.593A3.723,3.723,0,0,1,27.238,8.8a3.2,3.2,0,0,1,2.421.855,3.781,3.781,0,0,1,.819,2.691V18H29.02V12.438a2.787,2.787,0,0,0-.513-1.863,2.01,2.01,0,0,0-1.593-.585,2.63,2.63,0,0,0-2,.774,2.875,2.875,0,0,0-.738,2.07V18Zm13.97.162a3.834,3.834,0,0,1-2.088-.567,3.747,3.747,0,0,1-1.4-1.611,5.8,5.8,0,0,1-.5-2.5,5.844,5.844,0,0,1,.5-2.52,3.688,3.688,0,0,1,1.4-1.6A3.88,3.88,0,0,1,36.689,8.8a3.643,3.643,0,0,1,2.115.612A2.962,2.962,0,0,1,40,11.07h-.216V4.752h1.458V18H39.8V15.84H40a2.911,2.911,0,0,1-1.188,1.7A3.647,3.647,0,0,1,36.689,18.162ZM37,16.974a2.584,2.584,0,0,0,2.052-.891,3.859,3.859,0,0,0,.774-2.6,3.889,3.889,0,0,0-.774-2.619A2.584,2.584,0,0,0,37,9.972a2.557,2.557,0,0,0-2.043.891,3.92,3.92,0,0,0-.765,2.619,3.89,3.89,0,0,0,.765,2.6A2.557,2.557,0,0,0,37,16.974Zm11.09,1.188a4.505,4.505,0,0,1-3.348-1.233A4.654,4.654,0,0,1,43.513,13.5a5.356,5.356,0,0,1,.54-2.475,3.992,3.992,0,0,1,1.512-1.638A4.243,4.243,0,0,1,47.8,8.8a3.907,3.907,0,0,1,2.088.522,3.374,3.374,0,0,1,1.3,1.485,5.335,5.335,0,0,1,.45,2.277v.54h-7v-.918h6.048l-.306.234a3.512,3.512,0,0,0-.648-2.25,2.319,2.319,0,0,0-1.926-.81,2.546,2.546,0,0,0-2.106.945,3.963,3.963,0,0,0-.756,2.547v.162a3.569,3.569,0,0,0,.837,2.565,3.1,3.1,0,0,0,2.349.873,4.672,4.672,0,0,0,1.521-.243A4.135,4.135,0,0,0,51,15.93l.5,1.026a4.005,4.005,0,0,1-1.5.891A5.813,5.813,0,0,1,48.085,18.162Zm9.2,0a3.834,3.834,0,0,1-2.088-.567,3.747,3.747,0,0,1-1.4-1.611,5.8,5.8,0,0,1-.5-2.5,5.844,5.844,0,0,1,.5-2.52,3.688,3.688,0,0,1,1.4-1.6A3.88,3.88,0,0,1,57.285,8.8a3.643,3.643,0,0,1,2.115.612,2.962,2.962,0,0,1,1.2,1.656h-.216V4.752h1.458V18H60.4V15.84h.2a2.911,2.911,0,0,1-1.188,1.7A3.647,3.647,0,0,1,57.285,18.162Zm.306-1.188a2.584,2.584,0,0,0,2.052-.891,3.859,3.859,0,0,0,.774-2.6,3.889,3.889,0,0,0-.774-2.619,2.584,2.584,0,0,0-2.052-.891,2.557,2.557,0,0,0-2.043.891,3.92,3.92,0,0,0-.765,2.619,3.89,3.89,0,0,0,.765,2.6A2.557,2.557,0,0,0,57.591,16.974Zm10.784,1.188a4.371,4.371,0,0,1-2.259-.567,3.776,3.776,0,0,1-1.485-1.62,5.554,5.554,0,0,1-.522-2.493,5.541,5.541,0,0,1,.522-2.5,3.787,3.787,0,0,1,1.485-1.611,4.819,4.819,0,0,1,4.536,0,3.844,3.844,0,0,1,1.494,1.611,5.461,5.461,0,0,1,.531,2.5,5.475,5.475,0,0,1-.531,2.493,3.833,3.833,0,0,1-1.494,1.62A4.407,4.407,0,0,1,68.375,18.162Zm0-1.188a2.551,2.551,0,0,0,2.052-.891,3.922,3.922,0,0,0,.756-2.6,3.92,3.92,0,0,0-.765-2.619,2.557,2.557,0,0,0-2.043-.891,2.531,2.531,0,0,0-2.034.891,3.953,3.953,0,0,0-.756,2.619,3.922,3.922,0,0,0,.756,2.6A2.531,2.531,0,0,0,68.375,16.974ZM74.911,18V11.142q0-.54-.027-1.1T74.8,8.964h1.4l.18,2.2-.252.018a3,3,0,0,1,.63-1.332,2.881,2.881,0,0,1,1.062-.783A3.225,3.225,0,0,1,79.1,8.8q.27,0,.477.018a1.351,1.351,0,0,1,.387.09l-.018,1.3a2.537,2.537,0,0,0-.5-.117,4.347,4.347,0,0,0-.513-.027,2.481,2.481,0,0,0-1.377.378,2.448,2.448,0,0,0-.882.972,2.78,2.78,0,0,0-.3,1.26V18Zm15.286.162a4.505,4.505,0,0,1-3.348-1.233A4.654,4.654,0,0,1,85.624,13.5a5.356,5.356,0,0,1,.54-2.475,3.992,3.992,0,0,1,1.512-1.638A4.243,4.243,0,0,1,89.908,8.8,3.907,3.907,0,0,1,92,9.324a3.374,3.374,0,0,1,1.3,1.485,5.334,5.334,0,0,1,.45,2.277v.54h-7v-.918h6.048l-.306.234a3.512,3.512,0,0,0-.648-2.25,2.319,2.319,0,0,0-1.926-.81,2.546,2.546,0,0,0-2.106.945,3.963,3.963,0,0,0-.756,2.547v.162a3.569,3.569,0,0,0,.837,2.565,3.1,3.1,0,0,0,2.349.873,4.672,4.672,0,0,0,1.521-.243,4.135,4.135,0,0,0,1.359-.8l.5,1.026a4.005,4.005,0,0,1-1.5.891A5.813,5.813,0,0,1,90.2,18.162ZM94.68,18l4.05-5.022v.72L94.9,8.964H96.66l2.9,3.69h-.522l2.88-3.69h1.746l-3.78,4.716v-.666L103.9,18h-1.782l-3.1-3.942h.54L96.426,18Zm14.06.162a2.623,2.623,0,0,1-2.034-.765,3.323,3.323,0,0,1-.7-2.313V10.1H104.24V8.964H106V6.5l1.458-.414v2.88h2.592V10.1h-2.592v4.824a2.486,2.486,0,0,0,.369,1.539,1.335,1.335,0,0,0,1.107.459,2.7,2.7,0,0,0,.612-.063,3.092,3.092,0,0,0,.486-.153v1.224a2.791,2.791,0,0,1-.6.171A3.917,3.917,0,0,1,108.74,18.162Zm7.022,0a4.505,4.505,0,0,1-3.348-1.233A4.654,4.654,0,0,1,111.19,13.5a5.356,5.356,0,0,1,.54-2.475,3.992,3.992,0,0,1,1.512-1.638,4.243,4.243,0,0,1,2.232-.585,3.907,3.907,0,0,1,2.088.522,3.374,3.374,0,0,1,1.3,1.485,5.334,5.334,0,0,1,.45,2.277v.54h-7v-.918h6.048l-.306.234a3.512,3.512,0,0,0-.648-2.25,2.319,2.319,0,0,0-1.926-.81,2.546,2.546,0,0,0-2.106.945,3.963,3.963,0,0,0-.756,2.547v.162a3.569,3.569,0,0,0,.837,2.565,3.1,3.1,0,0,0,2.349.873,4.672,4.672,0,0,0,1.521-.243,4.135,4.135,0,0,0,1.359-.8l.5,1.026a4.005,4.005,0,0,1-1.5.891A5.813,5.813,0,0,1,115.762,18.162ZM121.505,18V11.142q0-.54-.027-1.1t-.081-1.08h1.4l.18,2.2-.252.018a3,3,0,0,1,.63-1.332,2.881,2.881,0,0,1,1.062-.783A3.225,3.225,0,0,1,125.7,8.8q.27,0,.477.018a1.351,1.351,0,0,1,.387.09l-.018,1.3a2.537,2.537,0,0,0-.5-.117,4.347,4.347,0,0,0-.513-.027,2.481,2.481,0,0,0-1.377.378,2.448,2.448,0,0,0-.882.972,2.78,2.78,0,0,0-.3,1.26V18Zm6.572,0V11.052q0-.5-.045-1.035t-.1-1.053h1.4l.18,1.98H129.3a3.127,3.127,0,0,1,1.269-1.593A3.723,3.723,0,0,1,132.6,8.8a3.2,3.2,0,0,1,2.421.855,3.781,3.781,0,0,1,.819,2.691V18h-1.458V12.438a2.787,2.787,0,0,0-.513-1.863,2.01,2.01,0,0,0-1.593-.585,2.63,2.63,0,0,0-2,.774,2.875,2.875,0,0,0-.738,2.07V18Zm14.258.162a4.371,4.371,0,0,1-2.259-.567,3.776,3.776,0,0,1-1.485-1.62,5.554,5.554,0,0,1-.522-2.493,5.541,5.541,0,0,1,.522-2.5,3.787,3.787,0,0,1,1.485-1.611,4.819,4.819,0,0,1,4.536,0,3.844,3.844,0,0,1,1.494,1.611,5.461,5.461,0,0,1,.531,2.5,5.475,5.475,0,0,1-.531,2.493,3.833,3.833,0,0,1-1.494,1.62A4.407,4.407,0,0,1,142.335,18.162Zm0-1.188a2.551,2.551,0,0,0,2.052-.891,3.922,3.922,0,0,0,.756-2.6,3.92,3.92,0,0,0-.765-2.619,2.557,2.557,0,0,0-2.043-.891,2.531,2.531,0,0,0-2.034.891,3.953,3.953,0,0,0-.756,2.619,3.922,3.922,0,0,0,.756,2.6A2.531,2.531,0,0,0,142.335,16.974ZM153.733,18V16.884l4.5-4.7a7.954,7.954,0,0,0,1.323-1.755A3.68,3.68,0,0,0,160,8.694a2.039,2.039,0,0,0-.684-1.665,3.031,3.031,0,0,0-1.98-.567,4.859,4.859,0,0,0-1.863.351,5.34,5.34,0,0,0-1.647,1.107l-.54-1.17a5.319,5.319,0,0,1,1.836-1.161,6.358,6.358,0,0,1,2.358-.441,4.445,4.445,0,0,1,2.97.891,3.143,3.143,0,0,1,1.044,2.529,4.782,4.782,0,0,1-.585,2.3,10.287,10.287,0,0,1-1.7,2.241l-3.978,4.032v-.414h6.8V18Z" transform="translate(757 7683)" fill="#212429"/>
    <path id="Trazado_990481" data-name="Trazado 990481" d="M-371.084,7211.089v215.045h26.721" transform="translate(796.816 268.366)" fill="none" stroke="#204a7b" stroke-width="1"/>
    <path id="Trazado_990482" data-name="Trazado 990482" d="M-351.911,7383.572h-24.045" transform="translate(801.911 234.794)" fill="none" stroke="#204a7b" stroke-width="1"/>
    <path id="Trazado_990483" data-name="Trazado 990483" d="M-351.911,7281.146h-24.342" transform="translate(801.911 259.22)" fill="none" stroke="#204a7b" stroke-width="1"/>
    <g id="Rectángulo_404730-4" data-name="Rectángulo 404730" transform="translate(449 7512.366)" fill="#fef6e9" stroke="#fdc621" stroke-width="1">
      <rect width="211" height="56" stroke="none"/>
      <rect x="0.5" y="0.5" width="210" height="55" fill="none"/>
    </g>
    <path id="Trazado_994639" data-name="Trazado 994639" d="M1.116,11.646a7.967,7.967,0,0,1,.693-3.465,5.152,5.152,0,0,1,2-2.241,5.942,5.942,0,0,1,3.141-.792,5.882,5.882,0,0,1,3.1.792,5.247,5.247,0,0,1,2.025,2.241,7.75,7.75,0,0,1,.711,3.447,7.77,7.77,0,0,1-.72,3.474,5.372,5.372,0,0,1-2.025,2.259,5.784,5.784,0,0,1-3.087.8,5.843,5.843,0,0,1-3.132-.8,5.275,5.275,0,0,1-2-2.259A7.894,7.894,0,0,1,1.116,11.646Zm1.566,0a6.055,6.055,0,0,0,1.08,3.825,3.8,3.8,0,0,0,3.186,1.377,3.83,3.83,0,0,0,3.141-1.377,5.883,5.883,0,0,0,1.125-3.825A5.871,5.871,0,0,0,10.1,7.821a3.847,3.847,0,0,0-3.15-1.359A3.825,3.825,0,0,0,3.762,7.821,6.009,6.009,0,0,0,2.682,11.646ZM15.32,21.888V11.052q0-.5-.045-1.035t-.1-1.053h1.4l.2,2.142h-.216a2.933,2.933,0,0,1,1.17-1.683A3.564,3.564,0,0,1,19.838,8.8a3.9,3.9,0,0,1,2.115.558,3.766,3.766,0,0,1,1.4,1.6,5.754,5.754,0,0,1,.5,2.52,5.8,5.8,0,0,1-.495,2.5,3.747,3.747,0,0,1-1.4,1.611,3.9,3.9,0,0,1-2.124.567,3.571,3.571,0,0,1-2.088-.612,2.894,2.894,0,0,1-1.17-1.674h.2v6.012Zm4.23-4.914a2.577,2.577,0,0,0,2.061-.891,3.89,3.89,0,0,0,.765-2.6,3.92,3.92,0,0,0-.765-2.619,2.577,2.577,0,0,0-2.061-.891,2.557,2.557,0,0,0-2.043.891,3.92,3.92,0,0,0-.765,2.619,3.89,3.89,0,0,0,.765,2.6A2.557,2.557,0,0,0,19.55,16.974Zm10.586,1.188a4.505,4.505,0,0,1-3.348-1.233A4.654,4.654,0,0,1,25.564,13.5a5.356,5.356,0,0,1,.54-2.475,3.992,3.992,0,0,1,1.512-1.638A4.243,4.243,0,0,1,29.848,8.8a3.907,3.907,0,0,1,2.088.522,3.374,3.374,0,0,1,1.3,1.485,5.335,5.335,0,0,1,.45,2.277v.54h-7v-.918h6.048l-.306.234a3.512,3.512,0,0,0-.648-2.25,2.319,2.319,0,0,0-1.926-.81,2.546,2.546,0,0,0-2.106.945,3.963,3.963,0,0,0-.756,2.547v.162a3.569,3.569,0,0,0,.837,2.565,3.1,3.1,0,0,0,2.349.873,4.672,4.672,0,0,0,1.521-.243,4.135,4.135,0,0,0,1.359-.8l.5,1.026a4.005,4.005,0,0,1-1.5.891A5.813,5.813,0,0,1,30.136,18.162ZM35.879,18V11.142q0-.54-.027-1.1t-.081-1.08h1.4l.18,2.2-.252.018a3,3,0,0,1,.63-1.332A2.881,2.881,0,0,1,38.8,9.063,3.225,3.225,0,0,1,40.073,8.8q.27,0,.477.018a1.351,1.351,0,0,1,.387.09l-.018,1.3a2.537,2.537,0,0,0-.495-.117,4.347,4.347,0,0,0-.513-.027,2.481,2.481,0,0,0-1.377.378,2.448,2.448,0,0,0-.882.972,2.78,2.78,0,0,0-.3,1.26V18Zm9.92.162a3.867,3.867,0,0,1-2.106-.567,3.747,3.747,0,0,1-1.4-1.611,5.8,5.8,0,0,1-.5-2.5,5.844,5.844,0,0,1,.5-2.52,3.688,3.688,0,0,1,1.4-1.6A3.914,3.914,0,0,1,45.8,8.8a3.605,3.605,0,0,1,2.115.621,2.92,2.92,0,0,1,1.179,1.683h-.216l.2-2.142h1.4q-.054.522-.1,1.053t-.045,1.035V18H48.877V15.876h.2a2.869,2.869,0,0,1-1.188,1.674A3.624,3.624,0,0,1,45.8,18.162Zm.288-1.188a2.551,2.551,0,0,0,2.052-.891,3.922,3.922,0,0,0,.756-2.6,3.953,3.953,0,0,0-.756-2.619,2.8,2.8,0,0,0-4.1,0,3.92,3.92,0,0,0-.765,2.619,3.89,3.89,0,0,0,.765,2.6A2.557,2.557,0,0,0,46.087,16.974ZM53.127,18V11.142q0-.54-.027-1.1t-.081-1.08h1.4l.18,2.2-.252.018a3,3,0,0,1,.63-1.332,2.881,2.881,0,0,1,1.062-.783A3.225,3.225,0,0,1,57.321,8.8q.27,0,.477.018a1.351,1.351,0,0,1,.387.09l-.018,1.3a2.536,2.536,0,0,0-.495-.117,4.347,4.347,0,0,0-.513-.027,2.481,2.481,0,0,0-1.377.378,2.448,2.448,0,0,0-.882.972,2.78,2.78,0,0,0-.3,1.26V18ZM59.7,18V8.964h1.458V18Zm-.18-11.088V5.274h1.8V6.912Zm8.174,11.25a4.371,4.371,0,0,1-2.259-.567,3.776,3.776,0,0,1-1.485-1.62,5.554,5.554,0,0,1-.522-2.493,5.541,5.541,0,0,1,.522-2.5,3.787,3.787,0,0,1,1.485-1.611,4.819,4.819,0,0,1,4.536,0,3.844,3.844,0,0,1,1.494,1.611,5.461,5.461,0,0,1,.531,2.5,5.475,5.475,0,0,1-.531,2.493,3.833,3.833,0,0,1-1.494,1.62A4.407,4.407,0,0,1,67.693,18.162Zm0-1.188a2.551,2.551,0,0,0,2.052-.891,3.922,3.922,0,0,0,.756-2.6,3.92,3.92,0,0,0-.765-2.619,2.557,2.557,0,0,0-2.043-.891,2.531,2.531,0,0,0-2.034.891,3.953,3.953,0,0,0-.756,2.619,3.922,3.922,0,0,0,.756,2.6A2.531,2.531,0,0,0,67.693,16.974ZM79.828,18V16.722h2.988V6.588h.792L80.116,8.766V7.272L83.23,5.31h1.08V16.722h2.808V18Z" transform="translate(469 7529.366)" fill="#212429"/>
    <g id="Rectángulo_404730-5" data-name="Rectángulo 404730" transform="translate(449 7589)" fill="#fef6e9" stroke="#fdc621" stroke-width="1">
      <rect width="211" height="56" stroke="none"/>
      <rect x="0.5" y="0.5" width="210" height="55" fill="none"/>
    </g>
    <path id="Trazado_994640" data-name="Trazado 994640" d="M1.116,11.646a7.967,7.967,0,0,1,.693-3.465,5.152,5.152,0,0,1,2-2.241,5.942,5.942,0,0,1,3.141-.792,5.882,5.882,0,0,1,3.1.792,5.247,5.247,0,0,1,2.025,2.241,7.75,7.75,0,0,1,.711,3.447,7.77,7.77,0,0,1-.72,3.474,5.372,5.372,0,0,1-2.025,2.259,5.784,5.784,0,0,1-3.087.8,5.843,5.843,0,0,1-3.132-.8,5.275,5.275,0,0,1-2-2.259A7.894,7.894,0,0,1,1.116,11.646Zm1.566,0a6.055,6.055,0,0,0,1.08,3.825,3.8,3.8,0,0,0,3.186,1.377,3.83,3.83,0,0,0,3.141-1.377,5.883,5.883,0,0,0,1.125-3.825A5.871,5.871,0,0,0,10.1,7.821a3.847,3.847,0,0,0-3.15-1.359A3.825,3.825,0,0,0,3.762,7.821,6.009,6.009,0,0,0,2.682,11.646ZM15.32,21.888V11.052q0-.5-.045-1.035t-.1-1.053h1.4l.2,2.142h-.216a2.933,2.933,0,0,1,1.17-1.683A3.564,3.564,0,0,1,19.838,8.8a3.9,3.9,0,0,1,2.115.558,3.766,3.766,0,0,1,1.4,1.6,5.754,5.754,0,0,1,.5,2.52,5.8,5.8,0,0,1-.495,2.5,3.747,3.747,0,0,1-1.4,1.611,3.9,3.9,0,0,1-2.124.567,3.571,3.571,0,0,1-2.088-.612,2.894,2.894,0,0,1-1.17-1.674h.2v6.012Zm4.23-4.914a2.577,2.577,0,0,0,2.061-.891,3.89,3.89,0,0,0,.765-2.6,3.92,3.92,0,0,0-.765-2.619,2.577,2.577,0,0,0-2.061-.891,2.557,2.557,0,0,0-2.043.891,3.92,3.92,0,0,0-.765,2.619,3.89,3.89,0,0,0,.765,2.6A2.557,2.557,0,0,0,19.55,16.974Zm10.586,1.188a4.505,4.505,0,0,1-3.348-1.233A4.654,4.654,0,0,1,25.564,13.5a5.356,5.356,0,0,1,.54-2.475,3.992,3.992,0,0,1,1.512-1.638A4.243,4.243,0,0,1,29.848,8.8a3.907,3.907,0,0,1,2.088.522,3.374,3.374,0,0,1,1.3,1.485,5.335,5.335,0,0,1,.45,2.277v.54h-7v-.918h6.048l-.306.234a3.512,3.512,0,0,0-.648-2.25,2.319,2.319,0,0,0-1.926-.81,2.546,2.546,0,0,0-2.106.945,3.963,3.963,0,0,0-.756,2.547v.162a3.569,3.569,0,0,0,.837,2.565,3.1,3.1,0,0,0,2.349.873,4.672,4.672,0,0,0,1.521-.243,4.135,4.135,0,0,0,1.359-.8l.5,1.026a4.005,4.005,0,0,1-1.5.891A5.813,5.813,0,0,1,30.136,18.162ZM35.879,18V11.142q0-.54-.027-1.1t-.081-1.08h1.4l.18,2.2-.252.018a3,3,0,0,1,.63-1.332A2.881,2.881,0,0,1,38.8,9.063,3.225,3.225,0,0,1,40.073,8.8q.27,0,.477.018a1.351,1.351,0,0,1,.387.09l-.018,1.3a2.537,2.537,0,0,0-.495-.117,4.347,4.347,0,0,0-.513-.027,2.481,2.481,0,0,0-1.377.378,2.448,2.448,0,0,0-.882.972,2.78,2.78,0,0,0-.3,1.26V18Zm9.92.162a3.867,3.867,0,0,1-2.106-.567,3.747,3.747,0,0,1-1.4-1.611,5.8,5.8,0,0,1-.5-2.5,5.844,5.844,0,0,1,.5-2.52,3.688,3.688,0,0,1,1.4-1.6A3.914,3.914,0,0,1,45.8,8.8a3.605,3.605,0,0,1,2.115.621,2.92,2.92,0,0,1,1.179,1.683h-.216l.2-2.142h1.4q-.054.522-.1,1.053t-.045,1.035V18H48.877V15.876h.2a2.869,2.869,0,0,1-1.188,1.674A3.624,3.624,0,0,1,45.8,18.162Zm.288-1.188a2.551,2.551,0,0,0,2.052-.891,3.922,3.922,0,0,0,.756-2.6,3.953,3.953,0,0,0-.756-2.619,2.8,2.8,0,0,0-4.1,0,3.92,3.92,0,0,0-.765,2.619,3.89,3.89,0,0,0,.765,2.6A2.557,2.557,0,0,0,46.087,16.974ZM53.127,18V11.142q0-.54-.027-1.1t-.081-1.08h1.4l.18,2.2-.252.018a3,3,0,0,1,.63-1.332,2.881,2.881,0,0,1,1.062-.783A3.225,3.225,0,0,1,57.321,8.8q.27,0,.477.018a1.351,1.351,0,0,1,.387.09l-.018,1.3a2.536,2.536,0,0,0-.495-.117,4.347,4.347,0,0,0-.513-.027,2.481,2.481,0,0,0-1.377.378,2.448,2.448,0,0,0-.882.972,2.78,2.78,0,0,0-.3,1.26V18ZM59.7,18V8.964h1.458V18Zm-.18-11.088V5.274h1.8V6.912Zm8.174,11.25a4.371,4.371,0,0,1-2.259-.567,3.776,3.776,0,0,1-1.485-1.62,5.554,5.554,0,0,1-.522-2.493,5.541,5.541,0,0,1,.522-2.5,3.787,3.787,0,0,1,1.485-1.611,4.819,4.819,0,0,1,4.536,0,3.844,3.844,0,0,1,1.494,1.611,5.461,5.461,0,0,1,.531,2.5,5.475,5.475,0,0,1-.531,2.493,3.833,3.833,0,0,1-1.494,1.62A4.407,4.407,0,0,1,67.693,18.162Zm0-1.188a2.551,2.551,0,0,0,2.052-.891,3.922,3.922,0,0,0,.756-2.6,3.92,3.92,0,0,0-.765-2.619,2.557,2.557,0,0,0-2.043-.891,2.531,2.531,0,0,0-2.034.891,3.953,3.953,0,0,0-.756,2.619,3.922,3.922,0,0,0,.756,2.6A2.531,2.531,0,0,0,67.693,16.974ZM79.09,18V16.884l4.5-4.7a7.954,7.954,0,0,0,1.323-1.755,3.68,3.68,0,0,0,.441-1.737,2.039,2.039,0,0,0-.684-1.665,3.031,3.031,0,0,0-1.98-.567,4.859,4.859,0,0,0-1.863.351A5.34,5.34,0,0,0,79.18,7.92l-.54-1.17a5.32,5.32,0,0,1,1.836-1.161,6.358,6.358,0,0,1,2.358-.441,4.445,4.445,0,0,1,2.97.891,3.143,3.143,0,0,1,1.044,2.529,4.782,4.782,0,0,1-.585,2.3,10.287,10.287,0,0,1-1.7,2.241l-3.978,4.032v-.414h6.8V18Z" transform="translate(469 7606)" fill="#212429"/>
    <g id="Rectángulo_409115" data-name="Rectángulo 409115" transform="translate(449 7666)" fill="#fef6e9" stroke="#fdc621" stroke-width="1">
      <rect width="211" height="56" stroke="none"/>
      <rect x="0.5" y="0.5" width="210" height="55" fill="none"/>
    </g>
    <path id="Trazado_994641" data-name="Trazado 994641" d="M1.116,11.646a7.967,7.967,0,0,1,.693-3.465,5.152,5.152,0,0,1,2-2.241,5.942,5.942,0,0,1,3.141-.792,5.882,5.882,0,0,1,3.1.792,5.247,5.247,0,0,1,2.025,2.241,7.75,7.75,0,0,1,.711,3.447,7.77,7.77,0,0,1-.72,3.474,5.372,5.372,0,0,1-2.025,2.259,5.784,5.784,0,0,1-3.087.8,5.843,5.843,0,0,1-3.132-.8,5.275,5.275,0,0,1-2-2.259A7.894,7.894,0,0,1,1.116,11.646Zm1.566,0a6.055,6.055,0,0,0,1.08,3.825,3.8,3.8,0,0,0,3.186,1.377,3.83,3.83,0,0,0,3.141-1.377,5.883,5.883,0,0,0,1.125-3.825A5.871,5.871,0,0,0,10.1,7.821a3.847,3.847,0,0,0-3.15-1.359A3.825,3.825,0,0,0,3.762,7.821,6.009,6.009,0,0,0,2.682,11.646ZM15.32,21.888V11.052q0-.5-.045-1.035t-.1-1.053h1.4l.2,2.142h-.216a2.933,2.933,0,0,1,1.17-1.683A3.564,3.564,0,0,1,19.838,8.8a3.9,3.9,0,0,1,2.115.558,3.766,3.766,0,0,1,1.4,1.6,5.754,5.754,0,0,1,.5,2.52,5.8,5.8,0,0,1-.495,2.5,3.747,3.747,0,0,1-1.4,1.611,3.9,3.9,0,0,1-2.124.567,3.571,3.571,0,0,1-2.088-.612,2.894,2.894,0,0,1-1.17-1.674h.2v6.012Zm4.23-4.914a2.577,2.577,0,0,0,2.061-.891,3.89,3.89,0,0,0,.765-2.6,3.92,3.92,0,0,0-.765-2.619,2.577,2.577,0,0,0-2.061-.891,2.557,2.557,0,0,0-2.043.891,3.92,3.92,0,0,0-.765,2.619,3.89,3.89,0,0,0,.765,2.6A2.557,2.557,0,0,0,19.55,16.974Zm10.586,1.188a4.505,4.505,0,0,1-3.348-1.233A4.654,4.654,0,0,1,25.564,13.5a5.356,5.356,0,0,1,.54-2.475,3.992,3.992,0,0,1,1.512-1.638A4.243,4.243,0,0,1,29.848,8.8a3.907,3.907,0,0,1,2.088.522,3.374,3.374,0,0,1,1.3,1.485,5.335,5.335,0,0,1,.45,2.277v.54h-7v-.918h6.048l-.306.234a3.512,3.512,0,0,0-.648-2.25,2.319,2.319,0,0,0-1.926-.81,2.546,2.546,0,0,0-2.106.945,3.963,3.963,0,0,0-.756,2.547v.162a3.569,3.569,0,0,0,.837,2.565,3.1,3.1,0,0,0,2.349.873,4.672,4.672,0,0,0,1.521-.243,4.135,4.135,0,0,0,1.359-.8l.5,1.026a4.005,4.005,0,0,1-1.5.891A5.813,5.813,0,0,1,30.136,18.162ZM35.879,18V11.142q0-.54-.027-1.1t-.081-1.08h1.4l.18,2.2-.252.018a3,3,0,0,1,.63-1.332A2.881,2.881,0,0,1,38.8,9.063,3.225,3.225,0,0,1,40.073,8.8q.27,0,.477.018a1.351,1.351,0,0,1,.387.09l-.018,1.3a2.537,2.537,0,0,0-.495-.117,4.347,4.347,0,0,0-.513-.027,2.481,2.481,0,0,0-1.377.378,2.448,2.448,0,0,0-.882.972,2.78,2.78,0,0,0-.3,1.26V18Zm9.92.162a3.867,3.867,0,0,1-2.106-.567,3.747,3.747,0,0,1-1.4-1.611,5.8,5.8,0,0,1-.5-2.5,5.844,5.844,0,0,1,.5-2.52,3.688,3.688,0,0,1,1.4-1.6A3.914,3.914,0,0,1,45.8,8.8a3.605,3.605,0,0,1,2.115.621,2.92,2.92,0,0,1,1.179,1.683h-.216l.2-2.142h1.4q-.054.522-.1,1.053t-.045,1.035V18H48.877V15.876h.2a2.869,2.869,0,0,1-1.188,1.674A3.624,3.624,0,0,1,45.8,18.162Zm.288-1.188a2.551,2.551,0,0,0,2.052-.891,3.922,3.922,0,0,0,.756-2.6,3.953,3.953,0,0,0-.756-2.619,2.8,2.8,0,0,0-4.1,0,3.92,3.92,0,0,0-.765,2.619,3.89,3.89,0,0,0,.765,2.6A2.557,2.557,0,0,0,46.087,16.974ZM53.127,18V11.142q0-.54-.027-1.1t-.081-1.08h1.4l.18,2.2-.252.018a3,3,0,0,1,.63-1.332,2.881,2.881,0,0,1,1.062-.783A3.225,3.225,0,0,1,57.321,8.8q.27,0,.477.018a1.351,1.351,0,0,1,.387.09l-.018,1.3a2.536,2.536,0,0,0-.495-.117,4.347,4.347,0,0,0-.513-.027,2.481,2.481,0,0,0-1.377.378,2.448,2.448,0,0,0-.882.972,2.78,2.78,0,0,0-.3,1.26V18ZM59.7,18V8.964h1.458V18Zm-.18-11.088V5.274h1.8V6.912Zm8.174,11.25a4.371,4.371,0,0,1-2.259-.567,3.776,3.776,0,0,1-1.485-1.62,5.554,5.554,0,0,1-.522-2.493,5.541,5.541,0,0,1,.522-2.5,3.787,3.787,0,0,1,1.485-1.611,4.819,4.819,0,0,1,4.536,0,3.844,3.844,0,0,1,1.494,1.611,5.461,5.461,0,0,1,.531,2.5,5.475,5.475,0,0,1-.531,2.493,3.833,3.833,0,0,1-1.494,1.62A4.407,4.407,0,0,1,67.693,18.162Zm0-1.188a2.551,2.551,0,0,0,2.052-.891,3.922,3.922,0,0,0,.756-2.6,3.92,3.92,0,0,0-.765-2.619,2.557,2.557,0,0,0-2.043-.891,2.531,2.531,0,0,0-2.034.891,3.953,3.953,0,0,0-.756,2.619,3.922,3.922,0,0,0,.756,2.6A2.531,2.531,0,0,0,67.693,16.974ZM82.87,18.162a7.584,7.584,0,0,1-2.448-.4,5.346,5.346,0,0,1-1.962-1.134l.558-1.152a5.973,5.973,0,0,0,1.818,1.044,6.122,6.122,0,0,0,2.016.324,3.346,3.346,0,0,0,2.16-.6,2.156,2.156,0,0,0,.738-1.773,2.021,2.021,0,0,0-.756-1.7,3.568,3.568,0,0,0-2.214-.585H80.872V10.944h1.782a2.921,2.921,0,0,0,2-.648,2.227,2.227,0,0,0,.738-1.764,1.841,1.841,0,0,0-.675-1.539,3.07,3.07,0,0,0-1.935-.531A4.9,4.9,0,0,0,79.234,7.92l-.558-1.17A5.044,5.044,0,0,1,80.53,5.571a6.547,6.547,0,0,1,2.34-.423,4.523,4.523,0,0,1,2.934.864,2.916,2.916,0,0,1,1.062,2.394,3.124,3.124,0,0,1-.666,2.007,3.337,3.337,0,0,1-1.8,1.143v-.2a3.345,3.345,0,0,1,2.088,1.071,3.175,3.175,0,0,1,.738,2.151A3.223,3.223,0,0,1,86.065,17.2,4.858,4.858,0,0,1,82.87,18.162Z" transform="translate(469 7683)" fill="#212429"/>
    <g id="Grupo_1157340" data-name="Grupo 1157340" transform="translate(80 -26)">
      <g id="Rectángulo_404730-6" data-name="Rectángulo 404730" transform="translate(329 7454.038)" fill="#d8f5f5" stroke="#204a7b" stroke-width="1">
        <rect width="251" height="57.962" stroke="none"/>
        <rect x="0.5" y="0.5" width="250" height="56.962" fill="none"/>
      </g>
      <path id="Trazado_994638" data-name="Trazado 994638" d="M11.939,18.18a7.463,7.463,0,0,1-3.6-.792,5.164,5.164,0,0,1-2.2-2.25,7.567,7.567,0,0,1-.738-3.456A7.23,7.23,0,0,1,6.2,8.2,5.494,5.494,0,0,1,8.474,5.931a7.43,7.43,0,0,1,3.573-.8,7.286,7.286,0,0,1,2.43.369A5.5,5.5,0,0,1,16.313,6.57l-.774,1.8a7.123,7.123,0,0,0-1.1-.72,4.233,4.233,0,0,0-1.08-.387,6.37,6.37,0,0,0-1.3-.117A4.053,4.053,0,0,0,8.906,8.325,4.848,4.848,0,0,0,7.835,11.7a4.91,4.91,0,0,0,1.017,3.348A4.05,4.05,0,0,0,12.047,16.2a7.83,7.83,0,0,0,1.485-.144A9.05,9.05,0,0,0,15,15.642l-.432.972v-3.8H11.6V11.124h4.9v6.1a8.333,8.333,0,0,1-2.106.7A12.111,12.111,0,0,1,11.939,18.18ZM18.707,18V15.5h2.52V18Zm9.828,0V5.31h5.634a4.552,4.552,0,0,1,3.186,1.008,3.576,3.576,0,0,1,1.1,2.772,3.611,3.611,0,0,1-1.1,2.772,4.5,4.5,0,0,1-3.186,1.026H30.857V18Zm2.322-6.948H33.9a2.53,2.53,0,0,0,1.728-.513A1.839,1.839,0,0,0,36.2,9.09a1.839,1.839,0,0,0-.576-1.449A2.53,2.53,0,0,0,33.9,7.128H30.857ZM40.145,18V11.232q0-.576-.027-1.17t-.1-1.152H42.2l.252,2.484h-.36a3.848,3.848,0,0,1,.6-1.494,2.644,2.644,0,0,1,1.035-.882,3.089,3.089,0,0,1,1.332-.288,4.028,4.028,0,0,1,.522.027,1.913,1.913,0,0,1,.4.1l-.018,1.98a2.51,2.51,0,0,0-.585-.18,4.219,4.219,0,0,0-.6-.036,2.462,2.462,0,0,0-1.305.324,1.993,1.993,0,0,0-.792.9,3.152,3.152,0,0,0-.261,1.314V18Zm11.052.18a4.885,4.885,0,0,1-2.43-.576,3.992,3.992,0,0,1-1.593-1.638,5.279,5.279,0,0,1-.567-2.52,5.225,5.225,0,0,1,.567-2.511,4.006,4.006,0,0,1,1.593-1.629A4.885,4.885,0,0,1,51.2,8.73a4.937,4.937,0,0,1,2.439.576,3.99,3.99,0,0,1,1.6,1.629,5.225,5.225,0,0,1,.567,2.511,5.279,5.279,0,0,1-.567,2.52,3.976,3.976,0,0,1-1.6,1.638A4.937,4.937,0,0,1,51.2,18.18Zm0-1.728a2.1,2.1,0,0,0,1.692-.747,3.44,3.44,0,0,0,.63-2.259,3.4,3.4,0,0,0-.63-2.25,2.309,2.309,0,0,0-3.384,0,3.4,3.4,0,0,0-.63,2.25,3.44,3.44,0,0,0,.63,2.259A2.1,2.1,0,0,0,51.2,16.452Zm10.08,1.728a3.879,3.879,0,0,1-2.1-.567,3.765,3.765,0,0,1-1.413-1.629,5.874,5.874,0,0,1-.5-2.538,5.814,5.814,0,0,1,.5-2.529A3.775,3.775,0,0,1,59.18,9.3a3.879,3.879,0,0,1,2.1-.567,3.69,3.69,0,0,1,2.007.549,2.628,2.628,0,0,1,1.161,1.485h-.234V4.752h2.25V18H64.247V16.074h.216A2.7,2.7,0,0,1,63.3,17.613,3.634,3.634,0,0,1,61.277,18.18Zm.63-1.728a2.153,2.153,0,0,0,1.71-.747,3.373,3.373,0,0,0,.648-2.259,3.335,3.335,0,0,0-.648-2.25,2.165,2.165,0,0,0-1.71-.738,2.192,2.192,0,0,0-1.719.738,3.3,3.3,0,0,0-.657,2.25,3.34,3.34,0,0,0,.657,2.259A2.18,2.18,0,0,0,61.907,16.452ZM72.185,18.18a3.2,3.2,0,0,1-2.5-.918,4.089,4.089,0,0,1-.828-2.808V8.91H71.1v5.526a2.228,2.228,0,0,0,.414,1.485,1.579,1.579,0,0,0,1.26.477,2.031,2.031,0,0,0,1.557-.648,2.41,2.41,0,0,0,.6-1.71V8.91h2.25V18h-2.2V16.146h.252a3.193,3.193,0,0,1-1.2,1.5A3.293,3.293,0,0,1,72.185,18.18Zm11.628,0a5.04,5.04,0,0,1-2.457-.576,3.99,3.99,0,0,1-1.629-1.647,5.3,5.3,0,0,1-.576-2.547,5.081,5.081,0,0,1,.585-2.52,3.989,3.989,0,0,1,1.629-1.6,5.119,5.119,0,0,1,2.448-.558,5.622,5.622,0,0,1,1.755.279,3.558,3.558,0,0,1,1.4.8l-.684,1.566A3.277,3.277,0,0,0,85.19,10.7a3.36,3.36,0,0,0-1.179-.225,2.391,2.391,0,0,0-1.881.756,3.2,3.2,0,0,0-.675,2.2,3.267,3.267,0,0,0,.675,2.214,2.364,2.364,0,0,0,1.881.774,3.437,3.437,0,0,0,1.161-.216,3.348,3.348,0,0,0,1.107-.666l.684,1.548a3.819,3.819,0,0,1-1.413.81A5.408,5.408,0,0,1,83.813,18.18Zm8.892,0a5.04,5.04,0,0,1-2.457-.576,3.99,3.99,0,0,1-1.629-1.647,5.3,5.3,0,0,1-.576-2.547,5.081,5.081,0,0,1,.585-2.52,3.989,3.989,0,0,1,1.629-1.6,5.119,5.119,0,0,1,2.448-.558,5.622,5.622,0,0,1,1.755.279,3.558,3.558,0,0,1,1.4.8l-.684,1.566a3.277,3.277,0,0,0-1.089-.675,3.36,3.36,0,0,0-1.179-.225,2.391,2.391,0,0,0-1.881.756,3.2,3.2,0,0,0-.675,2.2,3.267,3.267,0,0,0,.675,2.214,2.364,2.364,0,0,0,1.881.774,3.437,3.437,0,0,0,1.161-.216,3.348,3.348,0,0,0,1.107-.666l.684,1.548a3.819,3.819,0,0,1-1.413.81A5.408,5.408,0,0,1,92.705,18.18ZM97.6,18V8.91h2.25V18ZM97.475,7.2V5h2.5V7.2ZM106.4,18.18a4.885,4.885,0,0,1-2.43-.576,3.992,3.992,0,0,1-1.593-1.638,5.279,5.279,0,0,1-.567-2.52,5.225,5.225,0,0,1,.567-2.511,4.006,4.006,0,0,1,1.593-1.629,4.885,4.885,0,0,1,2.43-.576,4.937,4.937,0,0,1,2.439.576,3.99,3.99,0,0,1,1.6,1.629,5.225,5.225,0,0,1,.567,2.511,5.279,5.279,0,0,1-.567,2.52,3.976,3.976,0,0,1-1.6,1.638A4.937,4.937,0,0,1,106.4,18.18Zm0-1.728A2.1,2.1,0,0,0,108.1,15.7a3.44,3.44,0,0,0,.63-2.259,3.4,3.4,0,0,0-.63-2.25,2.309,2.309,0,0,0-3.384,0,3.4,3.4,0,0,0-.63,2.25,3.44,3.44,0,0,0,.63,2.259A2.1,2.1,0,0,0,106.4,16.452Zm-.738-8.424,1.854-3.654h2.214l-2.556,3.654ZM112.955,18V11.178q0-.558-.036-1.134t-.108-1.134h2.178l.18,1.8h-.216a3.219,3.219,0,0,1,1.278-1.467,3.709,3.709,0,0,1,1.962-.513,3.08,3.08,0,0,1,2.412.9,4.109,4.109,0,0,1,.81,2.808V18h-2.25V12.546a2.356,2.356,0,0,0-.423-1.575,1.608,1.608,0,0,0-1.269-.477,2.169,2.169,0,0,0-1.656.648,2.414,2.414,0,0,0-.612,1.728V18Z" transform="translate(391 7472)" fill="#212429"/>
    </g>
    <path id="Trazado_990484" data-name="Trazado 990484" d="M-371.084,7211.089v137.545h26.721" transform="translate(1365.816 268.366)" fill="none" stroke="#204a7b" stroke-width="1"/>
    <path id="Trazado_990486" data-name="Trazado 990486" d="M-351.911,7288.191h-24.342" transform="translate(1370.911 252.175)" fill="none" stroke="#204a7b" stroke-width="1"/>
    <g id="Grupo_1157338" data-name="Grupo 1157338" transform="translate(0 -26)">
      <g id="Rectángulo_404730-7" data-name="Rectángulo 404730" transform="translate(977 7456)" fill="#d8f5f5" stroke="#204a7b" stroke-width="1">
        <rect width="251" height="56.5" stroke="none"/>
        <rect x="0.5" y="0.5" width="250" height="55.5" fill="none"/>
      </g>
      <path id="Trazado_994646" data-name="Trazado 994646" d="M16.824,18.18a7.463,7.463,0,0,1-3.6-.792,5.164,5.164,0,0,1-2.2-2.25,7.567,7.567,0,0,1-.738-3.456A7.23,7.23,0,0,1,11.082,8.2a5.494,5.494,0,0,1,2.277-2.268,7.43,7.43,0,0,1,3.573-.8,7.286,7.286,0,0,1,2.43.369A5.5,5.5,0,0,1,21.2,6.57l-.774,1.8a7.123,7.123,0,0,0-1.1-.72,4.233,4.233,0,0,0-1.08-.387,6.37,6.37,0,0,0-1.3-.117,4.053,4.053,0,0,0-3.159,1.179A4.848,4.848,0,0,0,12.72,11.7a4.91,4.91,0,0,0,1.017,3.348A4.05,4.05,0,0,0,16.932,16.2a7.83,7.83,0,0,0,1.485-.144,9.05,9.05,0,0,0,1.467-.414l-.432.972v-3.8h-2.97V11.124h4.9v6.1a8.333,8.333,0,0,1-2.106.7A12.111,12.111,0,0,1,16.824,18.18ZM23.592,18V15.5h2.52V18Zm8.424,0L37.758,5.31H39.7L45.516,18H43.158L41.61,14.436l.936.63H34.932l.972-.63L34.356,18Zm6.7-10.206-2.538,6.012-.468-.558h6.048l-.378.558L38.784,7.794ZM50.178,18.18a3.879,3.879,0,0,1-2.1-.567,3.765,3.765,0,0,1-1.413-1.629,5.874,5.874,0,0,1-.5-2.538,5.814,5.814,0,0,1,.5-2.529A3.775,3.775,0,0,1,48.081,9.3a3.879,3.879,0,0,1,2.1-.567,3.69,3.69,0,0,1,2.007.549,2.628,2.628,0,0,1,1.161,1.485h-.234V4.752h2.25V18H53.148V16.074h.216A2.7,2.7,0,0,1,52.2,17.613,3.634,3.634,0,0,1,50.178,18.18Zm.63-1.728a2.153,2.153,0,0,0,1.71-.747,3.373,3.373,0,0,0,.648-2.259,3.335,3.335,0,0,0-.648-2.25,2.165,2.165,0,0,0-1.71-.738,2.192,2.192,0,0,0-1.719.738,3.3,3.3,0,0,0-.657,2.25,3.34,3.34,0,0,0,.657,2.259A2.18,2.18,0,0,0,50.808,16.452Zm7,1.548V11.178q0-.558-.036-1.134T57.666,8.91h2.178l.18,1.8h-.216a3.093,3.093,0,0,1,1.161-1.458,3.28,3.28,0,0,1,1.863-.522,2.983,2.983,0,0,1,1.791.513,2.751,2.751,0,0,1,1,1.593h-.288A3.171,3.171,0,0,1,66.576,9.3a3.527,3.527,0,0,1,1.98-.567,2.817,2.817,0,0,1,2.286.9,4.314,4.314,0,0,1,.756,2.808V18h-2.25V12.528a2.622,2.622,0,0,0-.36-1.557,1.35,1.35,0,0,0-1.152-.477,1.808,1.808,0,0,0-1.476.657,2.708,2.708,0,0,0-.54,1.773V18H63.57V12.528a2.622,2.622,0,0,0-.36-1.557,1.35,1.35,0,0,0-1.152-.477,1.783,1.783,0,0,0-1.467.657,2.74,2.74,0,0,0-.531,1.773V18Zm16.182,0V8.91h2.25V18ZM73.866,7.2V5h2.5V7.2ZM78.69,18V11.178q0-.558-.036-1.134T78.546,8.91h2.178l.18,1.8h-.216a3.219,3.219,0,0,1,1.278-1.467,3.709,3.709,0,0,1,1.962-.513,3.08,3.08,0,0,1,2.412.9,4.109,4.109,0,0,1,.81,2.808V18H84.9V12.546a2.356,2.356,0,0,0-.423-1.575,1.608,1.608,0,0,0-1.269-.477,2.169,2.169,0,0,0-1.656.648,2.414,2.414,0,0,0-.612,1.728V18Zm10.854,0V8.91h2.25V18ZM89.418,7.2V5h2.5V7.2Zm8.064,10.98a7.843,7.843,0,0,1-2.151-.279,4.943,4.943,0,0,1-1.647-.783l.63-1.512a5.489,5.489,0,0,0,1.512.72,5.72,5.72,0,0,0,1.674.252,2.369,2.369,0,0,0,1.341-.306.958.958,0,0,0,.441-.828A.827.827,0,0,0,99,14.787a1.968,1.968,0,0,0-.891-.369l-1.8-.342a3.431,3.431,0,0,1-1.755-.864,2.184,2.184,0,0,1-.6-1.6,2.519,2.519,0,0,1,.459-1.494A3.034,3.034,0,0,1,95.727,9.1a5.035,5.035,0,0,1,2.007-.369,6.515,6.515,0,0,1,1.9.27,3.981,3.981,0,0,1,1.5.81l-.648,1.458a4.461,4.461,0,0,0-2.682-.954,2.249,2.249,0,0,0-1.368.333,1.033,1.033,0,0,0-.432.855.891.891,0,0,0,.261.657,1.658,1.658,0,0,0,.819.387l1.8.342a3.619,3.619,0,0,1,1.827.819,2.083,2.083,0,0,1,.621,1.593,2.507,2.507,0,0,1-.486,1.548,3.034,3.034,0,0,1-1.35.99A5.457,5.457,0,0,1,97.482,18.18Zm9.576,0a3.278,3.278,0,0,1-2.448-.846,3.493,3.493,0,0,1-.828-2.538V10.6h-1.746V8.91h1.746V6.588l2.25-.576v2.9h2.43V10.6h-2.43v4.05a1.892,1.892,0,0,0,.36,1.314,1.3,1.3,0,0,0,.99.378,2.735,2.735,0,0,0,.585-.054,3.354,3.354,0,0,0,.477-.144v1.782a3.17,3.17,0,0,1-.675.189A4.225,4.225,0,0,1,107.058,18.18Zm2.916-.18V11.232q0-.576-.027-1.17t-.1-1.152h2.178l.252,2.484h-.36a3.848,3.848,0,0,1,.6-1.494,2.644,2.644,0,0,1,1.035-.882,3.089,3.089,0,0,1,1.332-.288,4.028,4.028,0,0,1,.522.027,1.913,1.913,0,0,1,.4.1l-.018,1.98a2.51,2.51,0,0,0-.585-.18,4.219,4.219,0,0,0-.6-.036,2.462,2.462,0,0,0-1.305.324,1.993,1.993,0,0,0-.792.9,3.152,3.152,0,0,0-.261,1.314V18Zm10.512.18a3.834,3.834,0,0,1-2.088-.567,3.786,3.786,0,0,1-1.4-1.629,5.874,5.874,0,0,1-.5-2.538,5.814,5.814,0,0,1,.5-2.529,3.694,3.694,0,0,1,3.492-2.187,3.634,3.634,0,0,1,2.025.567,2.7,2.7,0,0,1,1.161,1.521h-.2l.2-1.908h2.16q-.054.558-.1,1.134t-.045,1.134V18h-2.232l-.018-1.872h.216a2.656,2.656,0,0,1-1.17,1.494A3.658,3.658,0,0,1,120.486,18.18Zm.63-1.728a2.153,2.153,0,0,0,1.71-.747,3.373,3.373,0,0,0,.648-2.259,3.335,3.335,0,0,0-.648-2.25,2.35,2.35,0,0,0-3.42,0,3.335,3.335,0,0,0-.648,2.25A3.406,3.406,0,0,0,119.4,15.7,2.146,2.146,0,0,0,121.116,16.452Zm10.908,1.728a3.278,3.278,0,0,1-2.448-.846,3.493,3.493,0,0,1-.828-2.538V10.6H127V8.91h1.746V6.588L131,6.012v2.9h2.43V10.6H131v4.05a1.892,1.892,0,0,0,.36,1.314,1.3,1.3,0,0,0,.99.378,2.735,2.735,0,0,0,.585-.054,3.353,3.353,0,0,0,.477-.144v1.782a3.17,3.17,0,0,1-.675.189A4.225,4.225,0,0,1,132.024,18.18Zm2.934-.18V8.91h2.25V18Zm-.126-10.8V5h2.5V7.2ZM142.32,18,138.4,8.91h2.394l2.844,7.11h-.558l2.916-7.11h2.25L144.3,18Zm11.052.18a4.886,4.886,0,0,1-2.43-.576,3.992,3.992,0,0,1-1.593-1.638,5.279,5.279,0,0,1-.567-2.52,5.225,5.225,0,0,1,.567-2.511,4.006,4.006,0,0,1,1.593-1.629,4.886,4.886,0,0,1,2.43-.576,4.937,4.937,0,0,1,2.439.576,3.99,3.99,0,0,1,1.6,1.629,5.225,5.225,0,0,1,.567,2.511,5.279,5.279,0,0,1-.567,2.52,3.976,3.976,0,0,1-1.6,1.638A4.937,4.937,0,0,1,153.372,18.18Zm0-1.728a2.1,2.1,0,0,0,1.692-.747,3.44,3.44,0,0,0,.63-2.259,3.4,3.4,0,0,0-.63-2.25,2.309,2.309,0,0,0-3.384,0,3.4,3.4,0,0,0-.63,2.25,3.44,3.44,0,0,0,.63,2.259A2.1,2.1,0,0,0,153.372,16.452Z" transform="translate(1019 7472)" fill="#212429"/>
    </g>
    <g id="Rectángulo_409120" data-name="Rectángulo 409120" transform="translate(1017 7589)" fill="#fef6e9" stroke="#fdc621" stroke-width="1">
      <rect width="211" height="56" stroke="none"/>
      <rect x="0.5" y="0.5" width="210" height="55" fill="none"/>
    </g>
    <path id="Trazado_994648" data-name="Trazado 994648" d="M5.724,18.162a8.753,8.753,0,0,1-2.736-.4A6.464,6.464,0,0,1,.882,16.632l.54-1.188a8.251,8.251,0,0,0,1.269.783,5.731,5.731,0,0,0,1.377.468,8.188,8.188,0,0,0,1.656.153A3.89,3.89,0,0,0,8.1,16.254a1.9,1.9,0,0,0,.774-1.584,1.592,1.592,0,0,0-.54-1.3,4.409,4.409,0,0,0-1.89-.72l-1.89-.378a5.277,5.277,0,0,1-2.6-1.17A2.881,2.881,0,0,1,1.1,8.91a3.4,3.4,0,0,1,.585-1.98A3.814,3.814,0,0,1,3.33,5.616,6.068,6.068,0,0,1,5.8,5.148a7.183,7.183,0,0,1,2.466.4A5.253,5.253,0,0,1,10.17,6.732L9.648,7.884A5.417,5.417,0,0,0,7.875,6.8a6.176,6.176,0,0,0-2.1-.333A3.812,3.812,0,0,0,3.447,7.1a2.054,2.054,0,0,0-.855,1.737,1.774,1.774,0,0,0,.54,1.377,3.755,3.755,0,0,0,1.782.747l1.908.378a5.912,5.912,0,0,1,2.7,1.134,2.673,2.673,0,0,1,.864,2.124,3.153,3.153,0,0,1-.567,1.854,3.689,3.689,0,0,1-1.611,1.26A6.248,6.248,0,0,1,5.724,18.162Zm10.928,0A4.505,4.505,0,0,1,13.3,16.929,4.654,4.654,0,0,1,12.08,13.5a5.356,5.356,0,0,1,.54-2.475,3.992,3.992,0,0,1,1.512-1.638A4.243,4.243,0,0,1,16.364,8.8a3.907,3.907,0,0,1,2.088.522,3.374,3.374,0,0,1,1.3,1.485,5.335,5.335,0,0,1,.45,2.277v.54h-7v-.918h6.048l-.306.234a3.512,3.512,0,0,0-.648-2.25,2.319,2.319,0,0,0-1.926-.81,2.546,2.546,0,0,0-2.106.945,3.963,3.963,0,0,0-.756,2.547v.162a3.569,3.569,0,0,0,.837,2.565,3.1,3.1,0,0,0,2.349.873,4.672,4.672,0,0,0,1.521-.243,4.135,4.135,0,0,0,1.359-.8l.5,1.026a4.005,4.005,0,0,1-1.5.891A5.813,5.813,0,0,1,16.652,18.162Zm9.578,0a4.486,4.486,0,0,1-2.313-.576A3.845,3.845,0,0,1,22.4,15.948a5.575,5.575,0,0,1-.531-2.52,5.372,5.372,0,0,1,.54-2.511,3.708,3.708,0,0,1,1.521-1.575,4.685,4.685,0,0,1,2.3-.54,4.772,4.772,0,0,1,1.683.306,3.62,3.62,0,0,1,1.359.864l-.522,1.044a3.585,3.585,0,0,0-1.179-.774A3.4,3.4,0,0,0,26.32,9.99a2.744,2.744,0,0,0-2.178.882,3.792,3.792,0,0,0-.774,2.574,3.908,3.908,0,0,0,.774,2.592,2.692,2.692,0,0,0,2.178.918,3.579,3.579,0,0,0,1.233-.234,3.41,3.41,0,0,0,1.2-.774l.522,1.026a3.665,3.665,0,0,1-1.386.882A4.749,4.749,0,0,1,26.23,18.162ZM31.307,18V11.142q0-.54-.027-1.1T31.2,8.964h1.4l.18,2.2-.252.018a3,3,0,0,1,.63-1.332,2.881,2.881,0,0,1,1.062-.783A3.225,3.225,0,0,1,35.5,8.8q.27,0,.477.018a1.351,1.351,0,0,1,.387.09l-.018,1.3a2.537,2.537,0,0,0-.495-.117,4.347,4.347,0,0,0-.513-.027,2.481,2.481,0,0,0-1.377.378,2.448,2.448,0,0,0-.882.972,2.78,2.78,0,0,0-.3,1.26V18Zm10.478.162a4.505,4.505,0,0,1-3.348-1.233A4.654,4.654,0,0,1,37.213,13.5a5.356,5.356,0,0,1,.54-2.475,3.992,3.992,0,0,1,1.512-1.638A4.243,4.243,0,0,1,41.5,8.8a3.907,3.907,0,0,1,2.088.522,3.374,3.374,0,0,1,1.3,1.485,5.335,5.335,0,0,1,.45,2.277v.54h-7v-.918h6.048l-.306.234a3.512,3.512,0,0,0-.648-2.25,2.319,2.319,0,0,0-1.926-.81,2.546,2.546,0,0,0-2.106.945,3.963,3.963,0,0,0-.756,2.547v.162a3.569,3.569,0,0,0,.837,2.565,3.1,3.1,0,0,0,2.349.873,4.672,4.672,0,0,0,1.521-.243,4.135,4.135,0,0,0,1.359-.8l.5,1.026a4.005,4.005,0,0,1-1.5.891A5.813,5.813,0,0,1,41.785,18.162Zm8.984,0a2.623,2.623,0,0,1-2.034-.765,3.323,3.323,0,0,1-.7-2.313V10.1H46.269V8.964h1.764V6.5l1.458-.414v2.88h2.592V10.1H49.491v4.824a2.486,2.486,0,0,0,.369,1.539,1.335,1.335,0,0,0,1.107.459,2.7,2.7,0,0,0,.612-.063,3.093,3.093,0,0,0,.486-.153v1.224a2.791,2.791,0,0,1-.6.171A3.917,3.917,0,0,1,50.769,18.162Zm6.536,0a3.867,3.867,0,0,1-2.106-.567,3.747,3.747,0,0,1-1.4-1.611,5.8,5.8,0,0,1-.5-2.5,5.844,5.844,0,0,1,.5-2.52,3.688,3.688,0,0,1,1.4-1.6A3.914,3.914,0,0,1,57.3,8.8a3.605,3.605,0,0,1,2.115.621A2.92,2.92,0,0,1,60.6,11.106h-.216l.2-2.142h1.4q-.054.522-.1,1.053t-.045,1.035V18H60.383V15.876h.2a2.869,2.869,0,0,1-1.188,1.674A3.624,3.624,0,0,1,57.3,18.162Zm.288-1.188a2.551,2.551,0,0,0,2.052-.891,3.922,3.922,0,0,0,.756-2.6,3.953,3.953,0,0,0-.756-2.619,2.8,2.8,0,0,0-4.1,0,3.92,3.92,0,0,0-.765,2.619,3.89,3.89,0,0,0,.765,2.6A2.557,2.557,0,0,0,57.593,16.974ZM64.633,18V11.142q0-.54-.027-1.1t-.081-1.08h1.4l.18,2.2-.252.018a3,3,0,0,1,.63-1.332,2.881,2.881,0,0,1,1.062-.783A3.225,3.225,0,0,1,68.827,8.8q.27,0,.477.018a1.351,1.351,0,0,1,.387.09l-.018,1.3a2.537,2.537,0,0,0-.5-.117,4.347,4.347,0,0,0-.513-.027,2.481,2.481,0,0,0-1.377.378,2.448,2.448,0,0,0-.882.972,2.78,2.78,0,0,0-.3,1.26V18ZM71.2,18V8.964h1.458V18Zm-.18-11.088V5.274h1.8V6.912Zm7.9,11.25a3.867,3.867,0,0,1-2.106-.567,3.747,3.747,0,0,1-1.395-1.611,5.8,5.8,0,0,1-.5-2.5,5.844,5.844,0,0,1,.5-2.52,3.688,3.688,0,0,1,1.395-1.6A3.914,3.914,0,0,1,78.928,8.8a3.605,3.605,0,0,1,2.115.621,2.92,2.92,0,0,1,1.179,1.683h-.216l.2-2.142h1.4q-.054.522-.1,1.053t-.045,1.035V18H82.006V15.876h.2a2.869,2.869,0,0,1-1.188,1.674A3.624,3.624,0,0,1,78.928,18.162Zm.288-1.188a2.551,2.551,0,0,0,2.052-.891,3.922,3.922,0,0,0,.756-2.6,3.953,3.953,0,0,0-.756-2.619,2.8,2.8,0,0,0-4.095,0,3.92,3.92,0,0,0-.765,2.619,3.89,3.89,0,0,0,.765,2.6A2.557,2.557,0,0,0,79.216,16.974Z" transform="translate(1037 7606)" fill="#212429"/>
    <g id="Grupo_1155741" data-name="Grupo 1155741" transform="translate(1018.863 7512.366)">
      <g id="Rectángulo_404730-8" data-name="Rectángulo 404730" transform="translate(0.137)" fill="#fef6e9" stroke="#fdc621" stroke-width="1">
        <rect width="211" height="56" stroke="none"/>
        <rect x="0.5" y="0.5" width="210" height="55" fill="none"/>
      </g>
      <path id="Trazado_994647" data-name="Trazado 994647" d="M7.11,18.162a6.234,6.234,0,0,1-3.24-.792,5.2,5.2,0,0,1-2.043-2.25,7.853,7.853,0,0,1-.711-3.474,7.8,7.8,0,0,1,.711-3.465A5.212,5.212,0,0,1,3.87,5.94a6.234,6.234,0,0,1,3.24-.792,6.6,6.6,0,0,1,2.412.414,5.328,5.328,0,0,1,1.854,1.206l-.558,1.188a6.3,6.3,0,0,0-1.71-1.107A5.141,5.141,0,0,0,7.128,6.5a4.081,4.081,0,0,0-3.312,1.35,5.739,5.739,0,0,0-1.134,3.8,5.776,5.776,0,0,0,1.134,3.807,4.068,4.068,0,0,0,3.312,1.359,5.141,5.141,0,0,0,1.98-.351,6.12,6.12,0,0,0,1.71-1.125l.558,1.206a5.572,5.572,0,0,1-1.854,1.2A6.475,6.475,0,0,1,7.11,18.162Zm9.7,0a4.371,4.371,0,0,1-2.259-.567,3.776,3.776,0,0,1-1.485-1.62,5.554,5.554,0,0,1-.522-2.493,5.541,5.541,0,0,1,.522-2.5,3.787,3.787,0,0,1,1.485-1.611A4.371,4.371,0,0,1,16.814,8.8a4.407,4.407,0,0,1,2.277.567,3.844,3.844,0,0,1,1.494,1.611,5.461,5.461,0,0,1,.531,2.5,5.475,5.475,0,0,1-.531,2.493,3.833,3.833,0,0,1-1.494,1.62A4.407,4.407,0,0,1,16.814,18.162Zm0-1.188a2.551,2.551,0,0,0,2.052-.891,3.922,3.922,0,0,0,.756-2.6,3.92,3.92,0,0,0-.765-2.619,2.557,2.557,0,0,0-2.043-.891,2.531,2.531,0,0,0-2.034.891,3.953,3.953,0,0,0-.756,2.619,3.922,3.922,0,0,0,.756,2.6A2.531,2.531,0,0,0,16.814,16.974ZM23.386,18V11.052q0-.5-.045-1.035t-.1-1.053h1.4l.18,1.98H24.61a3.127,3.127,0,0,1,1.269-1.593A3.723,3.723,0,0,1,27.9,8.8a3.2,3.2,0,0,1,2.421.855,3.781,3.781,0,0,1,.819,2.691V18H29.686V12.438a2.787,2.787,0,0,0-.513-1.863A2.01,2.01,0,0,0,27.58,9.99a2.63,2.63,0,0,0-2,.774,2.875,2.875,0,0,0-.738,2.07V18Zm13.754.162a2.623,2.623,0,0,1-2.034-.765,3.323,3.323,0,0,1-.7-2.313V10.1H32.639V8.964H34.4V6.5l1.458-.414v2.88h2.592V10.1H35.861v4.824a2.486,2.486,0,0,0,.369,1.539,1.335,1.335,0,0,0,1.107.459,2.7,2.7,0,0,0,.612-.063,3.093,3.093,0,0,0,.486-.153v1.224a2.791,2.791,0,0,1-.6.171A3.917,3.917,0,0,1,37.139,18.162Zm6.536,0a3.867,3.867,0,0,1-2.106-.567,3.747,3.747,0,0,1-1.4-1.611,5.8,5.8,0,0,1-.5-2.5,5.844,5.844,0,0,1,.5-2.52,3.688,3.688,0,0,1,1.4-1.6A3.914,3.914,0,0,1,43.675,8.8a3.605,3.605,0,0,1,2.115.621,2.92,2.92,0,0,1,1.179,1.683h-.216l.2-2.142h1.4q-.054.522-.1,1.053t-.045,1.035V18H46.753V15.876h.2a2.869,2.869,0,0,1-1.188,1.674A3.624,3.624,0,0,1,43.675,18.162Zm.288-1.188a2.551,2.551,0,0,0,2.052-.891,3.922,3.922,0,0,0,.756-2.6,3.953,3.953,0,0,0-.756-2.619,2.8,2.8,0,0,0-4.1,0,3.92,3.92,0,0,0-.765,2.619,3.89,3.89,0,0,0,.765,2.6A2.557,2.557,0,0,0,43.963,16.974Zm10.5,1.188a3.834,3.834,0,0,1-2.088-.567,3.747,3.747,0,0,1-1.4-1.611,5.8,5.8,0,0,1-.5-2.5,5.844,5.844,0,0,1,.5-2.52,3.688,3.688,0,0,1,1.4-1.6A3.88,3.88,0,0,1,54.459,8.8a3.643,3.643,0,0,1,2.115.612,2.962,2.962,0,0,1,1.2,1.656h-.216V4.752h1.458V18h-1.44V15.84h.2a2.911,2.911,0,0,1-1.188,1.7A3.647,3.647,0,0,1,54.459,18.162Zm.306-1.188a2.584,2.584,0,0,0,2.052-.891,3.859,3.859,0,0,0,.774-2.6,3.889,3.889,0,0,0-.774-2.619,2.584,2.584,0,0,0-2.052-.891,2.557,2.557,0,0,0-2.043.891,3.92,3.92,0,0,0-.765,2.619,3.89,3.89,0,0,0,.765,2.6A2.557,2.557,0,0,0,54.765,16.974Zm10.784,1.188a4.371,4.371,0,0,1-2.259-.567,3.776,3.776,0,0,1-1.485-1.62,5.554,5.554,0,0,1-.522-2.493,5.541,5.541,0,0,1,.522-2.5A3.787,3.787,0,0,1,63.29,9.369a4.819,4.819,0,0,1,4.536,0A3.844,3.844,0,0,1,69.32,10.98a5.461,5.461,0,0,1,.531,2.5,5.475,5.475,0,0,1-.531,2.493,3.833,3.833,0,0,1-1.494,1.62A4.407,4.407,0,0,1,65.549,18.162Zm0-1.188a2.551,2.551,0,0,0,2.052-.891,3.922,3.922,0,0,0,.756-2.6,3.92,3.92,0,0,0-.765-2.619,2.557,2.557,0,0,0-2.043-.891,2.531,2.531,0,0,0-2.034.891,3.953,3.953,0,0,0-.756,2.619,3.922,3.922,0,0,0,.756,2.6A2.531,2.531,0,0,0,65.549,16.974ZM72.085,18V11.142q0-.54-.027-1.1t-.081-1.08h1.4l.18,2.2-.252.018a3,3,0,0,1,.63-1.332A2.881,2.881,0,0,1,75,9.063,3.225,3.225,0,0,1,76.279,8.8q.27,0,.477.018a1.351,1.351,0,0,1,.387.09l-.018,1.3a2.537,2.537,0,0,0-.5-.117,4.347,4.347,0,0,0-.513-.027,2.481,2.481,0,0,0-1.377.378,2.448,2.448,0,0,0-.882.972,2.78,2.78,0,0,0-.3,1.26V18Z" transform="translate(20.137 17)" fill="#212429"/>
    </g>
  </g>
</svg>
