<svg xmlns="http://www.w3.org/2000/svg" xmlns:xlink="http://www.w3.org/1999/xlink" width="108" height="108" viewBox="0 0 108 108">
  <defs>
    <filter id="Trazado_982552" x="0" y="0" width="108" height="108" filterUnits="userSpaceOnUse">
      <feOffset dy="3" input="SourceAlpha"/>
      <feGaussianBlur stdDeviation="3" result="blur"/>
      <feFlood flood-opacity="0.161"/>
      <feComposite operator="in" in2="blur"/>
      <feComposite in="SourceGraphic"/>
    </filter>
  </defs>
  <g id="Grupo_1157277" data-name="Grupo 1157277" transform="translate(-831 -3288)">
    <g id="Grupo_1151787" data-name="Grupo 1151787" transform="translate(0 -1682)">
      <g id="Grupo_1150792" data-name="Grupo 1150792" transform="translate(0 3180)">
        <g transform="matrix(1, 0, 0, 1, 831, 1790)" filter="url(#Trazado_982552)">
          <g id="Trazado_982552-2" data-name="Trazado 982552" transform="translate(9 6)" fill="#f3f3f3">
            <path d="M 45 88.5 C 39.12687683105469 88.5 33.43022537231445 87.35007476806641 28.06830024719238 85.08217620849609 C 22.88852500915527 82.89131164550781 18.23629951477051 79.75458526611328 14.2408504486084 75.75914764404297 C 10.24541282653809 71.76370239257812 7.108687400817871 67.11147308349609 4.917825222015381 61.93170166015625 C 2.649924993515015 56.56977462768555 1.5 50.87312316894531 1.5 45 C 1.5 39.12687683105469 2.649924993515015 33.43022537231445 4.917825222015381 28.06830024719238 C 7.108687400817871 22.88852500915527 10.24541282653809 18.23629951477051 14.2408504486084 14.2408504486084 C 18.23629951477051 10.24541282653809 22.88852500915527 7.108687400817871 28.06830024719238 4.917825222015381 C 33.43022537231445 2.649924993515015 39.12687683105469 1.5 45 1.5 C 50.87312316894531 1.5 56.56977462768555 2.649924993515015 61.93170166015625 4.917825222015381 C 67.11147308349609 7.108687400817871 71.76370239257812 10.24541282653809 75.75914764404297 14.2408504486084 C 79.75458526611328 18.23629951477051 82.89131164550781 22.88852500915527 85.08217620849609 28.06830024719238 C 87.35007476806641 33.43022537231445 88.5 39.12687683105469 88.5 45 C 88.5 50.87312316894531 87.35007476806641 56.56977462768555 85.08217620849609 61.93170166015625 C 82.89131164550781 67.11147308349609 79.75458526611328 71.76370239257812 75.75914764404297 75.75914764404297 C 71.76370239257812 79.75458526611328 67.11147308349609 82.89131164550781 61.93170166015625 85.08217620849609 C 56.56977462768555 87.35007476806641 50.87312316894531 88.5 45 88.5 Z" stroke="none"/>
            <path d="M 45 3 C 39.32871246337891 3 33.82865524291992 4.110054016113281 28.65262985229492 6.299339294433594 C 23.65165710449219 8.414573669433594 19.15968322753906 11.44334411621094 15.301513671875 15.301513671875 C 11.44334411621094 19.15968322753906 8.414573669433594 23.65165710449219 6.299339294433594 28.65262985229492 C 4.110054016113281 33.82865524291992 3 39.32871246337891 3 45 C 3 50.67128753662109 4.110054016113281 56.17134475708008 6.299339294433594 61.34737396240234 C 8.414573669433594 66.34834289550781 11.44334411621094 70.84031677246094 15.301513671875 74.698486328125 C 19.15968322753906 78.55665588378906 23.65165710449219 81.58542633056641 28.65262985229492 83.70066070556641 C 33.82865524291992 85.88994598388672 39.32871246337891 87 45 87 C 50.67128753662109 87 56.17134475708008 85.88994598388672 61.34737396240234 83.70066070556641 C 66.34834289550781 81.58542633056641 70.84031677246094 78.55665588378906 74.698486328125 74.698486328125 C 78.55665588378906 70.84031677246094 81.58542633056641 66.34834289550781 83.70066070556641 61.34737396240234 C 85.88994598388672 56.17134475708008 87 50.67128753662109 87 45 C 87 39.32871246337891 85.88994598388672 33.82865524291992 83.70066070556641 28.65262985229492 C 81.58542633056641 23.65165710449219 78.55665588378906 19.15968322753906 74.698486328125 15.301513671875 C 70.84031677246094 11.44334411621094 66.34834289550781 8.414573669433594 61.34737396240234 6.299339294433594 C 56.17134475708008 4.110054016113281 50.67128753662109 3 45 3 M 45 0 C 69.85281372070312 0 90 20.14718627929688 90 45 C 90 69.85281372070312 69.85281372070312 90 45 90 C 20.14718627929688 90 0 69.85281372070312 0 45 C 0 20.14718627929688 20.14718627929688 0 45 0 Z" stroke="none" fill="#fd7940"/>
          </g>
        </g>
      </g>
    </g>
    <g id="calidad" transform="translate(853.981 3303.325)">
      <g id="Grupo_1157276" data-name="Grupo 1157276" transform="translate(1.949 7.607)">
        <g id="Grupo_1157273" data-name="Grupo 1157273" transform="translate(38.615 14.732)">
          <path id="Trazado_990327" data-name="Trazado 990327" d="M343.448,179.883h12.6a20.315,20.315,0,0,1-.985-2.49,6.713,6.713,0,0,1-.386-2.576,6.177,6.177,0,0,1,.785-2.654v0l3.18-6a5.662,5.662,0,0,0,.561-4.264l-4.948-18.467a3.1,3.1,0,0,0-5.992,1.606l3.446,12.86-.078-.047a3.445,3.445,0,0,0-4.692,1.237l-6.031,10.351a5.43,5.43,0,0,0,0,4.3Z" transform="translate(-340.467 -141.128)" fill="#ffd6bd" fill-rule="evenodd"/>
          <path id="Trazado_990328" data-name="Trazado 990328" d="M407.909,286.109a3.446,3.446,0,0,0-.613-4.226,3.4,3.4,0,0,1,.738.32,3.44,3.44,0,0,1,1.237,4.692c-1.175,2.014-2.331,4.037-3.5,6.058a.789.789,0,1,1-1.367-.789C405.57,290.147,406.731,288.132,407.909,286.109Z" transform="translate(-396.864 -265.485)" fill="#f9c6aa" fill-rule="evenodd"/>
          <path id="Trazado_990329" data-name="Trazado 990329" d="M341.352,461.159h15.406a.685.685,0,0,1,.683.683v2.847a.685.685,0,0,1-.683.683H341.352a.685.685,0,0,1-.683-.683v-2.847A.685.685,0,0,1,341.352,461.159Z" transform="translate(-340.645 -423.876)" fill="#64b5f6" fill-rule="evenodd"/>
        </g>
        <g id="Grupo_1157274" data-name="Grupo 1157274" transform="translate(0 14.732)">
          <path id="Trazado_990330" data-name="Trazado 990330" d="M24.953,179.883H12.35a20.331,20.331,0,0,0,.985-2.49,6.712,6.712,0,0,0,.386-2.576,6.176,6.176,0,0,0-.785-2.654l0,0-3.18-6a5.662,5.662,0,0,1-.561-4.264l4.948-18.467a3.1,3.1,0,0,1,5.992,1.606l-3.446,12.86.078-.047a3.445,3.445,0,0,1,4.692,1.237l6.031,10.351a5.43,5.43,0,0,1,0,4.3Z" transform="translate(-9 -141.128)" fill="#ffd6bd" fill-rule="evenodd"/>
          <path id="Trazado_990331" data-name="Trazado 990331" d="M62.881,286.109a3.446,3.446,0,0,1,.613-4.226,3.4,3.4,0,0,0-.738.32,3.44,3.44,0,0,0-1.237,4.692c1.175,2.014,2.331,4.037,3.5,6.058a.789.789,0,1,0,1.367-.789C65.22,290.147,64.059,288.132,62.881,286.109Z" transform="translate(-54.991 -265.485)" fill="#f9c6aa" fill-rule="evenodd"/>
          <path id="Trazado_990332" data-name="Trazado 990332" d="M43.449,461.159H28.043a.685.685,0,0,0-.683.683v2.847a.685.685,0,0,0,.683.683H43.449a.685.685,0,0,0,.683-.683v-2.847a.685.685,0,0,0-.683-.683Z" transform="translate(-25.221 -423.876)" fill="#64b5f6" fill-rule="evenodd"/>
        </g>
        <g id="Grupo_1157275" data-name="Grupo 1157275" transform="translate(13.902 0)">
          <path id="Trazado_990333" data-name="Trazado 990333" d="M143.2,154.981l-6.734,11.663a.357.357,0,0,1-.646-.057l-1.813-5.026-5.259.943a.357.357,0,0,1-.373-.53l7.661-13.269,8.338,2.826,5.057-4.439,8.593,14.883a.357.357,0,0,1-.373.53l-5.26-.943-1.813,5.026a.357.357,0,0,1-.646.057Z" transform="translate(-128.331 -131.663)" fill="#ffda2d" fill-rule="evenodd"/>
          <path id="Trazado_990334" data-name="Trazado 990334" d="M164.881,35.258a3.735,3.735,0,0,0,1.75-5.386,2.106,2.106,0,0,1,0-2.448,3.735,3.735,0,0,0-1.75-5.386,2.106,2.106,0,0,1-1.439-1.98,3.735,3.735,0,0,0-4.582-3.329,2.106,2.106,0,0,1-2.328-.756,3.735,3.735,0,0,0-5.663,0,2.106,2.106,0,0,1-2.328.757,3.735,3.735,0,0,0-4.582,3.329,2.106,2.106,0,0,1-1.439,1.981,3.735,3.735,0,0,0-1.75,5.386,2.106,2.106,0,0,1,0,2.448,3.735,3.735,0,0,0,1.75,5.386,2.106,2.106,0,0,1,1.439,1.98,3.735,3.735,0,0,0,4.582,3.329,2.106,2.106,0,0,1,2.328.756,3.735,3.735,0,0,0,5.663,0,2.106,2.106,0,0,1,2.328-.756,3.735,3.735,0,0,0,4.582-3.329A2.106,2.106,0,0,1,164.881,35.258Z" transform="translate(-138.827 -14.673)" fill="#fc685b" fill-rule="evenodd"/>
          <circle id="Elipse_11762" data-name="Elipse 11762" cx="8.521" cy="8.521" r="8.521" transform="translate(6.352 5.455)" fill="#eff4f7"/>
          <path id="Trazado_990335" data-name="Trazado 990335" d="M215.642,100.27a1.52,1.52,0,0,1,2.149,2.149l-5.353,5.353a1.521,1.521,0,0,1-2.322-.206l-2.213-2.785a1.517,1.517,0,1,1,2.375-1.888l1.214,1.527Z" transform="translate(-198.342 -89.905)" fill="#64b5f6" fill-rule="evenodd"/>
        </g>
      </g>
      <path id="Trazado_990336" data-name="Trazado 990336" d="M19.58,54.59l-1.693,4.1H7.236a7.048,7.048,0,0,0-.529-5.755l-3.179-6a4.745,4.745,0,0,1-.485-3.586L7.991,24.878a2.173,2.173,0,0,1,2.657-1.534A2.179,2.179,0,0,1,12.182,26L8.826,38.53a4.367,4.367,0,0,0-1.153,5.686l3.221,5.53a.932.932,0,0,0,1.61-.939L9.282,43.279a2.5,2.5,0,0,1,4.32-2.516l6,10.3a4.468,4.468,0,0,1-.02,3.532Zm.348,8.313H5.02v-2.35H19.928ZM21.3,50.287a.963.963,0,0,0-.055-.113L15.212,39.823a4.332,4.332,0,0,0-2.658-2.017,4.394,4.394,0,0,0-1.572-.124l3-11.2A4.034,4.034,0,0,0,6.191,24.4L1.242,42.862A6.628,6.628,0,0,0,1.88,47.8l3.179,6a5.414,5.414,0,0,1,.2,4.883H4.772A1.617,1.617,0,0,0,3.156,60.3v2.847a1.618,1.618,0,0,0,1.616,1.616H20.178a1.617,1.617,0,0,0,1.615-1.616V60.3a1.617,1.617,0,0,0-1.615-1.615H19.9L21.3,55.3a6.338,6.338,0,0,0,0-5.014Zm22.263,8.4-1.693-4.1a4.474,4.474,0,0,1-.02-3.532l6-10.3a2.5,2.5,0,0,1,4.32,2.516l-3.221,5.529a.932.932,0,1,0,1.61.939l3.222-5.53a4.368,4.368,0,0,0-1.154-5.686L49.266,26a2.17,2.17,0,0,1,4.192-1.123l4.948,18.467a4.748,4.748,0,0,1-.485,3.586l-3.18,6a7.049,7.049,0,0,0-.529,5.755H43.561ZM56.428,62.9H41.52v-2.35H56.428Zm-.039-9.1,3.179-6a6.621,6.621,0,0,0,.638-4.942L55.259,24.4a4.034,4.034,0,0,0-7.794,2.088l3,11.2a4.4,4.4,0,0,0-1.572.124,4.334,4.334,0,0,0-2.658,2.017L40.2,50.175a1.059,1.059,0,0,0-.054.113,6.338,6.338,0,0,0-.005,5.014l1.4,3.388H41.27A1.617,1.617,0,0,0,39.656,60.3v2.847a1.618,1.618,0,0,0,1.615,1.616H56.677a1.617,1.617,0,0,0,1.616-1.616V60.3a1.617,1.617,0,0,0-1.616-1.615h-.488a5.416,5.416,0,0,1,.2-4.883ZM34.642,19.462l-5.354,5.353a.574.574,0,0,1-.465.17.582.582,0,0,1-.433-.25c-.012-.016-.024-.031-.035-.047L26.141,21.9a.586.586,0,0,1,.458-.95.672.672,0,0,1,.068,0,.583.583,0,0,1,.391.218L28.27,22.7a.932.932,0,0,0,1.389.079l4.15-4.151a.588.588,0,0,1,.832.832Zm1.318-2.149a2.453,2.453,0,0,0-3.467,0L29.08,20.725l-.564-.709a2.449,2.449,0,1,0-3.834,3.048l2.2,2.765a2.449,2.449,0,0,0,1.778,1.015c.072.006.144.009.217.009a2.445,2.445,0,0,0,1.731-.718L35.96,20.78a2.453,2.453,0,0,0,0-3.467ZM30.724,29.171a7.589,7.589,0,1,0-7.588-7.589A7.6,7.6,0,0,0,30.724,29.171Zm9.453-7.589a9.453,9.453,0,1,1-9.453-9.452,9.463,9.463,0,0,1,9.453,9.452ZM39.04,37.187a.931.931,0,0,1,1.042-.6l4.041.725-3.14-5.437a4.777,4.777,0,0,1-1.5,1.768,4.458,4.458,0,0,1-3.873.752,1.182,1.182,0,0,0-1.314.426c-.047.062-.1.121-.146.18l3.493,6.05ZM28.635,33.7a2.812,2.812,0,0,0,4.178,0,3.042,3.042,0,0,1,3.342-1.086,2.81,2.81,0,0,0,3.379-2.456A3.044,3.044,0,0,1,41.6,27.311a2.81,2.81,0,0,0,1.291-3.972,3.045,3.045,0,0,1,0-3.515A2.81,2.81,0,0,0,41.6,15.853a3.046,3.046,0,0,1-2.066-2.844,2.81,2.81,0,0,0-3.379-2.455,3.04,3.04,0,0,1-3.342-1.087,2.814,2.814,0,0,0-4.178,0,3.043,3.043,0,0,1-3.342,1.087,2.81,2.81,0,0,0-3.378,2.455,3.047,3.047,0,0,1-2.066,2.844,2.594,2.594,0,0,0-1.53,1.7,2.592,2.592,0,0,0,.238,2.273,3.045,3.045,0,0,1,0,3.515,2.811,2.811,0,0,0,1.291,3.972,3.044,3.044,0,0,1,2.066,2.843,2.81,2.81,0,0,0,3.378,2.456,3.1,3.1,0,0,1,.909-.136A3.04,3.04,0,0,1,28.635,33.7ZM23.8,41.05,27.294,35c-.05-.059-.1-.119-.146-.18a1.18,1.18,0,0,0-1.314-.426,4.461,4.461,0,0,1-3.874-.752,4.782,4.782,0,0,1-1.5-1.768l-3.14,5.437,4.041-.725a.931.931,0,0,1,1.042.6Zm21.21-1.686a1.29,1.29,0,0,0,1.344-1.914L41.708,29.4a1.2,1.2,0,0,1,.5-.326,4.664,4.664,0,0,0,2.21-6.8,1.181,1.181,0,0,1,0-1.382,4.662,4.662,0,0,0-2.208-6.8,1.18,1.18,0,0,1-.812-1.118,4.663,4.663,0,0,0-5.784-4.2A1.181,1.181,0,0,1,34.3,8.344a4.665,4.665,0,0,0-7.151,0,1.179,1.179,0,0,1-1.312.427,4.663,4.663,0,0,0-5.785,4.2,1.181,1.181,0,0,1-.812,1.118,4.663,4.663,0,0,0-2.21,6.8,1.18,1.18,0,0,1,0,1.382,4.662,4.662,0,0,0,2.209,6.8,1.208,1.208,0,0,1,.5.326l-4.648,8.051a1.289,1.289,0,0,0,1.344,1.913l4.485-.8,1.546,4.287a1.279,1.279,0,0,0,1.1.847c.04,0,.079,0,.119,0a1.277,1.277,0,0,0,1.112-.645L28.813,36.1a4.89,4.89,0,0,0,3.823,0l4.014,6.953a1.278,1.278,0,0,0,1.113.645c.04,0,.079,0,.119,0a1.28,1.28,0,0,0,1.1-.848l1.545-4.286Z" transform="translate(0 0)" fill-rule="evenodd"/>
    </g>
  </g>
</svg>
