<svg xmlns="http://www.w3.org/2000/svg" xmlns:xlink="http://www.w3.org/1999/xlink" width="108" height="108" viewBox="0 0 108 108">
  <defs>
    <filter id="Trazado_982550" x="0" y="0" width="108" height="108" filterUnits="userSpaceOnUse">
      <feOffset dy="3" input="SourceAlpha"/>
      <feGaussianBlur stdDeviation="3" result="blur"/>
      <feFlood flood-opacity="0.161"/>
      <feComposite operator="in" in2="blur"/>
      <feComposite in="SourceGraphic"/>
    </filter>
  </defs>
  <g id="Grupo_1157279" data-name="Grupo 1157279" transform="translate(-191 -4886.5)">
    <g id="Grupo_1151792" data-name="Grupo 1151792" transform="translate(-10 101.5)">
      <g id="Grupo_1150789" data-name="Grupo 1150789" transform="translate(0 3180)">
        <g transform="matrix(1, 0, 0, 1, 201, 1605)" filter="url(#Trazado_982550)">
          <g id="Trazado_982550-2" data-name="Trazado 982550" transform="translate(9 6)" fill="#f3f3f3">
            <path d="M 45 88.5 C 39.12687683105469 88.5 33.43022537231445 87.35007476806641 28.06830024719238 85.08217620849609 C 22.88852500915527 82.89131164550781 18.23629951477051 79.75458526611328 14.2408504486084 75.75914764404297 C 10.24541282653809 71.76370239257812 7.108687400817871 67.11147308349609 4.917825222015381 61.93170166015625 C 2.649924993515015 56.56977462768555 1.5 50.87312316894531 1.5 45 C 1.5 39.12687683105469 2.649924993515015 33.43022537231445 4.917825222015381 28.06830024719238 C 7.108687400817871 22.88852500915527 10.24541282653809 18.23629951477051 14.2408504486084 14.2408504486084 C 18.23629951477051 10.24541282653809 22.88852500915527 7.108687400817871 28.06830024719238 4.917825222015381 C 33.43022537231445 2.649924993515015 39.12687683105469 1.5 45 1.5 C 50.87312316894531 1.5 56.56977462768555 2.649924993515015 61.93170166015625 4.917825222015381 C 67.11147308349609 7.108687400817871 71.76370239257812 10.24541282653809 75.75914764404297 14.2408504486084 C 79.75458526611328 18.23629951477051 82.89131164550781 22.88852500915527 85.08217620849609 28.06830024719238 C 87.35007476806641 33.43022537231445 88.5 39.12687683105469 88.5 45 C 88.5 50.87312316894531 87.35007476806641 56.56977462768555 85.08217620849609 61.93170166015625 C 82.89131164550781 67.11147308349609 79.75458526611328 71.76370239257812 75.75914764404297 75.75914764404297 C 71.76370239257812 79.75458526611328 67.11147308349609 82.89131164550781 61.93170166015625 85.08217620849609 C 56.56977462768555 87.35007476806641 50.87312316894531 88.5 45 88.5 Z" stroke="none"/>
            <path d="M 45 3 C 39.32871246337891 3 33.82865524291992 4.110054016113281 28.65262985229492 6.299339294433594 C 23.65165710449219 8.414573669433594 19.15968322753906 11.44334411621094 15.301513671875 15.301513671875 C 11.44334411621094 19.15968322753906 8.414573669433594 23.65165710449219 6.299339294433594 28.65262985229492 C 4.110054016113281 33.82865524291992 3 39.32871246337891 3 45 C 3 50.67128753662109 4.110054016113281 56.17134475708008 6.299339294433594 61.34737396240234 C 8.414573669433594 66.34834289550781 11.44334411621094 70.84031677246094 15.301513671875 74.698486328125 C 19.15968322753906 78.55665588378906 23.65165710449219 81.58542633056641 28.65262985229492 83.70066070556641 C 33.82865524291992 85.88994598388672 39.32871246337891 87 45 87 C 50.67128753662109 87 56.17134475708008 85.88994598388672 61.34737396240234 83.70066070556641 C 66.34834289550781 81.58542633056641 70.84031677246094 78.55665588378906 74.698486328125 74.698486328125 C 78.55665588378906 70.84031677246094 81.58542633056641 66.34834289550781 83.70066070556641 61.34737396240234 C 85.88994598388672 56.17134475708008 87 50.67128753662109 87 45 C 87 39.32871246337891 85.88994598388672 33.82865524291992 83.70066070556641 28.65262985229492 C 81.58542633056641 23.65165710449219 78.55665588378906 19.15968322753906 74.698486328125 15.301513671875 C 70.84031677246094 11.44334411621094 66.34834289550781 8.414573669433594 61.34737396240234 6.299339294433594 C 56.17134475708008 4.110054016113281 50.67128753662109 3 45 3 M 45 0 C 69.85281372070312 0 90 20.14718627929688 90 45 C 90 69.85281372070312 69.85281372070312 90 45 90 C 20.14718627929688 90 0 69.85281372070312 0 45 C 0 20.14718627929688 20.14718627929688 0 45 0 Z" stroke="none" fill="#82e0e0"/>
          </g>
        </g>
      </g>
    </g>
    <g id="presentacion_1_" data-name="presentacion (1)" transform="translate(217.171 4909.75)">
      <path id="Trazado_990337" data-name="Trazado 990337" d="M23.973,91.945h50.3v33.607h-50.3Z" transform="translate(-21.295 -81.978)" fill="#f9f3f1"/>
      <path id="Trazado_990338" data-name="Trazado 990338" d="M457.973,91.945h3.252v33.607h-3.252Z" transform="translate(-408.246 -81.978)" fill="#f3eae6"/>
      <path id="Trazado_990339" data-name="Trazado 990339" d="M59.618,405.414H9.208a1.735,1.735,0,1,1,0-3.469h50.41a1.735,1.735,0,1,1,0,3.469Z" transform="translate(-6.584 -358.371)" fill="#d9e7ec"/>
      <path id="Trazado_990340" data-name="Trazado 990340" d="M461.725,401.945h-3.252a1.735,1.735,0,1,1,0,3.469h3.252a1.735,1.735,0,1,0,0-3.469Z" transform="translate(-408.691 -358.371)" fill="#c5d3dd"/>
      <path id="Trazado_990341" data-name="Trazado 990341" d="M72.37,332.243H69.3a.635.635,0,0,1-.635-.635v-3.066a.635.635,0,0,1,.635-.635H72.37a.635.635,0,0,1,.635.635v3.066A.635.635,0,0,1,72.37,332.243Z" transform="translate(-61.145 -292.359)" fill="#8ac9fe"/>
      <path id="Trazado_990342" data-name="Trazado 990342" d="M310.307,231.85v-2.028a.465.465,0,0,0-.368-.455l-1.869-.4a.218.218,0,0,1-.159-.14q-.088-.242-.2-.474a.219.219,0,0,1,.014-.212l1.039-1.6a.465.465,0,0,0-.061-.582l-1.434-1.434a.465.465,0,0,0-.582-.061l-1.6,1.039a.219.219,0,0,1-.212.014q-.232-.108-.474-.2a.218.218,0,0,1-.14-.159l-.4-1.869a.465.465,0,0,0-.455-.368h-2.028a.465.465,0,0,0-.455.368l-.4,1.869a.218.218,0,0,1-.14.159q-.242.088-.474.2a.219.219,0,0,1-.212-.014l-1.6-1.039a.465.465,0,0,0-.582.061l-1.434,1.434a.465.465,0,0,0-.061.582l1.039,1.6a.219.219,0,0,1,.014.212q-.108.232-.2.474a.218.218,0,0,1-.159.14l-1.869.4a.465.465,0,0,0-.368.455v2.028a.465.465,0,0,0,.368.455l1.869.4a.218.218,0,0,1,.159.14q.088.242.2.474a.219.219,0,0,1-.014.212l-1.039,1.6a.465.465,0,0,0,.061.582l1.434,1.434a.465.465,0,0,0,.582.061l1.6-1.039a.219.219,0,0,1,.212-.014q.232.108.474.2a.218.218,0,0,1,.14.159l.4,1.869a.465.465,0,0,0,.455.368h2.028a.465.465,0,0,0,.455-.368l.4-1.869a.218.218,0,0,1,.14-.159q.242-.088.474-.2a.219.219,0,0,1,.212.014l1.6,1.039a.465.465,0,0,0,.582-.061l1.434-1.434a.465.465,0,0,0,.061-.582l-1.039-1.6a.219.219,0,0,1-.014-.212q.108-.232.2-.474a.219.219,0,0,1,.159-.14l1.869-.4A.465.465,0,0,0,310.307,231.85Z" transform="translate(-262.479 -198.757)" fill="#7ca1b1"/>
      <circle id="Elipse_11763" data-name="Elipse 11763" cx="3.469" cy="3.469" r="3.469" transform="translate(36.447 28.61)" fill="#fedba6"/>
      <path id="Trazado_990343" data-name="Trazado 990343" d="M354.091,263.907a3.454,3.454,0,0,0-1.626.4,3.469,3.469,0,0,1,0,6.129,3.469,3.469,0,1,0,1.626-6.534Z" transform="translate(-314.175 -235.297)" fill="#fece85"/>
      <path id="Trazado_990344" data-name="Trazado 990344" d="M416.007,131.119h-3.2a.57.57,0,0,1-.57-.57v-7.532a.57.57,0,0,1,.57-.57h3.2a.57.57,0,0,1,.57.57v7.532A.57.57,0,0,1,416.007,131.119Z" transform="translate(-367.471 -109.172)" fill="#fe646f"/>
      <path id="Trazado_990345" data-name="Trazado 990345" d="M104.044,47.4a7.551,7.551,0,0,1-2.439,5.688,6.156,6.156,0,0,0-1.965,4.524v1.249H93.074V57.608A6.124,6.124,0,0,0,91.122,53.1a7.551,7.551,0,0,1-2.453-5.571,7.689,7.689,0,0,1,15.375-.129Z" transform="translate(-78.977 -35.589)" fill="#fedba6"/>
      <path id="Trazado_990346" data-name="Trazado 990346" d="M146.33,39.915a7.8,7.8,0,0,0-1.734.172,7.66,7.66,0,0,1,6.06,7.306,7.551,7.551,0,0,1-2.439,5.688,6.156,6.156,0,0,0-1.965,4.524v1.249H149.5V57.606a6.156,6.156,0,0,1,1.965-4.524,7.55,7.55,0,0,0,2.439-5.688A7.672,7.672,0,0,0,146.33,39.915Z" transform="translate(-128.841 -35.588)" fill="#fece85"/>
      <path id="Trazado_990347" data-name="Trazado 990347" d="M134.922,218.549h-4.682a.943.943,0,0,1-.943-.943v-2.978h6.567v2.978A.943.943,0,0,1,134.922,218.549Z" transform="translate(-115.202 -191.361)" fill="#7ca1b1"/>
      <path id="Trazado_990348" data-name="Trazado 990348" d="M152.121,214.629v2.978a.943.943,0,0,1-.943.943h3.252a.943.943,0,0,0,.943-.943v-2.978Z" transform="translate(-134.71 -191.362)" fill="#678d98"/>
      <path id="Trazado_990349" data-name="Trazado 990349" d="M97.76,407.113H90.109a.511.511,0,0,1-.511-.511v-4.657h8.673V406.6A.511.511,0,0,1,97.76,407.113Z" transform="translate(-79.806 -358.371)" fill="#ade194"/>
      <path id="Trazado_990350" data-name="Trazado 990350" d="M135.4,401.945V406.6a.511.511,0,0,1-.511.511h3.252a.511.511,0,0,0,.511-.511v-4.657Z" transform="translate(-120.184 -358.371)" fill="#97da7b"/>
      <g id="Grupo_1157278" data-name="Grupo 1157278" transform="translate(0.089 0)">
        <path id="Trazado_990351" data-name="Trazado 990351" d="M332.247,265.2a4.282,4.282,0,1,0-4.282-4.282A4.287,4.287,0,0,0,332.247,265.2Zm0-6.938a2.656,2.656,0,1,1-2.656,2.656A2.659,2.659,0,0,1,332.247,258.262Z" transform="translate(-292.42 -228.839)"/>
        <path id="Trazado_990352" data-name="Trazado 990352" d="M356.374,290.032h1.084a.813.813,0,0,0,0-1.626h-1.084A.813.813,0,0,0,356.374,290.032Z" transform="translate(-317.03 -257.14)"/>
        <path id="Trazado_990353" data-name="Trazado 990353" d="M409.319,114.945h-3.2a1.385,1.385,0,0,0-1.383,1.383v7.532a1.385,1.385,0,0,0,1.383,1.383h3.2a1.385,1.385,0,0,0,1.383-1.383v-7.532A1.385,1.385,0,0,0,409.319,114.945Zm-.243,8.673h-2.71v-7.047h2.71Z" transform="translate(-360.872 -102.484)"/>
        <path id="Trazado_990354" data-name="Trazado 990354" d="M335.611,127.8h-4.169a.813.813,0,0,0,0,1.626h4.169A.813.813,0,0,0,335.611,127.8Z" transform="translate(-294.801 -113.944)"/>
        <path id="Trazado_990355" data-name="Trazado 990355" d="M319.432,151.715H313.3a.813.813,0,0,0,0,1.626h6.136A.813.813,0,0,0,319.432,151.715Z" transform="translate(-278.622 -135.268)"/>
        <path id="Trazado_990356" data-name="Trazado 990356" d="M319.432,175.632H313.3a.813.813,0,0,0,0,1.626h6.136A.813.813,0,0,0,319.432,175.632Z" transform="translate(-278.622 -156.592)"/>
        <path id="Trazado_990357" data-name="Trazado 990357" d="M144.54,330.073h4.45a.813.813,0,0,0,0-1.626h-4.45A.813.813,0,0,0,144.54,330.073Z" transform="translate(-128.161 -292.841)"/>
        <path id="Trazado_990358" data-name="Trazado 990358" d="M144.54,353.99h8.9a.813.813,0,0,0,0-1.626h-8.9A.813.813,0,0,0,144.54,353.99Z" transform="translate(-128.161 -314.165)"/>
        <path id="Trazado_990359" data-name="Trazado 990359" d="M152.9,2.433a.813.813,0,0,0,.813-.813V.807a.813.813,0,0,0-1.626,0V1.62A.813.813,0,0,0,152.9,2.433Z" transform="translate(-135.608 0)"/>
        <path id="Trazado_990360" data-name="Trazado 990360" d="M93.414,17.728a.813.813,0,0,0,1.408-.813l-.407-.7a.813.813,0,0,0-1.408.813Z" transform="translate(-82.837 -14.091)"/>
        <path id="Trazado_990361" data-name="Trazado 990361" d="M207.93,214.448a.813.813,0,0,0-.3,1.111l.407.7a.813.813,0,1,0,1.408-.813l-.407-.7A.813.813,0,0,0,207.93,214.448Z" transform="translate(-185.035 -191.103)"/>
        <path id="Trazado_990362" data-name="Trazado 990362" d="M49.976,60.649l.7.407a.813.813,0,0,0,.813-1.408l-.7-.407a.813.813,0,0,0-.813,1.408Z" transform="translate(-44.205 -52.721)"/>
        <path id="Trazado_990363" data-name="Trazado 990363" d="M249.326,173.864a.813.813,0,1,0-.813,1.408l.7.407a.813.813,0,0,0,.813-1.408Z" transform="translate(-221.219 -154.919)"/>
        <path id="Trazado_990364" data-name="Trazado 990364" d="M35.386,118.32h-.813a.813.813,0,0,0,0,1.626h.813A.813.813,0,0,0,35.386,118.32Z" transform="translate(-30.115 -105.493)"/>
        <path id="Trazado_990365" data-name="Trazado 990365" d="M264.636,119.946a.813.813,0,0,0,0-1.626h-.813a.813.813,0,0,0,0,1.626Z" transform="translate(-234.512 -105.493)"/>
        <path id="Trazado_990366" data-name="Trazado 990366" d="M50.681,173.865l-.7.407a.813.813,0,1,0,.813,1.408l.7-.407a.813.813,0,1,0-.813-1.408Z" transform="translate(-44.206 -154.919)"/>
        <path id="Trazado_990367" data-name="Trazado 990367" d="M248.919,61.165a.809.809,0,0,0,.406-.109l.7-.407a.813.813,0,0,0-.813-1.408l-.7.407a.813.813,0,0,0,.407,1.517Z" transform="translate(-221.218 -52.721)"/>
        <path id="Trazado_990368" data-name="Trazado 990368" d="M93.71,216.67a.813.813,0,0,0,.7-.407l.407-.7a.813.813,0,0,0-1.408-.813l-.407.7a.813.813,0,0,0,.7,1.22Z" transform="translate(-82.837 -191.103)"/>
        <path id="Trazado_990369" data-name="Trazado 990369" d="M207.929,18.025a.814.814,0,0,0,1.111-.3l.407-.7a.813.813,0,1,0-1.408-.813l-.407.7A.813.813,0,0,0,207.929,18.025Z" transform="translate(-185.035 -14.09)"/>
        <path id="Trazado_990370" data-name="Trazado 990370" d="M53.793,71.758V38.849a.813.813,0,0,0-.813-.813H25.4a8.523,8.523,0,0,0-7.9-5.64,8.531,8.531,0,0,0-8.147,5.64H2.678a.813.813,0,0,0-.813.813V54.363a.813.813,0,0,0,1.626,0v-14.7H8.959a8.4,8.4,0,0,0,2.634,7.324,5.322,5.322,0,0,1,1.69,3.914v4.227a1.758,1.758,0,0,0,1.756,1.756h1.528v2.337a2.557,2.557,0,0,0,2.554,2.554h12.07v.2a1.285,1.285,0,0,0,1.011,1.25l1.483.317-.825,1.273a1.285,1.285,0,0,0,.169,1.6l1.434,1.434a1.285,1.285,0,0,0,1.6.169l1.273-.825.317,1.484a1.285,1.285,0,0,0,1.25,1.011H40.93a1.285,1.285,0,0,0,1.25-1.011L42.5,67.19l1.273.825a1.285,1.285,0,0,0,1.6-.169L46.8,66.412a1.284,1.284,0,0,0,.168-1.6l-.825-1.273,1.484-.317a1.285,1.285,0,0,0,1.011-1.25V59.946a1.285,1.285,0,0,0-1.011-1.25l-1.483-.317.825-1.272a1.284,1.284,0,0,0-.169-1.6l-1.434-1.434a1.285,1.285,0,0,0-1.6-.169L42.5,54.73l-.317-1.484a1.285,1.285,0,0,0-1.25-1.011H38.9a1.285,1.285,0,0,0-1.25,1.011l-.317,1.483L36.063,53.9a1.285,1.285,0,0,0-1.6.169l-1.434,1.434a1.285,1.285,0,0,0-.169,1.6l.825,1.273L32.2,58.7a1.284,1.284,0,0,0-1.011,1.25v.2H19.121a.929.929,0,0,1-.928-.928V56.882h1.528a1.758,1.758,0,0,0,1.756-1.756V50.9a5.358,5.358,0,0,1,1.7-3.927A8.333,8.333,0,0,0,25.8,39.662H52.167v31.98H3.491V58.314a.813.813,0,0,0-1.626,0V71.758a2.55,2.55,0,0,0,.759,4.98H8.979v.375A1.325,1.325,0,0,0,10.3,78.437h7.651a1.326,1.326,0,0,0,1.324-1.324v-.375h7.738V79.03l-6.872,3.827a.813.813,0,1,0,.791,1.421l6.08-3.386v2.676a.813.813,0,0,0,1.626,0V80.891l6.08,3.386a.813.813,0,1,0,.791-1.421L28.642,79.03V76.738H43.62a.813.813,0,0,0,0-1.626H19.278V73.269H53.034a.921.921,0,0,1,0,1.843H47.487a.813.813,0,0,0,0,1.626h5.547a2.55,2.55,0,0,0,.759-4.98ZM32.817,60.228l1.593-.34a1.026,1.026,0,0,0,.754-.657c.051-.141.108-.278.169-.409a1.026,1.026,0,0,0-.069-1l-.886-1.366,1.036-1.036,1.366.886a1.026,1.026,0,0,0,1,.069c.131-.061.269-.118.409-.169a1.027,1.027,0,0,0,.657-.754l.34-1.593h1.465l.34,1.593a1.026,1.026,0,0,0,.657.755c.14.051.278.108.408.169a1.027,1.027,0,0,0,1-.069l1.366-.886,1.036,1.036-.886,1.366a1.026,1.026,0,0,0-.069,1c.061.13.117.268.169.409a1.026,1.026,0,0,0,.753.657l1.593.34v1.465l-1.594.34a1.026,1.026,0,0,0-.753.657c-.051.141-.108.278-.169.408a1.026,1.026,0,0,0,.069,1l.886,1.366L44.417,66.5l-1.367-.886a1.027,1.027,0,0,0-1-.068c-.13.061-.268.117-.408.169a1.025,1.025,0,0,0-.657.754l-.34,1.593H39.183l-.34-1.594a1.026,1.026,0,0,0-.657-.753c-.141-.051-.278-.108-.408-.168a1.026,1.026,0,0,0-1,.068l-1.366.886-1.036-1.036.886-1.366a1.026,1.026,0,0,0,.069-1c-.061-.13-.118-.268-.169-.409a1.027,1.027,0,0,0-.753-.657l-1.593-.34V60.228Zm-12.967-5.1a.13.13,0,0,1-.13.13H15.039a.13.13,0,0,1-.13-.13V52.962H19.85Zm2.226-9.348A6.989,6.989,0,0,0,19.85,50.9v.436h-1.67V46.2a3.515,3.515,0,0,0-.919-2.373l-2.108-2.313a1.893,1.893,0,0,1-.495-1.277V39.12H19V41.1a.813.813,0,0,0,1.626,0V39.044a1.552,1.552,0,0,0-1.55-1.55H14.51a1.478,1.478,0,0,0-1.477,1.477v1.266a3.515,3.515,0,0,0,.919,2.373l2.108,2.313a1.893,1.893,0,0,1,.495,1.277v5.136H14.91V50.9A6.952,6.952,0,0,0,12.7,45.789a6.8,6.8,0,0,1,4.782-11.767A6.884,6.884,0,0,1,24.254,40.7a6.776,6.776,0,0,1-2.178,5.078ZM2.624,75.111a.921.921,0,0,1,0-1.843H8.979v1.843Zm15.028,1.7H10.606V73.269h7.047Z" transform="translate(-0.089 -28.881)"/>
        <path id="Trazado_990371" data-name="Trazado 990371" d="M61.169,321.854v3.066a1.45,1.45,0,0,0,1.448,1.448h3.066a1.45,1.45,0,0,0,1.448-1.448v-3.066a1.45,1.45,0,0,0-1.448-1.448H62.617A1.45,1.45,0,0,0,61.169,321.854Zm1.626.178h2.71v2.71H62.8Z" transform="translate(-54.547 -285.671)"/>
      </g>
    </g>
  </g>
</svg>
