<svg xmlns="http://www.w3.org/2000/svg" xmlns:xlink="http://www.w3.org/1999/xlink" width="421" height="421" viewBox="0 0 421 421">
  <defs>
    <clipPath id="clip-path">
      <circle id="Elipse_11747" data-name="Elipse 11747" cx="38.925" cy="38.925" r="38.925" transform="translate(0 76.847) rotate(-80.782)"/>
    </clipPath>
    <clipPath id="clip-path-2">
      <path id="Trazado_989654" data-name="Trazado 989654" d="M72.538,110.659h.24a2.445,2.445,0,0,1,1.863.933,6.565,6.565,0,0,0,5.8,2.373,7,7,0,0,0-.726-13.926,6.588,6.588,0,0,0-5.121,2.476,2.389,2.389,0,0,1-1.86.87h-.24a2.445,2.445,0,0,1-1.863-.933,6.611,6.611,0,0,0-11.39,2.142A6.976,6.976,0,0,0,65.558,114a6.588,6.588,0,0,0,5.121-2.476A2.385,2.385,0,0,1,72.538,110.659Z" transform="translate(-58.842 -100.039)"/>
    </clipPath>
    <clipPath id="clip-path-7">
      <path id="Trazado_989666" data-name="Trazado 989666" d="M414.185,282.672v-1.035h25.563v1.035a12.781,12.781,0,0,1-12.782,12.781h0A12.781,12.781,0,0,1,414.185,282.672Z" transform="translate(-414.185 -281.637)"/>
    </clipPath>
    <clipPath id="clip-path-11">
      <rect id="Rectángulo_409185" data-name="Rectángulo 409185" width="421" height="421" transform="translate(0.398 0.399)"/>
    </clipPath>
    <clipPath id="clip-path-12">
      <path id="Trazado_989703" data-name="Trazado 989703" d="M272.757,237.923c-4.458-7.505-9.14-11.883-18.091-13.01a50.9,50.9,0,0,0-12.619-.421c-4.835.624-9.517,1.592-14.417,1.792-1.635.067-3.466.172-4.566,1.384a6.008,6.008,0,0,0-1.059,2.037c-2.259,6.179-4.521,12.367-6.273,18.709-1.533,5.549-1.76,11.6-2.664,17.282-1.237,7.775-2.739,9.324-3.75,23.057-.27,3.662-.746,7.305-1.119,10.958a7,7,0,0,0,.081,2.728,5.826,5.826,0,0,0,1.1,1.894c7.435,9.353,22.194,9.359,33.062,9.672,7.535.217,15.265.056,22.316-2.614,6.933-2.624,13.831-8.07,13.989-15.95.34-16.969,2.085-35.483-3.341-51.7A30,30,0,0,0,272.757,237.923Z" transform="translate(-208.106 -224.25)"/>
    </clipPath>
    <clipPath id="clip-path-13">
      <path id="Trazado_989705" data-name="Trazado 989705" d="M278.034,320.06a10.717,10.717,0,0,0-2.416-3.632,5.947,5.947,0,0,0-.963-.7H240.2c-.337,8.574,4.911,31.5,5.252,33.116,3.625,17.2,27.241,83.673,28.423,101.1.571,8.425-8.715,51.155-7.267,51.155q29.162,1.866,58.252,4.7c-7.305-32.7,3.171-47.281-4.135-79.985C314.035,395.847,290.675,348.143,278.034,320.06Z" transform="translate(-240.188 -315.727)"/>
    </clipPath>
    <clipPath id="clip-path-14">
      <path id="Trazado_989710" data-name="Trazado 989710" d="M241.191,315.727h-25.2a18.231,18.231,0,0,0-3.268,4.385c-7.195,12.189-13.508,24.49-16.778,38.215a412.437,412.437,0,0,0-8.243,47.76c-3.768,32.278-4.5,64.809-5.219,97.268l52.165.263c-2.034-.01.614-75.187,1.042-82.027,1.2-19.16,3.214-38.718,6.967-57.6,2.3-11.556,1.075-22.123-.337-33.794C241.76,325.534,241.843,320.529,241.191,315.727Z" transform="translate(-182.487 -315.727)"/>
    </clipPath>
    <clipPath id="clip-path-15">
      <path id="Trazado_989730" data-name="Trazado 989730" d="M257.043,225.215a13.731,13.731,0,0,1-2.6,1.237,19.347,19.347,0,0,1-10.556.61,15.639,15.639,0,0,1-4.41-1.9,18.7,18.7,0,0,1-1.938-1.389,4.848,4.848,0,0,1-1.279-1.488,7.544,7.544,0,0,0,2.411-1,4.737,4.737,0,0,0,1.418-1.91c.515-1.251.749-14.842.533-14.842h16.346c-.051,0,.044,8.231.076,9.062a48.494,48.494,0,0,0-.011,5.023,4.106,4.106,0,0,0,1.269,2.54,3.034,3.034,0,0,0,1.292.635c.659.165.742.044.394.615A8.9,8.9,0,0,1,257.043,225.215Z" transform="translate(-236.264 -204.538)"/>
    </clipPath>
  </defs>
  <g id="_27578686_6873814" data-name="27578686_6873814" transform="translate(-0.398 -0.399)">
    <g id="OBJECTS">
      <path id="Trazado_989572" data-name="Trazado 989572" d="M157.59,355.468c-2.675.607-5.321,1.312-7.923,2.071-15.662,4.569-23.883,4.3-39.854-1.061-25.634-8.6-57-39.395-44.388-69.034,6.962-16.358,25.475-26.39,29.933-43.6,3.974-15.339-5.066-31.6-17.672-41.205-5.7-4.342-12.355-7.939-16-14.105-4.63-7.82-3.181-17.97.775-26.153a49.119,49.119,0,0,1,26-24.084c16.756-6.574,45.291-7.011,41.275-31.349-3.416-20.7-2.347-38.288,21.758-43.6a58.072,58.072,0,0,1,30.43,1.53c15.456,5.074,27.967,16.338,42,24.571,10.915,6.405,23.161,11.073,35.815,11.26,32.1.474,46.634-33.46,75.4-39.43,16.757-3.478,40.779,10.6,44.779,27.853,3.818,16.466-1.4,41.259-10.532,55.358-10.364,16.006-25.471,30.682-26.44,50.887-.836,17.424,9.561,33.094,18.477,48.089,11.395,19.163,21.624,44.6,14.062,66.814-2.247,6.6-6.334,13.206-12.9,15.564-6.676,2.4-14.135-.217-20.191-3.911s-11.5-8.506-18.1-11.111a30.946,30.946,0,0,0-32.149,6.429c-8.694,8.44-11.487,21.066-16.958,31.878-5.622,11.114-14.588,20.754-25.917,25.931-9.766,4.463-23.87,6.535-33.2.087-8.7-6.015-13.6-14.385-24.29-18.654C180.76,352.1,168.926,352.9,157.59,355.468Z" transform="translate(-9.243 -9.55)" fill="#fed6c4"/>
      <g id="Grupo_1155901" data-name="Grupo 1155901" transform="translate(22.874 124.224)">
        <circle id="Elipse_11745" data-name="Elipse 11745" cx="38.925" cy="38.925" r="38.925" transform="translate(0 1.562)" fill="#d16e4f"/>
        <g id="Grupo_1155900" data-name="Grupo 1155900" transform="translate(8.002)">
          <g id="Grupo_1155899" data-name="Grupo 1155899" transform="translate(9.419 14.604)">
            <path id="Trazado_989573" data-name="Trazado 989573" d="M77.165,235.5c0,3.208-2.9,5.809-6.487,5.809s-6.487-2.6-6.487-5.809,2.9-5.809,6.487-5.809S77.165,232.29,77.165,235.5Z" transform="translate(-50.385 -174.936)"/>
            <path id="Trazado_989574" data-name="Trazado 989574" d="M84.076,196.537c2.1-4.031,4.319-8.023,4.319-12.467,0-10.685-9.085-19.347-20.293-19.347S47.81,173.385,47.81,184.07c0,4.442,1.695,7.6,3.879,11.267A34.322,34.322,0,0,1,56.682,213.8H79.524c-.638,0,1.134-8.625,1.313-9.4A33.886,33.886,0,0,1,84.076,196.537Z" transform="translate(-47.81 -164.723)" fill="#ffd761"/>
            <path id="Trazado_989575" data-name="Trazado 989575" d="M65.791,220.292c-.1-4.614-.528-9.177-.9-13.773-.29-3.546.4-7.366-1.112-10.714a1.127,1.127,0,0,0-.295-.437c-.458-.367-1.2.183-1.166.769.06,1.147,2.127,1.939,3.079,1.806a2.416,2.416,0,0,0,2-2.458.769.769,0,0,0-.075-.319c-.207-.384-.871-.235-1.032.17a1.22,1.22,0,0,0,.33,1.2,2.538,2.538,0,0,0,4.436-1.424.621.621,0,0,0-.062-.4c-.187-.287-.651-.155-.886.1a1.68,1.68,0,0,0,.142,2.292,2.067,2.067,0,0,0,2.377.2,2.7,2.7,0,0,0,1.261-2.108.69.69,0,0,0-.12-.533c-.284-.306-.792.023-1,.384a2.353,2.353,0,0,0-.172,2.1,1.719,1.719,0,0,0,1.755,1.021,2.34,2.34,0,0,0,1.056-.532,5.622,5.622,0,0,0,1.559-1.96c.134-.281.187-.713-.107-.814a.5.5,0,0,0-.31.019c-1.16.36-1.624,1.719-1.922,2.9-.905,3.569-.851,7.214-1.162,10.873-.351,4.142-.673,8.292-.629,12.452" transform="translate(-50.09 -169.409)" fill="none" stroke="#000" stroke-linecap="round" stroke-linejoin="round" stroke-miterlimit="10" stroke-width="1"/>
            <path id="Trazado_989576" data-name="Trazado 989576" d="M77.065,235.994H62.677a3.618,3.618,0,0,1-3.618-3.618v-8a.217.217,0,0,1,.217-.217h21.19a.217.217,0,0,1,.217.217v8A3.618,3.618,0,0,1,77.065,235.994Z" transform="translate(-49.578 -174.067)" fill="#98cce3"/>
            <rect id="Rectángulo_409184" data-name="Rectángulo 409184" width="25.117" height="1.537" transform="translate(7.734 48.774)"/>
            <line id="Línea_1528" data-name="Línea 1528" x2="22.843" transform="translate(8.961 53.508)" fill="none" stroke="#000" stroke-linecap="round" stroke-linejoin="round" stroke-miterlimit="10" stroke-width="1"/>
            <line id="Línea_1529" data-name="Línea 1529" x2="22.843" transform="translate(8.961 56.713)" fill="none" stroke="#000" stroke-linecap="round" stroke-linejoin="round" stroke-miterlimit="10" stroke-width="1"/>
          </g>
          <path id="Trazado_989577" data-name="Trazado 989577" d="M46.234,156.309l6.317,7.133" transform="translate(-38.143 -148.796)" fill="none" stroke="#000" stroke-linecap="round" stroke-linejoin="round" stroke-miterlimit="10" stroke-width="1"/>
          <path id="Trazado_989578" data-name="Trazado 989578" d="M78.177,147.4c-.39,2.65-.949,7.6-1.339,10.252" transform="translate(-42.954 -147.395)" fill="none" stroke="#000" stroke-linecap="round" stroke-linejoin="round" stroke-miterlimit="10" stroke-width="1"/>
          <path id="Trazado_989579" data-name="Trazado 989579" d="M91.507,163.627l3.02-4.392" transform="translate(-45.26 -149.256)" fill="none" stroke="#000" stroke-linecap="round" stroke-linejoin="round" stroke-miterlimit="10" stroke-width="1"/>
          <path id="Trazado_989580" data-name="Trazado 989580" d="M97.039,171.69a41.224,41.224,0,0,0,6.318-3.006" transform="translate(-46.13 -150.742)" fill="none" stroke="#000" stroke-linecap="round" stroke-linejoin="round" stroke-miterlimit="10" stroke-width="1"/>
          <path id="Trazado_989581" data-name="Trazado 989581" d="M92.685,182.282a9.011,9.011,0,0,1,.955,4.94" transform="translate(-45.445 -152.879)" fill="none" stroke="#000" stroke-linecap="round" stroke-linejoin="round" stroke-miterlimit="10" stroke-width="1"/>
          <path id="Trazado_989582" data-name="Trazado 989582" d="M91.175,194.826l-5.316,10.067" transform="translate(-44.372 -154.851)" fill="none" stroke="#000" stroke-linecap="round" stroke-linejoin="round" stroke-miterlimit="10" stroke-width="1"/>
          <path id="Trazado_989583" data-name="Trazado 989583" d="M56.923,172.534a14.645,14.645,0,0,0-4.432,5.267" transform="translate(-39.127 -151.347)" fill="none" stroke="#000" stroke-linecap="round" stroke-linejoin="round" stroke-miterlimit="10" stroke-width="1"/>
          <path id="Trazado_989584" data-name="Trazado 989584" d="M99.293,180.521l9.04-1.3" transform="translate(-46.484 -152.398)" fill="none" stroke="#000" stroke-linecap="round" stroke-linejoin="round" stroke-miterlimit="10" stroke-width="1"/>
          <path id="Trazado_989585" data-name="Trazado 989585" d="M54.835,157.923l1.972,3.287" transform="translate(-39.495 -149.05)" fill="none" stroke="#000" stroke-linecap="round" stroke-linejoin="round" stroke-miterlimit="10" stroke-width="1"/>
          <path id="Trazado_989586" data-name="Trazado 989586" d="M63.8,148.76c.822,2.957,1.332,6.834,2,9.524" transform="translate(-40.905 -147.61)" fill="none" stroke="#000" stroke-linecap="round" stroke-linejoin="round" stroke-miterlimit="10" stroke-width="1"/>
          <path id="Trazado_989587" data-name="Trazado 989587" d="M94.939,167.078c3.083-2.059,5.185-3.781,8.267-5.84" transform="translate(-45.8 -149.571)" fill="none" stroke="#000" stroke-linecap="round" stroke-linejoin="round" stroke-miterlimit="10" stroke-width="1"/>
          <path id="Trazado_989588" data-name="Trazado 989588" d="M86.032,156.568l-1.153,2.792" transform="translate(-44.218 -148.837)" fill="none" stroke="#000" stroke-linecap="round" stroke-linejoin="round" stroke-miterlimit="10" stroke-width="1"/>
          <path id="Trazado_989589" data-name="Trazado 989589" d="M36.634,170.311a60.1,60.1,0,0,0,7.794,4.318" transform="translate(-36.634 -150.997)" fill="none" stroke="#000" stroke-linecap="round" stroke-linejoin="round" stroke-miterlimit="10" stroke-width="1"/>
          <path id="Trazado_989590" data-name="Trazado 989590" d="M43.59,178.048a8.873,8.873,0,0,1-2.793-.822" transform="translate(-37.288 -152.085)" fill="none" stroke="#000" stroke-linecap="round" stroke-linejoin="round" stroke-miterlimit="10" stroke-width="1"/>
          <path id="Trazado_989591" data-name="Trazado 989591" d="M43.832,185.954a35.992,35.992,0,0,0-4.594,1.029" transform="translate(-37.043 -153.457)" fill="none" stroke="#000" stroke-linecap="round" stroke-linejoin="round" stroke-miterlimit="10" stroke-width="1"/>
          <path id="Trazado_989592" data-name="Trazado 989592" d="M99.481,185.228a7.17,7.17,0,0,0,2.631.318" transform="translate(-46.514 -153.342)" fill="none" stroke="#000" stroke-linecap="round" stroke-linejoin="round" stroke-miterlimit="10" stroke-width="1"/>
          <path id="Trazado_989593" data-name="Trazado 989593" d="M44.872,166.719l3.326,2.913" transform="translate(-37.929 -150.433)" fill="none" stroke="#000" stroke-linecap="round" stroke-linejoin="round" stroke-miterlimit="10" stroke-width="1"/>
          <path id="Trazado_989594" data-name="Trazado 989594" d="M70.238,154.414V157.7" transform="translate(-41.917 -148.498)" fill="none" stroke="#000" stroke-linecap="round" stroke-linejoin="round" stroke-miterlimit="10" stroke-width="1"/>
          <path id="Trazado_989595" data-name="Trazado 989595" d="M98.7,176.73a7.547,7.547,0,0,1,2.471-.468" transform="translate(-46.39 -151.933)" fill="none" stroke="#000" stroke-linecap="round" stroke-linejoin="round" stroke-miterlimit="10" stroke-width="1"/>
        </g>
      </g>
      <g id="Grupo_1155905" data-name="Grupo 1155905" transform="translate(91.417 36.009)">
        <circle id="Elipse_11746" data-name="Elipse 11746" cx="38.925" cy="38.925" r="38.925" transform="translate(0 76.847) rotate(-80.782)" fill="#ffd761"/>
        <g id="Grupo_1155904" data-name="Grupo 1155904">
          <g id="Grupo_1155903" data-name="Grupo 1155903" clip-path="url(#clip-path)">
            <g id="Grupo_1155902" data-name="Grupo 1155902" transform="translate(-11.461 16.917)">
              <path id="Trazado_989596" data-name="Trazado 989596" d="M149.913,103.183a5.2,5.2,0,0,0,1,4.874,15.334,15.334,0,0,0,3.992,3.289,9.373,9.373,0,0,0,4.054,1.79c2.179.207,4.18-1.107,5.961-2.379,7.885-5.637,13.82-13.513,24.322-12.4l14.405,1.533c3.883.413,7.953.8,11.569-.673,5.823-2.377,8.913-9.754,6.8-15.678-1.849-5.189-7.785-9.282-13.374-8.774-7.026.638-14.242.5-21.371,1.165-4.538.425-9.017,1.041-13.539,1.59a9.461,9.461,0,0,0-2.476.529c-4.894,2.012-9.152,5.15-13.244,8.476-4.146,3.37-7.569,7.839-8.851,13.025C148.626,101.722,147.718,102.778,149.913,103.183Z" transform="translate(-103.302 -64.674)" fill="#eb8d7a"/>
              <path id="Trazado_989597" data-name="Trazado 989597" d="M145.144,78.069q.866.485,1.727.976c7.593,4.324,15.853,7.608,23.039,12.617,1.789,1.247,3.144,1.926,4.442,3.678A2.745,2.745,0,0,1,174.914,98a4.11,4.11,0,0,1-4.522,2.413,4.008,4.008,0,0,1-4.931,4.085c1.913,3.637-3.171,5.038-5.663,4.1a2,2,0,0,1-.61,2.122,3.929,3.929,0,0,1-2.141.874,7.871,7.871,0,0,1-4.356-.65c-2.359-1.092-4.638-2.16-6.988-3.352-6.753-3.424-11.5-11.555-19.041-13.3-8.6-1.986-17.565-1.5-25.36-6.328-2.971-1.839-5.988-4.914-6.388-8.558-.363-3.321,1.574-7.911,3.17-10.76,1.407-2.512,3.413-4.956,6.209-5.648a12.067,12.067,0,0,1,5.635.357C122.339,66.3,134.086,71.873,145.144,78.069Z" transform="translate(-94.869 -62.798)" fill="#eb8d7a"/>
              <path id="Trazado_989598" data-name="Trazado 989598" d="M144.678,101.283c-.289-1.371-2.54-1.951-3.87-1.509a7.261,7.261,0,0,0-3.155,2.684c-.86,1.1-1.745,2.526-1.156,3.789a2.625,2.625,0,0,0,2.27,1.359c.614.021,2.072-.249,2.4-.85-.576,1.068-.968,3.044-.282,4.136.735,1.172,2.66,1.331,3.854,1.045a2.373,2.373,0,0,0,1.043,2.714,4.3,4.3,0,0,0,3.042.459,3.041,3.041,0,0,0,4.1,3.468c2.491-1,5.521-5.291,5.026-8.136-.371-2.13-3.985-.952-4.854.372a7.636,7.636,0,0,0,1.456-3.315,2.681,2.681,0,0,0-1.773-2.935,3.437,3.437,0,0,0-3.239,1.258c.645-1.113,1.142-1.794.9-3.2a3.221,3.221,0,0,0-2.7-2.773A3.915,3.915,0,0,0,144.678,101.283Z" transform="translate(-101.383 -68.588)" fill="#eb8d7a"/>
              <path id="Trazado_989599" data-name="Trazado 989599" d="M170.459,115.954a62.6,62.6,0,0,1-7.775-6.368" transform="translate(-105.53 -70.153)" fill="#eb8d7a" stroke="#000" stroke-miterlimit="10" stroke-width="1"/>
              <path id="Trazado_989600" data-name="Trazado 989600" d="M176.988,111.014c-2.951-2.195-5.8-4.631-8.794-6.762" transform="translate(-106.396 -69.315)" fill="#eb8d7a" stroke="#000" stroke-miterlimit="10" stroke-width="1"/>
              <path id="Trazado_989601" data-name="Trazado 989601" d="M182.438,105.972c-1.834-1.416-3.567-3.315-5.5-4.586-1.761-1.156-3.6-2.187-5.44-3.218" transform="translate(-106.915 -68.359)" fill="#eb8d7a" stroke="#000" stroke-miterlimit="10" stroke-width="1"/>
              <path id="Trazado_989602" data-name="Trazado 989602" d="M151.037,117.1a1.494,1.494,0,0,0,.809-.508q2-1.986,3.893-4.083" transform="translate(-103.699 -70.613)" fill="#eb8d7a" stroke="#000" stroke-miterlimit="10" stroke-width="1"/>
              <path id="Trazado_989603" data-name="Trazado 989603" d="M146.218,112.916c.4-.463.767-.946,1.185-1.388,1.546-1.634,2.957-3.855,3.922-4.962" transform="translate(-102.941 -69.679)" fill="#eb8d7a" stroke="#000" stroke-miterlimit="10" stroke-width="1"/>
              <path id="Trazado_989604" data-name="Trazado 989604" d="M141.934,107.333a39.067,39.067,0,0,0,3.63-5.741" transform="translate(-102.268 -68.897)" fill="#eb8d7a" stroke="#000" stroke-miterlimit="10" stroke-width="1"/>
              <path id="Trazado_989605" data-name="Trazado 989605" d="M179.24,77.285c-6.84-1.184-15.371-1.341-21.072.029a7.286,7.286,0,0,0-3.179,1.46,9.068,9.068,0,0,0-1.714,2.342l-3.653,6.313a2.849,2.849,0,0,0-.451,1.125c-.11,1.181,1.326,2.005,2.493,1.8,1.675-.3,3.455-1.975,4.56-3.177a15.494,15.494,0,0,1,1.715-1.787c1.622-1.278,3.847-1.386,5.912-1.418" transform="translate(-103.405 -64.927)" fill="#eb8d7a"/>
            </g>
            <path id="Trazado_989606" data-name="Trazado 989606" d="M155.758,81.991h0a114.115,114.115,0,0,1,23.719,12.686c1.789,1.247,3.144,1.926,4.442,3.678a4.139,4.139,0,0,1,.684,1.5" transform="translate(-115.898 -48.896)" fill="none" stroke="#000" stroke-miterlimit="10" stroke-width="1"/>
            <path id="Trazado_989607" data-name="Trazado 989607" d="M163.6,119.654a17.985,17.985,0,0,1-2.931-1.848" transform="translate(-116.675 -54.528)" fill="#e89f9f" stroke="#000" stroke-miterlimit="10" stroke-width="1"/>
            <path id="Trazado_989608" data-name="Trazado 989608" d="M155.572,116.487a6.155,6.155,0,0,0,1.668-3.118,3.106,3.106,0,0,0-1-2.851,2.39,2.39,0,0,0-2.919-.1,4.048,4.048,0,0,0,.449-4.453c-.848-1.342-3.055-1.716-4.045-.474a3.46,3.46,0,0,0-.826-4.186,3.5,3.5,0,0,0-4.254.18c.536-.426.2-1.867-.143-2.3-.6-.757-1.783-.619-2.6-.318-1.9.7-3.18,2.458-4.34,4.123" transform="translate(-113.042 -51.514)" fill="none" stroke="#000" stroke-miterlimit="10" stroke-width="1"/>
            <path id="Trazado_989609" data-name="Trazado 989609" d="M178.812,76.947c-7.873-3.514-14.943-1.2-20.643.17a7.286,7.286,0,0,0-3.179,1.46,9.068,9.068,0,0,0-1.714,2.342l-3.653,6.313a2.849,2.849,0,0,0-.451,1.125c-.11,1.181,1.326,2.005,2.493,1.8,1.675-.3,3.455-1.975,4.56-3.177a15.494,15.494,0,0,1,1.715-1.787c1.622-1.278,3.847-1.386,5.912-1.418" transform="translate(-114.866 -47.814)" fill="#eb8d7a"/>
            <path id="Trazado_989610" data-name="Trazado 989610" d="M153.974,80.989c-1.892,2.341-2.849,4.573-4.351,7.171a2.849,2.849,0,0,0-.451,1.125c-.11,1.181,1.326,2.005,2.493,1.8,1.675-.3,3.455-1.975,4.56-3.177a15.494,15.494,0,0,1,1.715-1.787c1.622-1.278,3.847-1.386,5.912-1.418,1.116-.018,1.869.73,2.9,1.165,3.191,1.349,6.784,2.327,10.092,1.3" transform="translate(-114.866 -48.741)" fill="#eb8d7a" stroke="#000" stroke-miterlimit="10" stroke-width="1"/>
            <path id="Trazado_989611" data-name="Trazado 989611" d="M184.342,77.293l2.077,2.814" transform="translate(-120.396 -48.16)" fill="#e89f9f" stroke="#000" stroke-miterlimit="10" stroke-width="1"/>
          </g>
        </g>
      </g>
      <g id="Grupo_1155908" data-name="Grupo 1155908" transform="translate(221.547 36.007)">
        <circle id="Elipse_11748" data-name="Elipse 11748" cx="38.925" cy="38.925" r="38.925" transform="translate(0 76.847) rotate(-80.782)" fill="#d16e4f"/>
        <g id="Grupo_1155907" data-name="Grupo 1155907" transform="translate(24.775 6.676)">
          <g id="Grupo_1155906" data-name="Grupo 1155906" transform="translate(0.258)">
            <path id="Trazado_989612" data-name="Trazado 989612" d="M323.648,95.2c-1.386-.84-2.919-1.462-4.221-2.418a6.647,6.647,0,0,1-1.293-1.273,7.272,7.272,0,0,1,0-8.961,6.619,6.619,0,0,1,1.293-1.273c1.3-.956,2.834-1.578,4.221-2.418,4.507-2.732,7.181-7.639,8.237-12.641s.691-10.167.321-15.257H296.23c-.37,5.091-.736,10.255.321,15.257s3.73,9.909,8.237,12.641c1.386.84,2.919,1.462,4.221,2.418A6.642,6.642,0,0,1,310.3,82.55a7.272,7.272,0,0,1,0,8.961,6.647,6.647,0,0,1-1.293,1.273c-1.3.956-2.834,1.578-4.221,2.418-4.507,2.732-7.181,7.639-8.237,12.641s-.691,10.167-.321,15.257h35.976c.37-5.09.736-10.255-.321-15.257S328.155,97.934,323.648,95.2Z" transform="translate(-293.09 -50.694)" fill="#fff"/>
            <path id="Trazado_989613" data-name="Trazado 989613" d="M292.574,50.644a3.079,3.079,0,0,0,3.069,2.9h35.791a3.078,3.078,0,0,0,3.069-2.9Z" transform="translate(-292.574 -50.644)"/>
          </g>
          <path id="Trazado_989614" data-name="Trazado 989614" d="M297.981,126.583c.091.507,17.3,0,18.595,0,3.9,0,7.823-.126,11.71.1.729.043,2.265.709,2.921.142.614-.528.053-3.682.008-4.525a47.122,47.122,0,0,0-1.366-9.864c-1.254-4.641-3.755-9.116-7.736-11.812-3.1-2.1-6.484-3.186-6.732-7.275-.174-2.859.3-6.3,2.232-8.537,1.863-2.158,5.144-2.035,6.36-4.881a1.94,1.94,0,0,0,.193-1.037,1.623,1.623,0,0,0-1.268-1.211,4.926,4.926,0,0,0-1.848.024,90.857,90.857,0,0,1-14.89.8c-2.976-.085-2.053,2.212-.462,3.451,1.354,1.054,3.291,1.148,4.8,1.9,2.735,1.359,2.488,5.027,2.666,7.589.257,3.7-1.07,5.97-4.092,8.275-2.132,1.627-4.538,2.921-6.416,4.836a17.759,17.759,0,0,0-4.47,9.546,52.875,52.875,0,0,0-.354,10.681A12.992,12.992,0,0,0,297.981,126.583Z" transform="translate(-293.126 -54.882)" fill="#5f80ba"/>
          <path id="Trazado_989615" data-name="Trazado 989615" d="M334.211,137.924c.009-.1.022-.193.022-.292a3.087,3.087,0,0,0-3.087-3.087H295.355a3.087,3.087,0,0,0-3.087,3.087c0,.1.013.2.022.292Z" transform="translate(-292.268 -63.833)"/>
        </g>
      </g>
      <g id="Grupo_1155920" data-name="Grupo 1155920" transform="translate(308.266 125.786)">
        <circle id="Elipse_11749" data-name="Elipse 11749" cx="38.925" cy="38.925" r="38.925" transform="translate(1.365)" fill="#ffd761"/>
        <g id="Grupo_1155919" data-name="Grupo 1155919" transform="translate(0 0.558)">
          <path id="Trazado_989616" data-name="Trazado 989616" d="M398.264,209.868l20.3-41.878-33.073,12.882" transform="translate(-368.866 -152.752)" fill="none" stroke="#000" stroke-linecap="round" stroke-linejoin="round" stroke-miterlimit="10" stroke-width="1" stroke-dasharray="10 5"/>
          <path id="Trazado_989617" data-name="Trazado 989617" d="M419.843,169.673l12.105,36.076-36.341,8.765-16.172-31.4,49.823,19.6" transform="translate(-367.915 -153.017)" fill="none" stroke="#000" stroke-linecap="round" stroke-linejoin="round" stroke-miterlimit="10" stroke-width="1" stroke-dasharray="10 5"/>
          <g id="Grupo_1155910" data-name="Grupo 1155910" transform="translate(57.026 45.94)">
            <g id="Grupo_1155909" data-name="Grupo 1155909">
              <path id="Trazado_989618" data-name="Trazado 989618" d="M448.683,209.29a4.857,4.857,0,1,1-4.857-4.871A4.863,4.863,0,0,1,448.683,209.29Z" transform="translate(-434.3 -204.419)" fill="#d16e4f"/>
              <path id="Trazado_989619" data-name="Trazado 989619" d="M452.48,222.361a10.2,10.2,0,0,0-19.051,0Z" transform="translate(-433.429 -206.208)" fill="#d16e4f"/>
            </g>
          </g>
          <g id="Grupo_1155912" data-name="Grupo 1155912" transform="translate(30.141 29.717)">
            <g id="Grupo_1155911" data-name="Grupo 1155911">
              <path id="Trazado_989620" data-name="Trazado 989620" d="M415.955,189.776a4.594,4.594,0,1,1-4.594-4.606A4.6,4.6,0,0,1,415.955,189.776Z" transform="translate(-402.352 -185.17)" fill="#d16e4f"/>
              <path id="Trazado_989621" data-name="Trazado 989621" d="M419.546,201.893a9.643,9.643,0,0,0-18.017,0Z" transform="translate(-401.529 -186.824)" fill="#d16e4f"/>
            </g>
          </g>
          <g id="Grupo_1155914" data-name="Grupo 1155914" transform="translate(0 15.308)">
            <g id="Grupo_1155913" data-name="Grupo 1155913">
              <path id="Trazado_989622" data-name="Trazado 989622" d="M381.492,173.094a5.008,5.008,0,1,1-5.008-5.021A5.015,5.015,0,0,1,381.492,173.094Z" transform="translate(-366.664 -168.073)" fill="#d16e4f"/>
              <path id="Trazado_989623" data-name="Trazado 989623" d="M385.407,187.033a10.512,10.512,0,0,0-19.641,0Z" transform="translate(-365.766 -169.99)" fill="#d16e4f"/>
            </g>
          </g>
          <g id="Grupo_1155916" data-name="Grupo 1155916" transform="translate(39.539)">
            <g id="Grupo_1155915" data-name="Grupo 1155915">
              <path id="Trazado_989624" data-name="Trazado 989624" d="M428.492,154.959a5.036,5.036,0,1,1-5.036-5.049A5.043,5.043,0,0,1,428.492,154.959Z" transform="translate(-413.582 -149.91)" fill="#d16e4f"/>
              <path id="Trazado_989625" data-name="Trazado 989625" d="M432.428,168.3a10.569,10.569,0,0,0-19.748,0Z" transform="translate(-412.68 -151.733)" fill="#d16e4f"/>
            </g>
          </g>
          <g id="Grupo_1155918" data-name="Grupo 1155918" transform="translate(18.632 56.984)">
            <g id="Grupo_1155917" data-name="Grupo 1155917">
              <path id="Trazado_989626" data-name="Trazado 989626" d="M403.753,222.522a4.986,4.986,0,1,1-4.986-5A4.993,4.993,0,0,1,403.753,222.522Z" transform="translate(-388.802 -217.523)" fill="#d16e4f"/>
              <path id="Trazado_989627" data-name="Trazado 989627" d="M407.428,235.73a10.465,10.465,0,0,0-19.555,0Z" transform="translate(-387.873 -219.327)" fill="#d16e4f"/>
            </g>
          </g>
        </g>
      </g>
      <g id="Grupo_1155923" data-name="Grupo 1155923" transform="translate(22.521 256.789)">
        <circle id="Elipse_11750" data-name="Elipse 11750" cx="38.925" cy="38.925" r="38.925" transform="translate(0 75.764) rotate(-76.714)" fill="#ffd761"/>
        <g id="Grupo_1155922" data-name="Grupo 1155922" transform="translate(9.208 10.23)">
          <path id="Trazado_989628" data-name="Trazado 989628" d="M107.857,348.038a5.017,5.017,0,0,0-.743,4.592,1.128,1.128,0,0,1-.368,1.257l-8.933-6.753-6.52,8.621c.019.024.041.045.062.067a1.223,1.223,0,0,0,.2.179l.02.012a1.216,1.216,0,0,0,1,.151h0l.046-.012c.081-.022.161-.044.243-.062.052-.012.105-.02.158-.03s.09-.019.136-.026.093-.013.138-.019.105-.016.158-.021.094-.008.141-.011.105-.009.158-.012.1,0,.147,0,.1,0,.154,0l.142.005c.053,0,.106,0,.159.006s.1.009.151.014.1.008.151.014.1.016.153.024.1.013.147.023.1.022.153.033.1.019.147.031.1.028.153.041.1.025.145.04.1.033.147.05.1.032.147.05.094.038.142.056.1.039.149.061.091.043.137.065.1.046.148.071.091.05.136.074.1.051.143.079.089.056.135.084.094.057.139.088.086.062.13.092.092.064.137.1l.016.013a4.842,4.842,0,0,1,1.209,6.316l-.008.015c-.074.137-.155.273-.244.405l-.008.013c-.029.042-.058.083-.088.123s-.046.065-.069.1-.05.062-.074.094-.062.079-.094.118l-.01.012a4.649,4.649,0,0,1-.324.345l-.012.012a4.842,4.842,0,0,1-6.406.557l-.017-.012c-.046-.034-.088-.07-.131-.105s-.084-.066-.124-.1-.082-.073-.122-.11-.079-.07-.117-.106-.077-.078-.115-.116-.073-.073-.109-.11-.072-.083-.109-.124-.067-.075-.1-.114-.066-.084-.1-.127-.063-.079-.094-.121-.059-.085-.088-.128-.06-.084-.088-.128-.052-.086-.078-.129-.056-.089-.082-.135-.046-.088-.07-.132-.051-.092-.073-.138-.041-.09-.062-.136-.045-.094-.064-.142-.037-.094-.055-.142-.038-.094-.055-.141-.033-.1-.049-.152-.03-.09-.044-.136-.026-.1-.04-.15-.026-.094-.037-.142-.021-.1-.031-.156-.02-.092-.028-.138-.015-.105-.023-.158-.014-.092-.019-.138-.008-.092-.012-.138-.01-.107-.013-.16c-.005-.083-.006-.167-.007-.25,0-.016,0-.032,0-.048h0a1.217,1.217,0,0,0-.417-.919l-.017-.016a1.178,1.178,0,0,0-.228-.146c-.027-.013-.053-.03-.082-.041l-6.52,8.621,8.933,6.753a1.129,1.129,0,0,1-1.11.7,5.018,5.018,0,0,0-4.217,1.966,5.269,5.269,0,0,0,8.393,6.362,5.014,5.014,0,0,0,.752-4.6,1.128,1.128,0,0,1,.368-1.257l8.933,6.753,5.264-6.962,1.279-1.7a1.181,1.181,0,0,0-1.267-.393,5.2,5.2,0,0,1-4.611-.843,5.083,5.083,0,1,1,6.105-8.127,5.2,5.2,0,0,1,2.094,4.208,1.182,1.182,0,0,0,.727,1.109l6.476-8.6-8.906-6.733a1.129,1.129,0,0,1,1.109-.7,5.017,5.017,0,0,0,4.225-1.977,5.27,5.27,0,0,0-8.408-6.343Z" transform="translate(-44.575 -321.422)" fill="#d16e4f"/>
          <path id="Trazado_989629" data-name="Trazado 989629" d="M63.649,385.117a1.175,1.175,0,0,1-.9-.965l9.679-4.136-4.243-9.976a1.119,1.119,0,0,0-.939.9,4.98,4.98,0,0,1-2.924,3.592,5.233,5.233,0,0,1-4.081-9.629,4.982,4.982,0,0,1,4.6.392,1.121,1.121,0,0,0,1.3-.051l-4.285-10.075-9.722,4.155a1.173,1.173,0,0,1-.078-1.315,5.164,5.164,0,0,0-6.124-7.492,5.089,5.089,0,0,0-2.874,6.813,5.157,5.157,0,0,0,3.553,3.005,1.174,1.174,0,0,1,.9.965l-9.869,4.218,10.612,24.829,9.869-4.218a1.174,1.174,0,0,1,.078,1.316,5.161,5.161,0,0,0-.283,4.646,5.048,5.048,0,1,0,9.287-3.954A5.166,5.166,0,0,0,63.649,385.117Z" transform="translate(-37.647 -322.075)" fill="#5f80ba"/>
          <g id="Grupo_1155921" data-name="Grupo 1155921" transform="translate(10.915)">
            <path id="Trazado_989630" data-name="Trazado 989630" d="M56.22,341.055l3.021-9.815h0a1.036,1.036,0,0,0-1.2.077,4.6,4.6,0,0,1-4.2.795,4.832,4.832,0,0,1,2.854-9.227A4.6,4.6,0,0,1,59.71,325.9a1.036,1.036,0,0,0,.948.738l3.021-9.815,9.473,2.918c0,.029-.007.056-.01.083a1.107,1.107,0,0,1-.055.242l-.008.019a1.113,1.113,0,0,1-.662.647h0l-.041.016c-.072.027-.143.054-.214.084-.045.019-.089.041-.134.062s-.078.035-.115.053-.076.04-.113.061-.087.045-.13.069-.074.045-.11.067-.083.05-.124.076-.074.051-.11.077-.078.053-.116.081-.068.054-.1.08-.078.059-.115.09-.07.061-.1.091-.071.06-.1.092-.067.067-.1.1-.066.063-.1.1-.064.071-.1.106-.062.067-.092.1-.061.075-.091.113-.059.071-.087.107-.056.077-.083.115-.056.077-.083.116-.05.078-.074.118-.053.083-.078.125-.045.081-.067.121-.05.087-.072.132-.041.086-.062.128-.044.089-.064.136-.036.089-.055.135-.039.093-.056.14-.031.092-.047.138-.035.1-.05.147l-.005.018a4.44,4.44,0,0,0,2.488,5.347l.014.007a4.291,4.291,0,0,0,.4.171l.013.005c.044.016.088.029.131.045s.068.024.1.035.07.019.105.03.089.026.134.037l.013,0c.142.035.283.062.426.083l.015,0a4.44,4.44,0,0,0,5.065-3.021l.006-.018c.015-.05.028-.1.041-.149s.027-.094.039-.141.021-.1.032-.147.022-.094.03-.142.015-.1.023-.148.016-.094.021-.141.009-.1.014-.15.01-.092.013-.138,0-.1.005-.147,0-.094.005-.14,0-.1,0-.142,0-.1,0-.142-.008-.092-.011-.137-.007-.1-.012-.144-.013-.09-.019-.136-.012-.1-.02-.142-.018-.089-.027-.134-.018-.094-.028-.14-.024-.09-.035-.135-.022-.09-.035-.134-.029-.093-.045-.139-.025-.083-.04-.125-.034-.089-.051-.132-.031-.084-.048-.126-.04-.089-.06-.132-.035-.079-.053-.118-.046-.087-.068-.13-.039-.077-.06-.114-.044-.072-.065-.109-.05-.085-.076-.126c-.041-.065-.085-.127-.13-.19l-.024-.036h0a1.117,1.117,0,0,1-.183-.908c0-.007,0-.014,0-.021a1.14,1.14,0,0,1,.09-.231c.013-.025.024-.051.038-.075l9.473,2.917-3.021,9.815a1.034,1.034,0,0,0,1.2-.077,4.6,4.6,0,0,1,4.19-.8A4.833,4.833,0,0,1,86.6,342.2a4.6,4.6,0,0,1-3.028-3.021,1.034,1.034,0,0,0-.948-.737h0l-3.021,9.815Z" transform="translate(-50.598 -316.825)" fill="#98cce3"/>
            <path id="Trazado_989631" data-name="Trazado 989631" d="M52.45,331.726a3.024,3.024,0,0,0,1.681,1.723" transform="translate(-50.889 -319.168)" fill="none" stroke="#000" stroke-linecap="round" stroke-linejoin="round" stroke-miterlimit="10" stroke-width="1"/>
            <path id="Trazado_989632" data-name="Trazado 989632" d="M86.339,344.123q-.394,1.287-.787,2.575" transform="translate(-56.093 -321.116)" fill="none" stroke="#000" stroke-linecap="round" stroke-linejoin="round" stroke-miterlimit="10" stroke-width="1"/>
          </g>
          <path id="Trazado_989633" data-name="Trazado 989633" d="M46.536,353.845a3.543,3.543,0,0,0,.7,5.59" transform="translate(-38.878 -322.645)" fill="none" stroke="#131834" stroke-linecap="round" stroke-linejoin="round" stroke-miterlimit="10" stroke-width="1"/>
          <path id="Trazado_989634" data-name="Trazado 989634" d="M95.377,389.16a4.252,4.252,0,0,0,.2-1.387" transform="translate(-46.722 -327.978)" fill="none" stroke="#131834" stroke-linecap="round" stroke-linejoin="round" stroke-miterlimit="10" stroke-width="1"/>
          <path id="Trazado_989635" data-name="Trazado 989635" d="M121.215,351.313a2.457,2.457,0,0,1-.12,2.243,3.941,3.941,0,0,1-4.479,1.906" transform="translate(-50.061 -322.247)" fill="none" stroke="#000" stroke-linecap="round" stroke-linejoin="round" stroke-miterlimit="10" stroke-width="1"/>
          <path id="Trazado_989636" data-name="Trazado 989636" d="M121.748,371.538l-1.86,2.5" transform="translate(-50.576 -325.426)" fill="none" stroke="#000" stroke-linecap="round" stroke-linejoin="round" stroke-miterlimit="10" stroke-width="1"/>
        </g>
      </g>
      <g id="Grupo_1155930" data-name="Grupo 1155930" transform="translate(291.695 248.551)">
        <circle id="Elipse_11751" data-name="Elipse 11751" cx="38.925" cy="38.925" r="38.925" transform="translate(0 55.048) rotate(-45)" fill="#d16e4f"/>
        <g id="Grupo_1155929" data-name="Grupo 1155929" transform="translate(15.837 19.352)">
          <g id="Grupo_1155925" data-name="Grupo 1155925">
            <g id="Grupo_1155924" data-name="Grupo 1155924">
              <path id="Trazado_989637" data-name="Trazado 989637" d="M376.655,353.94a18.262,18.262,0,0,0,3.468.9,3,3,0,0,1,3.043-3.452,2.928,2.928,0,0,1,3.037,3.393,18.87,18.87,0,0,0,3.493-.965,2.863,2.863,0,0,1-.2-.277,3.119,3.119,0,0,1,1.127-4.231,3.041,3.041,0,0,1,4.2,1.07,2.959,2.959,0,0,1,.16.355,18.946,18.946,0,0,0,2.592-2.6,2.989,2.989,0,0,1-.351-.153,3.064,3.064,0,0,1-1.123-4.2,3.1,3.1,0,0,1,4.2-1.189,3.162,3.162,0,0,1,.355.251,18.815,18.815,0,0,0,.981-3.568,2.956,2.956,0,0,1-.434.05,3.025,3.025,0,0,1-3.072-3.042,3.135,3.135,0,0,1,3.075-3.129,3,3,0,0,1,.472.041,18.634,18.634,0,0,0-.93-3.578,3.09,3.09,0,0,1-.38.281,3.041,3.041,0,0,1-4.2-1.07,3.12,3.12,0,0,1,1.127-4.231,3.052,3.052,0,0,1,.459-.214,18.1,18.1,0,0,0-2.615-2.609,3.149,3.149,0,0,1-.2.448,3.058,3.058,0,1,1-5.025-3.428,18.272,18.272,0,0,0-3.586-.924,2.957,2.957,0,0,1,.048.485,3.135,3.135,0,0,1-3.075,3.129,3.025,3.025,0,0,1-3.072-3.042,3.127,3.127,0,0,1,.049-.489,18.921,18.921,0,0,0-3.573,1.011,2.871,2.871,0,0,1,.266.368,3.12,3.12,0,0,1-1.127,4.231,3.041,3.041,0,0,1-4.2-1.07,2.964,2.964,0,0,1-.186-.414,18.9,18.9,0,0,0-2.593,2.647,2.9,2.9,0,0,1,.378.166,3.1,3.1,0,0,1-3.076,5.388,2.964,2.964,0,0,1-.33-.233,18.874,18.874,0,0,0-.943,3.542,2.984,2.984,0,0,1,.371-.043,3.025,3.025,0,0,1,3.072,3.042,3.133,3.133,0,0,1-3.075,3.128,2.885,2.885,0,0,1-.364-.032,18.712,18.712,0,0,0,.932,3.489,2.92,2.92,0,0,1,.271-.2,3.041,3.041,0,0,1,4.2,1.07,3.12,3.12,0,0,1-1.127,4.231,3.051,3.051,0,0,1-.311.145,18.109,18.109,0,0,0,2.538,2.519,3.009,3.009,0,0,1,.129-.288,3.057,3.057,0,1,1,5.321,3.01A2.912,2.912,0,0,1,376.655,353.94Zm.362-6.592a12.642,12.642,0,1,1,17.111-4.845A12.489,12.489,0,0,1,377.017,347.348Z" transform="translate(-364.895 -317.873)" fill="#ffd761"/>
            </g>
          </g>
          <g id="Grupo_1155928" data-name="Grupo 1155928" transform="translate(27.6 20.456)">
            <g id="Grupo_1155927" data-name="Grupo 1155927">
              <g id="Grupo_1155926" data-name="Grupo 1155926">
                <path id="Trazado_989638" data-name="Trazado 989638" d="M413.162,391.485a25.1,25.1,0,0,0,4.726,1.4,4.087,4.087,0,0,1-.03-.445,4.312,4.312,0,0,1,4.366-4.166,4.034,4.034,0,0,1,4.022,4.8,25.953,25.953,0,0,0,4.844-1.17,4.056,4.056,0,0,1-.264-.39,4.3,4.3,0,0,1,1.738-5.769,4.032,4.032,0,0,1,5.926,2.157,26.035,26.035,0,0,0,3.678-3.462,4.049,4.049,0,0,1-1.831-6.054,4.1,4.1,0,0,1,6.3-1.085,25.946,25.946,0,0,0,1.509-4.864,4.064,4.064,0,0,1-4.685-4.274A4.312,4.312,0,0,1,447.828,364a4.166,4.166,0,0,1,.646.078,25.729,25.729,0,0,0-1.119-4.965,4.127,4.127,0,0,1-6.257-1.293,4.234,4.234,0,0,1,2.378-6.043A24.922,24.922,0,0,0,440,348.072a4.337,4.337,0,0,1-.295.608,4.206,4.206,0,1,1-7.18-4.381,4.364,4.364,0,0,1,.427-.562,25.072,25.072,0,0,0-4.887-1.433,4.222,4.222,0,0,1-4.321,4.834,4.163,4.163,0,0,1-4.086-4.323,4.274,4.274,0,0,1,.089-.67,25.952,25.952,0,0,0-4.956,1.23,4.189,4.189,0,0,1,.35.518,4.3,4.3,0,0,1-1.738,5.769A4.18,4.18,0,0,1,407.682,348a4.1,4.1,0,0,1-.238-.577,26.02,26.02,0,0,0-3.682,3.525,4.078,4.078,0,0,1,.513.245,4.268,4.268,0,0,1-4.469,7.272,4.07,4.07,0,0,1-.442-.336,25.869,25.869,0,0,0-1.454,4.831,4.1,4.1,0,0,1,.512-.042,4.163,4.163,0,0,1,4.086,4.323,4.311,4.311,0,0,1-4.366,4.166,4.034,4.034,0,0,1-.5-.061,25.634,25.634,0,0,0,1.126,4.842,4.376,4.376,0,0,1,.382-.263,4.18,4.18,0,0,1,5.722,1.661,4.131,4.131,0,0,1-2.172,5.954,24.948,24.948,0,0,0,3.375,3.58,4.093,4.093,0,0,1,6.013-1.837,4.221,4.221,0,0,1,1.355,5.826A3.924,3.924,0,0,1,413.162,391.485Zm.792-9.052a17.394,17.394,0,1,1,23.733-5.894A17.2,17.2,0,0,1,413.954,382.432Z" transform="translate(-397.643 -342.145)" fill="#98cce3"/>
              </g>
              <path id="Trazado_989639" data-name="Trazado 989639" d="M438.061,354.669a19.765,19.765,0,1,0-.166,27.8A19.551,19.551,0,0,0,438.061,354.669Zm-4.683,23.28a13.085,13.085,0,1,1,.113-18.678A13.134,13.134,0,0,1,433.378,377.949Z" transform="translate(-398.73 -343.229)" fill="#98cce3"/>
            </g>
          </g>
          <path id="Trazado_989640" data-name="Trazado 989640" d="M377.8,348.765a13.1,13.1,0,1,0-4.742-17.73A13.069,13.069,0,0,0,377.8,348.765Zm-2-16.181a9.763,9.763,0,1,1,3.586,13.406A9.784,9.784,0,0,1,375.8,332.585Z" transform="translate(-365.904 -318.892)" fill="#ffd761"/>
          <path id="Trazado_989641" data-name="Trazado 989641" d="M436.372,380.949a16.547,16.547,0,1,1,.142-23.619A16.608,16.608,0,0,1,436.372,380.949Z" transform="translate(-371.68 -323.324)" fill="none" stroke="#000" stroke-linecap="round" stroke-miterlimit="10" stroke-width="1"/>
          <path id="Trazado_989642" data-name="Trazado 989642" d="M378.33,348.233a12.32,12.32,0,1,0-4.46-16.674A12.291,12.291,0,0,0,378.33,348.233Z" transform="translate(-366.048 -319.037)" fill="none" stroke="#000" stroke-linecap="round" stroke-miterlimit="10" stroke-width="1"/>
        </g>
      </g>
      <g id="Grupo_1155959" data-name="Grupo 1155959" transform="translate(49.592 38.18)">
        <g id="Grupo_1155931" data-name="Grupo 1155931" transform="translate(66.846 104.733)">
          <path id="Trazado_989643" data-name="Trazado 989643" d="M143.039,196.141h-4.882l9.546-12.152h4.881Z" transform="translate(-138.157 -171.837)" fill="#6891cf"/>
          <path id="Trazado_989644" data-name="Trazado 989644" d="M154.417,196.141h-4.881l9.545-12.152h4.882Z" transform="translate(-139.946 -171.837)" fill="#e17474"/>
          <path id="Trazado_989645" data-name="Trazado 989645" d="M165.8,196.141h-4.882l9.546-12.152h4.881Z" transform="translate(-141.734 -171.837)"/>
          <path id="Trazado_989646" data-name="Trazado 989646" d="M160.157,181.722h-4.882l9.546-12.152H169.7Z" transform="translate(-140.848 -169.57)" fill="#a9dde4"/>
          <path id="Trazado_989647" data-name="Trazado 989647" d="M171.536,181.722h-4.882L176.2,169.57h4.882Z" transform="translate(-142.637 -169.57)" fill="#6891cf"/>
        </g>
        <g id="Grupo_1155932" data-name="Grupo 1155932" transform="translate(278.707 35.758)">
          <path id="Trazado_989648" data-name="Trazado 989648" d="M404.245,87.729c8.125,0,14.71,8.384,14.71,8.384s-6.586,8.384-14.71,8.384-14.71-8.384-14.71-8.384S396.121,87.729,404.245,87.729Z" transform="translate(-389.535 -87.729)" fill="#e17474"/>
          <path id="Trazado_989649" data-name="Trazado 989649" d="M409.941,90.082a11.083,11.083,0,0,1,.322,11.849c-2.2,3.331-5.913,3.426-8.291.212a11.082,11.082,0,0,1-.322-11.849C403.85,86.963,407.563,86.868,409.941,90.082Z" transform="translate(-391.194 -87.73)"/>
        </g>
        <g id="Grupo_1155933" data-name="Grupo 1155933" transform="translate(1.574 189.911)">
          <path id="Trazado_989650" data-name="Trazado 989650" d="M77.643,270.636c9.353,0,16.933,9.652,16.933,9.652S87,289.939,77.643,289.939s-16.933-9.652-16.933-9.652S68.291,270.636,77.643,270.636Z" transform="translate(-60.71 -270.636)" fill="#e17474"/>
          <path id="Trazado_989651" data-name="Trazado 989651" d="M84.2,273.344a12.757,12.757,0,0,1,.371,13.64c-2.533,3.834-6.806,3.943-9.545.244a12.757,12.757,0,0,1-.371-13.64C77.189,269.754,81.462,269.645,84.2,273.344Z" transform="translate(-62.62 -270.637)"/>
        </g>
        <g id="Grupo_1155940" data-name="Grupo 1155940" transform="translate(0 46.132)">
          <path id="Trazado_989652" data-name="Trazado 989652" d="M72.538,110.659h.24a2.445,2.445,0,0,1,1.863.933,6.565,6.565,0,0,0,5.8,2.373,7,7,0,0,0-.726-13.926,6.588,6.588,0,0,0-5.121,2.476,2.389,2.389,0,0,1-1.86.87h-.24a2.445,2.445,0,0,1-1.863-.933,6.611,6.611,0,0,0-11.39,2.142A6.976,6.976,0,0,0,65.558,114a6.588,6.588,0,0,0,5.121-2.476A2.385,2.385,0,0,1,72.538,110.659Z" transform="translate(-58.842 -100.039)" fill="#e17474"/>
          <g id="Grupo_1155939" data-name="Grupo 1155939">
            <g id="Grupo_1155934" data-name="Grupo 1155934" clip-path="url(#clip-path-2)">
              <path id="Trazado_989653" data-name="Trazado 989653" d="M82.808,94.749q-4.612,10.861-9.7,21.5" transform="translate(-61.086 -99.207)" fill="none" stroke="#000" stroke-linecap="round" stroke-linejoin="round" stroke-miterlimit="10" stroke-width="0.75"/>
            </g>
            <g id="Grupo_1155935" data-name="Grupo 1155935" clip-path="url(#clip-path-2)">
              <path id="Trazado_989655" data-name="Trazado 989655" d="M70.722,94.749q-4.612,10.861-9.7,21.5" transform="translate(-59.186 -99.207)" fill="none" stroke="#000" stroke-linecap="round" stroke-linejoin="round" stroke-miterlimit="10" stroke-width="0.75"/>
            </g>
            <g id="Grupo_1155936" data-name="Grupo 1155936" clip-path="url(#clip-path-2)">
              <path id="Trazado_989657" data-name="Trazado 989657" d="M76.937,94.749q-4.612,10.861-9.7,21.5" transform="translate(-60.163 -99.207)" fill="none" stroke="#000" stroke-linecap="round" stroke-linejoin="round" stroke-miterlimit="10" stroke-width="0.75"/>
            </g>
            <g id="Grupo_1155937" data-name="Grupo 1155937" clip-path="url(#clip-path-2)">
              <path id="Trazado_989659" data-name="Trazado 989659" d="M88.354,94.749q-4.612,10.861-9.7,21.5" transform="translate(-61.957 -99.207)" fill="none" stroke="#000" stroke-linecap="round" stroke-linejoin="round" stroke-miterlimit="10" stroke-width="0.75"/>
            </g>
            <g id="Grupo_1155938" data-name="Grupo 1155938" clip-path="url(#clip-path-2)">
              <path id="Trazado_989661" data-name="Trazado 989661" d="M93.9,94.749q-4.612,10.861-9.7,21.5" transform="translate(-62.829 -99.207)" fill="none" stroke="#000" stroke-linecap="round" stroke-linejoin="round" stroke-miterlimit="10" stroke-width="0.75"/>
            </g>
          </g>
        </g>
        <g id="Grupo_1155948" data-name="Grupo 1155948" transform="translate(299.482 181.567)">
          <g id="Grupo_1155941" data-name="Grupo 1155941" transform="translate(2.191)">
            <path id="Trazado_989663" data-name="Trazado 989663" d="M424.781,267.027l2.656-6.038a.406.406,0,0,1,.75-.008l2.742,5.948a.412.412,0,0,0,.4.246l7.878-.494-.107.029-6.354,6.806a.459.459,0,0,0-.052.549l4.671,7.576a.431.431,0,0,1-.512.645l-8.911-4.053a.4.4,0,0,0-.354.013l-7.8,4.228a.427.427,0,0,1-.57-.569l3.214-7.739a.459.459,0,0,0-.1-.507l-5.4-5.076a.445.445,0,0,1,.247-.768l7.262-.538A.414.414,0,0,0,424.781,267.027Z" transform="translate(-416.784 -260.735)" fill="#98cce3"/>
          </g>
          <g id="Grupo_1155947" data-name="Grupo 1155947" transform="translate(0 17.616)">
            <path id="Trazado_989664" data-name="Trazado 989664" d="M414.185,282.672v-1.035h25.563v1.035a12.781,12.781,0,0,1-12.782,12.781h0A12.781,12.781,0,0,1,414.185,282.672Z" transform="translate(-414.185 -281.637)" fill="#e17474"/>
            <g id="Grupo_1155946" data-name="Grupo 1155946">
              <g id="Grupo_1155942" data-name="Grupo 1155942" clip-path="url(#clip-path-7)">
                <path id="Trazado_989665" data-name="Trazado 989665" d="M422.165,275.021l-2.062,3.194c-2.169,3.359-4.4,6.68-6.437,10.13-1.042,1.764-2.078,3.553-3.221,5.254a1.408,1.408,0,0,0,1.659.746c.621-.2.884-.852,1.23-1.37,2.071-3.417,5.431-8.272,7.863-13.008.49-1.085,1.424-2.013,1.623-3.211A1.786,1.786,0,0,0,422.165,275.021Z" transform="translate(-413.597 -280.597)"/>
              </g>
              <g id="Grupo_1155943" data-name="Grupo 1155943" clip-path="url(#clip-path-7)">
                <path id="Trazado_989667" data-name="Trazado 989667" d="M416.028,299.006a1.351,1.351,0,0,0,.559-.367c3.518-6.343,7.24-12.555,10.943-18.777a2.141,2.141,0,0,0,.068-.284,1.677,1.677,0,0,0-.914-1.841c-.906,1.5-1.868,2.961-2.842,4.411-2.669,3.973-5.17,8.055-7.633,12.173-.705,1.18-1.392,2.372-2.088,3.56A1.562,1.562,0,0,0,416.028,299.006Z" transform="translate(-414.175 -281.024)"/>
              </g>
              <g id="Grupo_1155944" data-name="Grupo 1155944" clip-path="url(#clip-path-7)">
                <path id="Trazado_989669" data-name="Trazado 989669" d="M434.033,277.269q-1.866,2.892-3.721,5.793-4.624,7.253-9.06,14.637c.414,1.655,2.449,2.313,3.394-.068.661-1.145,1.317-2.292,1.919-3.472.751-1.122,1.48-2.262,2.163-3.431,2.077-3.678,4.144-7.353,6.066-11.123A1.729,1.729,0,0,0,434.033,277.269Z" transform="translate(-415.296 -280.95)"/>
              </g>
              <g id="Grupo_1155945" data-name="Grupo 1155945" clip-path="url(#clip-path-7)">
                <path id="Trazado_989671" data-name="Trazado 989671" d="M441.961,277.425q-.822,1.314-1.666,2.61c-1.207,1.852-2.429,3.692-3.619,5.556-2.553,4.363-5.067,8.751-7.579,13.14a1.91,1.91,0,0,0,.86.7c1.244.426,1.957-.787,2.41-1.805l.049-.084.081-.129q5.167-8.662,10.018-17.532A1.99,1.99,0,0,0,441.961,277.425Z" transform="translate(-416.529 -280.975)"/>
              </g>
            </g>
          </g>
          <path id="Trazado_989673" data-name="Trazado 989673" d="M429.072,264.207q-.521,1.35-1.041,2.7" transform="translate(-416.362 -261.281)" fill="none" stroke="#131834" stroke-linecap="round" stroke-linejoin="round" stroke-miterlimit="10" stroke-width="1"/>
          <path id="Trazado_989674" data-name="Trazado 989674" d="M423.467,279.138q.7-1.719,1.554-3.366a22.707,22.707,0,0,0-2.183-1.807" transform="translate(-415.545 -262.815)" fill="none" stroke="#131834" stroke-linecap="round" stroke-linejoin="round" stroke-miterlimit="10" stroke-width="1"/>
          <path id="Trazado_989675" data-name="Trazado 989675" d="M420.059,271.587a6.661,6.661,0,0,1,1.279,1.113" transform="translate(-415.108 -262.441)" fill="none" stroke="#131834" stroke-linecap="round" stroke-linejoin="round" stroke-miterlimit="10" stroke-width="1"/>
        </g>
        <g id="Grupo_1155949" data-name="Grupo 1155949" transform="translate(224.387 114.214)">
          <path id="Trazado_989676" data-name="Trazado 989676" d="M331.787,216.407l-2.576,1.563c-4.579,2.778-4.5,8.267.161,10.961l2.415,1.4Z" transform="translate(-325.2 -186.414)" fill="#d16e4f"/>
          <path id="Trazado_989677" data-name="Trazado 989677" d="M331.729,198.613l-2.889,1.753c-4.579,2.779-4.5,8.268.161,10.961l2.728,1.577Z" transform="translate(-325.142 -183.617)" fill="#98cce3"/>
          <path id="Trazado_989678" data-name="Trazado 989678" d="M331.67,180.82l-3.2,1.943c-4.579,2.779-4.5,8.267.161,10.961l3.042,1.758V180.82Z" transform="translate(-325.083 -180.82)"/>
        </g>
        <g id="Grupo_1155950" data-name="Grupo 1155950" transform="translate(150.777 65.477)">
          <path id="Trazado_989679" data-name="Trazado 989679" d="M242.017,126.37l1.42-3.241a.217.217,0,0,1,.4,0l1.466,3.193a.22.22,0,0,0,.212.132l4.211-.265-.057.015-3.4,3.654a.247.247,0,0,0-.028.295l2.5,4.067a.231.231,0,0,1-.274.346l-4.763-2.175a.21.21,0,0,0-.189.007l-4.168,2.27a.229.229,0,0,1-.305-.305l1.718-4.154a.247.247,0,0,0-.056-.271l-2.889-2.725a.239.239,0,0,1,.131-.412l3.882-.289A.227.227,0,0,0,242.017,126.37Z" transform="translate(-237.743 -122.992)"/>
        </g>
        <g id="Grupo_1155951" data-name="Grupo 1155951" transform="translate(231.984 267.246)">
          <path id="Trazado_989680" data-name="Trazado 989680" d="M338.37,365.774l1.42-3.241a.217.217,0,0,1,.4,0l1.466,3.193a.22.22,0,0,0,.213.132l4.211-.265-.057.015-3.4,3.654a.247.247,0,0,0-.028.295l2.5,4.067a.231.231,0,0,1-.274.346l-4.763-2.175a.21.21,0,0,0-.189.007l-4.167,2.27a.229.229,0,0,1-.305-.305l1.718-4.155a.247.247,0,0,0-.056-.271l-2.889-2.725a.239.239,0,0,1,.131-.412l3.882-.289A.222.222,0,0,0,338.37,365.774Z" transform="translate(-334.098 -362.396)"/>
        </g>
        <g id="Grupo_1155952" data-name="Grupo 1155952" transform="translate(219.023 263.122)">
          <path id="Trazado_989681" data-name="Trazado 989681" d="M321.524,359.72l.932-2.127a.142.142,0,0,1,.263,0l.962,2.1a.145.145,0,0,0,.14.087l2.764-.174-.038.01-2.229,2.4a.164.164,0,0,0-.019.194l1.639,2.67a.152.152,0,0,1-.18.227l-3.127-1.428a.137.137,0,0,0-.124,0l-2.736,1.49a.15.15,0,0,1-.2-.2l1.128-2.727a.162.162,0,0,0-.037-.179l-1.9-1.788a.157.157,0,0,1,.087-.271l2.548-.19A.147.147,0,0,0,321.524,359.72Z" transform="translate(-318.718 -357.503)"/>
        </g>
        <g id="Grupo_1155953" data-name="Grupo 1155953" transform="translate(43.436 171.439)">
          <path id="Trazado_989682" data-name="Trazado 989682" d="M113.185,250.936l.932-2.127a.142.142,0,0,1,.263,0l.962,2.1a.145.145,0,0,0,.14.087l2.764-.174-.038.01-2.229,2.4a.164.164,0,0,0-.019.194l1.639,2.669a.152.152,0,0,1-.18.228l-3.127-1.428a.137.137,0,0,0-.124,0l-2.735,1.49a.15.15,0,0,1-.2-.2l1.128-2.727a.162.162,0,0,0-.037-.179l-1.9-1.788a.157.157,0,0,1,.087-.271l2.548-.19A.146.146,0,0,0,113.185,250.936Z" transform="translate(-110.38 -248.719)"/>
        </g>
        <g id="Grupo_1155956" data-name="Grupo 1155956" transform="translate(72.837 259.092)">
          <g id="Grupo_1155954" data-name="Grupo 1155954">
            <path id="Trazado_989683" data-name="Trazado 989683" d="M162.78,352.721l-9.119,12.516-6.291-7.017c-.732.56-1.429,1.159-2.1,1.782l8.618,9.611,11.041-15.154Q163.86,353.581,162.78,352.721Z" transform="translate(-145.265 -352.721)" fill="#98cce3"/>
          </g>
          <g id="Grupo_1155955" data-name="Grupo 1155955" transform="translate(2.23 18.225)">
            <path id="Trazado_989684" data-name="Trazado 989684" d="M165.426,374.345l-9.119,12.516-6.291-7.017c-.732.56-1.429,1.159-2.1,1.782l8.618,9.611,11.041-15.154Q166.506,375.2,165.426,374.345Z" transform="translate(-147.911 -374.345)" fill="#98cce3"/>
          </g>
        </g>
        <g id="Grupo_1155958" data-name="Grupo 1155958" transform="translate(140.885)">
          <g id="xsrjP0_3_" transform="translate(0)">
            <g id="Grupo_1155957" data-name="Grupo 1155957">
              <path id="Trazado_989685" data-name="Trazado 989685" d="M234.406,65.811a3.009,3.009,0,0,1-1.428-1.558c-.991-2.288-.666-4.916-.158-7.357a1.34,1.34,0,0,1,.242-.615c1.123-1.31,2.5-2.144,3.482-3.642a11.893,11.893,0,0,0,1.438-3.193c.265-.91.112-2.855.617-3.579,1.459-2.09,2.713,2.211,2.833,3.21a12.012,12.012,0,0,1-.346,2.871c-.087.7-.248,1.4-.378,2.106.171.124.37.058.554.061q3.236-.006,6.474-.019c.909,0,1.355.256,1.483.86a1.729,1.729,0,0,1-.934,1.874c-.161.082-.453.009-.472.262s.281.23.432.334c.783.533.642,1.638-.26,2.281-.217.153-.639.084-.648.4,0,.255.39.25.57.429a1.461,1.461,0,0,1-.618,2.259,2.82,2.82,0,0,0-.378.147c-.107.072-.212.153,0,.3a1.271,1.271,0,0,1-.019,2.275l-.281.2a1.816,1.816,0,0,1-1.135.252q-5.076.028-10.152.036A2.112,2.112,0,0,1,234.406,65.811Z" transform="translate(-227.001 -45.302)" fill="#98cce3" fill-rule="evenodd"/>
              <path id="Trazado_989686" data-name="Trazado 989686" d="M226.026,63.126c-.005-1.622-.006-3.247-.02-4.869,0-.33.019-.492.292-.489q2,.029,3.993-.012c.261-.005.3.129.3.474q.005,4.9.034,9.8c0,.415-.072.533-.353.528-1.291-.017-2.582-.018-3.873.017-.321.008-.367-.158-.364-.577C226.047,66.373,226.031,64.751,226.026,63.126Z" transform="translate(-226.006 -47.26)" fill="#98cce3" fill-rule="evenodd"/>
            </g>
          </g>
        </g>
        <path id="Trazado_989687" data-name="Trazado 989687" d="M180.912,210.085l-6.57,10.463" transform="translate(-76.999 -71.206)" fill="none" stroke="#000" stroke-linecap="round" stroke-linejoin="round" stroke-miterlimit="10" stroke-width="1"/>
        <path id="Trazado_989688" data-name="Trazado 989688" d="M189.485,209.973l-1.31,2.619" transform="translate(-79.174 -71.189)" fill="none" stroke="#000" stroke-linecap="round" stroke-linejoin="round" stroke-miterlimit="10" stroke-width="1"/>
        <path id="Trazado_989689" data-name="Trazado 989689" d="M369.5,247.232l-6.538,7.866" transform="translate(-106.651 -77.046)" fill="none" stroke="#000" stroke-linecap="round" stroke-linejoin="round" stroke-miterlimit="10" stroke-width="1"/>
        <path id="Trazado_989690" data-name="Trazado 989690" d="M303.4,168.08l-3.271,3.278" transform="translate(-96.773 -64.603)" fill="none" stroke="#000" stroke-linecap="round" stroke-linejoin="round" stroke-miterlimit="10" stroke-width="1"/>
        <path id="Trazado_989691" data-name="Trazado 989691" d="M373.261,137.714l-3.274,3.274" transform="translate(-107.755 -59.829)" fill="none" stroke="#000" stroke-linecap="round" stroke-linejoin="round" stroke-miterlimit="10" stroke-width="1"/>
        <path id="Trazado_989692" data-name="Trazado 989692" d="M153.377,344.39l-3.274,3.274" transform="translate(-73.189 -92.319)" fill="none" stroke="#000" stroke-linecap="round" stroke-linejoin="round" stroke-miterlimit="10" stroke-width="1"/>
        <path id="Trazado_989693" data-name="Trazado 989693" d="M351.439,394.126a30.153,30.153,0,0,1-7.874,7.843" transform="translate(-103.602 -100.138)" fill="none" stroke="#000" stroke-linecap="round" stroke-linejoin="round" stroke-miterlimit="10" stroke-width="1"/>
        <path id="Trazado_989694" data-name="Trazado 989694" d="M342.3,393.34l-2.619,2.619" transform="translate(-102.992 -100.014)" fill="none" stroke="#000" stroke-linecap="round" stroke-linejoin="round" stroke-miterlimit="10" stroke-width="1"/>
        <path id="Trazado_989695" data-name="Trazado 989695" d="M129.239,153.307l-3.932,5.236" transform="translate(-69.291 -62.281)" fill="none" stroke="#000" stroke-linecap="round" stroke-linejoin="round" stroke-miterlimit="10" stroke-width="1"/>
      </g>
      <g id="Grupo_1155978" data-name="Grupo 1155978">
        <g id="Grupo_1155977" data-name="Grupo 1155977" clip-path="url(#clip-path-11)">
          <path id="Trazado_989696" data-name="Trazado 989696" d="M144.457,299.553a40.712,40.712,0,0,0,6.808-1.362c13.681-3.986,26.548-15.137,35.534-25.853,4.187-4.993,8.018-10.748,8.477-17.249s-3.61-13.7-10.055-14.655c-4.671-.694-9.153,1.881-13.076,4.51A178.574,178.574,0,0,0,130.968,283.2c-3.919,5.01-8.147,11.19-.678,14.622C134.477,299.75,139.6,300.1,144.457,299.553Z" transform="translate(-19.835 -37.779)" fill="#eba08d"/>
          <path id="Trazado_989697" data-name="Trazado 989697" d="M201.7,271.749q-4.578,3.9-9.5,7.366c-3.358-2.749-6.813-5.077-10.091-7.91-2.667-2.305-5.535-4.31-8.34-6.436a71.884,71.884,0,0,1-13-12.162c5.53-3.123,19.679-13.157,21.366-14.172a88.882,88.882,0,0,1,16.868-7.865,92.4,92.4,0,0,1,44.584-3.814c1.552.248,3.418.829,3.724,2.372.259,1.3-.788,2.467-1.772,3.357-3.324,3.008-6.923,5.718-10.056,8.924-4.21,4.307-6.229,9.374-8.547,14.789-2.238,5.231-4.858,10.327-7.56,15.333-1.968,3.646-3.218,8.65-6.3,11.465-2.284,2.085-6.27,2.643-8.325.332-1.765-1.984-1.4-5.01-.921-7.623q.631-3.471,1.263-6.944Q203.415,270.284,201.7,271.749Z" transform="translate(-25.272 -35.464)" fill="#d16e4f"/>
          <path id="Trazado_989698" data-name="Trazado 989698" d="M240.17,315.727h-25.2a18.219,18.219,0,0,0-3.268,4.386C183.744,367.481,176.682,432.342,176,486.457c-.1,7.793.684,16.913,7.23,21.144,3.463,2.238,7.792,2.522,11.91,2.74,9.906.524,31.545,1.928,37.437-8.9,3.079-5.659.34-20.118.45-26.543.3-17.748.538-35.585,1.646-53.306,1.2-19.16,3.214-38.718,6.967-57.6,2.3-11.556,1.075-22.123-.337-33.794C240.739,325.534,240.822,320.529,240.17,315.727Z" transform="translate(-27.667 -49.633)" fill="#5f80ba"/>
          <path id="Trazado_989699" data-name="Trazado 989699" d="M278.034,320.06a10.717,10.717,0,0,0-2.416-3.632,5.947,5.947,0,0,0-.963-.7H240.2c-.337,8.574,4.911,31.5,5.252,33.116,3.625,17.2,27.241,83.673,28.423,101.1.974,14.366-6.818,28.553-6.409,42.71.495,17.082,30.872,16.36,44.111,13.975a15.616,15.616,0,0,0,6.511-2.336c3.639-2.64,4.677-7.536,5.308-11.988a180.222,180.222,0,0,0-2.671-66.485C314.035,395.847,290.675,348.143,278.034,320.06Z" transform="translate(-37.758 -49.633)" fill="#5f80ba"/>
          <path id="Trazado_989700" data-name="Trazado 989700" d="M273.11,333.51a10.252,10.252,0,0,0,12.943,7.16" transform="translate(-42.934 -52.429)" fill="none" stroke="#000" stroke-linecap="round" stroke-linejoin="round" stroke-miterlimit="10" stroke-width="1"/>
          <path id="Trazado_989701" data-name="Trazado 989701" d="M272.805,238.078c-4.27-7.189-8.758-11.5-17-12.843h-17.8a93.281,93.281,0,0,1-10.331,1.2c-1.635.067-3.466.172-4.566,1.384a6.008,6.008,0,0,0-1.059,2.037c-2.259,6.179-4.521,12.367-6.273,18.709-3.63,13.14-5.029,26.777-6.414,40.339-.261,2.556-.405,5.158-.786,7.7a10.278,10.278,0,0,0,3.229,9.751,19.637,19.637,0,0,0,7.01,4.217c4.635,1.644,9.651,1.828,14.568,1.748s9.863-.4,14.733.285a58.078,58.078,0,0,0,5.792.783,26.443,26.443,0,0,0,7.125-.905,59.677,59.677,0,0,0,8.709-2.735,10.744,10.744,0,0,0,7.625-8.675q.6-2.155,1-4.361c.8-4.425.645-8.771.779-13.227.135-4.484.231-8.971.144-13.456-.17-8.817-1.033-17.734-3.845-26.138A29.92,29.92,0,0,0,272.805,238.078Z" transform="translate(-32.763 -35.408)" fill="#d16e4f"/>
          <g id="Grupo_1155961" data-name="Grupo 1155961" transform="translate(175.391 188.997)">
            <g id="Grupo_1155960" data-name="Grupo 1155960" clip-path="url(#clip-path-12)">
              <path id="Trazado_989702" data-name="Trazado 989702" d="M214.8,281.282a12.98,12.98,0,0,1-.7,2.421,6.188,6.188,0,0,0-.451,3.989,7.011,7.011,0,0,0,1.092,1.826,8.956,8.956,0,0,1,1.682,3.28c.529,2.436-1.028,4.14-2.989,5.269a5.424,5.424,0,0,0-1.172.781,4.486,4.486,0,0,0-.856,1.477q-1.034,2.431-2.265,4.773a1.377,1.377,0,0,1-.336.465.933.933,0,0,1-.547.176c-3.382.1-.374-9.919-.155-11.674q.6-4.3,1.494-8.561a53.63,53.63,0,0,1,.973-5.487c.732-2.285,3.476-3.561,4.2-.293A4.291,4.291,0,0,1,214.8,281.282Z" transform="translate(-207.879 -232.66)"/>
            </g>
          </g>
          <g id="Grupo_1155963" data-name="Grupo 1155963" transform="translate(202.429 266.094)">
            <g id="Grupo_1155962" data-name="Grupo 1155962" clip-path="url(#clip-path-13)">
              <path id="Trazado_989704" data-name="Trazado 989704" d="M327.271,425.441a6.711,6.711,0,0,0,.121.785c.581,2.7,2.659,4.963,2.885,7.712.294,3.577-2.609,6.708-2.842,10.289a7.263,7.263,0,0,0,4.079,6.878c3.04,1.414,10.726-.5,13.1-3.089a4.645,4.645,0,0,0,.941-1.995c1.8-6.744-.346-13.883-3.011-20.335-2.048-4.957-5.831-11.205-12.05-7.083A7.52,7.52,0,0,0,327.271,425.441Z" transform="translate(-253.873 -331.689)"/>
            </g>
          </g>
          <path id="Trazado_989706" data-name="Trazado 989706" d="M251.852,372.069c-.163-4.418-.243-8.8-.813-13.184a2.989,2.989,0,0,1-3.153-1.506,8.346,8.346,0,0,1-.937-3.6,121.449,121.449,0,0,1-.361-19.66" transform="translate(-38.727 -52.525)" fill="none" stroke="#000" stroke-linecap="round" stroke-linejoin="round" stroke-miterlimit="10" stroke-width="1"/>
          <path id="Trazado_989707" data-name="Trazado 989707" d="M281.84,360.747c7.483,11.219,14.99,22.477,20.96,34.569a157.157,157.157,0,0,1,14.976,88.094" transform="translate(-44.306 -56.711)" fill="none" stroke="#000" stroke-linecap="round" stroke-linejoin="round" stroke-miterlimit="10" stroke-width="1"/>
          <path id="Trazado_989708" data-name="Trazado 989708" d="M218.149,365.562a455.187,455.187,0,0,0-11.91,127.19" transform="translate(-32.341 -57.467)" fill="none" stroke="#000" stroke-linecap="round" stroke-linejoin="round" stroke-miterlimit="10" stroke-width="1"/>
          <g id="Grupo_1155965" data-name="Grupo 1155965" transform="translate(153.799 266.094)">
            <g id="Grupo_1155964" data-name="Grupo 1155964" clip-path="url(#clip-path-14)">
              <path id="Trazado_989709" data-name="Trazado 989709" d="M236.444,428.535c.055,2.042,1.626,4.084,1.16,6.127-.649,2.843-4.839,4.023-4.966,6.937-.078,1.782,1.476,3.2,1.921,4.931.4,1.567-.138,3.2-.281,4.815-.4,4.576,6.512,6.33,9.667,3.772a6.461,6.461,0,0,0,1.817-3.568,86.371,86.371,0,0,0,2.824-14.26c.383-4.637-1.165-8.363-1.273-12.833-.022-.911-.2-2.045-1.072-2.314a2.091,2.091,0,0,0-1.017.022,18.391,18.391,0,0,0-5.884,2.278,5.525,5.525,0,0,0-2.811,3.193A3.517,3.517,0,0,0,236.444,428.535Z" transform="translate(-190.37 -332.447)"/>
            </g>
          </g>
          <path id="Trazado_989711" data-name="Trazado 989711" d="M212.8,275.791a56.3,56.3,0,0,1,5.139-14.3" transform="translate(-33.452 -41.107)" fill="none" stroke="#000" stroke-linecap="round" stroke-linejoin="round" stroke-miterlimit="10" stroke-width="1"/>
          <path id="Trazado_989712" data-name="Trazado 989712" d="M216.513,266.059a22.37,22.37,0,0,0,3.285-2.671" transform="translate(-34.037 -41.405)" fill="none" stroke="#000" stroke-linecap="round" stroke-linejoin="round" stroke-miterlimit="10" stroke-width="1"/>
          <g id="Grupo_1155966" data-name="Grupo 1155966" transform="translate(225.865 201.695)">
            <path id="Trazado_989713" data-name="Trazado 989713" d="M301.756,300.829c2.02-1.124,4.036-2.338,6.142-3.574a102.147,102.147,0,0,1,11.072-5.985,100.786,100.786,0,0,1-22.616-19.936c-4.187-4.993-8.018-10.748-8.477-17.249s3.61-13.7,10.055-14.655c4.671-.694,9.153,1.881,13.076,4.51A178.573,178.573,0,0,1,352.184,282.2c2.709,3.462,5.395,7.315,5.568,11.707.4,10.152-10.7,14.8-18.531,17.974a141.056,141.056,0,0,1-38.871,9.622,21.156,21.156,0,0,0-4.492.755,40.972,40.972,0,0,0-4.36,2.034,33.273,33.273,0,0,1-7.394,2.183c-1.539.314-5,1.783-6.356.328-.508-.543-.049-1.411.412-1.995a5.843,5.843,0,0,1-4.155.321,2.706,2.706,0,0,1-1.73-1.262,1.34,1.34,0,0,1,.629-1.838c-.78-.065-1.381.408-2.175.272a2.115,2.115,0,0,1-1.554-1.064,2.283,2.283,0,0,1,.525-2.463,6.689,6.689,0,0,1,2.254-1.41c2.28-1.032,6.009-1.92,7.59-3.92a32.681,32.681,0,0,0-6.574,2.405c-1.236.6-3.518,2.3-4.7.614a1.9,1.9,0,0,1-.017-1.929,4.779,4.779,0,0,1,1.375-1.472c4.627-3.606,10.407-5.193,16.05-6.392A56.167,56.167,0,0,0,301.756,300.829Z" transform="translate(-267.995 -239.316)" fill="#eba08d"/>
          </g>
          <path id="Trazado_989714" data-name="Trazado 989714" d="M282.758,269.744c3.747,2.244,7.574,4.983,11.484,6.863.49-.271.967-.565,1.453-.843a77.612,77.612,0,0,1,5.8-5.565c2.667-2.305,5.535-4.31,8.34-6.436a71.885,71.885,0,0,0,13-12.162c-5.53-3.123-19.679-13.158-21.366-14.172a88.884,88.884,0,0,0-16.868-7.865,92.4,92.4,0,0,0-44.584-3.814c-1.553.248-3.418.829-3.725,2.372-.259,1.3.788,2.467,1.772,3.357,3.324,3.008,6.923,5.718,10.056,8.924,4.21,4.307,6.229,9.374,8.547,14.789,2.5,5.857,5.557,11.452,8.48,17.1.922,1.783,1.684,5.508,2.9,6.928,2.028,2.376,8.5.336,11.143-.394,1.944-.536,2.469.231,3.841-1.77C283.82,275.914,284.167,270.583,282.758,269.744Z" transform="translate(-37.141 -35.306)" fill="#d16e4f"/>
          <g id="Grupo_1155975" data-name="Grupo 1155975" transform="translate(184.474 128.61)">
            <path id="Trazado_989715" data-name="Trazado 989715" d="M257.043,225.215a13.731,13.731,0,0,1-2.6,1.237,19.347,19.347,0,0,1-10.556.61,15.639,15.639,0,0,1-4.41-1.9,18.7,18.7,0,0,1-1.938-1.389,4.848,4.848,0,0,1-1.279-1.488,7.544,7.544,0,0,0,2.411-1,4.737,4.737,0,0,0,1.418-1.91c.515-1.251.749-14.842.533-14.842h16.346c-.051,0,.044,8.231.076,9.062a48.494,48.494,0,0,0-.011,5.023,4.106,4.106,0,0,0,1.269,2.54,3.034,3.034,0,0,0,1.292.635c.659.165.742.044.394.615A8.9,8.9,0,0,1,257.043,225.215Z" transform="translate(-221.615 -160.764)" fill="#eba08d"/>
            <g id="Grupo_1155972" data-name="Grupo 1155972">
              <path id="Trazado_989716" data-name="Trazado 989716" d="M263.332,195.7a16.419,16.419,0,0,1-2.131,7.131c-2.224,3.371-6.435,4.86-10.443,5.348-4.909.6-10.427-.212-13.71-3.911a17.476,17.476,0,0,1-3.379-7.14,60.735,60.735,0,0,1-1.924-10.714c-.274-3.113-.289-6.352.907-9.24,1.568-3.79,5.094-6.528,8.955-7.913a31.863,31.863,0,0,1,12.148-1.382,18.34,18.34,0,0,1,5.756.946c1.846.7,4.3,2.382,4.433,4.57.065,1.051-.194,2.19-.167,3.271A127.819,127.819,0,0,1,263.332,195.7Z" transform="translate(-220.881 -154.992)" fill="#eba08d"/>
              <g id="Grupo_1155967" data-name="Grupo 1155967" transform="translate(32.088 28.153)">
                <path id="Trazado_989717" data-name="Trazado 989717" d="M256.956,187.424a5.135,5.135,0,0,1,3.223-1.413A6.71,6.71,0,0,1,265,188.167" transform="translate(-256.956 -186.003)" fill="none" stroke="#000" stroke-linecap="round" stroke-linejoin="round" stroke-miterlimit="10" stroke-width="1"/>
                <path id="Trazado_989718" data-name="Trazado 989718" d="M259.413,188.15a1.676,1.676,0,0,0,.689,1.338,1.547,1.547,0,0,0,1.568-.015,2.543,2.543,0,0,0,1.032-1.249c.152-.359.528-1.048.3-1.44a1.143,1.143,0,0,0-.525-.411,2.908,2.908,0,0,0-1.482-.347A1.883,1.883,0,0,0,259.413,188.15Z" transform="translate(-257.342 -186.006)"/>
              </g>
              <g id="Grupo_1155968" data-name="Grupo 1155968" transform="translate(13.974 28.631)">
                <path id="Trazado_989719" data-name="Trazado 989719" d="M243.918,188.084c-1.378-.592-2.592-1.493-4.163-1.513a6.793,6.793,0,0,0-4.292,1.685" transform="translate(-235.463 -186.571)" fill="none" stroke="#000" stroke-linecap="round" stroke-linejoin="round" stroke-miterlimit="10" stroke-width="1"/>
                <path id="Trazado_989720" data-name="Trazado 989720" d="M242.037,188.475a1.676,1.676,0,0,1-.689,1.338,1.547,1.547,0,0,1-1.568-.015,2.547,2.547,0,0,1-1.032-1.249,3.364,3.364,0,0,1-.37-1.659,6.993,6.993,0,0,1,1.69-.153,5.349,5.349,0,0,1,1.692.23c-.047.142.191.483.226.654A3.543,3.543,0,0,1,242.037,188.475Z" transform="translate(-235.918 -186.596)"/>
              </g>
              <path id="Trazado_989721" data-name="Trazado 989721" d="M262.745,169.469a16.637,16.637,0,0,0-1.836-3.7,29.7,29.7,0,0,0-15.97-11.666,50.6,50.6,0,0,0-6.383-1.284c-1.783-.273-7.341-.8-7.456,2.154a2.552,2.552,0,0,0,.843,1.715,3.553,3.553,0,0,0,2.55,1.4,22.733,22.733,0,0,0-11.4,3.154c-2.083,1.327-4.044,3.3-4.2,5.766a3.113,3.113,0,0,0,.784,2.431,4.156,4.156,0,0,0,3.344.742,24.5,24.5,0,0,0,5.618-1.205c-2.7,2.137-3.811,4.282-3.423,7.827.187,1.634,1.4,7.553,3.926,6.8a2.475,2.475,0,0,0,1.143-.937,49.621,49.621,0,0,0,4.645-7.553,17.647,17.647,0,0,0,2.217-5.6c1.842,1.85,4.725,2.231,7.315,1.9a16.969,16.969,0,0,0,6.532-2.251,17.876,17.876,0,0,0-3.745,2.251,2.063,2.063,0,0,0-.911,1.238,1.443,1.443,0,0,0,.855,1.385,3.61,3.61,0,0,0,1.7.272,15,15,0,0,0,9.023-3.032,29.61,29.61,0,0,1,3.589,11.646c.29-.217,2.905-1.072,2.941-.335C264.224,178.171,264.209,173.593,262.745,169.469Z" transform="translate(-218.883 -152.6)"/>
              <g id="Grupo_1155969" data-name="Grupo 1155969" transform="translate(6.134 29.565)">
                <path id="Trazado_989722" data-name="Trazado 989722" d="M226.414,190.471a5.371,5.371,0,0,0,.462,4.286,3.973,3.973,0,0,0,3.051,2.137,3.319,3.319,0,0,0,2.74-1.319c1.269-1.63,1.08-5.163-.236-6.79C230.611,186.538,227.243,188.026,226.414,190.471Z" transform="translate(-226.161 -187.679)" fill="#eba08d"/>
                <path id="Trazado_989723" data-name="Trazado 989723" d="M232.248,193.261a2.8,2.8,0,0,0-4.24-1.647" transform="translate(-226.451 -188.227)" fill="none" stroke="#000" stroke-linecap="round" stroke-linejoin="round" stroke-miterlimit="10" stroke-width="1"/>
              </g>
              <g id="Grupo_1155970" data-name="Grupo 1155970" transform="translate(41.551 29.565)">
                <path id="Trazado_989724" data-name="Trazado 989724" d="M275.295,190.471a5.372,5.372,0,0,1-.462,4.286,3.973,3.973,0,0,1-3.051,2.137,3.316,3.316,0,0,1-2.739-1.319c-1.269-1.63-1.081-5.163.236-6.79C271.1,186.538,274.465,188.026,275.295,190.471Z" transform="translate(-268.184 -187.679)" fill="#eba08d"/>
                <path id="Trazado_989725" data-name="Trazado 989725" d="M270.042,193.261a2.8,2.8,0,0,1,4.241-1.647" transform="translate(-268.476 -188.227)" fill="none" stroke="#000" stroke-linecap="round" stroke-linejoin="round" stroke-miterlimit="10" stroke-width="1"/>
              </g>
              <g id="Grupo_1155971" data-name="Grupo 1155971" transform="translate(9.582 22.939)">
                <ellipse id="Elipse_11752" data-name="Elipse 11752" cx="7.07" cy="8.154" rx="7.07" ry="8.154" transform="translate(19.7)" fill="none" stroke="#5f80ba" stroke-linecap="round" stroke-linejoin="round" stroke-miterlimit="10" stroke-width="2"/>
                <ellipse id="Elipse_11753" data-name="Elipse 11753" cx="7.07" cy="8.154" rx="7.07" ry="8.154" fill="none" stroke="#5f80ba" stroke-linecap="round" stroke-linejoin="round" stroke-miterlimit="10" stroke-width="2"/>
                <line id="Línea_1530" data-name="Línea 1530" x1="5.559" transform="translate(14.141 8.154)" fill="none" stroke="#5f80ba" stroke-linecap="round" stroke-linejoin="round" stroke-miterlimit="10" stroke-width="2"/>
              </g>
              <path id="Trazado_989726" data-name="Trazado 989726" d="M245.3,202.8c1.213,3.621,6.265,4.276,8.734,1.565a8.5,8.5,0,0,0,1.54-2.715" transform="translate(-223.036 -160.31)" fill="#fff"/>
              <path id="Trazado_989727" data-name="Trazado 989727" d="M242.017,182.313a6.52,6.52,0,0,0-5.509.479" transform="translate(-221.654 -157.208)" fill="none" stroke="#000" stroke-linecap="round" stroke-linejoin="round" stroke-miterlimit="10" stroke-width="1"/>
              <path id="Trazado_989728" data-name="Trazado 989728" d="M265.064,182.333a7.691,7.691,0,0,0-5.811-.138" transform="translate(-225.229 -157.173)" fill="none" stroke="#000" stroke-linecap="round" stroke-linejoin="round" stroke-miterlimit="10" stroke-width="1"/>
            </g>
            <g id="Grupo_1155974" data-name="Grupo 1155974" transform="translate(14.649 43.774)">
              <g id="Grupo_1155973" data-name="Grupo 1155973" clip-path="url(#clip-path-15)">
                <path id="Trazado_989729" data-name="Trazado 989729" d="M238.09,217.713a1.639,1.639,0,0,0,.424,1,1.346,1.346,0,0,0,1.123.239,10.609,10.609,0,0,1,2.857-.324c.936.087,1.86.6,2.8.22a6.945,6.945,0,0,0,1.177-.785c1.756-1.166,4.17-.459,6.141-1.2a1.363,1.363,0,0,0,.941-.866c.282-1.332-4.213-.163-4.94-.174a18.841,18.841,0,0,1-3.158-.356,11.343,11.343,0,0,1-2.517-.528c-1.133-.47-2.522-1.8-3.845-1.08C237.913,214.5,237.916,216.584,238.09,217.713Z" transform="translate(-236.538 -205.97)"/>
              </g>
            </g>
          </g>
          <path id="Trazado_989731" data-name="Trazado 989731" d="M260.378,224.877a6.939,6.939,0,0,1-2.887,3.641,12.868,12.868,0,0,1-4.393,1.708,20.453,20.453,0,0,1-14.639-2.188,8.876,8.876,0,0,1-2.8-2.414" transform="translate(-37.046 -35.351)" fill="none" stroke="#000" stroke-linecap="round" stroke-linejoin="round" stroke-miterlimit="10" stroke-width="1"/>
          <path id="Trazado_989732" data-name="Trazado 989732" d="M230.1,172.033l3.027-1.289" transform="translate(-36.173 -26.841)" fill="none" stroke="#85365f" stroke-linecap="round" stroke-linejoin="round" stroke-miterlimit="10" stroke-width="1"/>
          <path id="Trazado_989733" data-name="Trazado 989733" d="M221.7,166.88c-1.066,1.344-.816,4.429,2.059,3.173" transform="translate(-34.761 -26.234)" fill="none" stroke="#85365f" stroke-linecap="round" stroke-linejoin="round" stroke-miterlimit="10" stroke-width="1"/>
          <path id="Trazado_989734" data-name="Trazado 989734" d="M254.038,173.306l3.839-2" transform="translate(-39.936 -26.93)" fill="none" stroke="#85365f" stroke-linecap="round" stroke-linejoin="round" stroke-miterlimit="10" stroke-width="1"/>
          <path id="Trazado_989735" data-name="Trazado 989735" d="M265.5,174.311l.7-.932" transform="translate(-41.738 -27.256)" fill="none" stroke="#85365f" stroke-linecap="round" stroke-linejoin="round" stroke-miterlimit="10" stroke-width="1"/>
          <path id="Trazado_989736" data-name="Trazado 989736" d="M236.182,159.207a13.855,13.855,0,0,1,3.5.054" transform="translate(-37.129 -25.014)" fill="none" stroke="#85365f" stroke-linecap="round" stroke-linejoin="round" stroke-miterlimit="10" stroke-width="1"/>
          <path id="Trazado_989737" data-name="Trazado 989737" d="M292.223,277.435a35.17,35.17,0,0,1-2.674-7.16" transform="translate(-45.518 -42.488)" fill="none" stroke="#000" stroke-linecap="round" stroke-linejoin="round" stroke-miterlimit="10" stroke-width="1"/>
          <path id="Trazado_989738" data-name="Trazado 989738" d="M279.466,340.41a34.522,34.522,0,0,0,9.007-2.7" transform="translate(-43.933 -53.09)" fill="none" stroke="#000" stroke-linecap="round" stroke-linejoin="round" stroke-miterlimit="10" stroke-width="1"/>
          <path id="Trazado_989739" data-name="Trazado 989739" d="M273.279,336.835a72.23,72.23,0,0,0,11.847-4.245" transform="translate(-42.96 -52.284)" fill="none" stroke="#000" stroke-linecap="round" stroke-linejoin="round" stroke-miterlimit="10" stroke-width="1"/>
          <g id="Grupo_1155976" data-name="Grupo 1155976" transform="translate(105.763 243.021)">
            <path id="Trazado_989740" data-name="Trazado 989740" d="M214.795,323.088a4.769,4.769,0,0,0-1.375-1.472c-4.627-3.606-10.407-5.193-16.05-6.392a56.119,56.119,0,0,1-16.081-5.841c-7.8-4.343-15.1-9.739-23.4-13.168-6.741-2.786-13.009-9.027-20.176-7.678a14.593,14.593,0,0,0-7.2,3.387c-12.021,10.261-.423,23.286,13.306,28.51a152.486,152.486,0,0,0,38.871,9.622,21.141,21.141,0,0,1,4.491.755,40.975,40.975,0,0,1,4.36,2.035,33.274,33.274,0,0,0,7.394,2.183c1.539.314,5,1.783,6.356.328.508-.543.049-1.411-.412-1.995a5.843,5.843,0,0,0,4.155.321,2.7,2.7,0,0,0,1.73-1.262,1.34,1.34,0,0,0-.629-1.838c.78-.065,1.381.408,2.175.272a2.115,2.115,0,0,0,1.554-1.064,2.283,2.283,0,0,0-.525-2.463,6.689,6.689,0,0,0-2.254-1.41c-2.28-1.032-6.009-1.92-7.59-3.92a32.681,32.681,0,0,1,6.574,2.405c1.236.6,3.518,2.3,4.7.614A1.889,1.889,0,0,0,214.795,323.088Z" transform="translate(-125.491 -288.35)" fill="#eba08d"/>
          </g>
          <path id="Trazado_989741" data-name="Trazado 989741" d="M171.171,301.378a40.2,40.2,0,0,0-10.58.409" transform="translate(-25.245 -47.35)" fill="none" stroke="#000" stroke-linecap="round" stroke-linejoin="round" stroke-miterlimit="10" stroke-width="1"/>
          <path id="Trazado_989742" data-name="Trazado 989742" d="M225.165,337.58a48.211,48.211,0,0,1-13.3-5.36" transform="translate(-33.305 -52.226)" fill="none" stroke="#000" stroke-linecap="round" stroke-linejoin="round" stroke-miterlimit="10" stroke-width="1"/>
          <path id="Trazado_989743" data-name="Trazado 989743" d="M218.418,341.367a29.588,29.588,0,0,1-10.337-4.348" transform="translate(-32.711 -52.98)" fill="none" stroke="#000" stroke-linecap="round" stroke-linejoin="round" stroke-miterlimit="10" stroke-width="1"/>
          <path id="Trazado_989744" data-name="Trazado 989744" d="M327.765,301.465q6.427-.552,12.884-.6" transform="translate(-51.526 -47.297)" fill="none" stroke="#000" stroke-linecap="round" stroke-linejoin="round" stroke-miterlimit="10" stroke-width="1"/>
          <path id="Trazado_989745" data-name="Trazado 989745" d="M370.948,303.9a15.416,15.416,0,0,1-1.744,4.946" transform="translate(-58.04 -47.774)" fill="none" stroke="#000" stroke-linecap="round" stroke-linejoin="round" stroke-miterlimit="10" stroke-width="1"/>
          <path id="Trazado_989746" data-name="Trazado 989746" d="M128.861,302.177A7.025,7.025,0,0,0,130.6,308" transform="translate(-20.243 -47.503)" fill="none" stroke="#000" stroke-linecap="round" stroke-linejoin="round" stroke-miterlimit="10" stroke-width="1"/>
          <path id="Trazado_989747" data-name="Trazado 989747" d="M280.119,327.834l3.055-1.311" transform="translate(-44.036 -51.33)" fill="none" stroke="#000" stroke-linecap="round" stroke-linejoin="round" stroke-miterlimit="10" stroke-width="1"/>
          <path id="Trazado_989748" data-name="Trazado 989748" d="M217.781,328.723l-2.7-1.378" transform="translate(-33.812 -51.46)" fill="none" stroke="#000" stroke-linecap="round" stroke-linejoin="round" stroke-miterlimit="10" stroke-width="1"/>
        </g>
      </g>
      <g id="Grupo_1155979" data-name="Grupo 1155979" transform="translate(23.172 51.459)">
        <path id="Trazado_989749" data-name="Trazado 989749" d="M27.494,203.749a23.169,23.169,0,0,0,2.472,9.184" transform="translate(-27.494 -83.489)" fill="none" stroke="#000" stroke-linecap="round" stroke-linejoin="round" stroke-miterlimit="10" stroke-width="1"/>
        <path id="Trazado_989750" data-name="Trazado 989750" d="M101.984,226.77a43.625,43.625,0,0,0,14.269-26.911" transform="translate(-39.204 -82.877)" fill="none" stroke="#000" stroke-linecap="round" stroke-linejoin="round" stroke-miterlimit="10" stroke-width="1"/>
        <path id="Trazado_989751" data-name="Trazado 989751" d="M116.814,180.426l1.284,7.208" transform="translate(-41.535 -79.822)" fill="none" stroke="#000" stroke-linecap="round" stroke-linejoin="round" stroke-miterlimit="10" stroke-width="1"/>
        <path id="Trazado_989752" data-name="Trazado 989752" d="M205.552,98.884a40.13,40.13,0,0,1-12.7,26.846" transform="translate(-53.489 -67.004)" fill="none" stroke="#000" stroke-linecap="round" stroke-linejoin="round" stroke-miterlimit="10" stroke-width="1"/>
        <path id="Trazado_989753" data-name="Trazado 989753" d="M201.659,73.472a21.307,21.307,0,0,1,3.466,8.307" transform="translate(-54.873 -63.009)" fill="none" stroke="#000" stroke-linecap="round" stroke-linejoin="round" stroke-miterlimit="10" stroke-width="1"/>
        <path id="Trazado_989754" data-name="Trazado 989754" d="M129.156,62.346a43.873,43.873,0,0,0-6.763,7.861" transform="translate(-42.412 -61.26)" fill="none" stroke="#000" stroke-linecap="round" stroke-linejoin="round" stroke-miterlimit="10" stroke-width="1"/>
        <path id="Trazado_989755" data-name="Trazado 989755" d="M129.669,129.657a38.469,38.469,0,0,0,17.882,9.383" transform="translate(-43.556 -71.841)" fill="none" stroke="#000" stroke-linecap="round" stroke-linejoin="round" stroke-miterlimit="10" stroke-width="1"/>
        <path id="Trazado_989756" data-name="Trazado 989756" d="M284.526,61.057a27.92,27.92,0,0,0-4.157,4.576" transform="translate(-67.247 -61.057)" fill="none" stroke="#000" stroke-linecap="round" stroke-linejoin="round" stroke-miterlimit="10" stroke-width="1"/>
        <path id="Trazado_989757" data-name="Trazado 989757" d="M274.562,72.72a36.367,36.367,0,0,0-3.96,26.455" transform="translate(-65.563 -62.89)" fill="none" stroke="#000" stroke-linecap="round" stroke-linejoin="round" stroke-miterlimit="10" stroke-width="1"/>
        <path id="Trazado_989758" data-name="Trazado 989758" d="M360.842,102.753a52.2,52.2,0,0,1-3.291,11.347" transform="translate(-79.38 -67.612)" fill="none" stroke="#000" stroke-linecap="round" stroke-linejoin="round" stroke-miterlimit="10" stroke-width="1"/>
        <path id="Trazado_989759" data-name="Trazado 989759" d="M442.181,326.718a31.474,31.474,0,0,0-16.655-10.5" transform="translate(-90.066 -101.169)" fill="none" stroke="#000" stroke-linecap="round" stroke-linejoin="round" stroke-miterlimit="10" stroke-width="1"/>
        <path id="Trazado_989760" data-name="Trazado 989760" d="M372.6,385.8l3.23,4.051" transform="translate(-81.745 -112.107)" fill="none" stroke="#000" stroke-linecap="round" stroke-linejoin="round" stroke-miterlimit="10" stroke-width="1"/>
        <path id="Trazado_989761" data-name="Trazado 989761" d="M383.283,396.9a28.045,28.045,0,0,0,12.554,5.9" transform="translate(-83.425 -113.852)" fill="none" stroke="#000" stroke-linecap="round" stroke-linejoin="round" stroke-miterlimit="10" stroke-width="1"/>
        <path id="Trazado_989762" data-name="Trazado 989762" d="M41.664,335.668a79.781,79.781,0,0,0-4.645,11.064" transform="translate(-28.991 -104.227)" fill="none" stroke="#000" stroke-linecap="round" stroke-linejoin="round" stroke-miterlimit="10" stroke-width="1"/>
        <path id="Trazado_989763" data-name="Trazado 989763" d="M96.78,403.773a20.6,20.6,0,0,0,5.777-2.185" transform="translate(-38.386 -114.59)" fill="none" stroke="#000" stroke-linecap="round" stroke-linejoin="round" stroke-miterlimit="10" stroke-width="1"/>
        <path id="Trazado_989764" data-name="Trazado 989764" d="M110.579,394.179A35.356,35.356,0,0,0,122.341,378.2" transform="translate(-40.555 -110.913)" fill="none" stroke="#000" stroke-linecap="round" stroke-linejoin="round" stroke-miterlimit="10" stroke-width="1"/>
        <path id="Trazado_989765" data-name="Trazado 989765" d="M423.617,240.4l4.571-1.141" transform="translate(-89.766 -89.07)" fill="none" stroke="#000" stroke-linecap="round" stroke-linejoin="round" stroke-miterlimit="10" stroke-width="1"/>
        <path id="Trazado_989766" data-name="Trazado 989766" d="M433.776,235.392a58.751,58.751,0,0,0,11.513-8.833" transform="translate(-91.363 -87.074)" fill="none" stroke="#000" stroke-linecap="round" stroke-linejoin="round" stroke-miterlimit="10" stroke-width="1"/>
        <path id="Trazado_989767" data-name="Trazado 989767" d="M383.852,158.367a33.352,33.352,0,0,1,24.327-9.419" transform="translate(-83.515 -74.87)" fill="none" stroke="#000" stroke-linecap="round" stroke-linejoin="round" stroke-miterlimit="10" stroke-width="1"/>
        <path id="Trazado_989768" data-name="Trazado 989768" d="M456.976,180.718a34.1,34.1,0,0,1,1.8,13.307" transform="translate(-95.01 -79.868)" fill="none" stroke="#000" stroke-linecap="round" stroke-linejoin="round" stroke-miterlimit="10" stroke-width="1"/>
      </g>
    </g>
  </g>
</svg>
