<svg xmlns="http://www.w3.org/2000/svg" xmlns:xlink="http://www.w3.org/1999/xlink" width="108" height="108" viewBox="0 0 108 108">
  <defs>
    <filter id="Trazado_982548" x="0" y="0" width="108" height="108" filterUnits="userSpaceOnUse">
      <feOffset dy="3" input="SourceAlpha"/>
      <feGaussianBlur stdDeviation="3" result="blur"/>
      <feFlood flood-opacity="0.161"/>
      <feComposite operator="in" in2="blur"/>
      <feComposite in="SourceGraphic"/>
    </filter>
  </defs>
  <g id="Grupo_1157491" data-name="Grupo 1157491" transform="translate(-192 -12660)">
    <g id="Grupo_1155826" data-name="Grupo 1155826" transform="translate(0 12124)">
      <g id="Grupo_1149912" data-name="Grupo 1149912" transform="translate(-9 -4313)">
        <g transform="matrix(1, 0, 0, 1, 201, 4849)" filter="url(#Trazado_982548)">
          <g id="Trazado_982548-2" data-name="Trazado 982548" transform="translate(9 6)" fill="#fef8e7">
            <path d="M 45 88.5 C 39.12687683105469 88.5 33.43022537231445 87.35007476806641 28.06830024719238 85.08217620849609 C 22.88852500915527 82.89131164550781 18.23629951477051 79.75458526611328 14.2408504486084 75.75914764404297 C 10.24541282653809 71.76370239257812 7.108687400817871 67.11147308349609 4.917825222015381 61.93170166015625 C 2.649924993515015 56.56977462768555 1.5 50.87312316894531 1.5 45 C 1.5 39.12687683105469 2.649924993515015 33.43022537231445 4.917825222015381 28.06830024719238 C 7.108687400817871 22.88852500915527 10.24541282653809 18.23629951477051 14.2408504486084 14.2408504486084 C 18.23629951477051 10.24541282653809 22.88852500915527 7.108687400817871 28.06830024719238 4.917825222015381 C 33.43022537231445 2.649924993515015 39.12687683105469 1.5 45 1.5 C 50.87312316894531 1.5 56.56977462768555 2.649924993515015 61.93170166015625 4.917825222015381 C 67.11147308349609 7.108687400817871 71.76370239257812 10.24541282653809 75.75914764404297 14.2408504486084 C 79.75458526611328 18.23629951477051 82.89131164550781 22.88852500915527 85.08217620849609 28.06830024719238 C 87.35007476806641 33.43022537231445 88.5 39.12687683105469 88.5 45 C 88.5 50.87312316894531 87.35007476806641 56.56977462768555 85.08217620849609 61.93170166015625 C 82.89131164550781 67.11147308349609 79.75458526611328 71.76370239257812 75.75914764404297 75.75914764404297 C 71.76370239257812 79.75458526611328 67.11147308349609 82.89131164550781 61.93170166015625 85.08217620849609 C 56.56977462768555 87.35007476806641 50.87312316894531 88.5 45 88.5 Z" stroke="none"/>
            <path d="M 45 3 C 39.32871246337891 3 33.82865524291992 4.110054016113281 28.65262985229492 6.299339294433594 C 23.65165710449219 8.414573669433594 19.15968322753906 11.44334411621094 15.301513671875 15.301513671875 C 11.44334411621094 19.15968322753906 8.414573669433594 23.65165710449219 6.299339294433594 28.65262985229492 C 4.110054016113281 33.82865524291992 3 39.32871246337891 3 45 C 3 50.67128753662109 4.110054016113281 56.17134475708008 6.299339294433594 61.34737396240234 C 8.414573669433594 66.34834289550781 11.44334411621094 70.84031677246094 15.301513671875 74.698486328125 C 19.15968322753906 78.55665588378906 23.65165710449219 81.58542633056641 28.65262985229492 83.70066070556641 C 33.82865524291992 85.88994598388672 39.32871246337891 87 45 87 C 50.67128753662109 87 56.17134475708008 85.88994598388672 61.34737396240234 83.70066070556641 C 66.34834289550781 81.58542633056641 70.84031677246094 78.55665588378906 74.698486328125 74.698486328125 C 78.55665588378906 70.84031677246094 81.58542633056641 66.34834289550781 83.70066070556641 61.34737396240234 C 85.88994598388672 56.17134475708008 87 50.67128753662109 87 45 C 87 39.32871246337891 85.88994598388672 33.82865524291992 83.70066070556641 28.65262985229492 C 81.58542633056641 23.65165710449219 78.55665588378906 19.15968322753906 74.698486328125 15.301513671875 C 70.84031677246094 11.44334411621094 66.34834289550781 8.414573669433594 61.34737396240234 6.299339294433594 C 56.17134475708008 4.110054016113281 50.67128753662109 3 45 3 M 45 0 C 69.85281372070312 0 90 20.14718627929688 90 45 C 90 69.85281372070312 69.85281372070312 90 45 90 C 20.14718627929688 90 0 69.85281372070312 0 45 C 0 20.14718627929688 20.14718627929688 0 45 0 Z" stroke="none" fill="#fdc621"/>
          </g>
        </g>
      </g>
    </g>
    <g id="lista-de-verificacion_1_" data-name="lista-de-verificacion (1)" transform="translate(220 12685)">
      <g id="Grupo_1157438" data-name="Grupo 1157438" transform="translate(0.831 0.831)">
        <g id="Grupo_1157424" data-name="Grupo 1157424" transform="translate(19.935 4.984)">
          <path id="Trazado_990616" data-name="Trazado 990616" d="M50.749,48.531H25V7.831A.831.831,0,0,1,25.831,7H50.749a.831.831,0,0,1,.831.831V47.7A.831.831,0,0,1,50.749,48.531Z" transform="translate(-25 -7)" fill="#e6e9ed"/>
        </g>
        <g id="Grupo_1157425" data-name="Grupo 1157425" transform="translate(16.612 1.661)">
          <path id="Trazado_990617" data-name="Trazado 990617" d="M23.492,47.854h26.58a.833.833,0,0,0,.831-.831V7.153a.833.833,0,0,0-.831-.831H45.088a.833.833,0,0,0,.831-.831V3h7.476a.833.833,0,0,1,.831.831V50.345a.833.833,0,0,1-.831.831H21.831A.833.833,0,0,1,21,50.345V46.192a1.666,1.666,0,0,0,1.661,1.661Z" transform="translate(-21 -3)" fill="#cf9e76"/>
        </g>
        <g id="Grupo_1157426" data-name="Grupo 1157426" transform="translate(16.612 1.661)">
          <path id="Trazado_990618" data-name="Trazado 990618" d="M30.137,6.322H25.153a.833.833,0,0,0-.831.831V9.678c-.274-.025-.548-.033-.831-.033A9.849,9.849,0,0,0,21,9.961V3.831A.833.833,0,0,1,21.831,3h7.476V5.492A.833.833,0,0,0,30.137,6.322Z" transform="translate(-21 -3)" fill="#cf9e76"/>
        </g>
        <g id="Grupo_1157427" data-name="Grupo 1157427" transform="translate(24.919)">
          <path id="Trazado_990619" data-name="Trazado 990619" d="M47.612,2.661V5.153a.833.833,0,0,1-.831.831H31.831A.833.833,0,0,1,31,5.153V1.831A.833.833,0,0,1,31.831,1H46.782a.833.833,0,0,1,.831.831Z" transform="translate(-31 -1)" fill="#b4dd7f"/>
        </g>
        <g id="Grupo_1157428" data-name="Grupo 1157428" transform="translate(32.394 11.629)">
          <path id="Trazado_990620" data-name="Trazado 990620" d="M54.121,36.555V41.58H49.967v-.872a1.8,1.8,0,0,0-1.121-1.67l-.025-.008a1.791,1.791,0,0,0-1.96.39l-.623.615-4.693-4.693.623-.631a1.794,1.794,0,0,0,.39-1.944l-.017-.042a1.791,1.791,0,0,0-1.661-1.113H40V24.967h.872a1.8,1.8,0,0,0,1.67-1.121l.008-.025a1.791,1.791,0,0,0-.39-1.96l-.615-.623,4.693-4.693.631.623a1.775,1.775,0,0,0,1.952.382.031.031,0,0,0,.025-.008,1.786,1.786,0,0,0,1.121-1.661V15h4.153v5.025c-.274-.025-.548-.042-.831-.042a8.306,8.306,0,1,0,0,16.612c.282,0,.565-.017.831-.042Z" transform="translate(-40 -15)" fill="#ffc729"/>
        </g>
        <g id="Grupo_1157429" data-name="Grupo 1157429" transform="translate(37.378 16.612)">
          <path id="Trazado_990621" data-name="Trazado 990621" d="M55.137,34.215v3.356c-.266.025-.548.042-.831.042a8.306,8.306,0,1,1,0-16.612c.282,0,.557.017.831.042v3.347a5.511,5.511,0,0,0-.831-.066,4.984,4.984,0,0,0,0,9.967A4.544,4.544,0,0,0,55.137,34.215Z" transform="translate(-46 -21)" fill="#fcd770"/>
        </g>
        <g id="Grupo_1157430" data-name="Grupo 1157430" transform="translate(0 31.564)">
          <path id="Trazado_990622" data-name="Trazado 990622" d="M7.645,39.831v8.306a.833.833,0,0,1-.831.831H1V39H6.814A.833.833,0,0,1,7.645,39.831Z" transform="translate(-1 -39)" fill="#ff826e"/>
        </g>
        <g id="Grupo_1157431" data-name="Grupo 1157431" transform="translate(16.612 31.514)">
          <path id="Trazado_990623" data-name="Trazado 990623" d="M25.651,39.023a1.668,1.668,0,0,0-.839.457,1.624,1.624,0,0,0-.49,1.171,1.666,1.666,0,0,0,1.661,1.661,1.673,1.673,0,0,0-1.661,1.661,1.666,1.666,0,0,0,1.661,1.661A1.673,1.673,0,0,0,24.322,47.3a1.666,1.666,0,0,0,1.661,1.661V52.28a1.666,1.666,0,0,1-1.661,1.661H22.661A1.666,1.666,0,0,1,21,52.28v-10.8a9.04,9.04,0,0,0,1.661-2.492h2.492a2.392,2.392,0,0,0,.49-.05Z" transform="translate(-21 -38.94)" fill="#969faa"/>
        </g>
        <g id="Grupo_1157432" data-name="Grupo 1157432" transform="translate(19.935 31.564)">
          <path id="Trazado_990624" data-name="Trazado 990624" d="M28.322,39a1.666,1.666,0,0,1,1.661,1.661,1.673,1.673,0,0,1-1.661,1.661H26.661A1.666,1.666,0,0,1,25,40.661a1.624,1.624,0,0,1,.49-1.171,1.668,1.668,0,0,1,.839-.457A1.455,1.455,0,0,1,26.661,39Z" transform="translate(-25 -39)" fill="#f0d0b4"/>
        </g>
        <g id="Grupo_1157433" data-name="Grupo 1157433" transform="translate(19.935 34.886)">
          <path id="Trazado_990625" data-name="Trazado 990625" d="M28.322,43a1.666,1.666,0,0,1,1.661,1.661,1.673,1.673,0,0,1-1.661,1.661H26.661A1.666,1.666,0,0,1,25,44.661,1.673,1.673,0,0,1,26.661,43Z" transform="translate(-25 -43)" fill="#f0d0b4"/>
        </g>
        <g id="Grupo_1157434" data-name="Grupo 1157434" transform="translate(19.935 38.209)">
          <path id="Trazado_990626" data-name="Trazado 990626" d="M26.661,50.322A1.666,1.666,0,0,1,25,48.661,1.673,1.673,0,0,1,26.661,47h1.661a1.666,1.666,0,0,1,1.661,1.661,1.673,1.673,0,0,1-1.661,1.661Z" transform="translate(-25 -47)" fill="#f0d0b4"/>
        </g>
        <g id="Grupo_1157435" data-name="Grupo 1157435" transform="translate(6.645 28.241)">
          <path id="Trazado_990627" data-name="Trazado 990627" d="M18.967,40.814v9.137H15.014A8.514,8.514,0,0,1,9,47.459V39.153A8.553,8.553,0,0,1,16.334,35h8.447a.833.833,0,0,1,.831.831,2.486,2.486,0,0,1-.731,1.761,2.442,2.442,0,0,1-1.271.681,2.392,2.392,0,0,1-.49.05H20.629A9.04,9.04,0,0,1,18.967,40.814Z" transform="translate(-9 -35)" fill="#f0d0b4"/>
        </g>
        <g id="Grupo_1157436" data-name="Grupo 1157436" transform="translate(9.137 8.306)">
          <path id="Trazado_990628" data-name="Trazado 990628" d="M22.8,11.033a9.969,9.969,0,1,1-3.322.282A9.849,9.849,0,0,1,21.967,11C22.25,11,22.524,11.008,22.8,11.033Z" transform="translate(-12 -11)" fill="#aab2bd"/>
        </g>
        <g id="Grupo_1157437" data-name="Grupo 1157437" transform="translate(12.459 11.629)">
          <circle id="Elipse_11770" data-name="Elipse 11770" cx="7" cy="7" r="7" transform="translate(-0.29 -0.459)" fill="#69d6f4"/>
        </g>
      </g>
      <g id="Grupo_1157439" data-name="Grupo 1157439" transform="translate(0)">
        <path id="Trazado_990629" data-name="Trazado 990629" d="M29.951,21.476a7.476,7.476,0,1,0-7.476,7.476A7.485,7.485,0,0,0,29.951,21.476Zm-13.29,0a5.814,5.814,0,1,1,5.814,5.814A5.821,5.821,0,0,1,16.661,21.476Z" transform="translate(-2.541 -2.371)"/>
        <path id="Trazado_990630" data-name="Trazado 990630" d="M25.938,19.293l-4.4,4.4-1.074-1.074L19.293,23.79l2.248,2.248,5.571-5.571Z" transform="translate(-3.268 -3.268)"/>
        <path id="Trazado_990631" data-name="Trazado 990631" d="M4,56H5.661v1.661H4Z" transform="translate(-0.678 -9.485)"/>
        <path id="Trazado_990632" data-name="Trazado 990632" d="M8,56H9.661v1.661H8Z" transform="translate(-1.355 -9.485)"/>
        <path id="Trazado_990633" data-name="Trazado 990633" d="M12,56h1.661v1.661H12Z" transform="translate(-2.033 -9.485)"/>
        <path id="Trazado_990634" data-name="Trazado 990634" d="M2,3H13.629V4.661H2Z" transform="translate(-0.339 -0.508)"/>
        <path id="Trazado_990635" data-name="Trazado 990635" d="M2,7h9.967V8.661H2Z" transform="translate(-0.339 -1.186)"/>
        <path id="Trazado_990636" data-name="Trazado 990636" d="M2,11h8.306v1.661H2Z" transform="translate(-0.339 -1.863)"/>
        <path id="Trazado_990637" data-name="Trazado 990637" d="M2,15H3.661v1.661H2Z" transform="translate(-0.339 -2.541)"/>
        <path id="Trazado_990638" data-name="Trazado 990638" d="M6,15H7.661v1.661H6Z" transform="translate(-1.016 -2.541)"/>
        <path id="Trazado_990639" data-name="Trazado 990639" d="M49.837,1.661H43.192A1.663,1.663,0,0,0,41.531,0H26.58a1.663,1.663,0,0,0-1.661,1.661H18.274a1.663,1.663,0,0,0-1.661,1.661V8.835a10.781,10.781,0,0,0-2.347,19.442,9.436,9.436,0,0,0-6.8,3.511,1.647,1.647,0,0,0-.82-.224H0V43.192H6.645a1.642,1.642,0,0,0,1.036-.373,9.259,9.259,0,0,0,5.811,2.034h3.121v4.984A1.663,1.663,0,0,0,18.274,51.5H49.837A1.663,1.663,0,0,0,51.5,49.837V3.322A1.663,1.663,0,0,0,49.837,1.661ZM6.645,41.531H1.661V33.225H6.645ZM46.515,29.9a4.153,4.153,0,0,1,0-8.306ZM40.7,25.749a5.821,5.821,0,0,0,5.814,5.814v1.661a7.476,7.476,0,0,1,0-14.951v1.661A5.821,5.821,0,0,0,40.7,25.749Zm-3.322,0a9.148,9.148,0,0,0,9.137,9.137v3.322H44.023v-.041A2.657,2.657,0,0,0,39.5,36.292l-.029.029L35.943,32.8l.037-.036a2.657,2.657,0,0,0-1.872-4.519h-.052V23.257H34.1a2.657,2.657,0,0,0,1.876-4.527l-.029-.029,3.524-3.524.036.037a2.658,2.658,0,0,0,4.52-1.873V13.29h2.492v3.322A9.148,9.148,0,0,0,37.378,25.749Zm9.137-14.121H42.362v1.713a1,1,0,0,1-1.685.7l-1.211-1.211L33.593,18.7l1.2,1.2a1,1,0,0,1-.7,1.691h-1.7V29.9h1.713a.976.976,0,0,1,.907.638.961.961,0,0,1-.209,1.047L33.594,32.8l5.873,5.873,1.2-1.2a1,1,0,0,1,1.691.7v1.7h4.153v6.645H23.1a2.464,2.464,0,0,0,.153-.831V43.192h.831a2.481,2.481,0,0,0,1.844-4.153,2.454,2.454,0,0,0,0-3.322,2.472,2.472,0,0,0-1.5-4.118,3.283,3.283,0,0,0,.482-1.7,1.645,1.645,0,0,0-.38-1.045A10.78,10.78,0,0,0,21.6,8.447v-1.8H46.515ZM21.6,37.378a.832.832,0,0,1,.831-.831h1.661a.831.831,0,1,1,0,1.661H22.427A.832.832,0,0,1,21.6,37.378Zm2.492-2.492H22.427a.831.831,0,1,1,0-1.661h1.661a.831.831,0,1,1,0,1.661Zm0,4.984a.831.831,0,0,1,0,1.661H22.427a.831.831,0,1,1,0-1.661ZM26.58,1.661H41.531V4.984H26.58ZM18.274,3.322h6.645V4.984H21.6a1.663,1.663,0,0,0-1.661,1.661V8.306a10.845,10.845,0,0,0-1.661.141ZM10.8,19.1a9.137,9.137,0,1,1,9.137,9.137A9.148,9.148,0,0,1,10.8,19.1Zm2.694,24.088a7.619,7.619,0,0,1-5.186-2.028V33.482a7.757,7.757,0,0,1,6.5-3.579h8.447A1.663,1.663,0,0,1,21.6,31.564H18.505l-.189.568a4.825,4.825,0,0,1-2.79,2.96l-1.714.686.617,1.542,1.714-.685c.16-.064.316-.139.469-.215v6.774Zm4.782-7.948a6.489,6.489,0,0,0,1.4-2.019h.414a2.415,2.415,0,0,0,.5,2.492,2.454,2.454,0,0,0,0,3.322,2.469,2.469,0,0,0,1.013,4v2.645a.832.832,0,0,1-.831.831H19.1a.832.832,0,0,1-.831-.831ZM49.837,49.837H18.274V48.023a2.464,2.464,0,0,0,.831.153H46.515a1.663,1.663,0,0,0,1.661-1.661V6.645a1.663,1.663,0,0,0-1.661-1.661H43.192V3.322h6.645Z" transform="translate(0)"/>
        <path id="Trazado_990640" data-name="Trazado 990640" d="M36,52h1.661v1.661H36Z" transform="translate(-6.098 -8.808)"/>
        <path id="Trazado_990641" data-name="Trazado 990641" d="M40,52h1.661v1.661H40Z" transform="translate(-6.775 -8.808)"/>
        <path id="Trazado_990642" data-name="Trazado 990642" d="M44,52h1.661v1.661H44Z" transform="translate(-7.453 -8.808)"/>
      </g>
    </g>
  </g>
</svg>
