<svg xmlns="http://www.w3.org/2000/svg" xmlns:xlink="http://www.w3.org/1999/xlink" width="110" height="110" viewBox="0 0 110 110">
  <defs>
    <filter id="Trazado_982547" x="0" y="0" width="110" height="110" filterUnits="userSpaceOnUse">
      <feOffset dy="3" input="SourceAlpha"/>
      <feGaussianBlur stdDeviation="3" result="blur"/>
      <feFlood flood-opacity="0.161"/>
      <feComposite operator="in" in2="blur"/>
      <feComposite in="SourceGraphic"/>
    </filter>
  </defs>
  <g id="Grupo_1157306" data-name="Grupo 1157306" transform="translate(-801 -6400)">
    <g id="Grupo_1155724" data-name="Grupo 1155724" transform="translate(0 1716.334)">
      <g id="Grupo_1154703" data-name="Grupo 1154703" transform="translate(0 1465.666)">
        <g id="Grupo_1150789" data-name="Grupo 1150789" transform="translate(3 2320)">
          <g id="Grupo_1154212" data-name="Grupo 1154212" transform="translate(-236 -5809)">
            <g id="Grupo_1152583" data-name="Grupo 1152583" transform="translate(1043 6713)">
              <g id="Grupo_1146973" data-name="Grupo 1146973" transform="translate(0 0)">
                <g id="Grupo_1146954" data-name="Grupo 1146954">
                  <g transform="matrix(1, 0, 0, 1, -9, -6)" filter="url(#Trazado_982547)">
                    <g id="Trazado_982547-2" data-name="Trazado 982547" transform="translate(9 6)" fill="#f1fbfb">
                      <path d="M 46 90.49987030029297 C 39.99187850952148 90.49987030029297 34.16426849365234 89.32350921630859 28.67905426025391 87.00345611572266 C 23.38019943237305 84.76224517822266 18.62104034423828 81.55341339111328 14.53374671936035 77.46613311767578 C 10.44646644592285 73.37885284423828 7.237639904022217 68.61969757080078 4.996413230895996 63.32085418701172 C 2.676359891891479 57.83565521240234 1.5 52.008056640625 1.5 45.99993515014648 C 1.5 39.99181365966797 2.676359891891479 34.16421508789062 4.996413230895996 28.67901420593262 C 7.237639904022217 23.38017463684082 10.44646644592285 18.62101554870605 14.53374671936035 14.53373527526855 C 18.62104034423828 10.44645500183105 23.38019943237305 7.23762845993042 28.67905426025391 4.996415138244629 C 34.16426849365234 2.676361799240112 39.99187850952148 1.500001788139343 46 1.500001788139343 C 52.00812149047852 1.500001788139343 57.83573150634766 2.676361799240112 63.32094573974609 4.996415138244629 C 68.61979675292969 7.23762845993042 73.37895965576172 10.44645500183105 77.46625518798828 14.53373527526855 C 81.55353546142578 18.62101554870605 84.76235961914062 23.38017463684082 87.00358581542969 28.67901420593262 C 89.32363891601562 34.16421508789062 90.5 39.99181365966797 90.5 45.99993515014648 C 90.5 52.008056640625 89.32363891601562 57.83565521240234 87.00358581542969 63.32085418701172 C 84.76235961914062 68.61969757080078 81.55353546142578 73.37885284423828 77.46625518798828 77.46613311767578 C 73.37895965576172 81.55341339111328 68.61979675292969 84.76224517822266 63.32094573974609 87.00345611572266 C 57.83573150634766 89.32350921630859 52.00812149047852 90.49987030029297 46 90.49987030029297 Z" stroke="none"/>
                      <path d="M 46 2.999992370605469 C 40.1937141418457 2.999992370605469 34.56269836425781 4.136489868164062 29.26337051391602 6.377906799316406 C 24.14332580566406 8.543502807617188 19.54441070556641 11.64437866210938 15.59439849853516 15.59437561035156 C 11.64440155029297 19.54439544677734 8.54351806640625 24.14329528808594 6.377914428710938 29.26333618164062 C 4.136497497558594 34.56264877319336 3 40.19366455078125 3 45.99993515014648 C 3 51.80620574951172 4.136497497558594 57.43720626831055 6.377914428710938 62.73651885986328 C 8.54351806640625 67.8565673828125 11.64440155029297 72.45545959472656 15.59439849853516 76.40547943115234 C 19.54441070556641 80.35547637939453 24.14332580566406 83.45635223388672 29.26337051391602 85.6219482421875 C 34.56269836425781 87.86336517333984 40.1937141418457 88.99986267089844 46 88.99986267089844 C 51.8062858581543 88.99986267089844 57.43730163574219 87.86336517333984 62.73661422729492 85.6219482421875 C 67.85667419433594 83.45635223388672 72.45557403564453 80.35547637939453 76.40558624267578 76.40547943115234 C 80.35559844970703 72.45545959472656 83.45647430419922 67.8565673828125 85.6220703125 62.73651885986328 C 87.86350250244141 57.43720626831055 89 51.80620574951172 89 45.99993515014648 C 89 40.19366455078125 87.86350250244141 34.56264877319336 85.6220703125 29.26333618164062 C 83.45647430419922 24.14329528808594 80.35559844970703 19.54439544677734 76.40558624267578 15.59437561035156 C 72.45557403564453 11.64437866210938 67.85667419433594 8.543502807617188 62.73661422729492 6.377906799316406 C 57.43730163574219 4.136489868164062 51.8062858581543 2.999992370605469 46 2.999992370605469 M 46 -7.62939453125e-06 C 71.40509033203125 -7.62939453125e-06 92 20.59486389160156 92 45.99993515014648 C 92 71.40499114990234 71.40509033203125 91.99986267089844 46 91.99986267089844 C 20.59490203857422 91.99986267089844 0 71.40499114990234 0 45.99993515014648 C 0 20.59486389160156 20.59490203857422 -7.62939453125e-06 46 -7.62939453125e-06 Z" stroke="none" fill="#82e0e0"/>
                    </g>
                  </g>
                </g>
              </g>
            </g>
          </g>
        </g>
      </g>
    </g>
    <g id="licencia" transform="translate(827.75 6423.31)">
      <g id="Grupo_1157293" data-name="Grupo 1157293" transform="translate(1.899 3.339)">
        <g id="Grupo_1157281" data-name="Grupo 1157281" transform="translate(0)">
          <path id="Trazado_990372" data-name="Trazado 990372" d="M53.905,3.44H3.73A1.735,1.735,0,0,0,2,5.17V39.09a1.735,1.735,0,0,0,1.73,1.73H53.905a1.735,1.735,0,0,0,1.73-1.73V5.17a1.73,1.73,0,0,0-1.73-1.73Z" transform="translate(-2 -3.44)" fill="#009aff"/>
        </g>
        <g id="Grupo_1157282" data-name="Grupo 1157282" transform="translate(4.325 4.325)">
          <path id="Trazado_990373" data-name="Trazado 990373" d="M48.524,8.44H10.46A3.459,3.459,0,0,1,7,11.9V33.709a3.459,3.459,0,0,1,3.46,3.46H48.524a3.459,3.459,0,0,1,3.46-3.46V11.9a3.459,3.459,0,0,1-3.46-3.46Z" transform="translate(-7 -8.44)" fill="#e6e9ee"/>
        </g>
        <g id="Grupo_1157283" data-name="Grupo 1157283" transform="translate(10.848 8.781)">
          <path id="Trazado_990374" data-name="Trazado 990374" d="M46.046,13.59H14.973a.428.428,0,0,0-.433.433v4.325a.428.428,0,0,0,.433.433H46.055a.428.428,0,0,0,.433-.433V14.023a.441.441,0,0,0-.441-.433Z" transform="translate(-14.54 -13.59)" fill="#aab2bd"/>
        </g>
        <g id="Grupo_1157284" data-name="Grupo 1157284" transform="translate(10.848 8.781)" opacity="0.2">
          <path id="Trazado_990375" data-name="Trazado 990375" d="M16.7,17.05a.428.428,0,0,1-.433-.433V13.59h-1.3a.428.428,0,0,0-.433.433v4.325a.428.428,0,0,0,.433.433H46.055a.428.428,0,0,0,.433-.433v-1.3Z" transform="translate(-14.54 -13.59)"/>
        </g>
        <g id="Grupo_1157285" data-name="Grupo 1157285" opacity="0.15">
          <path id="Trazado_990376" data-name="Trazado 990376" d="M41.11,37.351A35.652,35.652,0,0,1,5.5,3.44H3.73A1.735,1.735,0,0,0,2,5.17V39.09a1.735,1.735,0,0,0,1.73,1.73H53.905a1.735,1.735,0,0,0,1.73-1.73V37.36H41.11Z" transform="translate(-2 -3.44)"/>
        </g>
        <g id="Grupo_1157286" data-name="Grupo 1157286" transform="translate(16.437 24.377)">
          <path id="Trazado_990377" data-name="Trazado 990377" d="M41.762,41.534c0,1.038-1.661,1.8-1.972,2.734-.311.969.571,2.561-.017,3.365s-2.388.458-3.2,1.055-1.021,2.4-1.99,2.716c-.926.311-2.163-1.029-3.2-1.029s-2.275,1.332-3.209,1.029c-.969-.311-1.185-2.137-1.99-2.716-.813-.6-2.6-.234-3.2-1.055-.588-.8.3-2.4-.017-3.365-.3-.934-1.964-1.7-1.964-2.734s1.661-1.8,1.972-2.734c.311-.969-.571-2.561.017-3.365s2.388-.458,3.2-1.055,1.021-2.4,1.99-2.716c.934-.3,2.171,1.029,3.209,1.029s2.275-1.332,3.209-1.029c.969.311,1.185,2.137,1.99,2.716.813.6,2.6.234,3.2,1.055.588.8-.3,2.4.017,3.365C40.1,39.734,41.762,40.5,41.762,41.534Z" transform="translate(-21 -31.618)" fill="#fec200"/>
        </g>
        <g id="Grupo_1157287" data-name="Grupo 1157287" transform="translate(21.195 28.669)">
          <path id="Trazado_990378" data-name="Trazado 990378" d="M32.123,47.826A5.623,5.623,0,1,1,37.746,42.2,5.634,5.634,0,0,1,32.123,47.826Z" transform="translate(-26.5 -36.58)" fill="#e6e9ee"/>
        </g>
        <g id="Grupo_1157288" data-name="Grupo 1157288" transform="translate(23.824 43.133)">
          <path id="Trazado_990379" data-name="Trazado 990379" d="M32.533,53.3c-.96,0-2.085,1.125-2.993,1.055V61.3l3.114-1.946L35.526,61.3V54.355C34.618,54.433,33.493,53.3,32.533,53.3Z" transform="translate(-29.54 -53.3)" fill="#ff4823"/>
        </g>
        <g id="Grupo_1157289" data-name="Grupo 1157289" transform="translate(16.437 27.25)" opacity="0.15">
          <path id="Trazado_990380" data-name="Trazado 990380" d="M36.373,47.6A10.619,10.619,0,0,1,25.957,34.94c-.882.415-2.431.182-2.976.934-.588.8.3,2.4-.017,3.365-.3.943-1.964,1.7-1.964,2.742s1.661,1.8,1.972,2.734c.311.969-.571,2.561.017,3.365s2.388.458,3.2,1.055,1.021,2.4,1.99,2.716c.934.3,2.171-1.029,3.209-1.029s2.275,1.332,3.209,1.029c.969-.311,1.185-2.137,1.99-2.716.813-.6,2.6-.234,3.2-1.055a1.577,1.577,0,0,0,.182-1.116,10.606,10.606,0,0,1-3.6.64Z" transform="translate(-21 -34.94)"/>
        </g>
        <g id="Grupo_1157290" data-name="Grupo 1157290" transform="translate(23.824 43.375)" opacity="0.1">
          <path id="Trazado_990381" data-name="Trazado 990381" d="M32.966,57.343a1.324,1.324,0,0,1-1.324-1.324V53.58a5.217,5.217,0,0,1-2.1.813V61.34l3.114-1.946,2.872,1.946V57.334H32.966Z" transform="translate(-29.54 -53.58)"/>
        </g>
        <g id="Grupo_1157291" data-name="Grupo 1157291" transform="translate(28.349 24.375)" opacity="0.4">
          <path id="Trazado_990382" data-name="Trazado 990382" d="M41.647,38.8c-.311-.969.571-2.561-.017-3.365s-2.388-.458-3.2-1.055-1.021-2.4-1.99-2.716a2.335,2.335,0,0,0-1.67.458,1.712,1.712,0,0,0,.926,1.107,7.037,7.037,0,0,1,.329.632,4.811,4.811,0,0,0,1.384,1.929,4.883,4.883,0,0,0,2.275.735c.112.017.251.035.381.052-.017.13-.043.26-.061.372a4.9,4.9,0,0,0-.009,2.4,4.692,4.692,0,0,0,1.393,1.895c.1.087.208.2.311.3-.1.1-.216.216-.311.3A4.692,4.692,0,0,0,40,43.748a1.729,1.729,0,0,0,1.107,2.18,1.657,1.657,0,0,0,.536.087A.256.256,0,0,0,41.725,46a3.791,3.791,0,0,1-.087-1.713c.3-.934,1.972-1.7,1.972-2.734.009-1.055-1.652-1.817-1.964-2.751Z" transform="translate(-34.77 -31.617)" fill="#fff"/>
        </g>
        <g id="Grupo_1157292" data-name="Grupo 1157292" transform="translate(12.051 0)" opacity="0.3">
          <path id="Trazado_990383" data-name="Trazado 990383" d="M57.515,24.6V5.17a1.735,1.735,0,0,0-1.73-1.73H15.93a3.46,3.46,0,0,0,3.339,2.6h35.65V21.261a3.46,3.46,0,0,0,2.6,3.339Z" transform="translate(-15.93 -3.44)" fill="#fff"/>
        </g>
      </g>
      <g id="Grupo_1157305" data-name="Grupo 1157305" transform="translate(1.25 2.69)">
        <g id="Grupo_1157294" data-name="Grupo 1157294" transform="translate(16.419 24.359)">
          <path id="Trazado_990384" data-name="Trazado 990384" d="M34.192,52a3.92,3.92,0,0,1-1.739-.606,3.142,3.142,0,0,0-1.177-.467,3.27,3.27,0,0,0-1.185.467,2.909,2.909,0,0,1-2.232.528c-.8-.26-1.185-1.073-1.531-1.782a3.2,3.2,0,0,0-.64-1.029,3,3,0,0,0-1.194-.294,2.971,2.971,0,0,1-2.154-.9,2.962,2.962,0,0,1-.19-2.31,3.243,3.243,0,0,0,.087-1.246,3.249,3.249,0,0,0-.77-.908,2.977,2.977,0,0,1-1.237-2.033A3,3,0,0,1,21.458,39.4a3.133,3.133,0,0,0,.77-.908,3.08,3.08,0,0,0-.087-1.246,2.966,2.966,0,0,1,.19-2.31,2.971,2.971,0,0,1,2.154-.9,3.153,3.153,0,0,0,1.194-.294,3.2,3.2,0,0,0,.64-1.029,2.963,2.963,0,0,1,1.531-1.782,2.925,2.925,0,0,1,2.223.528,3.12,3.12,0,0,0,1.185.467,3.329,3.329,0,0,0,1.185-.467,2.909,2.909,0,0,1,2.232-.528,2.963,2.963,0,0,1,1.531,1.782,3.2,3.2,0,0,0,.64,1.029,3,3,0,0,0,1.194.294,2.971,2.971,0,0,1,2.154.9,2.962,2.962,0,0,1,.19,2.31,3.243,3.243,0,0,0-.087,1.246,3.249,3.249,0,0,0,.77.908,2.978,2.978,0,0,1,1.237,2.024,3.015,3.015,0,0,1-1.237,2.033,3.133,3.133,0,0,0-.77.908,3.08,3.08,0,0,0,.087,1.246,2.962,2.962,0,0,1-.19,2.31,2.971,2.971,0,0,1-2.154.9,3.153,3.153,0,0,0-1.194.294,3.2,3.2,0,0,0-.64,1.029,2.939,2.939,0,0,1-1.531,1.782,1.535,1.535,0,0,1-.484.078Zm-2.915-2.379a4.007,4.007,0,0,1,1.8.623c.433.234.952.519,1.211.441.277-.087.536-.632.761-1.107A3.9,3.9,0,0,1,36.1,48.056a3.872,3.872,0,0,1,1.782-.536c.519-.069,1.107-.147,1.272-.372s.052-.83-.035-1.315a3.948,3.948,0,0,1-.043-1.877,3.689,3.689,0,0,1,1.107-1.445c.389-.372.83-.787.83-1.09s-.441-.718-.83-1.09a3.772,3.772,0,0,1-1.107-1.445,3.951,3.951,0,0,1,.043-1.877c.087-.484.2-1.09.035-1.315s-.753-.3-1.272-.372a3.841,3.841,0,0,1-1.782-.536,3.838,3.838,0,0,1-1.047-1.523c-.225-.476-.484-1.021-.761-1.107-.251-.078-.779.208-1.211.441a3.872,3.872,0,0,1-1.8.623,4.007,4.007,0,0,1-1.8-.623c-.433-.234-.969-.519-1.211-.441-.277.087-.536.632-.761,1.107a3.755,3.755,0,0,1-1.047,1.54,3.872,3.872,0,0,1-1.782.536c-.519.069-1.107.147-1.272.372s-.052.822.035,1.315a3.949,3.949,0,0,1,.043,1.877,3.772,3.772,0,0,1-1.107,1.445c-.389.372-.83.787-.83,1.09s.441.718.83,1.09a3.772,3.772,0,0,1,1.107,1.445,3.844,3.844,0,0,1-.043,1.877c-.087.484-.2,1.09-.035,1.315s.753.3,1.272.372a3.841,3.841,0,0,1,1.782.536A3.752,3.752,0,0,1,27.505,49.6c.225.476.484,1.021.761,1.107.251.078.779-.208,1.211-.441A3.837,3.837,0,0,1,31.277,49.622Z" transform="translate(-20.23 -30.848)" fill="#211e27"/>
        </g>
        <g id="Grupo_1157295" data-name="Grupo 1157295" transform="translate(21.195 28.669)">
          <path id="Trazado_990385" data-name="Trazado 990385" d="M32.022,48.374A6.272,6.272,0,1,1,38.294,42.1,6.276,6.276,0,0,1,32.022,48.374Zm0-11.246A4.974,4.974,0,1,0,37,42.1,4.98,4.98,0,0,0,32.022,37.128Z" transform="translate(-25.75 -35.83)" fill="#211e27"/>
        </g>
        <g id="Grupo_1157296" data-name="Grupo 1157296" transform="translate(24.666 32.798)">
          <path id="Trazado_990386" data-name="Trazado 990386" d="M31.715,44.9a.642.642,0,0,1-.458-.19L29.951,43.4a.648.648,0,1,1,.917-.917l.848.848,2.543-2.543a.648.648,0,0,1,.917.917l-3,3a.642.642,0,0,1-.458.19Z" transform="translate(-29.762 -40.603)" fill="#211e27"/>
        </g>
        <g id="Grupo_1157297" data-name="Grupo 1157297" transform="translate(10.848 8.781)">
          <path id="Trazado_990387" data-name="Trazado 990387" d="M46.378,19.328H14.439a.654.654,0,0,1-.649-.649V13.489a.654.654,0,0,1,.649-.649H46.386a.654.654,0,0,1,.649.649v5.191a.661.661,0,0,1-.657.649Zm-31.29-1.3h30.65V14.138H15.088Z" transform="translate(-13.79 -12.84)" fill="#211e27"/>
        </g>
        <g id="Grupo_1157298" data-name="Grupo 1157298" transform="translate(11.09 17.76)">
          <path id="Trazado_990388" data-name="Trazado 990388" d="M46.416,24.518h-31.7a.649.649,0,1,1,0-1.3H46.424a.649.649,0,1,1-.009,1.3Z" transform="translate(-14.07 -23.22)" fill="#211e27"/>
        </g>
        <g id="Grupo_1157299" data-name="Grupo 1157299" transform="translate(11.09 21.229)">
          <path id="Trazado_990389" data-name="Trazado 990389" d="M46.416,28.528h-31.7a.649.649,0,1,1,0-1.3H46.424a.649.649,0,1,1-.009,1.3Z" transform="translate(-14.07 -27.23)" fill="#211e27"/>
        </g>
        <g id="Grupo_1157300" data-name="Grupo 1157300" transform="translate(11.09 24.69)">
          <path id="Trazado_990390" data-name="Trazado 990390" d="M20.9,32.528H14.719a.649.649,0,1,1,0-1.3H20.9a.649.649,0,1,1,0,1.3Z" transform="translate(-14.07 -31.23)" fill="#211e27"/>
        </g>
        <g id="Grupo_1157301" data-name="Grupo 1157301" transform="translate(36.61 24.69)">
          <path id="Trazado_990391" data-name="Trazado 990391" d="M50.4,32.528H44.219a.649.649,0,1,1,0-1.3H50.4a.649.649,0,0,1,0,1.3Z" transform="translate(-43.57 -31.23)" fill="#211e27"/>
        </g>
        <g id="Grupo_1157302" data-name="Grupo 1157302" transform="translate(23.833 44.189)">
          <path id="Trazado_990392" data-name="Trazado 990392" d="M35.427,62.023a.621.621,0,0,1-.363-.112l-2.517-1.7-2.751,1.722a.661.661,0,0,1-.657.017.645.645,0,0,1-.337-.571V54.419a.649.649,0,0,1,1.3,0V60.2l2.119-1.324a.658.658,0,0,1,.709.009l1.86,1.263V54.419a.649.649,0,0,1,1.3,0v6.955a.636.636,0,0,1-.346.571A.691.691,0,0,1,35.427,62.023Z" transform="translate(-28.8 -53.77)" fill="#211e27"/>
        </g>
        <g id="Grupo_1157303" data-name="Grupo 1157303">
          <path id="Trazado_990393" data-name="Trazado 990393" d="M53.8,41.359H37.065a.649.649,0,1,1,0-1.3H53.8a1.082,1.082,0,0,0,1.081-1.081V5.069A1.082,1.082,0,0,0,53.8,3.988H3.629A1.082,1.082,0,0,0,2.548,5.069v33.92A1.082,1.082,0,0,0,3.629,40.07H20.368a.649.649,0,1,1,0,1.3H3.629A2.378,2.378,0,0,1,1.25,38.989V5.069A2.378,2.378,0,0,1,3.629,2.69H53.8a2.378,2.378,0,0,1,2.379,2.379v33.92A2.376,2.376,0,0,1,53.8,41.359Z" transform="translate(-1.25 -2.69)" fill="#211e27"/>
        </g>
        <g id="Grupo_1157304" data-name="Grupo 1157304" transform="translate(4.325 4.325)">
          <path id="Trazado_990394" data-name="Trazado 990394" d="M48.423,37.708h-9.36a.649.649,0,0,1,0-1.3h8.763A4.114,4.114,0,0,1,51.234,33V12.4a4.114,4.114,0,0,1-3.408-3.408H10.956A4.114,4.114,0,0,1,7.548,12.4V33.011a4.114,4.114,0,0,1,3.408,3.408h8.763a.649.649,0,1,1,0,1.3h-9.36a.654.654,0,0,1-.649-.649A2.817,2.817,0,0,0,6.9,34.257a.654.654,0,0,1-.649-.649V11.8A.654.654,0,0,1,6.9,11.15,2.817,2.817,0,0,0,9.71,8.339a.654.654,0,0,1,.649-.649H48.423a.654.654,0,0,1,.649.649,2.817,2.817,0,0,0,2.812,2.812.654.654,0,0,1,.649.649V33.608a.654.654,0,0,1-.649.649,2.817,2.817,0,0,0-2.812,2.812.646.646,0,0,1-.649.64Z" transform="translate(-6.25 -7.69)" fill="#211e27"/>
        </g>
      </g>
    </g>
  </g>
</svg>
