<svg xmlns="http://www.w3.org/2000/svg" xmlns:xlink="http://www.w3.org/1999/xlink" width="110" height="110" viewBox="0 0 110 110">
  <defs>
    <filter id="Trazado_982547" x="0" y="0" width="110" height="110" filterUnits="userSpaceOnUse">
      <feOffset dy="3" input="SourceAlpha"/>
      <feGaussianBlur stdDeviation="3" result="blur"/>
      <feFlood flood-opacity="0.161"/>
      <feComposite operator="in" in2="blur"/>
      <feComposite in="SourceGraphic"/>
    </filter>
  </defs>
  <g id="Grupo_1157321" data-name="Grupo 1157321" transform="translate(-1116 -6400)">
    <g id="Grupo_1155734" data-name="Grupo 1155734" transform="translate(0 1716)">
      <g id="Grupo_1154704" data-name="Grupo 1154704" transform="translate(0 1466)">
        <g id="Grupo_1150790" data-name="Grupo 1150790" transform="translate(3 2320)">
          <g id="Grupo_1154214" data-name="Grupo 1154214" transform="translate(79 -5809)">
            <g id="Grupo_1152583" data-name="Grupo 1152583" transform="translate(1043 6713)">
              <g id="Grupo_1146973" data-name="Grupo 1146973" transform="translate(0 0)">
                <g id="Grupo_1146954" data-name="Grupo 1146954">
                  <g transform="matrix(1, 0, 0, 1, -9, -6)" filter="url(#Trazado_982547)">
                    <g id="Trazado_982547-2" data-name="Trazado 982547" transform="translate(9 6)" fill="#f1fbfb">
                      <path d="M 46 90.49987030029297 C 39.99187850952148 90.49987030029297 34.16426849365234 89.32350921630859 28.67905426025391 87.00345611572266 C 23.38019943237305 84.76224517822266 18.62104034423828 81.55341339111328 14.53374671936035 77.46613311767578 C 10.44646644592285 73.37885284423828 7.237639904022217 68.61969757080078 4.996413230895996 63.32085418701172 C 2.676359891891479 57.83565521240234 1.5 52.008056640625 1.5 45.99993515014648 C 1.5 39.99181365966797 2.676359891891479 34.16421508789062 4.996413230895996 28.67901420593262 C 7.237639904022217 23.38017463684082 10.44646644592285 18.62101554870605 14.53374671936035 14.53373527526855 C 18.62104034423828 10.44645500183105 23.38019943237305 7.23762845993042 28.67905426025391 4.996415138244629 C 34.16426849365234 2.676361799240112 39.99187850952148 1.500001788139343 46 1.500001788139343 C 52.00812149047852 1.500001788139343 57.83573150634766 2.676361799240112 63.32094573974609 4.996415138244629 C 68.61979675292969 7.23762845993042 73.37895965576172 10.44645500183105 77.46625518798828 14.53373527526855 C 81.55353546142578 18.62101554870605 84.76235961914062 23.38017463684082 87.00358581542969 28.67901420593262 C 89.32363891601562 34.16421508789062 90.5 39.99181365966797 90.5 45.99993515014648 C 90.5 52.008056640625 89.32363891601562 57.83565521240234 87.00358581542969 63.32085418701172 C 84.76235961914062 68.61969757080078 81.55353546142578 73.37885284423828 77.46625518798828 77.46613311767578 C 73.37895965576172 81.55341339111328 68.61979675292969 84.76224517822266 63.32094573974609 87.00345611572266 C 57.83573150634766 89.32350921630859 52.00812149047852 90.49987030029297 46 90.49987030029297 Z" stroke="none"/>
                      <path d="M 46 2.999992370605469 C 40.1937141418457 2.999992370605469 34.56269836425781 4.136489868164062 29.26337051391602 6.377906799316406 C 24.14332580566406 8.543502807617188 19.54441070556641 11.64437866210938 15.59439849853516 15.59437561035156 C 11.64440155029297 19.54439544677734 8.54351806640625 24.14329528808594 6.377914428710938 29.26333618164062 C 4.136497497558594 34.56264877319336 3 40.19366455078125 3 45.99993515014648 C 3 51.80620574951172 4.136497497558594 57.43720626831055 6.377914428710938 62.73651885986328 C 8.54351806640625 67.8565673828125 11.64440155029297 72.45545959472656 15.59439849853516 76.40547943115234 C 19.54441070556641 80.35547637939453 24.14332580566406 83.45635223388672 29.26337051391602 85.6219482421875 C 34.56269836425781 87.86336517333984 40.1937141418457 88.99986267089844 46 88.99986267089844 C 51.8062858581543 88.99986267089844 57.43730163574219 87.86336517333984 62.73661422729492 85.6219482421875 C 67.85667419433594 83.45635223388672 72.45557403564453 80.35547637939453 76.40558624267578 76.40547943115234 C 80.35559844970703 72.45545959472656 83.45647430419922 67.8565673828125 85.6220703125 62.73651885986328 C 87.86350250244141 57.43720626831055 89 51.80620574951172 89 45.99993515014648 C 89 40.19366455078125 87.86350250244141 34.56264877319336 85.6220703125 29.26333618164062 C 83.45647430419922 24.14329528808594 80.35559844970703 19.54439544677734 76.40558624267578 15.59437561035156 C 72.45557403564453 11.64437866210938 67.85667419433594 8.543502807617188 62.73661422729492 6.377906799316406 C 57.43730163574219 4.136489868164062 51.8062858581543 2.999992370605469 46 2.999992370605469 M 46 -7.62939453125e-06 C 71.40509033203125 -7.62939453125e-06 92 20.59486389160156 92 45.99993515014648 C 92 71.40499114990234 71.40509033203125 91.99986267089844 46 91.99986267089844 C 20.59490203857422 91.99986267089844 0 71.40499114990234 0 45.99993515014648 C 0 20.59486389160156 20.59490203857422 -7.62939453125e-06 46 -7.62939453125e-06 Z" stroke="none" fill="#82e0e0"/>
                    </g>
                  </g>
                </g>
              </g>
            </g>
          </g>
        </g>
      </g>
    </g>
    <g id="innovacion_1_" data-name="innovacion (1)" transform="translate(1143 6424)">
      <g id="Grupo_1157319" data-name="Grupo 1157319" transform="translate(1.872 1.872)">
        <g id="Grupo_1157307" data-name="Grupo 1157307" transform="translate(22.67 47.083)">
          <path id="Trazado_990395" data-name="Trazado 990395" d="M34.975,56v1.744a3.488,3.488,0,1,1-6.975,0V56Z" transform="translate(-28 -56)" fill="#aab2bd"/>
        </g>
        <g id="Grupo_1157308" data-name="Grupo 1157308" transform="translate(20.926 43.595)">
          <path id="Trazado_990396" data-name="Trazado 990396" d="M34.719,52a1.749,1.749,0,0,1,1.744,1.744,1.757,1.757,0,0,1-1.744,1.744H27.744A1.749,1.749,0,0,1,26,53.744,1.757,1.757,0,0,1,27.744,52Z" transform="translate(-26 -52)" fill="#ccd1d9"/>
        </g>
        <g id="Grupo_1157309" data-name="Grupo 1157309" transform="translate(19.182 40.108)">
          <path id="Trazado_990397" data-name="Trazado 990397" d="M34.463,51.488H25.744A1.749,1.749,0,0,1,24,49.744,1.757,1.757,0,0,1,25.744,48H36.207a1.749,1.749,0,0,1,1.744,1.744,1.757,1.757,0,0,1-1.744,1.744Z" transform="translate(-24 -48)" fill="#ccd1d9"/>
        </g>
        <g id="Grupo_1157310" data-name="Grupo 1157310" transform="translate(11.335 7.847)">
          <path id="Trazado_990398" data-name="Trazado 990398" d="M44.645,25.822A14.819,14.819,0,0,1,36.8,38.9v.872a1.757,1.757,0,0,1,1.744,1.744A1.749,1.749,0,0,1,36.8,43.26H22.847a1.744,1.744,0,0,1,0-3.488V38.9a14.913,14.913,0,0,1-6.1-6.1A14.693,14.693,0,0,1,15,25.822,14.783,14.783,0,0,1,28.113,11.1,14.835,14.835,0,0,1,44.645,25.822Z" transform="translate(-15 -11)" fill="#ffeaa7"/>
        </g>
        <g id="Grupo_1157311" data-name="Grupo 1157311" transform="translate(15.694 12.207)">
          <path id="Trazado_990399" data-name="Trazado 990399" d="M40.926,23.847v5.231l-1.4.5a10.1,10.1,0,0,1-.462,1.1l.645,1.334-3.706,3.706-1.334-.645a10.094,10.094,0,0,1-1.1.462l-.5,1.4H27.847l-.5-1.4a10.1,10.1,0,0,1-1.1-.462l-1.334.645-3.706-3.706.645-1.334a10.1,10.1,0,0,1-.462-1.1l-1.4-.5V23.847l1.4-.5a10.094,10.094,0,0,1,.462-1.1l-.645-1.334,3.706-3.706,1.334.645a10.1,10.1,0,0,1,1.1-.462l.5-1.4h5.231l.5,1.4a10.094,10.094,0,0,1,1.1.462l1.334-.645,3.706,3.706-.645,1.334a10.094,10.094,0,0,1,.462,1.1Zm-4.36,2.616a6.1,6.1,0,1,0-6.1,6.1A6.1,6.1,0,0,0,36.566,26.463Z" transform="translate(-20 -16)" fill="#ffc729"/>
        </g>
        <g id="Grupo_1157312" data-name="Grupo 1157312" transform="translate(20.054 16.566)">
          <path id="Trazado_990400" data-name="Trazado 990400" d="M31.1,21A6.1,6.1,0,1,1,25,27.1,6.1,6.1,0,0,1,31.1,21Zm2.616,6.1A2.616,2.616,0,1,0,31.1,29.719,2.612,2.612,0,0,0,33.719,27.1Z" transform="translate(-25 -21)" fill="#fcd770"/>
        </g>
        <g id="Grupo_1157313" data-name="Grupo 1157313" transform="translate(48.827 0)">
          <path id="Trazado_990401" data-name="Trazado 990401" d="M61.488,2V12.463H58V2Z" transform="translate(-58 -2)" fill="#b4dd7f"/>
        </g>
        <g id="Grupo_1157314" data-name="Grupo 1157314" transform="translate(41.851 3.488)">
          <path id="Trazado_990402" data-name="Trazado 990402" d="M53.488,6v6.975H50V6Z" transform="translate(-50 -6)" fill="#b4dd7f"/>
        </g>
        <g id="Grupo_1157315" data-name="Grupo 1157315" transform="translate(45.339 1.744)">
          <path id="Trazado_990403" data-name="Trazado 990403" d="M57.488,4v8.719H54V4Z" transform="translate(-54 -4)" fill="#b4dd7f"/>
        </g>
        <g id="Grupo_1157316" data-name="Grupo 1157316" transform="translate(0 38.364)">
          <path id="Trazado_990404" data-name="Trazado 990404" d="M17.694,51.231v6.975A1.749,1.749,0,0,1,15.95,59.95H3.744A1.749,1.749,0,0,1,2,58.207V51.231a1.749,1.749,0,0,1,1.744-1.744h7.847l1.447-2.895a1.078,1.078,0,0,1,2.04.488v2.406h.872A1.749,1.749,0,0,1,17.694,51.231Z" transform="translate(-2 -46)" fill="#b4dd7f"/>
        </g>
        <g id="Grupo_1157317" data-name="Grupo 1157317" transform="translate(0 0)">
          <circle id="Elipse_11764" data-name="Elipse 11764" cx="7" cy="7" r="7" transform="translate(0.128 0.186)" fill="#ff826e"/>
        </g>
        <g id="Grupo_1157318" data-name="Grupo 1157318" transform="translate(38.364 38.364)">
          <circle id="Elipse_11765" data-name="Elipse 11765" cx="7" cy="7" r="7" transform="translate(-0.236 -0.178)" fill="#ff826e"/>
        </g>
      </g>
      <g id="Grupo_1157320" data-name="Grupo 1157320" transform="translate(1 1)">
        <path id="Trazado_990405" data-name="Trazado 990405" d="M50.526,53.781l-1.233,1.233,2.36,2.36L57.5,51.526l-1.233-1.233-4.615,4.615Z" transform="translate(-7.186 -7.314)"/>
        <path id="Trazado_990406" data-name="Trazado 990406" d="M12.268,6.293,7.653,10.908,6.526,9.781,5.293,11.013l2.36,2.36L13.5,7.526Z" transform="translate(-1.55 -1.678)"/>
        <path id="Trazado_990407" data-name="Trazado 990407" d="M30.975,20a6.975,6.975,0,1,0,6.975,6.975A6.983,6.983,0,0,0,30.975,20Zm0,12.207a5.231,5.231,0,1,1,5.231-5.231A5.237,5.237,0,0,1,30.975,32.207Z" transform="translate(-3.946 -3.434)"/>
        <path id="Trazado_990408" data-name="Trazado 990408" d="M31.488,24a3.488,3.488,0,1,0,3.488,3.488A3.491,3.491,0,0,0,31.488,24Zm0,5.231a1.744,1.744,0,1,1,1.744-1.744A1.746,1.746,0,0,1,31.488,29.231Z" transform="translate(-4.459 -3.946)"/>
        <path id="Trazado_990409" data-name="Trazado 990409" d="M39.907,22.13l.729-1.524-4.571-4.572-1.525.729c-.135-.06-.273-.117-.411-.171L33.568,15H27.1l-.562,1.592q-.207.081-.411.171L24.6,16.034l-4.571,4.572.729,1.524c-.06.137-.118.274-.171.411L19,23.1v6.465l1.592.562q.081.205.171.411l-.729,1.525L24.6,36.635l1.525-.729c.136.06.273.118.411.171L27.1,37.67h6.466l.562-1.592q.205-.081.411-.171l1.525.729,4.571-4.571-.729-1.525c.06-.137.118-.274.171-.411l1.592-.562V23.1l-1.592-.562q-.081-.205-.171-.411Zm.019,6.2-1.215.428-.136.4a8.58,8.58,0,0,1-.416,1l-.187.379L38.53,31.7,35.7,34.529l-1.164-.557-.38.187a8.408,8.408,0,0,1-1,.416l-.4.136-.427,1.215h-4l-.428-1.215-.4-.136a8.408,8.408,0,0,1-1-.416l-.38-.187-1.164.557L22.139,31.7,22.7,30.54l-.187-.379a8.579,8.579,0,0,1-.416-1l-.136-.4-1.214-.429v-4l1.215-.428.136-.4a8.58,8.58,0,0,1,.416-1l.187-.379-.557-1.163,2.827-2.827,1.164.556.38-.187a8.494,8.494,0,0,1,1-.416l.4-.137.427-1.213h4l.428,1.214.4.137a8.494,8.494,0,0,1,1,.416l.38.187,1.164-.556,2.827,2.827-.557,1.163.187.379a8.58,8.58,0,0,1,.416,1l.136.4,1.214.428Z" transform="translate(-3.306 -2.793)"/>
        <path id="Trazado_990410" data-name="Trazado 990410" d="M5,53H15.463v1.744H5Z" transform="translate(-1.512 -7.661)"/>
        <path id="Trazado_990411" data-name="Trazado 990411" d="M15,57h1.744v1.744H15Z" transform="translate(-2.793 -8.173)"/>
        <path id="Trazado_990412" data-name="Trazado 990412" d="M5,57h6.975v1.744H5Z" transform="translate(-1.512 -8.173)"/>
        <path id="Trazado_990413" data-name="Trazado 990413" d="M44.084,13.207H55.058V1H49.827V2.744H46.339V4.488H42.851v7.486L40.18,14.644A15.674,15.674,0,0,0,12.456,22.57c-.045.368-.075.734-.1,1.1h-1.77a.873.873,0,0,1-.872-.872V16.643a7.847,7.847,0,1,0-1.744,0V22.8a2.619,2.619,0,0,0,2.616,2.616H12.37a15.7,15.7,0,0,0,1.2,5.231H9.719A2.619,2.619,0,0,0,7.1,33.26v9.591H3.616A2.619,2.619,0,0,0,1,45.467v6.975a2.619,2.619,0,0,0,2.616,2.616H15.822a2.619,2.619,0,0,0,2.616-2.616V45.467a2.619,2.619,0,0,0-2.616-2.616V41.313a1.95,1.95,0,0,0-3.693-.872l-1.2,2.41H8.847V33.26a.872.872,0,0,1,.872-.872h4.708a15.645,15.645,0,0,0,5.4,5.535,2.607,2.607,0,0,0,.542,4.827,2.594,2.594,0,0,0,1.744,3.488,2.593,2.593,0,0,0,1.552,3.428V50.7a4.36,4.36,0,0,0,8.719,0V49.666a2.592,2.592,0,0,0,1.552-3.428,2.594,2.594,0,0,0,1.744-3.488,2.607,2.607,0,0,0,.541-4.827,15.671,15.671,0,0,0,7.47-12.51h1.773a.873.873,0,0,1,.872.872v13.13a7.847,7.847,0,1,0,1.744,0V26.285a2.619,2.619,0,0,0-2.616-2.616h-1.79a15.691,15.691,0,0,0-2.461-7.6ZM51.57,2.744h1.744v8.719H51.57ZM49.827,4.488v6.975H48.083V4.488ZM44.6,6.231h1.744v5.231H44.6ZM2.744,8.847a6.1,6.1,0,1,1,6.1,6.1A6.111,6.111,0,0,1,2.744,8.847ZM12,44.6l1.686-3.373a.213.213,0,0,1,.391.091V44.6h1.744a.872.872,0,0,1,.872.872v6.975a.872.872,0,0,1-.872.872H3.616a.872.872,0,0,1-.872-.872V45.467a.872.872,0,0,1,.872-.872Zm41.313,2.616a6.1,6.1,0,1,1-6.1-6.1A6.111,6.111,0,0,1,53.314,47.211Zm-25.285,6.1A2.619,2.619,0,0,1,25.413,50.7v-.872h5.231V50.7A2.619,2.619,0,0,1,28.029,53.314Zm3.488-5.231H24.541a.872.872,0,1,1,0-1.744h6.975a.872.872,0,1,1,0,1.744ZM33.26,44.6H22.8a.872.872,0,0,1,0-1.744H33.26a.872.872,0,0,1,0,1.744Zm1.332-7.746-.46.246v2.269H35a.872.872,0,0,1,0,1.744H21.054a.872.872,0,1,1,0-1.744h.872V37.1l-.46-.246a13.95,13.95,0,1,1,13.127,0Z" transform="translate(-1 -1)"/>
      </g>
    </g>
  </g>
</svg>
