<svg xmlns="http://www.w3.org/2000/svg" xmlns:xlink="http://www.w3.org/1999/xlink" width="110" height="110" viewBox="0 0 110 110">
  <defs>
    <filter id="Trazado_982547" x="0" y="0" width="110" height="110" filterUnits="userSpaceOnUse">
      <feOffset dy="3" input="SourceAlpha"/>
      <feGaussianBlur stdDeviation="3" result="blur"/>
      <feFlood flood-opacity="0.161"/>
      <feComposite operator="in" in2="blur"/>
      <feComposite in="SourceGraphic"/>
    </filter>
  </defs>
  <g id="Grupo_1157329" data-name="Grupo 1157329" transform="translate(-1073 -6403)">
    <g id="Grupo_1155735" data-name="Grupo 1155735" transform="translate(272 1719.334)">
      <g id="Grupo_1154703" data-name="Grupo 1154703" transform="translate(0 1465.666)">
        <g id="Grupo_1150789" data-name="Grupo 1150789" transform="translate(3 2320)">
          <g id="Grupo_1154212" data-name="Grupo 1154212" transform="translate(-236 -5809)">
            <g id="Grupo_1152583" data-name="Grupo 1152583" transform="translate(1043 6713)">
              <g id="Grupo_1146973" data-name="Grupo 1146973" transform="translate(0 0)">
                <g id="Grupo_1146954" data-name="Grupo 1146954">
                  <g transform="matrix(1, 0, 0, 1, -9, -6)" filter="url(#Trazado_982547)">
                    <g id="Trazado_982547-2" data-name="Trazado 982547" transform="translate(9 6)" fill="#f1fbfb">
                      <path d="M 46 90.49987030029297 C 39.99187850952148 90.49987030029297 34.16426849365234 89.32350921630859 28.67905426025391 87.00345611572266 C 23.38019943237305 84.76224517822266 18.62104034423828 81.55341339111328 14.53374671936035 77.46613311767578 C 10.44646644592285 73.37885284423828 7.237639904022217 68.61969757080078 4.996413230895996 63.32085418701172 C 2.676359891891479 57.83565521240234 1.5 52.008056640625 1.5 45.99993515014648 C 1.5 39.99181365966797 2.676359891891479 34.16421508789062 4.996413230895996 28.67901420593262 C 7.237639904022217 23.38017463684082 10.44646644592285 18.62101554870605 14.53374671936035 14.53373527526855 C 18.62104034423828 10.44645500183105 23.38019943237305 7.23762845993042 28.67905426025391 4.996415138244629 C 34.16426849365234 2.676361799240112 39.99187850952148 1.500001788139343 46 1.500001788139343 C 52.00812149047852 1.500001788139343 57.83573150634766 2.676361799240112 63.32094573974609 4.996415138244629 C 68.61979675292969 7.23762845993042 73.37895965576172 10.44645500183105 77.46625518798828 14.53373527526855 C 81.55353546142578 18.62101554870605 84.76235961914062 23.38017463684082 87.00358581542969 28.67901420593262 C 89.32363891601562 34.16421508789062 90.5 39.99181365966797 90.5 45.99993515014648 C 90.5 52.008056640625 89.32363891601562 57.83565521240234 87.00358581542969 63.32085418701172 C 84.76235961914062 68.61969757080078 81.55353546142578 73.37885284423828 77.46625518798828 77.46613311767578 C 73.37895965576172 81.55341339111328 68.61979675292969 84.76224517822266 63.32094573974609 87.00345611572266 C 57.83573150634766 89.32350921630859 52.00812149047852 90.49987030029297 46 90.49987030029297 Z" stroke="none"/>
                      <path d="M 46 2.999992370605469 C 40.1937141418457 2.999992370605469 34.56269836425781 4.136489868164062 29.26337051391602 6.377906799316406 C 24.14332580566406 8.543502807617188 19.54441070556641 11.64437866210938 15.59439849853516 15.59437561035156 C 11.64440155029297 19.54439544677734 8.54351806640625 24.14329528808594 6.377914428710938 29.26333618164062 C 4.136497497558594 34.56264877319336 3 40.19366455078125 3 45.99993515014648 C 3 51.80620574951172 4.136497497558594 57.43720626831055 6.377914428710938 62.73651885986328 C 8.54351806640625 67.8565673828125 11.64440155029297 72.45545959472656 15.59439849853516 76.40547943115234 C 19.54441070556641 80.35547637939453 24.14332580566406 83.45635223388672 29.26337051391602 85.6219482421875 C 34.56269836425781 87.86336517333984 40.1937141418457 88.99986267089844 46 88.99986267089844 C 51.8062858581543 88.99986267089844 57.43730163574219 87.86336517333984 62.73661422729492 85.6219482421875 C 67.85667419433594 83.45635223388672 72.45557403564453 80.35547637939453 76.40558624267578 76.40547943115234 C 80.35559844970703 72.45545959472656 83.45647430419922 67.8565673828125 85.6220703125 62.73651885986328 C 87.86350250244141 57.43720626831055 89 51.80620574951172 89 45.99993515014648 C 89 40.19366455078125 87.86350250244141 34.56264877319336 85.6220703125 29.26333618164062 C 83.45647430419922 24.14329528808594 80.35559844970703 19.54439544677734 76.40558624267578 15.59437561035156 C 72.45557403564453 11.64437866210938 67.85667419433594 8.543502807617188 62.73661422729492 6.377906799316406 C 57.43730163574219 4.136489868164062 51.8062858581543 2.999992370605469 46 2.999992370605469 M 46 -7.62939453125e-06 C 71.40509033203125 -7.62939453125e-06 92 20.59486389160156 92 45.99993515014648 C 92 71.40499114990234 71.40509033203125 91.99986267089844 46 91.99986267089844 C 20.59490203857422 91.99986267089844 0 71.40499114990234 0 45.99993515014648 C 0 20.59486389160156 20.59490203857422 -7.62939453125e-06 46 -7.62939453125e-06 Z" stroke="none" fill="#82e0e0"/>
                    </g>
                  </g>
                </g>
              </g>
            </g>
          </g>
        </g>
      </g>
    </g>
    <g id="codigo-de-barras" transform="translate(1102 6429)">
      <g id="Grupo_1157327" data-name="Grupo 1157327" transform="translate(0.841 0.841)">
        <g id="Grupo_1157322" data-name="Grupo 1157322">
          <path id="Trazado_990414" data-name="Trazado 990414" d="M27.927,6.049a1.683,1.683,0,1,0-1.683,1.683A1.688,1.688,0,0,0,27.927,6.049Zm1.683,24.4a10.836,10.836,0,0,0,1.683,5.823V50.646a.844.844,0,0,1-.841.841H6.049A5.053,5.053,0,0,1,1,46.439V36.687a2.873,2.873,0,0,1,.841-2.028A2.873,2.873,0,0,1,1,32.631V16.988A15.992,15.992,0,0,1,16.988,1H30.451a.844.844,0,0,1,.841.841v22.72l.034.017A10.847,10.847,0,0,0,29.61,30.451Z" transform="translate(-1 -1)" fill="#f0d0b4"/>
        </g>
        <g id="Grupo_1157323" data-name="Grupo 1157323" transform="translate(37.025 40.096)">
          <path id="Trazado_990415" data-name="Trazado 990415" d="M50.049,48.65v8.709a1.688,1.688,0,0,1-1.683,1.683H46.683A1.688,1.688,0,0,1,45,57.359V48.65a10.966,10.966,0,0,0,5.049,0Z" transform="translate(-45 -48.65)" fill="#969faa"/>
        </g>
        <g id="Grupo_1157324" data-name="Grupo 1157324" transform="translate(28.61 18.512)">
          <path id="Trazado_990416" data-name="Trazado 990416" d="M45.939,23a10.953,10.953,0,1,1-9.222,5.066A10.939,10.939,0,0,1,45.939,23Z" transform="translate(-35 -23)" fill="#fcd770"/>
        </g>
        <g id="Grupo_1157325" data-name="Grupo 1157325" transform="translate(31.976 21.878)">
          <circle id="Elipse_11766" data-name="Elipse 11766" cx="7.5" cy="7.5" r="7.5" transform="translate(0.183 0.28)" fill="#69d6f4"/>
        </g>
        <g id="Grupo_1157326" data-name="Grupo 1157326" transform="translate(5.049 13.463)">
          <path id="Trazado_990417" data-name="Trazado 990417" d="M27.2,17.841v1.683a.844.844,0,0,1-.841.841H7.841A.844.844,0,0,1,7,19.524V17.841A.844.844,0,0,1,7.841,17H26.354A.844.844,0,0,1,27.2,17.841Z" transform="translate(-7 -17)" fill="#b4dd7f"/>
        </g>
      </g>
      <g id="Grupo_1157328" data-name="Grupo 1157328" transform="translate(0 0)">
        <path id="Trazado_990418" data-name="Trazado 990418" d="M52.171,30.293a11.7,11.7,0,0,0-1.854-6.318L51.9,22.494l-1.149-1.231-1.449,1.352a11.741,11.741,0,0,0-17.331-.551V6.732H45.439a1.683,1.683,0,0,1,0,3.366H38.707a3.366,3.366,0,1,0,0,6.732H40.39V15.146H38.707a1.683,1.683,0,1,1,0-3.366h6.732a3.366,3.366,0,0,0,0-6.732H31.976V1.683A1.685,1.685,0,0,0,30.293,0H16.829A16.848,16.848,0,0,0,0,16.829V32.469A3.688,3.688,0,0,0,.6,34.5,3.688,3.688,0,0,0,0,36.531v9.749a5.9,5.9,0,0,0,5.89,5.89h24.4a1.685,1.685,0,0,0,1.683-1.683V38.521a11.784,11.784,0,0,0,5.049,3.055v8.07a2.527,2.527,0,0,0,2.524,2.524h1.683a2.527,2.527,0,0,0,2.524-2.524v-8.07a11.8,11.8,0,0,0,8.415-11.284Zm-21.878,20.2H5.89a4.212,4.212,0,0,1-4.207-4.207V36.531A2.018,2.018,0,0,1,2.278,35.1l.595-.595-.595-.595a2.019,2.019,0,0,1-.595-1.436V16.829A15.164,15.164,0,0,1,16.829,1.683H30.293V5.049H28.455a2.524,2.524,0,1,0,0,1.683h1.838V24.256a11.668,11.668,0,0,0,0,12.073ZM26.927,5.89a.841.841,0,1,1-.841-.841A.842.842,0,0,1,26.927,5.89ZM42.073,49.646a.842.842,0,0,1-.841.841H39.549a.842.842,0,0,1-.841-.841V41.939a11.8,11.8,0,0,0,1.683.135,11.683,11.683,0,0,0,1.683-.135ZM40.39,40.39a10.1,10.1,0,1,1,7.688-16.629l-1.229,1.147a8.392,8.392,0,1,0,.955,1.411l1.258-1.174A10.078,10.078,0,0,1,40.39,40.39Zm-1.7-5.561,7.831-7.308a6.731,6.731,0,1,1-.9-1.462l-6.889,6.43-1.95-1.949-1.19,1.19Z" transform="translate(0 0)"/>
        <path id="Trazado_990419" data-name="Trazado 990419" d="M50,18h1.683v1.683H50Z" transform="translate(-7.927 -2.854)"/>
        <path id="Trazado_990420" data-name="Trazado 990420" d="M54,18h1.683v1.683H54Z" transform="translate(-8.561 -2.854)"/>
        <path id="Trazado_990421" data-name="Trazado 990421" d="M5,40H8.366v1.683H5Z" transform="translate(-0.793 -6.341)"/>
        <path id="Trazado_990422" data-name="Trazado 990422" d="M11,40h3.366v1.683H11Z" transform="translate(-1.744 -6.341)"/>
        <path id="Trazado_990423" data-name="Trazado 990423" d="M17,40h3.366v1.683H17Z" transform="translate(-2.695 -6.341)"/>
        <path id="Trazado_990424" data-name="Trazado 990424" d="M23,40h3.366v1.683H23Z" transform="translate(-3.646 -6.341)"/>
        <path id="Trazado_990425" data-name="Trazado 990425" d="M29,40h3.366v1.683H29Z" transform="translate(-4.597 -6.341)"/>
        <path id="Trazado_990426" data-name="Trazado 990426" d="M9,44h1.683v7.573H9Z" transform="translate(-1.427 -6.975)"/>
        <path id="Trazado_990427" data-name="Trazado 990427" d="M9,54h1.683v1.683H9Z" transform="translate(-1.427 -8.561)"/>
        <path id="Trazado_990428" data-name="Trazado 990428" d="M18,44h1.683v7.573H18Z" transform="translate(-2.854 -6.975)"/>
        <path id="Trazado_990429" data-name="Trazado 990429" d="M18,54h1.683v1.683H18Z" transform="translate(-2.854 -8.561)"/>
        <path id="Trazado_990430" data-name="Trazado 990430" d="M21,44h1.683v7.573H21Z" transform="translate(-3.329 -6.975)"/>
        <path id="Trazado_990431" data-name="Trazado 990431" d="M21,54h1.683v1.683H21Z" transform="translate(-3.329 -8.561)"/>
        <path id="Trazado_990432" data-name="Trazado 990432" d="M12,44h1.683V54.1H12Z" transform="translate(-1.902 -6.975)"/>
        <path id="Trazado_990433" data-name="Trazado 990433" d="M6,44H7.683V54.1H6Z" transform="translate(-0.951 -6.975)"/>
        <path id="Trazado_990434" data-name="Trazado 990434" d="M27,44h1.683v7.573H27Z" transform="translate(-4.28 -6.975)"/>
        <path id="Trazado_990435" data-name="Trazado 990435" d="M27,54h1.683v1.683H27Z" transform="translate(-4.28 -8.561)"/>
        <path id="Trazado_990436" data-name="Trazado 990436" d="M24,44h1.683V54.1H24Z" transform="translate(-3.805 -6.975)"/>
        <path id="Trazado_990437" data-name="Trazado 990437" d="M30,44h1.683V54.1H30Z" transform="translate(-4.756 -6.975)"/>
        <path id="Trazado_990438" data-name="Trazado 990438" d="M15,44h1.683V54.1H15Z" transform="translate(-2.378 -6.975)"/>
        <path id="Trazado_990439" data-name="Trazado 990439" d="M7.683,21.049H26.2a1.685,1.685,0,0,0,1.683-1.683V17.683A1.685,1.685,0,0,0,26.2,16H7.683A1.685,1.685,0,0,0,6,17.683v1.683A1.685,1.685,0,0,0,7.683,21.049Zm11.781-1.683H17.781V17.683h1.683Zm1.683-1.683h1.683v1.683H21.146ZM16.1,19.366H14.415V17.683H16.1Zm-3.366,0H11.049V17.683h1.683Zm13.465,0H24.512V17.683H26.2ZM7.683,17.683H9.366v1.683H7.683Z" transform="translate(-0.951 -2.537)"/>
        <path id="Trazado_990440" data-name="Trazado 990440" d="M6,12H27.878v1.683H6Z" transform="translate(-0.951 -1.902)"/>
        <path id="Trazado_990441" data-name="Trazado 990441" d="M8,26H9.683v1.683H8Z" transform="translate(-1.268 -4.122)"/>
        <path id="Trazado_990442" data-name="Trazado 990442" d="M12,26H27.146v1.683H12Z" transform="translate(-1.902 -4.122)"/>
        <path id="Trazado_990443" data-name="Trazado 990443" d="M8,30H9.683v1.683H8Z" transform="translate(-1.268 -4.756)"/>
        <path id="Trazado_990444" data-name="Trazado 990444" d="M12,30H27.146v1.683H12Z" transform="translate(-1.902 -4.756)"/>
        <path id="Trazado_990445" data-name="Trazado 990445" d="M8,34H9.683v1.683H8Z" transform="translate(-1.268 -5.39)"/>
        <path id="Trazado_990446" data-name="Trazado 990446" d="M12,34H27.146v1.683H12Z" transform="translate(-1.902 -5.39)"/>
      </g>
    </g>
  </g>
</svg>
