<svg xmlns="http://www.w3.org/2000/svg" xmlns:xlink="http://www.w3.org/1999/xlink" width="110" height="110" viewBox="0 0 110 110">
  <defs>
    <filter id="Trazado_982547" x="0" y="0" width="110" height="110" filterUnits="userSpaceOnUse">
      <feOffset dy="3" input="SourceAlpha"/>
      <feGaussianBlur stdDeviation="3" result="blur"/>
      <feFlood flood-opacity="0.161"/>
      <feComposite operator="in" in2="blur"/>
      <feComposite in="SourceGraphic"/>
    </filter>
  </defs>
  <g id="Grupo_1157332" data-name="Grupo 1157332" transform="translate(-1388 -6403.403)">
    <g id="Grupo_1155736" data-name="Grupo 1155736" transform="translate(272 1719.403)">
      <g id="Grupo_1154704" data-name="Grupo 1154704" transform="translate(0 1466)">
        <g id="Grupo_1150790" data-name="Grupo 1150790" transform="translate(3 2320)">
          <g id="Grupo_1154214" data-name="Grupo 1154214" transform="translate(79 -5809)">
            <g id="Grupo_1152583" data-name="Grupo 1152583" transform="translate(1043 6713)">
              <g id="Grupo_1146973" data-name="Grupo 1146973" transform="translate(0 0)">
                <g id="Grupo_1146954" data-name="Grupo 1146954">
                  <g transform="matrix(1, 0, 0, 1, -9, -6)" filter="url(#Trazado_982547)">
                    <g id="Trazado_982547-2" data-name="Trazado 982547" transform="translate(9 6)" fill="#f1fbfb">
                      <path d="M 46 90.49987030029297 C 39.99187850952148 90.49987030029297 34.16426849365234 89.32350921630859 28.67905426025391 87.00345611572266 C 23.38019943237305 84.76224517822266 18.62104034423828 81.55341339111328 14.53374671936035 77.46613311767578 C 10.44646644592285 73.37885284423828 7.237639904022217 68.61969757080078 4.996413230895996 63.32085418701172 C 2.676359891891479 57.83565521240234 1.5 52.008056640625 1.5 45.99993515014648 C 1.5 39.99181365966797 2.676359891891479 34.16421508789062 4.996413230895996 28.67901420593262 C 7.237639904022217 23.38017463684082 10.44646644592285 18.62101554870605 14.53374671936035 14.53373527526855 C 18.62104034423828 10.44645500183105 23.38019943237305 7.23762845993042 28.67905426025391 4.996415138244629 C 34.16426849365234 2.676361799240112 39.99187850952148 1.500001788139343 46 1.500001788139343 C 52.00812149047852 1.500001788139343 57.83573150634766 2.676361799240112 63.32094573974609 4.996415138244629 C 68.61979675292969 7.23762845993042 73.37895965576172 10.44645500183105 77.46625518798828 14.53373527526855 C 81.55353546142578 18.62101554870605 84.76235961914062 23.38017463684082 87.00358581542969 28.67901420593262 C 89.32363891601562 34.16421508789062 90.5 39.99181365966797 90.5 45.99993515014648 C 90.5 52.008056640625 89.32363891601562 57.83565521240234 87.00358581542969 63.32085418701172 C 84.76235961914062 68.61969757080078 81.55353546142578 73.37885284423828 77.46625518798828 77.46613311767578 C 73.37895965576172 81.55341339111328 68.61979675292969 84.76224517822266 63.32094573974609 87.00345611572266 C 57.83573150634766 89.32350921630859 52.00812149047852 90.49987030029297 46 90.49987030029297 Z" stroke="none"/>
                      <path d="M 46 2.999992370605469 C 40.1937141418457 2.999992370605469 34.56269836425781 4.136489868164062 29.26337051391602 6.377906799316406 C 24.14332580566406 8.543502807617188 19.54441070556641 11.64437866210938 15.59439849853516 15.59437561035156 C 11.64440155029297 19.54439544677734 8.54351806640625 24.14329528808594 6.377914428710938 29.26333618164062 C 4.136497497558594 34.56264877319336 3 40.19366455078125 3 45.99993515014648 C 3 51.80620574951172 4.136497497558594 57.43720626831055 6.377914428710938 62.73651885986328 C 8.54351806640625 67.8565673828125 11.64440155029297 72.45545959472656 15.59439849853516 76.40547943115234 C 19.54441070556641 80.35547637939453 24.14332580566406 83.45635223388672 29.26337051391602 85.6219482421875 C 34.56269836425781 87.86336517333984 40.1937141418457 88.99986267089844 46 88.99986267089844 C 51.8062858581543 88.99986267089844 57.43730163574219 87.86336517333984 62.73661422729492 85.6219482421875 C 67.85667419433594 83.45635223388672 72.45557403564453 80.35547637939453 76.40558624267578 76.40547943115234 C 80.35559844970703 72.45545959472656 83.45647430419922 67.8565673828125 85.6220703125 62.73651885986328 C 87.86350250244141 57.43720626831055 89 51.80620574951172 89 45.99993515014648 C 89 40.19366455078125 87.86350250244141 34.56264877319336 85.6220703125 29.26333618164062 C 83.45647430419922 24.14329528808594 80.35559844970703 19.54439544677734 76.40558624267578 15.59437561035156 C 72.45557403564453 11.64437866210938 67.85667419433594 8.543502807617188 62.73661422729492 6.377906799316406 C 57.43730163574219 4.136489868164062 51.8062858581543 2.999992370605469 46 2.999992370605469 M 46 -7.62939453125e-06 C 71.40509033203125 -7.62939453125e-06 92 20.59486389160156 92 45.99993515014648 C 92 71.40499114990234 71.40509033203125 91.99986267089844 46 91.99986267089844 C 20.59490203857422 91.99986267089844 0 71.40499114990234 0 45.99993515014648 C 0 20.59486389160156 20.59490203857422 -7.62939453125e-06 46 -7.62939453125e-06 Z" stroke="none" fill="#82e0e0"/>
                    </g>
                  </g>
                </g>
              </g>
            </g>
          </g>
        </g>
      </g>
    </g>
    <g id="certificacion-organica" transform="translate(1379.09 6425.764)">
      <g id="Grupo_1157330" data-name="Grupo 1157330" transform="translate(40.481 0.914)">
        <path id="Trazado_990447" data-name="Trazado 990447" d="M82.724,8H58.8a1.307,1.307,0,0,0-.949.393L47.943,18.3a1.3,1.3,0,0,0-.393.949V54.065a1.345,1.345,0,0,0,1.342,1.342H82.724a1.343,1.343,0,0,0,1.342-1.342V9.342A1.343,1.343,0,0,0,82.724,8Z" transform="translate(-47.55 -8)" fill="#daeafa" fill-rule="evenodd"/>
        <path id="Trazado_990448" data-name="Trazado 990448" d="M59.146,9.02a1.4,1.4,0,0,0-.393.276l-9.907,9.91a1.328,1.328,0,0,0-.276.393H59.146Z" transform="translate(-48.454 -8.904)" fill="#8bd7fa" fill-rule="evenodd"/>
        <path id="Trazado_990449" data-name="Trazado 990449" d="M195.85,31.77h12.723V44.493H195.85Z" transform="translate(-178.914 -29.055)" fill="#ffd400" fill-rule="evenodd"/>
        <path id="Trazado_990450" data-name="Trazado 990450" d="M230.71,31.77h4.765v4.849H230.71Z" transform="translate(-209.793 -29.055)" fill="#ff4646" fill-rule="evenodd"/>
        <path id="Trazado_990451" data-name="Trazado 990451" d="M79.06,160.59h6.6v6.6h-6.6Z" transform="translate(-75.461 -143.164)" fill="#0593fc" fill-rule="evenodd"/>
        <path id="Trazado_990452" data-name="Trazado 990452" d="M79.06,251.12h6.6v6.593h-6.6Z" transform="translate(-75.461 -223.355)" fill="#0593fc" fill-rule="evenodd"/>
        <path id="Trazado_990453" data-name="Trazado 990453" d="M79.06,341.61h6.6V348.2h-6.6Z" transform="translate(-75.461 -303.511)" fill="#0593fc" fill-rule="evenodd"/>
        <path id="Trazado_990454" data-name="Trazado 990454" d="M280.118,404.442l-4.8-2.772-5.147,8.915,3.236-.059,1.565,2.831Z" transform="translate(-244.746 -356.712)" fill="#ff4646" fill-rule="evenodd"/>
        <path id="Trazado_990455" data-name="Trazado 990455" d="M377.31,404.442l4.8-2.772,5.147,8.915-3.237-.059-1.568,2.831Z" transform="translate(-339.651 -356.712)" fill="#ff4646" fill-rule="evenodd"/>
        <path id="Trazado_990456" data-name="Trazado 990456" d="M296.656,275.458c.085,1.354.431,1.7,1.8,1.785a1.391,1.391,0,0,1,1.157,2c-.61,1.229-.481,1.7.653,2.454a1.391,1.391,0,0,1,0,2.314c-1.134.754-1.263,1.229-.653,2.454a1.39,1.39,0,0,1-1.16,2c-1.36.085-1.71.427-1.794,1.8a1.387,1.387,0,0,1-2,1.153c-1.22-.6-1.694-.481-2.451.653a1.385,1.385,0,0,1-2.316-.013c-.757-1.159-1.207-1.283-2.435-.66a1.385,1.385,0,0,1-2.011-1.159c-.075-1.376-.405-1.706-1.782-1.782a1.385,1.385,0,0,1-1.159-2.011c.619-1.225.5-1.678-.653-2.429a1.387,1.387,0,0,1,0-2.322c1.153-.754,1.272-1.207.653-2.432a1.385,1.385,0,0,1,1.159-2.011c1.376-.075,1.706-.405,1.782-1.778a1.336,1.336,0,0,1,.691-1.125,1.352,1.352,0,0,1,1.32-.038c1.225.622,1.678.5,2.429-.653a1.387,1.387,0,0,1,2.322,0c.754,1.157,1.207,1.276,2.438.651a1.387,1.387,0,0,1,2.013,1.149Z" transform="translate(-254.534 -242.763)" fill="#ffd400" fill-rule="evenodd"/>
        <path id="Trazado_990457" data-name="Trazado 990457" d="M326.6,323.655a5.248,5.248,0,1,0-5.248-5.248A5.259,5.259,0,0,0,326.6,323.655Z" transform="translate(-290.081 -278.31)" fill="#daeafa" fill-rule="evenodd"/>
        <path id="Trazado_990458" data-name="Trazado 990458" d="M49.225,137.028V101.66H47.666a1.358,1.358,0,0,0-.116.556v34.812a1.345,1.345,0,0,0,1.342,1.342h1.675A1.343,1.343,0,0,1,49.225,137.028Z" transform="translate(-47.55 -90.964)" fill="#c4d3e1" fill-rule="evenodd"/>
        <path id="Trazado_990459" data-name="Trazado 990459" d="M195.85,31.77H196.9V44.493H195.85Z" transform="translate(-178.914 -29.055)" fill="#e6bf00" fill-rule="evenodd"/>
        <path id="Trazado_990460" data-name="Trazado 990460" d="M230.71,31.77h1.05v4.848h-1.05Z" transform="translate(-209.793 -29.055)" fill="#e63f3f" fill-rule="evenodd"/>
        <path id="Trazado_990461" data-name="Trazado 990461" d="M326.6,323.535a5.249,5.249,0,0,1,0-10.255,4.8,4.8,0,0,1,.56-.091c-.183-.018-.371-.029-.56-.029a5.248,5.248,0,1,0,0,10.5,5.319,5.319,0,0,0,.56-.032A5.243,5.243,0,0,1,326.6,323.535Z" transform="translate(-290.081 -278.31)" fill="#c4d3e1" fill-rule="evenodd"/>
        <path id="Trazado_990462" data-name="Trazado 990462" d="M271.6,417.386l3.717-6.439.28-.486a1.14,1.14,0,0,0-.789-1.08l-.9,1.568-3.733,6.466Z" transform="translate(-244.746 -363.541)" fill="#e63f3f" fill-rule="evenodd"/>
        <path id="Trazado_990463" data-name="Trazado 990463" d="M300.021,479.21l-1.4.025,1.552,2.806.723-1.251Z" transform="translate(-269.947 -425.397)" fill="#e63f3f" fill-rule="evenodd"/>
        <path id="Trazado_990464" data-name="Trazado 990464" d="M381.96,431.256l4.616,7.994L387.27,438l-4.053-7.02A1.135,1.135,0,0,0,381.96,431.256Z" transform="translate(-343.77 -382.606)" fill="#e63f3f" fill-rule="evenodd"/>
      </g>
      <g id="Grupo_1157331" data-name="Grupo 1157331" transform="translate(39.57 0)">
        <path id="Trazado_990465" data-name="Trazado 990465" d="M57.419,17.265H70.141a.913.913,0,0,0,.912-.912V3.626a.912.912,0,0,0-.912-.912H57.419a.912.912,0,0,0-.912.912V16.352a.913.913,0,0,0,.912.914ZM62.31,4.538h2.94V7.563H62.31Zm-3.978,0h2.153V8.475a.912.912,0,0,0,.912.912h4.766a.913.913,0,0,0,.912-.912V4.538h2.153v10.9h-10.9Zm-7.66,12.888H44.079a.913.913,0,0,0-.912.912v6.594a.912.912,0,0,0,.912.912h6.594a.912.912,0,0,0,.912-.912V18.339A.913.913,0,0,0,50.673,17.426ZM49.76,24.02H44.991V19.252h4.768V24.02Zm.912,3.742H44.079a.913.913,0,0,0-.912.912v6.594a.912.912,0,0,0,.912.912h6.594a.912.912,0,0,0,.912-.912V28.676A.913.913,0,0,0,50.673,27.763Zm-.912,6.594H44.991V29.589h4.768v4.768Zm.912,3.742H44.079a.913.913,0,0,0-.912.912v6.594a.912.912,0,0,0,.912.912h6.594a.912.912,0,0,0,.912-.912V39.012A.913.913,0,0,0,50.673,38.1Zm-.912,6.594H44.991V39.925h4.768v4.768Zm3.988-25.182a.912.912,0,0,1,.912-.912H73.4a.912.912,0,0,1,0,1.825H54.661A.913.913,0,0,1,53.748,19.512Zm0,4.253a.912.912,0,0,1,.912-.912h9.368a.912.912,0,0,1,0,1.825H54.661A.911.911,0,0,1,53.748,23.764Zm0,6.084a.912.912,0,0,1,.912-.912H69.717a.912.912,0,0,1,0,1.825H54.661A.913.913,0,0,1,53.748,29.848ZM64.942,34.1a.912.912,0,0,1-.912.912H54.662a.912.912,0,1,1,0-1.825H64.03A.911.911,0,0,1,64.942,34.1ZM53.748,40.181a.912.912,0,0,1,.912-.912h9.045a.912.912,0,0,1,0,1.825H54.661A.913.913,0,0,1,53.748,40.181Zm11.194,4.254a.912.912,0,0,1-.912.912H54.662a.912.912,0,1,1,0-1.825H64.03A.911.911,0,0,1,64.942,44.435Zm23.94,9.892-3.972-6.876a2.3,2.3,0,0,0,1.462-3.239c-.288-.584-.268-.741-.262-.766s.067-.17.6-.524a2.3,2.3,0,0,0,0-3.835c-.737-.489-.737-.489-.338-1.293a2.3,2.3,0,0,0-1.917-3.312c-.891-.057-.891-.057-.947-.934a2.3,2.3,0,0,0-3.337-1.9c-.586.3-.733.278-.747.274s-.152-.061-.51-.609a2.293,2.293,0,0,0-1.006-.855V2.253A2.257,2.257,0,0,0,75.658,0H51.731a2.221,2.221,0,0,0-.89.182.744.744,0,0,0-.11.053,2.317,2.317,0,0,0-.595.426l-9.913,9.913a2.283,2.283,0,0,0-.424.594,1.082,1.082,0,0,0-.049.1,2.248,2.248,0,0,0-.182.892V46.979a2.256,2.256,0,0,0,2.253,2.253H68.056l-2.942,5.1a.913.913,0,0,0,.807,1.369l2.688-.048L69.91,58a.912.912,0,0,0,.79.471h.008a.912.912,0,0,0,.79-.457l3.956-6.854a2.268,2.268,0,0,0,1.527.59H77a2.256,2.256,0,0,0,1.544-.593L82.5,58.015a.915.915,0,0,0,.79.457H83.3A.914.914,0,0,0,84.09,58l1.3-2.351,2.687.048a.914.914,0,0,0,.809-1.369ZM50.265,3.114V10.7H42.682Zm-8.87,43.865V12.522h9.783a.912.912,0,0,0,.912-.912V1.826H75.657a.428.428,0,0,1,.427.427v28.2a2.3,2.3,0,0,0-1.021.862c-.357.548-.493.6-.508.606s-.16.024-.748-.273a2.3,2.3,0,0,0-3.332,1.928c-.035.649-.126.769-.135.779s-.131.1-.789.136a2.305,2.305,0,0,0-1.921,3.338c.3.584.275.73.273.745s-.061.152-.605.508a2.3,2.3,0,0,0,0,3.851c.548.359.6.5.609.51s.023.161-.273.747a2.306,2.306,0,0,0,1.324,3.221H41.822a.428.428,0,0,1-.427-.427ZM70.724,55.7l-.785-1.42a.913.913,0,0,0-.815-.471l-1.623.03,3-5.19A2.3,2.3,0,0,0,73.8,50.368Zm6.27-5.779a.44.44,0,0,1-.394-.214,5.322,5.322,0,0,0-.532-.7.951.951,0,0,0-.184-.187,1.861,1.861,0,0,0-1.314-.558,3.608,3.608,0,0,0-1.582.468.446.446,0,0,1-.451-.009.44.44,0,0,1-.236-.386c-.072-1.33-.451-2.061-1.35-2.405a.917.917,0,0,0-.254-.083,4.983,4.983,0,0,0-1.039-.155.434.434,0,0,1-.383-.236.442.442,0,0,1-.014-.449c.836-1.65.584-2.594-.968-3.61a.474.474,0,0,1,0-.791c1.549-1.013,1.8-1.957.966-3.605a.478.478,0,0,1,.4-.691c1.851-.1,2.542-.79,2.643-2.64a.438.438,0,0,1,.23-.383.449.449,0,0,1,.457-.015c1.654.837,2.6.585,3.608-.964a.473.473,0,0,1,.8,0c1.014,1.549,1.96,1.8,3.609.963a.443.443,0,0,1,.452.009.438.438,0,0,1,.239.38v0c.116,1.808.835,2.523,2.655,2.639a.436.436,0,0,1,.379.235.445.445,0,0,1,.015.449c-.81,1.633-.548,2.614.965,3.619a.473.473,0,0,1,0,.791c-1.514,1-1.777,1.987-.968,3.626a.429.429,0,0,1-.016.443.437.437,0,0,1-.381.235,4.732,4.732,0,0,0-1.021.166.894.894,0,0,0-.313.111h0c-.851.364-1.233,1.1-1.316,2.379a.436.436,0,0,1-.235.379.447.447,0,0,1-.449.015c-1.222-.606-2.08-.61-2.858.066a.911.911,0,0,0-.186.176,5.024,5.024,0,0,0-.573.723.44.44,0,0,1-.394.208Zm7.877,3.889a.919.919,0,0,0-.815.472L83.273,55.7l-3.065-5.309a2.3,2.3,0,0,0,3.286-1.744l3,5.193Zm-1.712-12.8A6.16,6.16,0,1,0,77,47.17,6.167,6.167,0,0,0,83.159,41.01ZM77,45.344a4.335,4.335,0,1,1,4.335-4.335A4.34,4.34,0,0,1,77,45.344Zm3.025-6.491a.913.913,0,0,1,0,1.29L77,43.167a.911.911,0,0,1-1.29,0l-1.732-1.735a.913.913,0,0,1,1.292-1.289l1.086,1.088,2.378-2.378A.912.912,0,0,1,80.023,38.853Z" transform="translate(-39.57 0)"/>
      </g>
    </g>
  </g>
</svg>
