<svg xmlns="http://www.w3.org/2000/svg" xmlns:xlink="http://www.w3.org/1999/xlink" width="110" height="110" viewBox="0 0 110 110">
  <defs>
    <filter id="Trazado_982547" x="0" y="0" width="110" height="110" filterUnits="userSpaceOnUse">
      <feOffset dy="3" input="SourceAlpha"/>
      <feGaussianBlur stdDeviation="3" result="blur"/>
      <feFlood flood-opacity="0.161"/>
      <feComposite operator="in" in2="blur"/>
      <feComposite in="SourceGraphic"/>
    </filter>
  </defs>
  <g id="Grupo_1157337" data-name="Grupo 1157337" transform="translate(-1073 -6768.069)">
    <g id="Grupo_1155737" data-name="Grupo 1155737" transform="translate(272 2084.403)">
      <g id="Grupo_1154703" data-name="Grupo 1154703" transform="translate(0 1465.666)">
        <g id="Grupo_1150789" data-name="Grupo 1150789" transform="translate(3 2320)">
          <g id="Grupo_1154212" data-name="Grupo 1154212" transform="translate(-236 -5809)">
            <g id="Grupo_1152583" data-name="Grupo 1152583" transform="translate(1043 6713)">
              <g id="Grupo_1146973" data-name="Grupo 1146973" transform="translate(0 0)">
                <g id="Grupo_1146954" data-name="Grupo 1146954">
                  <g transform="matrix(1, 0, 0, 1, -9, -6)" filter="url(#Trazado_982547)">
                    <g id="Trazado_982547-2" data-name="Trazado 982547" transform="translate(9 6)" fill="#f1fbfb">
                      <path d="M 46 90.49987030029297 C 39.99187850952148 90.49987030029297 34.16426849365234 89.32350921630859 28.67905426025391 87.00345611572266 C 23.38019943237305 84.76224517822266 18.62104034423828 81.55341339111328 14.53374671936035 77.46613311767578 C 10.44646644592285 73.37885284423828 7.237639904022217 68.61969757080078 4.996413230895996 63.32085418701172 C 2.676359891891479 57.83565521240234 1.5 52.008056640625 1.5 45.99993515014648 C 1.5 39.99181365966797 2.676359891891479 34.16421508789062 4.996413230895996 28.67901420593262 C 7.237639904022217 23.38017463684082 10.44646644592285 18.62101554870605 14.53374671936035 14.53373527526855 C 18.62104034423828 10.44645500183105 23.38019943237305 7.23762845993042 28.67905426025391 4.996415138244629 C 34.16426849365234 2.676361799240112 39.99187850952148 1.500001788139343 46 1.500001788139343 C 52.00812149047852 1.500001788139343 57.83573150634766 2.676361799240112 63.32094573974609 4.996415138244629 C 68.61979675292969 7.23762845993042 73.37895965576172 10.44645500183105 77.46625518798828 14.53373527526855 C 81.55353546142578 18.62101554870605 84.76235961914062 23.38017463684082 87.00358581542969 28.67901420593262 C 89.32363891601562 34.16421508789062 90.5 39.99181365966797 90.5 45.99993515014648 C 90.5 52.008056640625 89.32363891601562 57.83565521240234 87.00358581542969 63.32085418701172 C 84.76235961914062 68.61969757080078 81.55353546142578 73.37885284423828 77.46625518798828 77.46613311767578 C 73.37895965576172 81.55341339111328 68.61979675292969 84.76224517822266 63.32094573974609 87.00345611572266 C 57.83573150634766 89.32350921630859 52.00812149047852 90.49987030029297 46 90.49987030029297 Z" stroke="none"/>
                      <path d="M 46 2.999992370605469 C 40.1937141418457 2.999992370605469 34.56269836425781 4.136489868164062 29.26337051391602 6.377906799316406 C 24.14332580566406 8.543502807617188 19.54441070556641 11.64437866210938 15.59439849853516 15.59437561035156 C 11.64440155029297 19.54439544677734 8.54351806640625 24.14329528808594 6.377914428710938 29.26333618164062 C 4.136497497558594 34.56264877319336 3 40.19366455078125 3 45.99993515014648 C 3 51.80620574951172 4.136497497558594 57.43720626831055 6.377914428710938 62.73651885986328 C 8.54351806640625 67.8565673828125 11.64440155029297 72.45545959472656 15.59439849853516 76.40547943115234 C 19.54441070556641 80.35547637939453 24.14332580566406 83.45635223388672 29.26337051391602 85.6219482421875 C 34.56269836425781 87.86336517333984 40.1937141418457 88.99986267089844 46 88.99986267089844 C 51.8062858581543 88.99986267089844 57.43730163574219 87.86336517333984 62.73661422729492 85.6219482421875 C 67.85667419433594 83.45635223388672 72.45557403564453 80.35547637939453 76.40558624267578 76.40547943115234 C 80.35559844970703 72.45545959472656 83.45647430419922 67.8565673828125 85.6220703125 62.73651885986328 C 87.86350250244141 57.43720626831055 89 51.80620574951172 89 45.99993515014648 C 89 40.19366455078125 87.86350250244141 34.56264877319336 85.6220703125 29.26333618164062 C 83.45647430419922 24.14329528808594 80.35559844970703 19.54439544677734 76.40558624267578 15.59437561035156 C 72.45557403564453 11.64437866210938 67.85667419433594 8.543502807617188 62.73661422729492 6.377906799316406 C 57.43730163574219 4.136489868164062 51.8062858581543 2.999992370605469 46 2.999992370605469 M 46 -7.62939453125e-06 C 71.40509033203125 -7.62939453125e-06 92 20.59486389160156 92 45.99993515014648 C 92 71.40499114990234 71.40509033203125 91.99986267089844 46 91.99986267089844 C 20.59490203857422 91.99986267089844 0 71.40499114990234 0 45.99993515014648 C 0 20.59486389160156 20.59490203857422 -7.62939453125e-06 46 -7.62939453125e-06 Z" stroke="none" fill="#82e0e0"/>
                    </g>
                  </g>
                </g>
              </g>
            </g>
          </g>
        </g>
      </g>
    </g>
    <g id="rotacion-de-trabajo" transform="translate(1075.223 6767.373)">
      <g id="Grupo_1157336" data-name="Grupo 1157336" transform="translate(21.065 21.114)">
        <g id="Grupo_1157333" data-name="Grupo 1157333" transform="translate(0 0)">
          <path id="Trazado_990466" data-name="Trazado 990466" d="M73.284,30.873l-.084-.247a1.587,1.587,0,0,1,3-1.02l1.374,4.05a1.586,1.586,0,0,1-1.021,2.022l-4.075,1.3a1.587,1.587,0,0,1-.963-3.024l.511-.163a28.884,28.884,0,0,0-36.569,41.5,1.587,1.587,0,1,1-2.694,1.677A32.057,32.057,0,0,1,73.284,30.873Z" transform="translate(-27.949 -27.999)" fill="#ffe177" fill-rule="evenodd"/>
          <path id="Trazado_990467" data-name="Trazado 990467" d="M126.187,173.792l.08.248a1.587,1.587,0,1,1-3.02.973l-1.312-4.07a1.587,1.587,0,0,1,1.052-2.006l4.095-1.235A1.587,1.587,0,1,1,128,170.74l-.513.155a28.884,28.884,0,0,0,37.206-40.929,1.587,1.587,0,0,1,2.72-1.635,32.057,32.057,0,0,1-41.224,45.46Z" transform="translate(-108.793 -113.71)" fill="#8ac9fe" fill-rule="evenodd"/>
        </g>
        <g id="Grupo_1157334" data-name="Grupo 1157334" transform="translate(14.108 8.698)">
          <path id="Trazado_990468" data-name="Trazado 990468" d="M129.358,234a.725.725,0,0,0,.717.83c4.771,0,28.741,0,33.511,0a.727.727,0,0,0,.719-.833,17.687,17.687,0,0,0-34.947,0Z" transform="translate(-129.35 -201.173)" fill="#8ac9fe" fill-rule="evenodd"/>
          <path id="Trazado_990469" data-name="Trazado 990469" d="M262.011,234.837a.727.727,0,0,0,.719-.833A17.691,17.691,0,0,0,246.445,219.1q.589-.039,1.189-.039A17.689,17.689,0,0,1,265.109,234a.727.727,0,0,1-.719.833Z" transform="translate(-230.154 -201.173)" fill="#60b7ff" fill-rule="evenodd"/>
          <path id="Trazado_990470" data-name="Trazado 990470" d="M199.691,108.4a8.942,8.942,0,1,0-8.937-8.942A8.958,8.958,0,0,0,199.691,108.4Z" transform="translate(-182.211 -90.516)" fill="#f6dccd" fill-rule="evenodd"/>
          <path id="Trazado_990471" data-name="Trazado 990471" d="M250.719,108.38a8.942,8.942,0,0,0,0-17.844q.295-.02.594-.02a8.942,8.942,0,0,1,0,17.884Q251.014,108.4,250.719,108.38Z" transform="translate(-233.833 -90.516)" fill="#f1cbbc" fill-rule="evenodd"/>
        </g>
        <g id="Grupo_1157335" data-name="Grupo 1157335" transform="translate(20.32 36.913)">
          <path id="Trazado_990472" data-name="Trazado 990472" d="M181.223,331.879v8.808a1.655,1.655,0,0,0,1.649,1.649H200.1a1.655,1.655,0,0,0,1.649-1.649v-8.808Z" transform="translate(-180.218 -326.514)" fill="#ecba78" fill-rule="evenodd"/>
          <path id="Trazado_990473" data-name="Trazado 990473" d="M181.223,331.879v8.808a1.655,1.655,0,0,0,1.649,1.649h1.31a1.654,1.654,0,0,1-1.649-1.649v-8.808Z" transform="translate(-180.218 -326.514)" fill="#e3a76f" fill-rule="evenodd"/>
          <path id="Trazado_990474" data-name="Trazado 990474" d="M195.02,300.443a5.053,5.053,0,0,0,.514-.369,2.407,2.407,0,0,0,1-1.893v-4.021a.847.847,0,0,0-.845-.845H174.845a.847.847,0,0,0-.845.845v4.021a2.411,2.411,0,0,0,1,1.893,5.051,5.051,0,0,0,.514.369C178.95,302.614,191.614,302.6,195.02,300.443Z" transform="translate(-174 -293.316)" fill="#e3a76f" fill-rule="evenodd"/>
          <path id="Trazado_990475" data-name="Trazado 990475" d="M212.706,293.316h11.769v2.748a1.063,1.063,0,0,1-1.059,1.059h-9.65a1.063,1.063,0,0,1-1.059-1.059Z" transform="translate(-207.321 -293.316)" fill="#c48958" fill-rule="evenodd"/>
          <path id="Trazado_990476" data-name="Trazado 990476" d="M176.315,293.316h-1.469a.847.847,0,0,0-.845.845v4.021a2.411,2.411,0,0,0,1,1.893,5.053,5.053,0,0,0,.514.369,5.219,5.219,0,0,0,.8.4Z" transform="translate(-174 -293.316)" fill="#c48958" fill-rule="evenodd"/>
          <path id="Trazado_990477" data-name="Trazado 990477" d="M240.067,345.264a2.077,2.077,0,1,0,2.078-2.078A2.078,2.078,0,0,0,240.067,345.264Z" transform="translate(-230.875 -336.248)" fill="#837683" fill-rule="evenodd"/>
          <path id="Trazado_990478" data-name="Trazado 990478" d="M240.067,345.264a2.078,2.078,0,0,0,2.078,2.078,2.043,2.043,0,0,0,.327-.027,2.077,2.077,0,0,1,0-4.1,2.026,2.026,0,0,0-.327-.027A2.078,2.078,0,0,0,240.067,345.264Z" transform="translate(-230.875 -336.248)" fill="#685e68" fill-rule="evenodd"/>
        </g>
      </g>
      <path id="Trazado_990479" data-name="Trazado 990479" d="M40.691,64.491H35.174a1.113,1.113,0,0,1-1.107-1.232A18.719,18.719,0,0,1,47.423,47.318a10,10,0,1,1,10.464,0A18.708,18.708,0,0,1,71.241,63.26a1.113,1.113,0,0,1-1.107,1.231H64.617a3.819,3.819,0,0,1-.588.78V72.2a2.772,2.772,0,0,1-2.763,2.763H44.041A2.772,2.772,0,0,1,41.278,72.2V65.271A3.821,3.821,0,0,1,40.691,64.491ZM52.654,48.8A16.476,16.476,0,0,0,36.46,62.265h3.813V58.871a1.961,1.961,0,0,1,1.959-1.957h4.909v-.651a2.888,2.888,0,0,1,2.879-2.879h5.267a2.888,2.888,0,0,1,2.879,2.879v.651h4.909a1.961,1.961,0,0,1,1.959,1.957v3.394h3.813A16.47,16.47,0,0,0,52.654,48.8Zm0-2.226A7.777,7.777,0,1,0,44.882,38.8,7.791,7.791,0,0,0,52.654,46.576ZM43.5,66.664V72.2a.538.538,0,0,0,.536.536H61.267A.538.538,0,0,0,61.8,72.2V66.663a23.382,23.382,0,0,1-6.045,1.117,3.191,3.191,0,0,1-6.208,0A23.261,23.261,0,0,1,43.5,66.664Zm2.153-7.523H42.5v3.753a1.051,1.051,0,0,0,.026.236,1.5,1.5,0,0,0,.573.8l0,0a3.945,3.945,0,0,0,.4.286c1.2.758,3.615,1.181,6.324,1.358a3.19,3.19,0,0,1,5.66,0c2.713-.179,5.133-.6,6.325-1.356a3.955,3.955,0,0,0,.4-.285l0,0a1.5,1.5,0,0,0,.573-.8,1.05,1.05,0,0,0,.026-.236V59.141H59.651v1.635a2.177,2.177,0,0,1-2.172,2.172h-9.65a2.177,2.177,0,0,1-2.172-2.172Zm11.767,0H47.883v1.581h9.541Zm-1.484-2.226v-.651a.655.655,0,0,0-.653-.653H50.02a.655.655,0,0,0-.653.653v.651ZM51.69,67.042a.964.964,0,1,0,.964-.964.963.963,0,0,0-.964.964ZM65.283,22.305a2.7,2.7,0,0,1,5.092.057l1.375,4.05a2.7,2.7,0,0,1-1.737,3.44l-4.075,1.3a2.7,2.7,0,0,1-3.108-4A27.77,27.77,0,0,0,29.523,67.815a2.7,2.7,0,1,1-4.584,2.853A33.17,33.17,0,0,1,65.283,22.305Zm.656,2.7a30.944,30.944,0,0,0-39.11,44.491.474.474,0,1,0,.8-.5,30,30,0,0,1,37.977-43.1,1.113,1.113,0,0,1-.126,2.073l-.511.163a.474.474,0,0,0,.288.9l4.075-1.3a.474.474,0,0,0,.3-.6l-1.375-4.05a.474.474,0,1,0-.9.3l.084.247A1.113,1.113,0,0,1,65.939,25ZM42.077,78.092A27.77,27.77,0,0,0,76.009,37.943a2.7,2.7,0,1,1,4.628-2.781A33.17,33.17,0,0,1,39.55,82.895a2.7,2.7,0,0,1-5.091-.136l-1.312-4.07a2.7,2.7,0,0,1,1.79-3.413l4.095-1.235a2.7,2.7,0,0,1,3.046,4.051Zm-3.142,2.1A30.944,30.944,0,0,0,78.729,36.308a.474.474,0,0,0-.812.488A30,30,0,0,1,39.277,79.3a1.113,1.113,0,0,1,.158-2.07l.513-.155a.474.474,0,0,0-.273-.907L35.58,77.406a.474.474,0,0,0-.314.6l1.312,4.07a.474.474,0,0,0,.9-.291l-.08-.248a1.113,1.113,0,0,1,1.536-1.347Z" transform="translate(0 0)" fill-rule="evenodd"/>
    </g>
  </g>
</svg>
