<svg xmlns="http://www.w3.org/2000/svg" xmlns:xlink="http://www.w3.org/1999/xlink" width="501.704" height="442.625" viewBox="0 0 501.704 442.625">
  <defs>
    <clipPath id="clip-path">
      <path id="Trazado_990560" data-name="Trazado 990560" d="M362.3,261.459a22.585,22.585,0,1,0,17.943-26.423A22.609,22.609,0,0,0,362.3,261.459Zm34.281-6.553a12.318,12.318,0,1,1-14.411-9.785A12.332,12.332,0,0,1,396.585,254.906Z" transform="translate(-361.9 -234.631)"/>
    </clipPath>
    <clipPath id="clip-path-2">
      <path id="Trazado_990553" data-name="Trazado 990553" d="M362.3,261.459a22.585,22.585,0,1,0,17.943-26.423A22.609,22.609,0,0,0,362.3,261.459Zm34.053-6.51a12.085,12.085,0,1,1-14.139-9.6A12.1,12.1,0,0,1,396.358,254.949Z" transform="translate(-361.9 -234.631)"/>
    </clipPath>
  </defs>
  <g id="_28379312_7308737" data-name="28379312_7308737" transform="translate(0.483 0.705)">
    <g id="OBJECTS" transform="translate(0 0)">
      <path id="Trazado_990487" data-name="Trazado 990487" d="M45.235,149.844a81.178,81.178,0,0,1-.192-24.9c4.572-30.363,29.893-57.718,60.493-60.26,27.739-2.3,53.217,14.337,75.247,31.35s44.835,35.881,72.463,39.255c27.814,3.4,54.856-9.669,82.729-12.534A115.551,115.551,0,0,1,411.63,141.69c12.616,8.5,23.813,20.028,28.721,34.427,9.375,27.5-5.84,58.13.491,86.482,5.54,24.8,26.161,42.84,44.555,60.377,22.812,21.748,38.332,44.356,33.991,76.671-3.685,27.43-20.3,54.879-47.463,64.192-26.069,8.937-54.784,0-79.736-11.7s-49.347-26.433-76.714-29.68c-7.367-.874-15.337-.748-21.54,3.322-9.506,6.237-11.5,19.059-17.037,28.986-10.031,17.975-32.962,26.131-53.28,22.83-16.529-2.685-28.4-11.164-40.4-21.843-9.37-8.336-23.371-13.913-28.5-25.795-5.2-12.052-6.906-21.536-18.677-30.084-15.506-11.262-36.13-13.071-52.39-23.213-20.742-12.938-31.52-41.716-20.624-63.6,6.086-12.222,17.444-20.762,27.19-30.324s18.618-22.018,17.264-35.6c-1.7-17.029-18.027-27.976-30.584-39.6C60.528,192.374,48.717,171.676,45.235,149.844Z" transform="translate(-19.318 -61.502)" fill="#fee3d8"/>
      <g id="Grupo_1157342" data-name="Grupo 1157342" transform="translate(50.778 26.172)">
        <rect id="Rectángulo_409199" data-name="Rectángulo 409199" width="256.369" height="377.333" transform="translate(7.221)" fill="none" stroke="#000" stroke-linecap="round" stroke-linejoin="round" stroke-miterlimit="10" stroke-width="1"/>
        <rect id="Rectángulo_409200" data-name="Rectángulo 409200" width="256.369" height="377.333" transform="translate(3.611 3.611)" fill="none" stroke="#000" stroke-linecap="round" stroke-linejoin="round" stroke-miterlimit="10" stroke-width="1"/>
        <rect id="Rectángulo_409201" data-name="Rectángulo 409201" width="256.369" height="377.333" transform="translate(0 7.222)" fill="none" stroke="#000" stroke-linecap="round" stroke-linejoin="round" stroke-miterlimit="10" stroke-width="1"/>
      </g>
      <g id="Grupo_1157344" data-name="Grupo 1157344" transform="translate(70.357 7.527)">
        <path id="Trazado_990488" data-name="Trazado 990488" d="M402.112,120.048l3.883-13.541,10.7,8.79Z" transform="translate(-402.112 -62.226)" stroke="#000" stroke-miterlimit="10" stroke-width="1"/>
        <g id="Grupo_1157343" data-name="Grupo 1157343" transform="translate(1.207)">
          <path id="Trazado_990489" data-name="Trazado 990489" d="M353.024,114.5a33.876,33.876,0,0,0,63.547-6.15l4.417.135a38.2,38.2,0,0,1-71.874,7.871Z" transform="translate(-346.037 -61.927)" stroke="#000" stroke-miterlimit="10" stroke-width="3"/>
          <path id="Trazado_990490" data-name="Trazado 990490" d="M390.5,68.412A38.241,38.241,0,0,1,423.651,89.83l-3.915,1.859a33.87,33.87,0,0,0-63.695,8.611l-4.373-.134A38.266,38.266,0,0,1,390.5,68.412Z" transform="translate(-351.668 -68.394)" stroke="#000" stroke-miterlimit="10" stroke-width="3"/>
        </g>
        <path id="Trazado_990491" data-name="Trazado 990491" d="M362.378,84.019l-3.616,12.99L347.72,88.778C352.585,87.128,357.477,85.558,362.378,84.019Z" transform="translate(-284.6 -65.865)" stroke="#000" stroke-miterlimit="10" stroke-width="1"/>
      </g>
      <g id="Grupo_1157347" data-name="Grupo 1157347" transform="translate(26.404)">
        <line id="Línea_1531" data-name="Línea 1531" x2="5.098" y2="5.232" transform="translate(378.116 56.046)" fill="none" stroke="#000" stroke-linecap="round" stroke-linejoin="round" stroke-miterlimit="10" stroke-width="1"/>
        <g id="Grupo_1157345" data-name="Grupo 1157345" transform="translate(457.617 278.411)">
          <line id="Línea_1532" data-name="Línea 1532" x2="5.717" y2="5.867" transform="translate(0 3.229)" fill="none" stroke="#000" stroke-linecap="round" stroke-linejoin="round" stroke-miterlimit="10" stroke-width="1"/>
          <path id="Trazado_990492" data-name="Trazado 990492" d="M56.934,304.777a19.006,19.006,0,0,1-2.979-3.229" transform="translate(-51.517 -301.548)" fill="none" stroke="#000" stroke-linecap="round" stroke-linejoin="round" stroke-miterlimit="10" stroke-width="1"/>
        </g>
        <path id="Trazado_990493" data-name="Trazado 990493" d="M445.064,283.356l-5.456-6.019" transform="translate(-430.092 -27.054)" fill="none" stroke="#000" stroke-linecap="round" stroke-linejoin="round" stroke-miterlimit="10" stroke-width="1"/>
        <path id="Trazado_990494" data-name="Trazado 990494" d="M225.635,265.539l-5.456-6.019" transform="translate(44.275 -29.938)" fill="none" stroke="#000" stroke-linecap="round" stroke-linejoin="round" stroke-miterlimit="10" stroke-width="1"/>
        <path id="Trazado_990495" data-name="Trazado 990495" d="M379.512,102.313a59.162,59.162,0,0,1,7.217,6.647" transform="translate(-301.936 -55.378)" fill="none" stroke="#000" stroke-linecap="round" stroke-linejoin="round" stroke-miterlimit="10" stroke-width="1"/>
        <path id="Trazado_990496" data-name="Trazado 990496" d="M113.964,109.252l10.065,10.065" transform="translate(269.285 -54.255)" fill="none" stroke="#000" stroke-linecap="round" stroke-linejoin="round" stroke-miterlimit="10" stroke-width="1"/>
        <g id="Grupo_1157346" data-name="Grupo 1157346" transform="translate(58.848 381.688)">
          <path id="Trazado_990497" data-name="Trazado 990497" d="M397.392,396.01q1.8,1.924,3.6,3.85" transform="translate(-395.815 -389.539)" fill="none" stroke="#000" stroke-linecap="round" stroke-linejoin="round" stroke-miterlimit="10" stroke-width="1"/>
          <line id="Línea_1533" data-name="Línea 1533" x2="8.884" y2="8.987" fill="none" stroke="#000" stroke-linecap="round" stroke-linejoin="round" stroke-miterlimit="10" stroke-width="1"/>
        </g>
        <path id="Trazado_990498" data-name="Trazado 990498" d="M190.915,339.626a2.4,2.4,0,1,0,2.4-2.4A2.405,2.405,0,0,0,190.915,339.626Z" transform="translate(108.185 -17.364)" fill="none" stroke="#000" stroke-linecap="round" stroke-miterlimit="10" stroke-width="1"/>
        <path id="Trazado_990499" data-name="Trazado 990499" d="M199.113,66.192a3.267,3.267,0,0,0,4.939-4.277" transform="translate(89.536 -61.915)" fill="none" stroke="#000" stroke-linecap="round" stroke-linejoin="round" stroke-miterlimit="10" stroke-width="1"/>
        <path id="Trazado_990500" data-name="Trazado 990500" d="M216.1,268.12a3.267,3.267,0,1,0,4.939-4.277" transform="translate(52.811 -29.238)" fill="none" stroke="#000" stroke-miterlimit="10" stroke-width="1"/>
        <path id="Trazado_990501" data-name="Trazado 990501" d="M447.558,146.419a3.267,3.267,0,1,0,4.939-4.277" transform="translate(-447.558 -48.932)" fill="none" stroke="#000" stroke-miterlimit="10" stroke-width="1"/>
        <path id="Trazado_990502" data-name="Trazado 990502" d="M77.178,248a2.752,2.752,0,1,0,2.751-2.8A2.776,2.776,0,0,0,77.178,248Z" transform="translate(353.372 -32.256)" fill="none" stroke="#000" stroke-miterlimit="10" stroke-width="1"/>
        <path id="Trazado_990503" data-name="Trazado 990503" d="M119.175,422.068l-4.492-4.236" transform="translate(273.304 -4.319)" fill="none" stroke="#000" stroke-linecap="round" stroke-linejoin="round" stroke-miterlimit="10" stroke-width="1"/>
      </g>
      <g id="Grupo_1157348" data-name="Grupo 1157348" transform="translate(320.457 88.31)">
        <g id="XMLID_19_" transform="translate(34.531 277.606)">
          <g id="XMLID_20_">
            <g id="XMLID_23_">
              <g id="XMLID_24_">
                <path id="XMLID_25_" d="M151.225,431.944c3.526,1.39,7.988,1.133,12.349.7,9.5-1.268,7.785-.876,8.8-8.179,1.04-7.465,2.515-26.555,1.613-34.038a14.047,14.047,0,0,0-2.034-6.4c-1.921-2.772-5.285-4.1-8.474-5.2A34.825,34.825,0,0,0,156.51,377a15.4,15.4,0,0,0-12.055,3.36c-4.908,4.353-2.68,10.181-2.47,16.12.325,9.16,2.106,23.169,3.009,31.9C145.382,432.118,148.552,430.891,151.225,431.944Z" transform="translate(-141.3 -376.865)" fill="#f09b86"/>
              </g>
            </g>
          </g>
        </g>
        <g id="XMLID_4_" transform="translate(7.726 326.518)">
          <g id="XMLID_11_">
            <g id="XMLID_12_">
              <g id="XMLID_13_">
                <path id="XMLID_18_" d="M200.871,425.821a37.985,37.985,0,0,0-.394-6.857l-14.869.21-7.435.106c-2.059.029-4.387-.415-6.388.038a29.12,29.12,0,0,1-1.008,6.275,2.41,2.41,0,0,1-.653,1.259,2.478,2.478,0,0,1-1.165.433c-8.314,1.549-17.063,2.493-24.19,7.046-1.4.9-2.882,2.546-2.084,4.007.925,1.693,5.83,1.73,7.522,1.879a58.845,58.845,0,0,0,9.648-.3,155.093,155.093,0,0,1,20.083-.239c1.926.1,4.393.435,6.229-.342,1.522-.643,2.037-2.7,3.488-3.182a18.68,18.68,0,0,0,.669,3.471.536.536,0,0,0,.668.445c2.005.03,4.633.543,6.59.041,2.116-.544,2.059-2.518,2.327-4.428A87.667,87.667,0,0,0,200.871,425.821Z" transform="translate(-142.46 -418.964)" fill="#222221"/>
              </g>
            </g>
          </g>
        </g>
        <g id="XMLID_101_" transform="translate(69.054 3.441)">
          <g id="XMLID_44_">
            <path id="Trazado_990504" data-name="Trazado 990504" d="M136.09,154.268c1.472,4.522,3.124,8.994,4.289,13.61.337,1.335.1,2.616.622,3.944a16.7,16.7,0,0,0,2.006,3.35c1.354,1.937,2.637,4.422,1.611,6.55a4.867,4.867,0,0,1-3.607,2.431,16.233,16.233,0,0,1-4.5-.081c-8.285-.843-16.641-.424-24.958,0q-1.3-9.148-2.092-18.358c-.452-5.242-1.225-11.025.555-16.105,2-5.71,6.923-9.255,13.116-8.652a13.577,13.577,0,0,1,9.744,5.759A28.963,28.963,0,0,1,136.09,154.268Z" transform="translate(-108.899 -140.887)" fill="#222221"/>
          </g>
        </g>
        <g id="XMLID_148_" transform="translate(0.087 45.683)">
          <g id="XMLID_551_">
            <g id="XMLID_149_">
              <path id="XMLID_2510_" d="M147.938,212.254a18.927,18.927,0,0,1,1.733-2.573c2.973-3.772,7.245-7.091,11.13-9.866,5.064-3.619,10.185-7.158,15.159-10.9,4.307-3.243,8.9-7.382,13.992-9.384,2.884-1.134,6.339-3.081,9.439-1.933a12.823,12.823,0,0,1,6.689,6.3,20.064,20.064,0,0,1,1.774,9.187,14.26,14.26,0,0,1-1.592,6.964c-1.7,2.931-4.86,4.667-7.926,6.115-3.918,1.85-7.692,3.838-11.71,5.606a61.889,61.889,0,0,0-13.974,8.518c-2.959,2.395-5.852,5.146-9.536,6.1a8.349,8.349,0,0,1-8.053-2.322c-1.993-1.912-4.263-1.922-6.491-3.645a5.355,5.355,0,0,1-1.593-1.753,4.781,4.781,0,0,1-.3-2.886A10.853,10.853,0,0,1,147.938,212.254Z" transform="translate(-146.588 -177.245)" fill="#f09b86"/>
            </g>
          </g>
        </g>
        <g id="XMLID_144_" transform="translate(113.977 291.711)">
          <g id="XMLID_875_">
            <g id="XMLID_549_">
              <g id="XMLID_1576_">
                <path id="XMLID_2506_" d="M99.338,430.7a18.5,18.5,0,0,1-4.658.832c-3.663.023-7.333.107-11,.069-2.054-.021-2.053-.544-2.879-2.389q-1.11-2.476-2.209-4.956c-2.968-6.725-5.817-13.511-8.186-20.474-.97-2.852-1.814-6.166-.23-8.729a9.239,9.239,0,0,1,4.407-3.271A33.956,33.956,0,0,1,91.15,389.15c2.521.236,5.169.834,6.972,2.613a12.823,12.823,0,0,1,2.817,5.57,162.888,162.888,0,0,1,5.212,22.731c.632,4.08.805,8.785-4,9.886C101.241,430.159,100.3,430.436,99.338,430.7Z" transform="translate(-69.297 -389.005)" fill="#f09b86"/>
              </g>
            </g>
          </g>
        </g>
        <g id="XMLID_111_" transform="translate(46.146 108.208)">
          <g id="XMLID_116_">
            <g id="XMLID_543_">
              <g id="XMLID_138_">
                <path id="XMLID_2496_" d="M113.7,231.061q-1.41,8.142-2.819,16.285c-.069.4-.112.874.194,1.136a1.183,1.183,0,0,0,.609.214l48.405,7.4a8.788,8.788,0,0,0,3.266.086,1.3,1.3,0,0,0,.74-.382c.313-.381.185-.94.1-1.426-.762-4.252,2.634-7.813,3.287-11.839.472-2.912-.717-8.057-3.6-9.638-1.588-.871-3.684-.656-5.415-.68q-4.306-.058-8.611-.136-8.515-.155-17.029-.389Q123.268,231.428,113.7,231.061Z" transform="translate(-110.837 -231.061)" fill="#4764a8"/>
              </g>
            </g>
          </g>
        </g>
        <g id="XMLID_90_" transform="translate(57.21 3.158)">
          <g id="XMLID_92_">
            <g id="XMLID_540_">
              <g id="XMLID_93_">
                <path id="XMLID_2491_" d="M139.314,145.073c.574,2.573.263,5.667.186,7.72-.138,3.685-.784,8.774,1.227,11.989a30.059,30.059,0,0,0,7.476,8.1c2.273,1.7,3.171,3.719,4.58,6.073.7,1.168,1.75,2.225.806,3.627a4.517,4.517,0,0,1-2.307,1.562,21.288,21.288,0,0,1-6.377,1.006c-4.674.192-9.354-.041-14.027-.273a4.607,4.607,0,0,1-1.959-.389,4.063,4.063,0,0,1-1.708-2.637,15.9,15.9,0,0,1-.5-5.9c.2-1.977.781-3.91.877-5.9.112-2.279-.411-4.542-.49-6.822a35.3,35.3,0,0,1,1.362-9.35l1.9-7.942c.667-2.792,3.117-6.825,6.56-4.7A5.714,5.714,0,0,1,139.314,145.073Z" transform="translate(-126.628 -140.643)" fill="#222221"/>
              </g>
            </g>
          </g>
        </g>
        <g id="XMLID_54_" transform="translate(67.886 106.386)">
          <g id="XMLID_56_">
            <g id="XMLID_537_">
              <g id="XMLID_76_">
                <path id="XMLID_2486_" d="M125.555,320.731a157.765,157.765,0,0,1,9.047,34.517c1.519,10.569,1.966,21.309,4.312,31.726,3.75,16.657,12.264,32.091,14.708,48.989-14.608,4.889-32.725,5.393-48.072,5.9-1.51.05-7.914-30.027-8.514-32.208L86.419,371.045c-3.947-14.353-7.9-28.728-10.709-43.358-1.313-6.843-1.873-13.511-4.414-20.01-2.513-6.428-5.218-12.814-6.779-19.56a81.1,81.1,0,0,1-1.441-24.285c.263-3.544.318-7.462.939-10.918.532-2.963,1.957-5.659,2.328-8.685.489-3.984,2.436-7.787,6.029-9.458,3.523-1.64,9.529-1.582,10.64-5.278C82.3,231.871,90.561,238,92,239.475c13.181,13.505,13.561,30.256,18.869,47.339,2.849,9.168,7.6,17.607,11.528,26.366Q124.076,316.913,125.555,320.731Z" transform="translate(-62.774 -229.493)" fill="#4764a8"/>
              </g>
            </g>
          </g>
        </g>
        <g id="XMLID_49_" transform="translate(24.509 105.516)">
          <g id="XMLID_52_">
            <g id="XMLID_534_">
              <g id="XMLID_1556_">
                <path id="Trazado_990505" data-name="Trazado 990505" d="M180.039,340.441c-.206,1.917-.368,3.849-.474,5.8q-1.257,23.232-.62,46.515a127.328,127.328,0,0,0,2.023,22c2,8,1.318,16.06,1.921,24.152-13.772,1.277-27.632,1.12-41.461.962-1.349-.015-3.511.055-4.415-1.1a6.205,6.205,0,0,1-.993-2.745l-1.589-8.333a22.731,22.731,0,0,1-.543-4.349c.051-10.377-2.413-20.04-1.861-30.6q1.133-21.669,2.305-43.337c1.58-28.854,3.556-57.744,8.194-86.293,1.427-8.787,5.5-15.815,9.858-23.585,2.364-4.22,3.741-6.39,8.169-8.266,2.659-1.127,7.156-3.42,10.1-2.159,3.946,1.69,6.694,5.538,8.02,9.566,1.108,3.363,4.508,5.7,5.3,9.14.662,2.88-.64,7.4-.646,10.448-.017,10,1.087,20.131,1.627,30.116.331,6.134,1.383,13.005.523,19.111C183.895,318.715,181.233,329.323,180.039,340.441Z" transform="translate(-131.945 -228.744)" fill="#4764a8"/>
              </g>
            </g>
          </g>
        </g>
        <g id="XMLID_51_" transform="translate(51.711 3.023)">
          <g id="XMLID_862_">
            <g id="XMLID_530_">
              <g id="XMLID_46_">
                <path id="XMLID_2475_" d="M116.08,184.02c.846-1.2,3.022-.755,4.285-.968a33.355,33.355,0,0,0,6.441-1.76,4.1,4.1,0,0,0,2.09-1.4,4.336,4.336,0,0,0,.519-1.914q.291-2.611.583-5.22c.245-2.2-.125-2.991-1.768-4.432-2.147-1.886-2.651-5-2.785-7.854a52.394,52.394,0,0,1,1.092-13.362,9.775,9.775,0,0,1,1.379-3.685c1.92-2.711,5.634-3.426,8.625-2.541,6.175,1.828,13.328,6.725,13.893,13.686.26,3.21-.481,6.4-1.08,9.568-.754,3.98-1.287,8.116-.34,12.055s3.656,7.676,7.546,8.808a13.193,13.193,0,0,1,3.576,1.139c1.521.977,1.113,1.886.711,3.132-.5,1.539-.741,3.21-1.236,4.823-.048.161-.1.321-.156.481-.015.043-.028.088-.044.131a11.955,11.955,0,0,1-3.684,5.4,19.983,19.983,0,0,1-14.374,4.832c-.194-.013-.389-.038-.584-.053-.078,0-.157.006-.234.007-9.927.138-20.246-5.126-23.051-15.183-.007-.026-.01-.05-.017-.076C116.547,187.545,115.194,185.282,116.08,184.02Z" transform="translate(-115.791 -140.527)" fill="#f09b86"/>
              </g>
            </g>
          </g>
        </g>
        <g id="XMLID_40_" transform="translate(28.179 44.417)">
          <g id="XMLID_30_">
            <g id="XMLID_524_">
              <g id="XMLID_43_">
                <path id="XMLID_2467_" d="M138.541,177.826c1.977,2.527.633,7.164,3,9.677,2.084,2.209,6.137,6.9,18.162,6.055,7.9-.555,15.472-9.959,18.255-13.793a42.775,42.775,0,0,1,5.994,2.03c.837,1.515-.222,18.915.446,26.857.952,11.308-.1,22.117.941,34.028l-52.559.9c0-4.7-.424-9.411-.7-14.1-.318-5.341.084-10.473-1.4-15.591a27.634,27.634,0,0,1-6.56,1.212,179.569,179.569,0,0,0-9.714-21.237c-.563-1.086-2.415-3.412-2.255-4.66.2-1.556,2.341-2.485,3.516-3.305q4.918-3.431,10.056-6.535c2.991-1.805,8.983-4.841,12.254-2.121A3.847,3.847,0,0,1,138.541,177.826Z" transform="translate(-112.139 -176.155)" fill="#d16e4f"/>
              </g>
            </g>
          </g>
        </g>
        <g id="XMLID_55_" transform="translate(122.475 325.508)">
          <g id="XMLID_21_">
            <g id="XMLID_509_">
              <g id="XMLID_22_">
                <path id="Trazado_990506" data-name="Trazado 990506" d="M58.738,419.219c1.207-.045,14.4-1.07,14.387-1.124q.629,3.14,1.257,6.282a2.884,2.884,0,0,0,.354,1.044A2.741,2.741,0,0,0,76,426.3c7.77,3.375,16.738,3.445,24.28,7.306a3.919,3.919,0,0,1,1.355.984,2.866,2.866,0,0,1,.03,3.092,6.316,6.316,0,0,1-3.043,2.8H69.036a13.867,13.867,0,0,1-7.5-4.008c-.235-.233-.516-.493-.843-.447-.354.049-.555.423-.692.754a32.542,32.542,0,0,0-1.208,3.446l-8.024.471a60.661,60.661,0,0,1-5.429-14.2c-.53-2.431-1.028-4.869-1.522-7.313C48.709,418.822,53.8,419.4,58.738,419.219Z" transform="translate(-43.812 -418.095)" fill="#222221"/>
              </g>
            </g>
          </g>
        </g>
        <g id="XMLID_42_" transform="translate(89.048 50.094)">
          <g id="XMLID_836_">
            <g id="XMLID_503_">
              <g id="XMLID_1518_">
                <path id="XMLID_2434_" d="M95.075,253.435c.239.63,3.046,3.821,3.607,3.927,5.8,1.087,4.586.279,5.186.23,10.147-8.493,21.275-34.528,23.336-46.18.795-4.49-.318-9.142-1.3-13.6a25.962,25.962,0,0,0-8.639-12.091c-2.7-1.934-7.229-3.7-13.629-4.683-1.14,1.765-1.671,4.219-2.707,6.928-1.462,3.822-2.939,7.71-3.154,11.844a13.223,13.223,0,0,0,1.435,7.283c.563.989,2.068,1.931,2.455,2.864.627,1.512-.373,3.238-1.035,4.726a83.93,83.93,0,0,0-6.893,26.493A27.275,27.275,0,0,0,95.075,253.435Z" transform="translate(-93.575 -181.042)" fill="#f09b86"/>
              </g>
            </g>
          </g>
        </g>
        <g id="XMLID_47_" transform="translate(60.811 67.475)">
          <g id="XMLID_702_">
            <g id="XMLID_428_">
              <g id="XMLID_1445_">
                <path id="XMLID_2345_" d="M151.433,237.559a12.134,12.134,0,0,1-1.6,15.11,14.256,14.256,0,0,1-4.926,3.424,4.2,4.2,0,0,1-1.636.376,4.064,4.064,0,0,1-1.861-.717c-8.933-5.368-15.819-13.7-20.757-22.875s-8.874-20.757-12.491-29.972c-.108-.274,7.282-6.625,8.613-6.9,0,0,5.254,6.489,7.953,9.511,8.028,8.986,19.053,19.275,26.52,31.749C151.311,237.364,151.372,237.464,151.433,237.559Z" transform="translate(-108.163 -196.002)" fill="#f09b86"/>
              </g>
            </g>
          </g>
        </g>
        <g id="XMLID_131_" transform="translate(0 77.664)">
          <g id="XMLID_413_">
            <g id="XMLID_45_">
              <path id="XMLID_2320_" d="M181.65,210.6a23.6,23.6,0,0,1,2.291,2.6c5.856,7.713,13.876,13.929,20.955,20.512a2.516,2.516,0,0,1,.692.87c.905,2.317-2.747,10.933-5.867,10.192-7.914-1.881-15.688-7.108-22.287-11.646-4.069-2.8-8.218-5.615-11.622-9.227-3.011-3.2-6.3-8.467-5.369-13.057,1.316-6.469,9.512-7.166,14.494-4.873A23.917,23.917,0,0,1,181.65,210.6Z" transform="translate(-160.282 -204.772)" fill="#f09b86"/>
            </g>
          </g>
        </g>
        <g id="XMLID_117_" transform="translate(60.29 52.827)">
          <g id="XMLID_378_">
            <g id="XMLID_1422_">
              <path id="XMLID_2316_" d="M144.249,183.78c2.792,2.571,4.819,6.045,3.978,9.953-.4,1.867-3.346,1.406-2.942-.473.617-2.866-.882-5.3-2.929-7.179C140.952,184.788,142.833,182.476,144.249,183.78Z" transform="translate(-141.861 -183.394)" fill="#f09b86"/>
            </g>
          </g>
        </g>
        <g id="XMLID_17_" transform="translate(29.729 32.425)">
          <g id="XMLID_33_">
            <g id="XMLID_989_">
              <path id="XMLID_2312_" d="M147.855,210.97h28.45a2.036,2.036,0,0,0,2.036-2.036V167.87a2.035,2.035,0,0,0-2.036-2.035H146.974a1.154,1.154,0,0,0-1.154,1.154v41.947A2.036,2.036,0,0,0,147.855,210.97Z" transform="translate(-145.82 -165.834)" fill="#8cc9de"/>
            </g>
          </g>
        </g>
        <g id="XMLID_59_" transform="translate(45.577 52.297)">
          <g id="XMLID_60_" transform="translate(3.229)">
            <g id="XMLID_371_">
              <g id="XMLID_62_">
                <path id="XMLID_2308_" d="M146.01,182.981c4.458.991,8.465,2.138,12.464,5.346,2.485,1.994.1,3.815-1.573,2.692a34.1,34.1,0,0,0-11.719-5.032C143.223,185.552,144.053,182.545,146.01,182.981Z" transform="translate(-144.064 -182.938)" fill="#f09b86"/>
              </g>
            </g>
          </g>
          <g id="XMLID_95_" transform="translate(0 3.026)">
            <g id="XMLID_369_">
              <g id="XMLID_65_">
                <path id="XMLID_2304_" d="M147.2,185.6a78.993,78.993,0,0,1,14.588,5.8c1.809.866.229,3.555-1.573,2.692a74.77,74.77,0,0,0-13.842-5.485C144.423,188.112,145.246,185.1,147.2,185.6Z" transform="translate(-145.258 -185.542)" fill="#f09b86"/>
              </g>
            </g>
          </g>
          <g id="XMLID_108_" transform="translate(1.027 7.319)">
            <g id="XMLID_367_">
              <g id="XMLID_66_">
                <path id="XMLID_2300_" d="M147.938,189.3a5.873,5.873,0,0,1,2.887.466q1.737.514,3.419,1.192a41.773,41.773,0,0,1,6.323,3.194c1.7,1.053.139,3.75-1.573,2.692a38.009,38.009,0,0,0-5.25-2.742q-1.321-.554-2.683-1-.662-.218-1.331-.411a4.641,4.641,0,0,1-1.036-.321,1.475,1.475,0,0,1-1.4-.417l-.045-.05A1.575,1.575,0,0,1,147.938,189.3Z" transform="translate(-146.824 -189.237)" fill="#f09b86"/>
              </g>
            </g>
          </g>
          <g id="XMLID_109_" transform="translate(2.295 11.604)">
            <g id="XMLID_365_">
              <g id="XMLID_67_">
                <path id="XMLID_2296_" d="M149.83,193a40.029,40.029,0,0,1,9.286,4.337c1.715,1.035.15,3.733-1.573,2.692A36.869,36.869,0,0,0,149,196.007C147.087,195.424,147.9,192.415,149.83,193Z" transform="translate(-147.911 -192.925)" fill="#f09b86"/>
              </g>
            </g>
          </g>
        </g>
        <g id="XMLID_61_" transform="translate(55.827 57.632)">
          <g id="XMLID_362_">
            <g id="XMLID_68_">
              <path id="XMLID_2291_" d="M138.393,197.988a2.107,2.107,0,0,0-.3,1.429,3.542,3.542,0,0,0,.774,1.707c1.428,2.027,3.16,4.016,5.513,4.8a6.924,6.924,0,0,0,6.326-1.08c1.76-1.366,2.932-1.417,2.773-3.639a25.862,25.862,0,0,0-1.467-4.547c-.905-2.259-4.106-8.557-7.034-9.11C142.808,187.137,141.476,193.978,138.393,197.988Z" transform="translate(-138.083 -187.53)" fill="#f09b86"/>
            </g>
          </g>
        </g>
        <g id="XMLID_16_" transform="translate(44.342 35.261)">
          <g id="XMLID_91_">
            <g id="XMLID_85_">
              <path id="XMLID_2283_" d="M158.935,169.61a1.335,1.335,0,1,0,1.335-1.335A1.334,1.334,0,0,0,158.935,169.61Z" transform="translate(-158.935 -168.275)" fill="#222221"/>
            </g>
          </g>
        </g>
        <path id="Trazado_990507" data-name="Trazado 990507" d="M125.549,218.477c-4.6-.857-9.266-1.064-13.916-1.673-5.8-.759-11.53-1.769-17.353-2.315a1.326,1.326,0,0,1-.138-.13,2.947,2.947,0,0,1-.482-1.46c-1.476-10.808,1.154-22.152,2.582-32.858a.921.921,0,0,1,1.306-.956c5.815.981,11.812,2.03,16.762,5.236.491.318.936.694,1.4,1.049a33.422,33.422,0,0,1,6.735,8.608c4.041,7.716,3.863,16.11,3.295,24.516Z" transform="translate(-2.683 -131.272)" fill="#d16e4f"/>
        <path id="Trazado_990508" data-name="Trazado 990508" d="M197.81,208.8a2.821,2.821,0,0,0-1.9,4.566" transform="translate(-193.048 -126.456)" fill="none" stroke="#222221" stroke-linecap="round" stroke-linejoin="round" stroke-miterlimit="10" stroke-width="1"/>
        <path id="Trazado_990509" data-name="Trazado 990509" d="M118.588,242.907a3.712,3.712,0,0,1-5.7,1.908" transform="translate(-18.079 -120.936)" fill="none" stroke="#222221" stroke-linecap="round" stroke-linejoin="round" stroke-miterlimit="10" stroke-width="1"/>
        <g id="XMLID_26_" transform="translate(58.756)">
          <g id="XMLID_27_">
            <path id="Trazado_990510" data-name="Trazado 990510" d="M129.6,171.986c-.431-1.9-.862-3.791-1.379-5.664a37.34,37.34,0,0,0-2.678-7.187c-1.058-2.056-1.767-4.078-2.738-6.152a7.9,7.9,0,0,0-6.08-4.226c-1.679-.2-3.393-.056-5.056-.358a7.138,7.138,0,0,1-5.592-4.361c-.8-2.348.451-5.362,2.851-5.983,1.958-.507,3.607.616,5.486.812,1.984.208,2.635-.356,4.424-.683,3.932-.72,7.251.274,10.865,1.89l7.187,3.214a14.575,14.575,0,0,1,4.522,2.724c3.056,3.061,2.821,8.077,4.834,11.905,1.694,3.222,4.953,5.528,6.137,8.969.512,1.488.6,3.09,1.026,4.6.667,2.349,2.16,4.471,2.364,6.9.344,4.1-5.349,6.215-8.618,6.8a39.146,39.146,0,0,1-6.028.6c-2.389.053-5.756.084-7.532-1.775a7.279,7.279,0,0,1-1.421-2.592A76.558,76.558,0,0,1,129.6,171.986Z" transform="translate(-105.832 -137.925)" fill="#222221"/>
          </g>
        </g>
        <path id="Trazado_990511" data-name="Trazado 990511" d="M128.185,160.976a5.42,5.42,0,0,0,4.46-.517,3.834,3.834,0,0,0,1.465-1.515,3.66,3.66,0,0,0,.141-2.684,4.848,4.848,0,0,0-5.325-3.229c-1.7.314-2.161,1.312-2.8,2.92S127.253,159.519,128.185,160.976Z" transform="translate(-49.148 -135.492)" fill="#f09b86"/>
        <path id="Trazado_990512" data-name="Trazado 990512" d="M136.994,233.984a113.492,113.492,0,0,0-.194,17.268,21.035,21.035,0,0,0,1.406,7.2,8.108,8.108,0,0,0,5.249,4.8" transform="translate(-70.449 -122.38)" fill="none" stroke="#222221" stroke-linecap="round" stroke-linejoin="round" stroke-miterlimit="10" stroke-width="1"/>
        <path id="Trazado_990513" data-name="Trazado 990513" d="M166.816,229.94a25.75,25.75,0,0,0,3.563.94l3.157.566c1.192.214,3.077.441,3.838,1.51.83,1.164.466,3.145.22,4.424a15.694,15.694,0,0,1-1.946,5.8,4.779,4.779,0,0,1-6.591,1.857,57.457,57.457,0,0,1-9.959-5.624c-2.752-2.065-5.624-4.56-6.125-7.964-.267-1.817.417-3.96,2.122-4.644a5.8,5.8,0,0,1,3.815.257C161.545,227.878,164.165,229.058,166.816,229.94Z" transform="translate(-123.884 -123.58)" fill="#f09b86"/>
        <path id="Trazado_990514" data-name="Trazado 990514" d="M148.671,240.047a35.173,35.173,0,0,0,12.4,2.69,1.472,1.472,0,0,1,.8-.035l.612.145a1.529,1.529,0,0,1-.4,2.989,37.35,37.35,0,0,1-14.217-2.853C146.078,242.242,146.861,239.3,148.671,240.047Z" transform="translate(-102.52 -121.419)" fill="#f09b86"/>
        <path id="Trazado_990515" data-name="Trazado 990515" d="M144.869,233.807q7.651,1.629,15.415,2.526c1.924.22,1.946,3.266,0,3.044q-8.179-.932-16.225-2.635C142.146,236.336,142.956,233.4,144.869,233.807Z" transform="translate(-96.172 -122.415)" fill="#f09b86"/>
        <path id="Trazado_990516" data-name="Trazado 990516" d="M146.041,237.638a54.146,54.146,0,0,0,11.815,1.529c1.957.037,1.962,3.081,0,3.044a58.011,58.011,0,0,1-12.623-1.637C143.329,240.11,144.136,237.174,146.041,237.638Z" transform="translate(-95.131 -121.797)" fill="#f09b86"/>
        <path id="Trazado_990517" data-name="Trazado 990517" d="M145.395,230.9l14.529,2.023c1.932.27,1.11,3.2-.81,2.936l-14.529-2.023C142.654,233.562,143.476,230.628,145.395,230.9Z" transform="translate(-96.061 -122.883)" fill="#f09b86"/>
        <path id="Trazado_990518" data-name="Trazado 990518" d="M141.661,305.66c-3.268-8.75-6.728-19.09-9.295-28.071" transform="translate(-63.78 -115.324)" fill="none" stroke="#222221" stroke-linecap="round" stroke-linejoin="round" stroke-miterlimit="10" stroke-width="1"/>
        <path id="Trazado_990519" data-name="Trazado 990519" d="M109.229,322.387a29.029,29.029,0,0,1-10.7,2.528" transform="translate(7.968 -108.075)" fill="none" stroke="#222221" stroke-linecap="round" stroke-linejoin="round" stroke-miterlimit="10" stroke-width="1"/>
        <path id="Trazado_990520" data-name="Trazado 990520" d="M164.212,326.777a15.576,15.576,0,0,1-9.109-1.216" transform="translate(-112.748 -107.561)" fill="none" stroke="#222221" stroke-linecap="round" stroke-linejoin="round" stroke-miterlimit="10" stroke-width="1"/>
        <path id="Trazado_990521" data-name="Trazado 990521" d="M131.773,154.8a2.4,2.4,0,0,0-2.973,3.391" transform="translate(-49.426 -135.219)" fill="none" stroke="#222221" stroke-linecap="round" stroke-linejoin="round" stroke-miterlimit="10" stroke-width="1"/>
        <path id="Trazado_990522" data-name="Trazado 990522" d="M144.31,159.386a5.228,5.228,0,0,1-4.66-.445" transform="translate(-74.892 -134.524)" fill="none" stroke="#222221" stroke-linecap="round" stroke-linejoin="round" stroke-miterlimit="10" stroke-width="1"/>
        <path id="Trazado_990523" data-name="Trazado 990523" d="M117.751,212.361l-1.6-.134a46.915,46.915,0,0,0,2.174-19.282" transform="translate(-21.829 -129.021)" fill="none" stroke="#222221" stroke-linecap="round" stroke-linejoin="round" stroke-miterlimit="10" stroke-width="1"/>
        <path id="Trazado_990524" data-name="Trazado 990524" d="M185.28,215.677a31.883,31.883,0,0,0-8.2-6.023" transform="translate(-159.353 -126.318)" fill="none" stroke="#222221" stroke-linecap="round" stroke-linejoin="round" stroke-miterlimit="10" stroke-width="1"/>
        <path id="Trazado_990525" data-name="Trazado 990525" d="M118.228,217.436a94.123,94.123,0,0,0,2.549,9.274" transform="translate(-26.471 -125.058)" fill="none" stroke="#222221" stroke-linecap="round" stroke-linejoin="round" stroke-miterlimit="10" stroke-width="1"/>
        <path id="Trazado_990526" data-name="Trazado 990526" d="M136.924,164.092a13.756,13.756,0,0,0,10.559,1.491" transform="translate(-74.898 -133.691)" fill="none" stroke="#222221" stroke-linecap="round" stroke-linejoin="round" stroke-miterlimit="10" stroke-width="1"/>
        <path id="Trazado_990527" data-name="Trazado 990527" d="M141.629,183.989a11.732,11.732,0,0,1,4.681,8" transform="translate(-79.192 -130.471)" fill="none" stroke="#222221" stroke-linecap="round" stroke-linejoin="round" stroke-miterlimit="10" stroke-width="1"/>
        <path id="Trazado_990528" data-name="Trazado 990528" d="M145.987,199.427a10.685,10.685,0,0,0,5.085,5" transform="translate(-89.017 -127.972)" fill="none" stroke="#222221" stroke-linecap="round" stroke-linejoin="round" stroke-miterlimit="10" stroke-width="1"/>
      </g>
      <g id="Grupo_1157350" data-name="Grupo 1157350" transform="translate(209.915 351.951)">
        <g id="Grupo_1157349" data-name="Grupo 1157349">
          <path id="Trazado_990529" data-name="Trazado 990529" d="M233.2,384.53h0a3.067,3.067,0,0,0,1.085,4.162l41.081,19.372a3.065,3.065,0,0,0,3.9-1.81h0a3.065,3.065,0,0,0-1.085-4.16L237.1,382.721A3.062,3.062,0,0,0,233.2,384.53Z" transform="translate(-207.932 -361.988)" fill="#222221"/>
          <path id="Trazado_990530" data-name="Trazado 990530" d="M262.222,385.9a18.85,18.85,0,1,0,16.522-20.921A18.852,18.852,0,0,0,262.222,385.9Z" transform="translate(-262.092 -364.845)" fill="#f5e3da" stroke="#222221" stroke-linecap="round" stroke-miterlimit="10" stroke-width="1"/>
          <path id="Trazado_990531" data-name="Trazado 990531" d="M265.279,384.98a15.271,15.271,0,1,0,13.384-16.949A15.271,15.271,0,0,0,265.279,384.98Z" transform="translate(-261.593 -364.346)" fill="#8cc9de"/>
        </g>
        <path id="Trazado_990532" data-name="Trazado 990532" d="M281.625,382.022a12.913,12.913,0,0,1-13.5,10.023" transform="translate(-250.931 -362.065)" fill="none" stroke="#222221" stroke-linecap="round" stroke-linejoin="round" stroke-miterlimit="10" stroke-width="1"/>
      </g>
      <g id="Grupo_1157354" data-name="Grupo 1157354" transform="translate(136.661 266.995)">
        <rect id="Rectángulo_409202" data-name="Rectángulo 409202" width="138.322" height="72.161" transform="translate(4.878 1.261)" fill="#f5b09f"/>
        <g id="Grupo_1157353" data-name="Grupo 1157353" transform="translate(0)">
          <g id="Grupo_1157351" data-name="Grupo 1157351">
            <path id="Trazado_990533" data-name="Trazado 990533" d="M372.86,324.014l-40.309-17.3-18.059,21.2-75.139-34.036" transform="translate(-235.482 -291.372)" fill="none" stroke="#222221" stroke-linecap="round" stroke-linejoin="round" stroke-miterlimit="10" stroke-width="2"/>
            <path id="Trazado_990534" data-name="Trazado 990534" d="M360.11,292.274l-18.059-.552,7.094,13.95Z" transform="translate(-342.051 -291.722)" fill="#222221"/>
          </g>
          <g id="Grupo_1157352" data-name="Grupo 1157352" transform="translate(13.363 15.295)">
            <rect id="Rectángulo_409203" data-name="Rectángulo 409203" width="7.652" height="33.758" transform="translate(113.46 20.694)" fill="#4764a8"/>
            <rect id="Rectángulo_409204" data-name="Rectángulo 409204" width="7.77" height="41.373" transform="translate(99.152 13.079)" fill="#4764a8"/>
            <rect id="Rectángulo_409205" data-name="Rectángulo 409205" width="7.487" height="46.596" transform="translate(85.247 7.855)" fill="#4764a8"/>
            <rect id="Rectángulo_409206" data-name="Rectángulo 409206" width="6.919" height="37.649" transform="translate(71.625 16.802)" fill="#4764a8"/>
            <rect id="Rectángulo_409207" data-name="Rectángulo 409207" width="7.917" height="29.943" transform="translate(56.438 24.51)" fill="#4764a8"/>
            <rect id="Rectángulo_409208" data-name="Rectángulo 409208" width="7.652" height="33.758" transform="translate(42.515 20.694)" fill="#4764a8"/>
            <rect id="Rectángulo_409209" data-name="Rectángulo 409209" width="7.62" height="42.754" transform="translate(28.357 11.698)" fill="#4764a8"/>
            <rect id="Rectángulo_409210" data-name="Rectángulo 409210" width="7.189" height="48.658" transform="translate(14.598 5.794)" fill="#4764a8"/>
            <rect id="Rectángulo_409211" data-name="Rectángulo 409211" width="7.598" height="54.451" transform="translate(0)" fill="#4764a8"/>
          </g>
        </g>
        <path id="Trazado_990535" data-name="Trazado 990535" d="M353.428,355.19c-8.422.16-10.746.16-18.734,0" transform="translate(-326.822 -281.451)" fill="none" stroke="#000" stroke-linecap="round" stroke-miterlimit="10" stroke-width="1"/>
        <path id="Trazado_990536" data-name="Trazado 990536" d="M320.74,355.19c-32.32.16-40.452.16-72.615,0" transform="translate(-193.555 -281.451)" fill="none" stroke="#000" stroke-linecap="round" stroke-miterlimit="10" stroke-width="1"/>
      </g>
      <g id="Grupo_1157361" data-name="Grupo 1157361" transform="translate(186.735 17.747)">
        <g id="Grupo_1157357" data-name="Grupo 1157357" transform="translate(28.888)">
          <g id="Grupo_1157355" data-name="Grupo 1157355">
            <rect id="Rectángulo_409212" data-name="Rectángulo 409212" width="141.087" height="69.291" fill="#f5b09f"/>
          </g>
          <g id="Grupo_1157356" data-name="Grupo 1157356" transform="translate(8.474 15.606)">
            <line id="Línea_1534" data-name="Línea 1534" x1="114.343" fill="none" stroke="#fff" stroke-linecap="round" stroke-miterlimit="10" stroke-width="3"/>
            <line id="Línea_1535" data-name="Línea 1535" x1="114.343" transform="translate(0 15.668)" fill="none" stroke="#fff" stroke-linecap="round" stroke-miterlimit="10" stroke-width="3"/>
            <line id="Línea_1536" data-name="Línea 1536" x1="114.343" transform="translate(0 31.336)" fill="none" stroke="#fff" stroke-linecap="round" stroke-miterlimit="10" stroke-width="3"/>
          </g>
        </g>
        <g id="Grupo_1157360" data-name="Grupo 1157360" transform="translate(0 21.666)">
          <g id="Grupo_1157358" data-name="Grupo 1157358">
            <rect id="Rectángulo_409213" data-name="Rectángulo 409213" width="141.087" height="69.291" fill="#d16e4f"/>
          </g>
          <g id="Grupo_1157359" data-name="Grupo 1157359" transform="translate(8.474 15.606)">
            <line id="Línea_1537" data-name="Línea 1537" x1="114.344" fill="none" stroke="#fff" stroke-linecap="round" stroke-miterlimit="10" stroke-width="3"/>
            <line id="Línea_1538" data-name="Línea 1538" x1="114.344" transform="translate(0 15.667)" fill="none" stroke="#fff" stroke-linecap="round" stroke-miterlimit="10" stroke-width="3"/>
            <line id="Línea_1539" data-name="Línea 1539" x1="114.344" transform="translate(0 31.336)" fill="none" stroke="#fff" stroke-linecap="round" stroke-miterlimit="10" stroke-width="3"/>
          </g>
        </g>
        <path id="Trazado_990537" data-name="Trazado 990537" d="M307.87,155.068c-8.905-.014-18.2-.014-27.376,0" transform="translate(-268.367 -64.589)" fill="none" stroke="#000" stroke-linecap="round" stroke-miterlimit="10" stroke-width="1"/>
        <path id="Trazado_990538" data-name="Trazado 990538" d="M285.378,155.068c-29.139-.014-57.022-.014-86.3,0" transform="translate(-151.284 -64.589)" fill="none" stroke="#000" stroke-linecap="round" stroke-miterlimit="10" stroke-width="1"/>
        <line id="Línea_1540" data-name="Línea 1540" y2="53.761" transform="translate(141.717 27.089)" fill="none" stroke="#000" stroke-linecap="round" stroke-miterlimit="10" stroke-width="1"/>
      </g>
      <g id="Grupo_1157366" data-name="Grupo 1157366" transform="translate(0 108.828)">
        <rect id="Rectángulo_409214" data-name="Rectángulo 409214" width="141.086" height="70.344" transform="translate(38.975)" fill="#f5b09f"/>
        <g id="Grupo_1157365" data-name="Grupo 1157365" transform="translate(0 8.176)">
          <g id="Grupo_1157362" data-name="Grupo 1157362" transform="translate(0 17.928)">
            <rect id="Rectángulo_409215" data-name="Rectángulo 409215" width="21.176" height="65.395" transform="translate(10.23 52.286) rotate(-118.887)" fill="#d16e4f"/>
            <path id="Trazado_990539" data-name="Trazado 990539" d="M429.522,178.053l-15.607,20.7-10.229-18.54Z" transform="translate(-346.413 -178.053)" fill="#edbf34"/>
            <path id="Trazado_990540" data-name="Trazado 990540" d="M429.522,178.053l-15.607,20.7-10.229-18.54Z" transform="translate(-346.413 -178.053)" fill="#fff"/>
            <path id="Trazado_990541" data-name="Trazado 990541" d="M408.532,187.859l-4.845-8.782,12.237-1.024Z" transform="translate(-332.815 -178.053)" fill="#222221"/>
            <line id="Línea_1541" data-name="Línea 1541" y1="31.891" x2="57.802" transform="translate(6.636 13.857)" fill="none" stroke="#222221" stroke-linecap="round" stroke-linejoin="round" stroke-miterlimit="10" stroke-width="1"/>
            <line id="Línea_1542" data-name="Línea 1542" y1="31.891" x2="57.802" transform="translate(3.628 8.405)" fill="none" stroke="#222221" stroke-linecap="round" stroke-linejoin="round" stroke-miterlimit="10" stroke-width="1"/>
          </g>
          <rect id="Rectángulo_409216" data-name="Rectángulo 409216" width="22.868" height="22.868" transform="translate(148.503 2.575)" fill="#fff"/>
          <rect id="Rectángulo_409217" data-name="Rectángulo 409217" width="22.868" height="22.868" transform="translate(106.378 2.575)" fill="#fff"/>
          <rect id="Rectángulo_409218" data-name="Rectángulo 409218" width="22.868" height="22.868" transform="translate(148.503 29.054)" fill="#fff"/>
          <rect id="Rectángulo_409219" data-name="Rectángulo 409219" width="22.868" height="22.868" transform="translate(106.378 29.054)" fill="#fff"/>
          <g id="Grupo_1157363" data-name="Grupo 1157363" transform="translate(141.281)">
            <path id="Trazado_990542" data-name="Trazado 990542" d="M357.642,171.048l-12.036,12.035-16.851-20.461" transform="translate(-328.754 -162.622)" fill="none" stroke="#222221" stroke-linecap="round" stroke-linejoin="round" stroke-miterlimit="10" stroke-width="2"/>
            <path id="Trazado_990543" data-name="Trazado 990543" d="M357.642,193.839l-12.036,12.037-16.851-20.462" transform="translate(-328.754 -158.934)" fill="none" stroke="#222221" stroke-linecap="round" stroke-linejoin="round" stroke-miterlimit="10" stroke-width="2"/>
          </g>
          <g id="Grupo_1157364" data-name="Grupo 1157364" transform="translate(96.747)">
            <path id="Trazado_990544" data-name="Trazado 990544" d="M395.973,171.048l-12.037,12.035-16.851-20.461" transform="translate(-367.085 -162.622)" fill="none" stroke="#222221" stroke-linecap="round" stroke-linejoin="round" stroke-miterlimit="10" stroke-width="2"/>
            <path id="Trazado_990545" data-name="Trazado 990545" d="M395.973,193.839l-12.037,12.037-16.851-20.462" transform="translate(-367.085 -158.934)" fill="none" stroke="#222221" stroke-linecap="round" stroke-linejoin="round" stroke-miterlimit="10" stroke-width="2"/>
          </g>
          <path id="Trazado_990546" data-name="Trazado 990546" d="M462.8,193.743l-29.938,15.523,10.23,18.539,38.966-21.625" transform="translate(-432.845 -157.586)" fill="none" stroke="#222221" stroke-linecap="round" stroke-linejoin="round" stroke-miterlimit="10" stroke-width="1"/>
        </g>
        <path id="Trazado_990547" data-name="Trazado 990547" d="M422.942,215.894H404.288" transform="translate(-340.531 -145.826)" fill="none" stroke="#000" stroke-linecap="round" stroke-linejoin="round" stroke-miterlimit="10" stroke-width="1"/>
        <path id="Trazado_990548" data-name="Trazado 990548" d="M408.057,215.894c-25.194.187-51.916.187-77.583,0" transform="translate(-239.887 -145.826)" fill="none" stroke="#000" stroke-linecap="round" stroke-linejoin="round" stroke-miterlimit="10" stroke-width="1"/>
      </g>
      <g id="Grupo_1157377" data-name="Grupo 1157377" transform="translate(75.603 186.538)">
        <rect id="Rectángulo_409220" data-name="Rectángulo 409220" width="141.086" height="72.311" fill="#f5b09f"/>
        <g id="Grupo_1157376" data-name="Grupo 1157376" transform="translate(10.881 7.907)">
          <g id="Grupo_1157367" data-name="Grupo 1157367" transform="translate(61.198)">
            <ellipse id="Elipse_11767" data-name="Elipse 11767" cx="23.12" cy="23.12" rx="23.12" ry="23.12" transform="translate(8.108 8.108)" fill="#fff"/>
            <path id="Trazado_990549" data-name="Trazado 990549" d="M351.666,260.506l.921-31.215c-.307-.009-.615-.014-.921-.014a31.378,31.378,0,0,0-31.229,31.229Z" transform="translate(-320.437 -229.277)" fill="#d16e4f"/>
            <path id="Trazado_990550" data-name="Trazado 990550" d="M297.878,256.156l16.469,21.56q.519-.4,1.021-.819a27.143,27.143,0,0,0,9.641-20.61Z" transform="translate(-266.649 -224.927)" fill="#4764a8"/>
          </g>
          <g id="Grupo_1157375" data-name="Grupo 1157375" transform="translate(0 6.22)">
            <g id="Grupo_1157374" data-name="Grupo 1157374" clip-path="url(#clip-path)">
              <g id="Grupo_1157368" data-name="Grupo 1157368">
                <path id="Trazado_990551" data-name="Trazado 990551" d="M362.3,261.459a22.585,22.585,0,1,0,17.943-26.423A22.609,22.609,0,0,0,362.3,261.459Zm34.281-6.553a12.318,12.318,0,1,1-14.411-9.785A12.332,12.332,0,0,1,396.585,254.906Z" transform="translate(-361.9 -234.631)" fill="#d16e4f"/>
              </g>
              <g id="Grupo_1157373" data-name="Grupo 1157373">
                <g id="Grupo_1157369" data-name="Grupo 1157369" clip-path="url(#clip-path-2)">
                  <path id="Trazado_990552" data-name="Trazado 990552" d="M385.862,251.608l-31.283,6.5,17.433-27.237Z" transform="translate(-332.181 -235.24)" fill="#fff"/>
                </g>
                <g id="Grupo_1157370" data-name="Grupo 1157370" clip-path="url(#clip-path-2)">
                  <path id="Trazado_990554" data-name="Trazado 990554" d="M387.177,238.405l-25.569,19.158,2.97-29.692Z" transform="translate(-341.663 -235.725)" fill="#8cc9de" stroke="#8cc9de" stroke-miterlimit="10" stroke-width="1"/>
                </g>
                <g id="Grupo_1157371" data-name="Grupo 1157371" clip-path="url(#clip-path-2)">
                  <path id="Trazado_990556" data-name="Trazado 990556" d="M405.711,228.639l-1.271,29.733-24.277-19.04Z" transform="translate(-381.753 -235.601)" fill="#4764a8"/>
                </g>
                <g id="Grupo_1157372" data-name="Grupo 1157372" clip-path="url(#clip-path-2)">
                  <path id="Trazado_990558" data-name="Trazado 990558" d="M368.436,281.529l10.3-27.141,15.651,23.633Z" transform="translate(-356.807 -231.434)"/>
                </g>
              </g>
            </g>
          </g>
          <path id="Trazado_990561" data-name="Trazado 990561" d="M313.8,275.872a22.6,22.6,0,0,0,12.541-1.247" transform="translate(-225.293 -221.939)" fill="none" stroke="#222221" stroke-linecap="round" stroke-linejoin="round" stroke-miterlimit="10" stroke-width="1"/>
          <path id="Trazado_990562" data-name="Trazado 990562" d="M328.412,262.964a23.936,23.936,0,0,0,13.308,13.5" transform="translate(-257.637 -223.826)" fill="none" stroke="#222221" stroke-linecap="round" stroke-linejoin="round" stroke-miterlimit="10" stroke-width="1"/>
          <path id="Trazado_990563" data-name="Trazado 990563" d="M380,256.306a7.608,7.608,0,0,1-5.24,5.3" transform="translate(-349.766 -224.903)" fill="none" stroke="#222221" stroke-linecap="round" stroke-linejoin="round" stroke-miterlimit="10" stroke-width="1"/>
          <path id="Trazado_990564" data-name="Trazado 990564" d="M374.673,247.041a7.978,7.978,0,0,1,6.555,6.3" transform="translate(-350.893 -226.402)" fill="none" stroke="#222221" stroke-linecap="round" stroke-linejoin="round" stroke-miterlimit="10" stroke-width="1"/>
          <path id="Trazado_990565" data-name="Trazado 990565" d="M388.989,262.5c-5.286-2.453-6.585-9.879-2.164-13.78" transform="translate(-369.667 -226.131)" fill="none" stroke="#222221" stroke-linecap="round" stroke-linejoin="round" stroke-miterlimit="10" stroke-width="1"/>
        </g>
        <path id="Trazado_990566" data-name="Trazado 990566" d="M298.877,282.491" transform="translate(-169.6 -212.758)" fill="none" stroke="#000" stroke-linecap="round" stroke-miterlimit="10" stroke-width="1"/>
        <path id="Trazado_990567" data-name="Trazado 990567" d="M405.029,284.563H381.724" transform="translate(-372.005 -212.423)" fill="none" stroke="#000" stroke-linecap="round" stroke-miterlimit="10" stroke-width="1"/>
        <path id="Trazado_990568" data-name="Trazado 990568" d="M307.668,284.563c-5.066.1-2,.179-7.065.243" transform="translate(-180.396 -212.423)" fill="none" stroke="#000" stroke-linecap="round" stroke-miterlimit="10" stroke-width="1"/>
      </g>
      <g id="Grupo_1157380" data-name="Grupo 1157380" transform="translate(231.318 132.089)">
        <g id="Grupo_1157378" data-name="Grupo 1157378">
          <path id="Trazado_990569" data-name="Trazado 990569" d="M275.379,176.949l5.658,7.385a3.806,3.806,0,0,1,.55,1.973v37.8a3.9,3.9,0,0,1-3.936,3.869l-36.385-.136c-.49.031-2.425.091-3.344-.813-1.325-1.3-4.646-4.072-6.116-5.287a.843.843,0,0,1-.056-1.254Z" transform="translate(-229.742 -175.389)" fill="none" stroke="#000" stroke-linecap="round" stroke-linejoin="round" stroke-miterlimit="10" stroke-width="1"/>
          <path id="Trazado_990570" data-name="Trazado 990570" d="M240.077,222.225h38.669a3.828,3.828,0,0,0,3.828-3.829V179.435a3.829,3.829,0,0,0-3.829-3.829H240.076a3.828,3.828,0,0,0-3.828,3.829V218.4A3.83,3.83,0,0,0,240.077,222.225Z" transform="translate(-236.248 -175.606)" fill="#8cc9de" stroke="#8cc9de" stroke-miterlimit="10" stroke-width="1"/>
          <path id="Trazado_990571" data-name="Trazado 990571" d="M264.69,212.437a3.829,3.829,0,0,0,3.828,3.829h9.453" transform="translate(-264.689 -169.646)" fill="none" stroke="#000" stroke-miterlimit="10" stroke-width="1"/>
          <line id="Línea_1543" data-name="Línea 1543" y2="18.456" transform="translate(0.001 12.646)" fill="none" stroke="#000" stroke-miterlimit="10" stroke-width="1"/>
          <path id="Trazado_990572" data-name="Trazado 990572" d="M282.574,189.456v-10.02a3.829,3.829,0,0,0-3.829-3.829H240.075a3.828,3.828,0,0,0-3.828,3.829" transform="translate(-236.246 -175.606)" fill="none" stroke="#000" stroke-miterlimit="10" stroke-width="1"/>
          <path id="Trazado_990573" data-name="Trazado 990573" d="M236.247,218.285h14.774a3.828,3.828,0,0,0,3.828-3.829v-14.5" transform="translate(-208.521 -171.665)" fill="none" stroke="#000" stroke-miterlimit="10" stroke-width="1"/>
        </g>
        <g id="Grupo_1157379" data-name="Grupo 1157379" transform="translate(9.988 7.049)">
          <path id="Trazado_990574" data-name="Trazado 990574" d="M244.74,193.87l12.685-12.2,13.787,12.2h-6.618v19.786H251.358V193.87Z" transform="translate(-244.74 -181.673)" fill="none" stroke="#000" stroke-miterlimit="10" stroke-width="1"/>
        </g>
      </g>
      <g id="Grupo_1157382" data-name="Grupo 1157382" transform="translate(112.16 352.449)">
        <g id="Grupo_1157381" data-name="Grupo 1157381">
          <path id="Trazado_990575" data-name="Trazado 990575" d="M337.073,392.122A18.848,18.848,0,1,1,367.719,407.1a13.979,13.979,0,0,0-5.247,9.187l-1.219,10.143-11.726-.182-.9-10.179a13.852,13.852,0,0,0-4.915-9.305A18.787,18.787,0,0,1,337.073,392.122Z" transform="translate(-326.421 -363.931)" fill="#d16e4f"/>
          <path id="Trazado_990576" data-name="Trazado 990576" d="M352.308,417.089q-1.169-6.342-2.338-12.686-.831-4.5-1.66-9.011c-.423-2.291-2.469-6.562,1.259-7.3a2.417,2.417,0,0,1,2.855,2.312,1.4,1.4,0,0,1-.347.859,1.312,1.312,0,0,1-2.065-.72,2.015,2.015,0,0,1,1.228-2.14,2.853,2.853,0,0,1,3.834,2.12.686.686,0,0,1-.067.475c-.22.324-.76.129-.963-.206a1.572,1.572,0,0,1,.72-2.07,2.938,2.938,0,0,1,2.381,0c1.129.421,2.214,1.582,1.786,2.709a.72.72,0,0,1-.467.48.668.668,0,0,1-.409-.062c-2.185-.986.812-4.251,2.882-3.225a3.978,3.978,0,0,1,1.947,3.441,12.866,12.866,0,0,1-.733,4.064,86.866,86.866,0,0,0-3.246,19.887,2.893,2.893,0,0,0,.36,1.673" transform="translate(-326.509 -361.586)" fill="none" stroke="#222221" stroke-linecap="round" stroke-miterlimit="10" stroke-width="1"/>
          <path id="Trazado_990577" data-name="Trazado 990577" d="M334.161,385.612l-5.765.8" transform="translate(-275.736 -361.982)" fill="none" stroke="#222221" stroke-linecap="round" stroke-miterlimit="10" stroke-width="1"/>
          <line id="Línea_1544" data-name="Línea 1544" x1="4.413" y2="4.011" transform="translate(48.941 9.606)" fill="none" stroke="#222221" stroke-linecap="round" stroke-miterlimit="10" stroke-width="1"/>
          <path id="Trazado_990578" data-name="Trazado 990578" d="M349.319,365.721c-.287,1.477-.579,3.913-.866,5.39" transform="translate(-314.197 -365.201)" fill="none" stroke="#222221" stroke-linecap="round" stroke-miterlimit="10" stroke-width="1"/>
          <path id="Trazado_990579" data-name="Trazado 990579" d="M358.346,365.273c.417,3.173.7,5.349.873,6.64" transform="translate(-335.59 -365.273)" fill="none" stroke="#222221" stroke-linecap="round" stroke-miterlimit="10" stroke-width="1"/>
          <path id="Trazado_990580" data-name="Trazado 990580" d="M369.495,376.237l5.73,4.015" transform="translate(-364.55 -363.499)" fill="none" stroke="#222221" stroke-linecap="round" stroke-miterlimit="10" stroke-width="1"/>
          <path id="Trazado_990581" data-name="Trazado 990581" d="M379.546,387.412l-6.2.408" transform="translate(-373.348 -361.69)" fill="none" stroke="#222221" stroke-linecap="round" stroke-miterlimit="10" stroke-width="1"/>
          <path id="Trazado_990582" data-name="Trazado 990582" d="M367.556,379.38a13.534,13.534,0,0,0-5.481,11.314" transform="translate(-348.248 -362.99)" fill="none" stroke="#222221" stroke-linecap="round" stroke-miterlimit="10" stroke-width="1"/>
          <path id="Trazado_990583" data-name="Trazado 990583" d="M363.157,394.56a12.955,12.955,0,0,0,3.426,5.643" transform="translate(-348.545 -360.534)" fill="none" stroke="#222221" stroke-linecap="round" stroke-miterlimit="10" stroke-width="1"/>
        </g>
        <path id="Trazado_990584" data-name="Trazado 990584" d="M349.608,424.4H359.4a1.991,1.991,0,0,0,1.991-1.991V412.34H347.615v10.07A1.993,1.993,0,0,0,349.608,424.4Z" transform="translate(-325.298 -357.656)" fill="#4764a8"/>
      </g>
      <g id="Grupo_1157390" data-name="Grupo 1157390" transform="translate(30.01 279.455)">
        <g id="Grupo_1157383" data-name="Grupo 1157383" transform="translate(43.679)">
          <path id="Trazado_990585" data-name="Trazado 990585" d="M365.028,336.141a4.674,4.674,0,0,0,.5.014,4.48,4.48,0,0,0,4.18-4.83,4.6,4.6,0,0,0-4.927-4.178,4.389,4.389,0,0,0-.5.086,26.719,26.719,0,0,1,.952-5.189c.132.08.256.173.4.242a4.509,4.509,0,1,0,3.907-8.127,4.746,4.746,0,0,0-.469-.17,26.9,26.9,0,0,1,3.437-4.015,4.476,4.476,0,0,0,.232.417,4.62,4.62,0,0,0,6.356,1.2,4.32,4.32,0,0,0,.818-6.668,27.823,27.823,0,0,1,5.041-1.771,4.307,4.307,0,0,0-.009.505,4.6,4.6,0,0,0,4.926,4.178,4.481,4.481,0,0,0,4.18-4.83,4.287,4.287,0,0,0-.106-.565,27.853,27.853,0,0,1,5.327.971,4.359,4.359,0,0,0-.3.481,4.578,4.578,0,1,0,8.478,3.337,27.854,27.854,0,0,1,4.192,3.5,4.358,4.358,0,0,0-1.725,6.577,4.62,4.62,0,0,0,6.356,1.2,4.553,4.553,0,0,0,.537-.446,27.584,27.584,0,0,1,1.887,5.12,4.622,4.622,0,0,0-.7-.02,4.481,4.481,0,0,0-4.18,4.83,4.6,4.6,0,0,0,4.926,4.178,4.491,4.491,0,0,0,.737-.128,26.676,26.676,0,0,1-.968,5.363,4.508,4.508,0,0,0-6.7,1.72,4.525,4.525,0,0,0,2.176,6.033,4.661,4.661,0,0,0,.712.257,26.923,26.923,0,0,1-3.562,4.137,4.442,4.442,0,0,0-.35-.627,4.621,4.621,0,0,0-6.356-1.2A4.464,4.464,0,0,0,403.278,354a4.682,4.682,0,0,0,.471.551,27.95,27.95,0,0,1-5.176,1.782,4.434,4.434,0,0,0,.013-.67,4.6,4.6,0,0,0-4.926-4.178,4.481,4.481,0,0,0-4.18,4.83,4.564,4.564,0,0,0,.122.658,27.854,27.854,0,0,1-5.369-1.026,4.355,4.355,0,0,0-1.857-6.553,4.558,4.558,0,0,0-6.083,2.094,4.372,4.372,0,0,0-.2.56,27.763,27.763,0,0,1-4.124-3.5,4.527,4.527,0,0,0,.484-.26,4.464,4.464,0,0,0,1.157-6.272,4.621,4.621,0,0,0-6.356-1.2,4.434,4.434,0,0,0-.414.345A27.681,27.681,0,0,1,365.028,336.141ZM389.2,342.3a12.865,12.865,0,1,0-10.074-15.351A12.914,12.914,0,0,0,389.2,342.3Z" transform="translate(-364.279 -302.446)" fill="#8cc9de" stroke="#8cc9de" stroke-miterlimit="10" stroke-width="1"/>
          <path id="Trazado_990586" data-name="Trazado 990586" d="M393.811,312.072a16.515,16.515,0,1,0,12.935,19.708A16.576,16.576,0,0,0,393.811,312.072Z" transform="translate(-362.77 -300.951)" fill="none" stroke="#222221" stroke-linecap="round" stroke-linejoin="round" stroke-miterlimit="10" stroke-width="1"/>
        </g>
        <g id="Grupo_1157389" data-name="Grupo 1157389" transform="translate(0 15.616)">
          <g id="Grupo_1157388" data-name="Grupo 1157388">
            <g id="Grupo_1157387" data-name="Grupo 1157387">
              <g id="Grupo_1157386" data-name="Grupo 1157386">
                <g id="Grupo_1157385" data-name="Grupo 1157385">
                  <g id="Grupo_1157384" data-name="Grupo 1157384">
                    <path id="Trazado_990587" data-name="Trazado 990587" d="M415.147,325.14a21.545,21.545,0,0,1,2.755-3.218,3.643,3.643,0,0,0,.186.335,3.7,3.7,0,0,0,5.095.965,3.462,3.462,0,0,0,.655-5.344,22.311,22.311,0,0,1,4.04-1.42,3.594,3.594,0,0,0-.008.4,3.691,3.691,0,0,0,3.948,3.35,3.592,3.592,0,0,0,3.351-3.871,3.455,3.455,0,0,0-.085-.453,22.378,22.378,0,0,1,4.27.778,3.569,3.569,0,0,0-.237.386,3.668,3.668,0,0,0,6.62,3.158,3.591,3.591,0,0,0,.174-.483,22.315,22.315,0,0,1,3.36,2.8,3.659,3.659,0,0,0-.455.244,3.577,3.577,0,0,0-.927,5.026,3.6,3.6,0,0,0,5.525.608,22.162,22.162,0,0,1,1.513,4.1,3.7,3.7,0,0,0-.558-.016,3.592,3.592,0,0,0-3.351,3.871,3.692,3.692,0,0,0,3.948,3.35,3.617,3.617,0,0,0,.59-.1,21.472,21.472,0,0,1-.775,4.3,3.854,3.854,0,0,0-.5-.3,3.614,3.614,0,1,0-3.132,6.513,3.776,3.776,0,0,0,.57.206,21.522,21.522,0,0,1-2.856,3.316,3.587,3.587,0,0,0-.28-.5,3.7,3.7,0,0,0-5.095-.965,3.578,3.578,0,0,0-.927,5.027,3.54,3.54,0,0,0,.378.441,22.24,22.24,0,0,1-4.149,1.428,3.588,3.588,0,0,0,.01-.537,3.691,3.691,0,0,0-3.949-3.35,3.5,3.5,0,0,0-3.253,4.4,22.337,22.337,0,0,1-4.3-.821,3.493,3.493,0,0,0,.256-.416,3.668,3.668,0,0,0-6.62-3.158,3.447,3.447,0,0,0-.162.448,22.274,22.274,0,0,1-3.305-2.8,3.455,3.455,0,0,0,1.315-5.235,3.7,3.7,0,0,0-5.095-.965,3.66,3.66,0,0,0-.332.276,22.062,22.062,0,0,1-1.45-4.018,3.771,3.771,0,0,0,.4.012,3.592,3.592,0,0,0,3.351-3.871,3.69,3.69,0,0,0-3.949-3.348,4.035,4.035,0,0,0-.4.069,21.463,21.463,0,0,1,.762-4.159,3.529,3.529,0,0,0,.319.193,3.614,3.614,0,1,0,3.132-6.513A3.611,3.611,0,0,0,415.147,325.14Zm6.381,6.912a13.2,13.2,0,1,0,17.544-6.036A13.051,13.051,0,0,0,421.528,332.052Z" transform="translate(-411.305 -315.887)" fill="#8cc9de" stroke="#8cc9de" stroke-miterlimit="10" stroke-width="1"/>
                  </g>
                </g>
              </g>
            </g>
          </g>
          <path id="Trazado_990588" data-name="Trazado 990588" d="M418.545,330.162a15.453,15.453,0,1,0,20.543-7.069A15.282,15.282,0,0,0,418.545,330.162Z" transform="translate(-410.359 -314.968)" fill="none" stroke="#222221" stroke-linecap="round" stroke-linejoin="round" stroke-miterlimit="10" stroke-width="1"/>
        </g>
      </g>
      <g id="Grupo_1157391" data-name="Grupo 1157391" transform="translate(31.735 435.864)">
        <path id="Trazado_990589" data-name="Trazado 990589" d="M453.086,437.206c-13.082-.157-24.7-.157-37.188,0" transform="translate(-415.898 -437.067)" fill="none" stroke="#000" stroke-linecap="round" stroke-linejoin="round" stroke-miterlimit="10" stroke-width="1"/>
        <path id="Trazado_990590" data-name="Trazado 990590" d="M432.039,437.093q-92.1-.061-184.729.116" transform="translate(-198.982 -437.07)" fill="none" stroke="#000" stroke-linecap="round" stroke-linejoin="round" stroke-miterlimit="10" stroke-width="1"/>
        <path id="Trazado_990591" data-name="Trazado 990591" d="M376.1,441.754q-92.1-.061-184.729.116" transform="translate(-78.045 -436.316)" fill="none" stroke="#000" stroke-linecap="round" stroke-linejoin="round" stroke-miterlimit="10" stroke-width="1"/>
        <path id="Trazado_990592" data-name="Trazado 990592" d="M268.712,437.209c-73.27-.157-145.3-.157-218.618-.117" transform="translate(193.476 -437.07)" fill="none" stroke="#000" stroke-linecap="round" stroke-linejoin="round" stroke-miterlimit="10" stroke-width="1"/>
      </g>
      <g id="Grupo_1157392" data-name="Grupo 1157392" transform="translate(238.541 209.424)">
        <path id="Trazado_990593" data-name="Trazado 990593" d="M274.058,242.169a29.815,29.815,0,0,0-29.815,29.815" transform="translate(-244.243 -242.169)" fill="none" stroke="#000" stroke-miterlimit="10" stroke-width="3"/>
        <path id="Trazado_990594" data-name="Trazado 990594" d="M262.733,251.916a18.49,18.49,0,0,0-18.49,18.49" transform="translate(-232.919 -240.592)" fill="none" stroke="#000" stroke-miterlimit="10" stroke-width="3"/>
        <path id="Trazado_990595" data-name="Trazado 990595" d="M252.879,260.4a8.636,8.636,0,0,0-8.636,8.636" transform="translate(-223.064 -239.219)" fill="none" stroke="#000" stroke-miterlimit="10" stroke-width="3"/>
      </g>
    </g>
  </g>
</svg>
