<svg xmlns="http://www.w3.org/2000/svg" xmlns:xlink="http://www.w3.org/1999/xlink" width="108" height="108" viewBox="0 0 108 108">
  <defs>
    <filter id="Trazado_982548" x="0" y="0" width="108" height="108" filterUnits="userSpaceOnUse">
      <feOffset dy="3" input="SourceAlpha"/>
      <feGaussianBlur stdDeviation="3" result="blur"/>
      <feFlood flood-opacity="0.161"/>
      <feComposite operator="in" in2="blur"/>
      <feComposite in="SourceGraphic"/>
    </filter>
  </defs>
  <g id="Grupo_1156748" data-name="Grupo 1156748" transform="translate(-606 -810)">
    <g id="Grupo_1151696" data-name="Grupo 1151696" transform="translate(414 274)">
      <g id="Grupo_1149912" data-name="Grupo 1149912" transform="translate(-9 -4313)">
        <g transform="matrix(1, 0, 0, 1, 201, 4849)" filter="url(#Trazado_982548)">
          <g id="Trazado_982548-2" data-name="Trazado 982548" transform="translate(9 6)" fill="#eaf2fb">
            <path d="M 45 88.5 C 39.12687683105469 88.5 33.43022537231445 87.35007476806641 28.06830024719238 85.08217620849609 C 22.88852500915527 82.89131164550781 18.23629951477051 79.75458526611328 14.2408504486084 75.75914764404297 C 10.24541282653809 71.76370239257812 7.108687400817871 67.11147308349609 4.917825222015381 61.93170166015625 C 2.649924993515015 56.56977462768555 1.5 50.87312316894531 1.5 45 C 1.5 39.12687683105469 2.649924993515015 33.43022537231445 4.917825222015381 28.06830024719238 C 7.108687400817871 22.88852500915527 10.24541282653809 18.23629951477051 14.2408504486084 14.2408504486084 C 18.23629951477051 10.24541282653809 22.88852500915527 7.108687400817871 28.06830024719238 4.917825222015381 C 33.43022537231445 2.649924993515015 39.12687683105469 1.5 45 1.5 C 50.87312316894531 1.5 56.56977462768555 2.649924993515015 61.93170166015625 4.917825222015381 C 67.11147308349609 7.108687400817871 71.76370239257812 10.24541282653809 75.75914764404297 14.2408504486084 C 79.75458526611328 18.23629951477051 82.89131164550781 22.88852500915527 85.08217620849609 28.06830024719238 C 87.35007476806641 33.43022537231445 88.5 39.12687683105469 88.5 45 C 88.5 50.87312316894531 87.35007476806641 56.56977462768555 85.08217620849609 61.93170166015625 C 82.89131164550781 67.11147308349609 79.75458526611328 71.76370239257812 75.75914764404297 75.75914764404297 C 71.76370239257812 79.75458526611328 67.11147308349609 82.89131164550781 61.93170166015625 85.08217620849609 C 56.56977462768555 87.35007476806641 50.87312316894531 88.5 45 88.5 Z" stroke="none"/>
            <path d="M 45 3 C 39.32871246337891 3 33.82865524291992 4.110054016113281 28.65262985229492 6.299339294433594 C 23.65165710449219 8.414573669433594 19.15968322753906 11.44334411621094 15.301513671875 15.301513671875 C 11.44334411621094 19.15968322753906 8.414573669433594 23.65165710449219 6.299339294433594 28.65262985229492 C 4.110054016113281 33.82865524291992 3 39.32871246337891 3 45 C 3 50.67128753662109 4.110054016113281 56.17134475708008 6.299339294433594 61.34737396240234 C 8.414573669433594 66.34834289550781 11.44334411621094 70.84031677246094 15.301513671875 74.698486328125 C 19.15968322753906 78.55665588378906 23.65165710449219 81.58542633056641 28.65262985229492 83.70066070556641 C 33.82865524291992 85.88994598388672 39.32871246337891 87 45 87 C 50.67128753662109 87 56.17134475708008 85.88994598388672 61.34737396240234 83.70066070556641 C 66.34834289550781 81.58542633056641 70.84031677246094 78.55665588378906 74.698486328125 74.698486328125 C 78.55665588378906 70.84031677246094 81.58542633056641 66.34834289550781 83.70066070556641 61.34737396240234 C 85.88994598388672 56.17134475708008 87 50.67128753662109 87 45 C 87 39.32871246337891 85.88994598388672 33.82865524291992 83.70066070556641 28.65262985229492 C 81.58542633056641 23.65165710449219 78.55665588378906 19.15968322753906 74.698486328125 15.301513671875 C 70.84031677246094 11.44334411621094 66.34834289550781 8.414573669433594 61.34737396240234 6.299339294433594 C 56.17134475708008 4.110054016113281 50.67128753662109 3 45 3 M 45 0 C 69.85281372070312 0 90 20.14718627929688 90 45 C 90 69.85281372070312 69.85281372070312 90 45 90 C 20.14718627929688 90 0 69.85281372070312 0 45 C 0 20.14718627929688 20.14718627929688 0 45 0 Z" stroke="none" fill="#3b89e1"/>
          </g>
        </g>
      </g>
    </g>
    <g id="cohete" transform="translate(633 827)">
      <g id="Grupo_1156747" data-name="Grupo 1156747" transform="translate(0.81 8.805)">
        <path id="Trazado_989989" data-name="Trazado 989989" d="M18.907,313.093c-3.39.177-9.184,2.1-8.624,6.112,1.415,10.184-9.728,13.453,5.1,13.453,7.46,0,12.162-3.269,12.873-10.132l-2.014-7.78Z" transform="translate(-7.586 -281.342)" fill="#fe636e" fill-rule="evenodd"/>
        <path id="Trazado_989990" data-name="Trazado 989990" d="M94.655,338.33c-1.572.082-4.264.973-4.007,2.839.659,4.73-4.518,6.246,2.371,6.246,3.465,0,5.652-1.516,5.981-4.706l-.762-3.843Z" transform="translate(-80.667 -303.886)" fill="#ffd659" fill-rule="evenodd"/>
        <path id="Trazado_989991" data-name="Trazado 989991" d="M24.982,382.619c-2.014,3.663-6.009,5.429-11.491,5.429a41.922,41.922,0,0,1-4.923-.217c-1.585,3.367-2.356,4.621,6.822,4.621,7.46,0,12.162-3.269,12.873-10.132l-1.693-1.708-.578-.583c-.051.2-.106.39-.166.583a5.03,5.03,0,0,1-.844,2.007Z" transform="translate(-7.591 -341.136)" fill="#fb2a39" fill-rule="evenodd"/>
        <path id="Trazado_989992" data-name="Trazado 989992" d="M97.416,364.482c-.741,2.287-2.761,3.382-5.706,3.382-.59,0-1.089-.009-1.512-.034-.868,2.172-2.111,2.946,2.815,2.946,2.3,0,4.034-.665,5.038-2.046a5.031,5.031,0,0,0,.844-2.007c.042-.21.076-.427.1-.653Z" transform="translate(-80.661 -327.247)" fill="#ffbf00" fill-rule="evenodd"/>
        <path id="Trazado_989993" data-name="Trazado 989993" d="M109.935,260.789l-4.421,2.592c-.889.521-.741,1.918-.033,2.635l.354.354,2.667,2.693,4.345,4.38,2.338,2.361,1.219,1.229c.711.714,2.1.86,2.613-.034l2.567-4.462-2.906-11.3Z" transform="translate(-94.514 -234.619)" fill="#838383" fill-rule="evenodd"/>
        <path id="Trazado_989994" data-name="Trazado 989994" d="M398.115,15.682c-2.126-.393-6,.018-10.717,1.629l2.123,7.869,8.621,2.94c1.6-4.788,2-8.711,1.6-10.839C399.506,16.039,399.355,15.911,398.115,15.682Z" transform="translate(-346.868 -15.543)" fill="#838383" fill-rule="evenodd"/>
        <path id="Trazado_989995" data-name="Trazado 989995" d="M101.118,89.7c-5.9-2.15-10.475-1.171-15.111,3.062-2.15,2.086-5.727,4.828-2.773,7.808l3.674,3.706,10.56-5.38Z" transform="translate(-74.16 -80.799)" fill="#03bed7" fill-rule="evenodd"/>
        <path id="Trazado_989996" data-name="Trazado 989996" d="M300.794,261.846l-9.925,4.139-4.527,10.2,3.674,3.706c2.954,2.98,5.673-.628,7.741-2.8C299.9,274.7,303.721,270.145,300.794,261.846Z" transform="translate(-256.596 -235.563)" fill="#03bed7" fill-rule="evenodd"/>
        <path id="Trazado_989997" data-name="Trazado 989997" d="M141.262,39.239a60.63,60.63,0,0,0-14.21,14.576l2.673,2.7,5.824,5.874,5.824,5.874,1.947,1.964.729.735A60.567,60.567,0,0,0,158.5,56.623a54.2,54.2,0,0,0,6.238-11.407c.309-.784.59-1.552.838-2.3L154.833,32.108a52.289,52.289,0,0,0-13.572,7.131Z" transform="translate(-114.304 -30.34)" fill="#ececec" fill-rule="evenodd"/>
        <path id="Trazado_989998" data-name="Trazado 989998" d="M275.449,122.349a7.342,7.342,0,0,0-10.445.134,7.5,7.5,0,0,0-.133,10.534,7.342,7.342,0,0,0,10.445-.134A7.5,7.5,0,0,0,275.449,122.349Z" transform="translate(-235.543 -109.062)" fill="#a6e7f0" fill-rule="evenodd"/>
        <path id="Trazado_989999" data-name="Trazado 989999" d="M467.364,15.988a26.854,26.854,0,0,1-1.7,10.12l2.392,2.409c1.6-4.788,2-8.711,1.6-10.839-.236-1.241-.387-1.369-1.627-1.6-.209-.039-.429-.07-.668-.091Z" transform="translate(-416.786 -15.941)" fill="#595959" fill-rule="evenodd"/>
        <path id="Trazado_990000" data-name="Trazado 990000" d="M284.639,113.124A54.136,54.136,0,0,1,278.4,124.53a58.5,58.5,0,0,1-4.079,5.106,60.427,60.427,0,0,1-5.032,5,63,63,0,0,1-5.334,4.224l1.66,1.674.729.735A60.568,60.568,0,0,0,280.8,126.937a54.2,54.2,0,0,0,6.238-11.407c.309-.784.59-1.552.838-2.3l-2.392-2.409c-.157.467-.324.939-.505,1.421C284.869,112.532,284.757,112.828,284.639,113.124Z" transform="translate(-236.598 -100.654)" fill="#cecece" fill-rule="evenodd"/>
        <path id="Trazado_990001" data-name="Trazado 990001" d="M190.61,343.36l-2.567,4.462c-.517.894-1.9.747-2.613.034l1.693,1.708,1.219,1.229c.711.714,2.1.86,2.613-.033l2.567-4.462Z" transform="translate(-166.452 -308.379)" fill="#595959" fill-rule="evenodd"/>
        <path id="Trazado_990002" data-name="Trazado 990002" d="M285.98,124.055a7.575,7.575,0,0,1-8.395,11.8,7.135,7.135,0,0,0,.517.579,7.342,7.342,0,0,0,10.445-.134,7.5,7.5,0,0,0,.133-10.534A7.073,7.073,0,0,0,285.98,124.055Z" transform="translate(-248.774 -112.476)" fill="#6bd9e7" fill-rule="evenodd"/>
        <path id="Trazado_990003" data-name="Trazado 990003" d="M323.831,261.846q-.73,1.029-1.53,2.056c.689,5.816-2.223,9.269-3.995,11.245-1.7,1.778-3.831,4.526-6.175,3.809l.922.93c2.954,2.98,5.673-.628,7.741-2.8C322.939,274.7,326.758,270.145,323.831,261.846Z" transform="translate(-279.633 -235.563)" fill="#0099b1" fill-rule="evenodd"/>
        <path id="Trazado_990004" data-name="Trazado 990004" d="M118.206,89.871a60.637,60.637,0,0,0-12.776,13.215l2.307,2.327a60.634,60.634,0,0,1,14.21-14.576A18.488,18.488,0,0,0,118.206,89.871Z" transform="translate(-94.989 -81.94)" fill="#0099b1" fill-rule="evenodd"/>
      </g>
      <path id="Trazado_990005" data-name="Trazado 990005" d="M54.475,10.391c-.3-1.552-.7-1.95-2.272-2.241-2.718-.5-8.523.14-15.944,3.606a.806.806,0,0,0,.683,1.461c1.446-.676,2.847-1.246,4.181-1.719L51.159,21.6q-.3.871-.664,1.789A57.357,57.357,0,0,1,30.645,48.367l-7.454-7.518,3.558-3.586A.806.806,0,0,0,25.6,36.127L22.055,39.7l-7.45-7.513A58.912,58.912,0,0,1,33.476,15a.806.806,0,0,0-.791-1.405,56.034,56.034,0,0,0-5.04,3.209c-5.945-2.047-10.751-1-15.532,3.364l-.018.017c-.2.2-.42.4-.65.616-1.538,1.445-3.452,3.242-3.489,5.347a4.114,4.114,0,0,0,1.355,2.991l3.674,3.706L14.927,34.8,11.4,36.872a2.057,2.057,0,0,0-.993,1.55,2.865,2.865,0,0,0,.223,1.486c-2.509.4-5.381,1.5-6.88,3.316a4.438,4.438,0,0,0-1.045,3.555A14.334,14.334,0,0,1,.965,55.349C.212,56.946-.384,58.209.3,59.29c.777,1.225,2.872,1.638,8.306,1.638,3.962,0,7.144-.894,9.457-2.658a10.735,10.735,0,0,0,3.968-6.579l.1.1a2.9,2.9,0,0,0,2.007.824,2.511,2.511,0,0,0,.324-.021,2.047,2.047,0,0,0,1.553-1l2.04-3.546,1.2,1.213h0l4.4,4.441a4.083,4.083,0,0,0,2.913,1.369h.062c2.094-.037,3.878-1.969,5.311-3.522.213-.231.415-.449.611-.655l.017-.018c1.874-2.09,6.225-6.943,3.332-15.654A54.466,54.466,0,0,0,52,23.977c2.519-6.387,2.933-11.206,2.479-13.586ZM9.569,26.178c.025-1.424,1.664-2.963,2.981-4.2.231-.217.449-.422.659-.626,4.051-3.7,7.959-4.74,12.833-3.361A62.023,62.023,0,0,0,13.454,31.029l-3-3.024a2.546,2.546,0,0,1-.887-1.827ZM8.607,59.315a34.6,34.6,0,0,1-5.347-.287c-1.228-.208-1.525-.49-1.6-.6-.21-.332.283-1.378.76-2.39A15.937,15.937,0,0,0,4.3,46.557,2.848,2.848,0,0,1,5,44.251c1.357-1.644,4.384-2.66,6.819-2.864l1.324,1.335a5.105,5.105,0,0,0-2.564,1.49A2.514,2.514,0,0,0,9.992,46.2a6.2,6.2,0,0,1-.771,3.736c-.374.793-.727,1.542-.282,2.244.461.727,1.487.961,4.223.961,3.376,0,5.616-1.365,6.458-3.883l1.013,1.022c-.769,5.995-4.811,9.035-12.025,9.035ZM11.59,45.979a.905.905,0,0,1,.228-.739,4.482,4.482,0,0,1,2.674-1.153l3.8,3.831c-.394,2.4-2.117,3.611-5.129,3.611a10.4,10.4,0,0,1-2.784-.21c.06-.182.2-.47.3-.694a7.773,7.773,0,0,0,.91-4.646Zm13.024,4.8a.436.436,0,0,1-.364.21,1.264,1.264,0,0,1-.978-.341l-3.526-3.556a.792.792,0,0,0-.065-.065l-6.944-7a.815.815,0,0,0-.075-.075l-.312-.315a1.3,1.3,0,0,1-.342-1,.443.443,0,0,1,.21-.369L16.1,35.987l5.388,5.434h0l5.386,5.432Zm16.765-1c-.2.212-.406.432-.621.665-1.225,1.327-2.75,2.978-4.155,3a2.5,2.5,0,0,1-1.8-.892l-3.01-3.036a61.581,61.581,0,0,0,12.75-12.442c.057-.075.113-.151.17-.227,1.889,7.09-1.592,10.987-3.333,12.928Zm1.455-38.851c3.993-1.226,7.238-1.536,9.075-1.2a2.587,2.587,0,0,1,.775.2,2.11,2.11,0,0,1,.207.751c.312,1.64.126,4.866-1.172,9.178Z" transform="translate(0 0)"/>
      <path id="Trazado_990006" data-name="Trazado 990006" d="M265.159,127.3a.806.806,0,1,0,.462,1.545,8.43,8.43,0,0,0,3.559-2.141,8.313,8.313,0,0,0,.133-11.67,7.928,7.928,0,0,0-5.673-2.354,8.393,8.393,0,0,0-6.05,14.159,7.953,7.953,0,0,0,3.336,2.01.806.806,0,0,0,.466-1.544,6.248,6.248,0,0,1-2.657-1.6,6.78,6.78,0,0,1,4.905-11.41,6.327,6.327,0,0,1,4.528,1.877,6.7,6.7,0,0,1-.133,9.4A6.815,6.815,0,0,1,265.159,127.3Z" transform="translate(-228.024 -93.505)"/>
    </g>
  </g>
</svg>
