<svg xmlns="http://www.w3.org/2000/svg" xmlns:xlink="http://www.w3.org/1999/xlink" width="108" height="108" viewBox="0 0 108 108">
  <defs>
    <filter id="Trazado_982548" x="0" y="0" width="108" height="108" filterUnits="userSpaceOnUse">
      <feOffset dy="3" input="SourceAlpha"/>
      <feGaussianBlur stdDeviation="3" result="blur"/>
      <feFlood flood-opacity="0.161"/>
      <feComposite operator="in" in2="blur"/>
      <feComposite in="SourceGraphic"/>
    </filter>
  </defs>
  <g id="Grupo_1156765" data-name="Grupo 1156765" transform="translate(-192 -780)">
    <g id="Grupo_1151698" data-name="Grupo 1151698" transform="translate(0 244)">
      <g id="Grupo_1149912" data-name="Grupo 1149912" transform="translate(-9 -4313)">
        <g transform="matrix(1, 0, 0, 1, 201, 4849)" filter="url(#Trazado_982548)">
          <g id="Trazado_982548-2" data-name="Trazado 982548" transform="translate(9 6)" fill="#eaf2fb">
            <path d="M 45 88.5 C 39.12687683105469 88.5 33.43022537231445 87.35007476806641 28.06830024719238 85.08217620849609 C 22.88852500915527 82.89131164550781 18.23629951477051 79.75458526611328 14.2408504486084 75.75914764404297 C 10.24541282653809 71.76370239257812 7.108687400817871 67.11147308349609 4.917825222015381 61.93170166015625 C 2.649924993515015 56.56977462768555 1.5 50.87312316894531 1.5 45 C 1.5 39.12687683105469 2.649924993515015 33.43022537231445 4.917825222015381 28.06830024719238 C 7.108687400817871 22.88852500915527 10.24541282653809 18.23629951477051 14.2408504486084 14.2408504486084 C 18.23629951477051 10.24541282653809 22.88852500915527 7.108687400817871 28.06830024719238 4.917825222015381 C 33.43022537231445 2.649924993515015 39.12687683105469 1.5 45 1.5 C 50.87312316894531 1.5 56.56977462768555 2.649924993515015 61.93170166015625 4.917825222015381 C 67.11147308349609 7.108687400817871 71.76370239257812 10.24541282653809 75.75914764404297 14.2408504486084 C 79.75458526611328 18.23629951477051 82.89131164550781 22.88852500915527 85.08217620849609 28.06830024719238 C 87.35007476806641 33.43022537231445 88.5 39.12687683105469 88.5 45 C 88.5 50.87312316894531 87.35007476806641 56.56977462768555 85.08217620849609 61.93170166015625 C 82.89131164550781 67.11147308349609 79.75458526611328 71.76370239257812 75.75914764404297 75.75914764404297 C 71.76370239257812 79.75458526611328 67.11147308349609 82.89131164550781 61.93170166015625 85.08217620849609 C 56.56977462768555 87.35007476806641 50.87312316894531 88.5 45 88.5 Z" stroke="none"/>
            <path d="M 45 3 C 39.32871246337891 3 33.82865524291992 4.110054016113281 28.65262985229492 6.299339294433594 C 23.65165710449219 8.414573669433594 19.15968322753906 11.44334411621094 15.301513671875 15.301513671875 C 11.44334411621094 19.15968322753906 8.414573669433594 23.65165710449219 6.299339294433594 28.65262985229492 C 4.110054016113281 33.82865524291992 3 39.32871246337891 3 45 C 3 50.67128753662109 4.110054016113281 56.17134475708008 6.299339294433594 61.34737396240234 C 8.414573669433594 66.34834289550781 11.44334411621094 70.84031677246094 15.301513671875 74.698486328125 C 19.15968322753906 78.55665588378906 23.65165710449219 81.58542633056641 28.65262985229492 83.70066070556641 C 33.82865524291992 85.88994598388672 39.32871246337891 87 45 87 C 50.67128753662109 87 56.17134475708008 85.88994598388672 61.34737396240234 83.70066070556641 C 66.34834289550781 81.58542633056641 70.84031677246094 78.55665588378906 74.698486328125 74.698486328125 C 78.55665588378906 70.84031677246094 81.58542633056641 66.34834289550781 83.70066070556641 61.34737396240234 C 85.88994598388672 56.17134475708008 87 50.67128753662109 87 45 C 87 39.32871246337891 85.88994598388672 33.82865524291992 83.70066070556641 28.65262985229492 C 81.58542633056641 23.65165710449219 78.55665588378906 19.15968322753906 74.698486328125 15.301513671875 C 70.84031677246094 11.44334411621094 66.34834289550781 8.414573669433594 61.34737396240234 6.299339294433594 C 56.17134475708008 4.110054016113281 50.67128753662109 3 45 3 M 45 0 C 69.85281372070312 0 90 20.14718627929688 90 45 C 90 69.85281372070312 69.85281372070312 90 45 90 C 20.14718627929688 90 0 69.85281372070312 0 45 C 0 20.14718627929688 20.14718627929688 0 45 0 Z" stroke="none" fill="#3b89e1"/>
          </g>
        </g>
      </g>
    </g>
    <g id="gestion-de-proyectos_1_" data-name="gestion-de-proyectos (1)" transform="translate(199.092 802.982)">
      <g id="Grupo_1156749" data-name="Grupo 1156749" transform="translate(22.033 0.821)">
        <path id="Trazado_990007" data-name="Trazado 990007" d="M30.926,7.5H59.2a2.212,2.212,0,0,1,1.564.648l9.318,9.318a2.211,2.211,0,0,1,.648,1.564V59.683a2.211,2.211,0,0,1-2.211,2.211H30.926a2.211,2.211,0,0,1-2.211-2.211V9.711A2.211,2.211,0,0,1,30.926,7.5Z" transform="translate(-28.715 -7.5)" fill="#e6f7fe"/>
      </g>
      <g id="Grupo_1156750" data-name="Grupo 1156750" transform="translate(50.557 0.821)">
        <path id="Trazado_990008" data-name="Trazado 990008" d="M302.177,17.466l-9.318-9.318A2.212,2.212,0,0,0,291.3,7.5h-1.959v8.4a5.086,5.086,0,0,0,5.086,5.086h3.317A2.211,2.211,0,0,1,299.95,23.2V59.683a2.211,2.211,0,0,1-2.211,2.211h2.874a2.211,2.211,0,0,0,2.211-2.211V19.029a2.211,2.211,0,0,0-.648-1.564Z" transform="translate(-289.337 -7.5)" fill="#d3effd"/>
      </g>
      <g id="Grupo_1156751" data-name="Grupo 1156751" transform="translate(53.431 1.022)">
        <path id="Trazado_990009" data-name="Trazado 990009" d="M315.6,17.54a2.211,2.211,0,0,0,2.211,2.211h8.2a2.209,2.209,0,0,0-.446-.648l-9.318-9.318a2.206,2.206,0,0,0-.648-.446Z" transform="translate(-315.601 -9.339)" fill="#b2e5fb"/>
      </g>
      <g id="Grupo_1156756" data-name="Grupo 1156756" transform="translate(27.561 15.857)">
        <g id="Grupo_1156753" data-name="Grupo 1156753" transform="translate(0)">
          <g id="Grupo_1156752" data-name="Grupo 1156752">
            <path id="Trazado_990010" data-name="Trazado 990010" d="M90.943,160.36H80.772a1.548,1.548,0,0,1-1.548-1.548V146.43a1.548,1.548,0,0,1,1.548-1.548H90.943a1.548,1.548,0,0,1,1.548,1.548v12.382A1.548,1.548,0,0,1,90.943,160.36Z" transform="translate(-79.224 -144.882)" fill="#f7e365"/>
          </g>
        </g>
        <g id="Grupo_1156755" data-name="Grupo 1156755" transform="translate(17.689)">
          <g id="Grupo_1156754" data-name="Grupo 1156754">
            <path id="Trazado_990011" data-name="Trazado 990011" d="M252.569,160.36H242.4a1.548,1.548,0,0,1-1.548-1.548V146.43a1.548,1.548,0,0,1,1.548-1.548h10.171a1.548,1.548,0,0,1,1.548,1.548v12.382A1.548,1.548,0,0,1,252.569,160.36Z" transform="translate(-240.85 -144.882)" fill="#f7e365"/>
          </g>
        </g>
      </g>
      <g id="Grupo_1156761" data-name="Grupo 1156761" transform="translate(45.25 25.143)">
        <g id="Grupo_1156757" data-name="Grupo 1156757">
          <path id="Trazado_990012" data-name="Trazado 990012" d="M267.382,244.24v-2.477l-2.81-.585a10.539,10.539,0,0,0-.488-1.827l2.139-1.911-1.238-2.145-2.728.9a10.692,10.692,0,0,0-1.335-1.335l.9-2.728-2.145-1.238-1.911,2.139a10.55,10.55,0,0,0-1.827-.488l-.585-2.81h-2.477l-.585,2.81a10.538,10.538,0,0,0-1.827.488l-1.911-2.139-2.145,1.238.9,2.728a10.68,10.68,0,0,0-1.335,1.335l-2.728-.9-1.238,2.145,2.139,1.911a10.536,10.536,0,0,0-.488,1.827l-2.81.585v2.477l2.81.585a10.536,10.536,0,0,0,.488,1.827l-2.139,1.911,1.238,2.145,2.728-.9a10.687,10.687,0,0,0,1.335,1.335l-.9,2.728,2.145,1.238,1.911-2.139a10.543,10.543,0,0,0,1.827.488l.585,2.81h2.477l.585-2.81a10.539,10.539,0,0,0,1.827-.488l1.911,2.139,2.145-1.238-.9-2.728a10.685,10.685,0,0,0,1.335-1.335l2.728.9,1.238-2.145-2.139-1.911a10.547,10.547,0,0,0,.488-1.827Z" transform="translate(-240.848 -229.735)" fill="#62a4fb"/>
        </g>
        <g id="Grupo_1156758" data-name="Grupo 1156758" transform="translate(5.561 5.561)">
          <path id="Trazado_990013" data-name="Trazado 990013" d="M312.633,289.491v-2.477l-2.81-.585a10.535,10.535,0,0,0-.488-1.827l2.139-1.911-1.238-2.145-2.471.814A13.55,13.55,0,0,1,292.394,296.9l-.734,2.228,2.145,1.238,1.911-2.139a10.55,10.55,0,0,0,1.827.488l.585,2.81H300.6l.585-2.81a10.538,10.538,0,0,0,1.827-.488l1.911,2.139,2.145-1.238-.9-2.728a10.681,10.681,0,0,0,1.335-1.335l2.728.9,1.238-2.145-2.139-1.911a10.546,10.546,0,0,0,.488-1.827Z" transform="translate(-291.66 -280.547)" fill="#5392f9"/>
        </g>
        <g id="Grupo_1156759" data-name="Grupo 1156759" transform="translate(6.081 6.081)">
          <circle id="Elipse_11757" data-name="Elipse 11757" cx="7.186" cy="7.186" r="7.186" fill="#e6f7fe"/>
        </g>
        <g id="Grupo_1156760" data-name="Grupo 1156760" transform="translate(10.614 10.614)">
          <circle id="Elipse_11758" data-name="Elipse 11758" cx="2.653" cy="2.653" r="2.653" fill="#62a4fb"/>
        </g>
      </g>
      <g id="Grupo_1156762" data-name="Grupo 1156762" transform="translate(27.561 4.359)">
        <path id="Trazado_990014" data-name="Trazado 990014" d="M79.223,39.825H98.46v3.538H79.223Z" transform="translate(-79.223 -39.825)" fill="#e175a5"/>
      </g>
      <g id="Grupo_1156763" data-name="Grupo 1156763" transform="translate(27.561 48.139)">
        <path id="Trazado_990015" data-name="Trazado 990015" d="M79.223,439.85H93.374v3.538H79.223Z" transform="translate(-79.223 -439.85)" fill="#ad7fdd"/>
      </g>
      <g id="Grupo_1156764" data-name="Grupo 1156764" transform="translate(21.212 0)">
        <path id="Trazado_990016" data-name="Trazado 990016" d="M22.033,44.872a.821.821,0,0,0,.821-.821V3.032a1.392,1.392,0,0,1,1.391-1.39H52.515c.032,0,.064,0,.1,0V9.223a3.035,3.035,0,0,0,3.032,3.032H63.22c0,.032,0,.063,0,.095v4.319a.821.821,0,0,0,1.642,0V12.35a3.052,3.052,0,0,0-.888-2.143L54.66.888A3.013,3.013,0,0,0,52.515,0H24.245a3.036,3.036,0,0,0-3.033,3.032v41.02A.821.821,0,0,0,22.033,44.872Zm40.03-34.259H55.643a1.392,1.392,0,0,1-1.39-1.39V2.8Z" transform="translate(-21.212 0)"/>
        <path id="Trazado_990017" data-name="Trazado 990017" d="M71.722,152.131A2.371,2.371,0,0,0,74.09,154.5H84.262a2.371,2.371,0,0,0,2.368-2.368v-5.854a.821.821,0,0,0-1.642,0v5.854a.728.728,0,0,1-.727.727H74.09a.728.728,0,0,1-.727-.727V139.748a.728.728,0,0,1,.727-.727H84.262a.728.728,0,0,1,.727.727v2.7a.821.821,0,1,0,1.642,0v-2.7a2.371,2.371,0,0,0-2.368-2.368H74.09a2.371,2.371,0,0,0-2.368,2.368Z" transform="translate(-66.194 -122.344)"/>
        <path id="Trazado_990018" data-name="Trazado 990018" d="M104.87,171.35h2.653a.821.821,0,0,0,0-1.642H104.87a.821.821,0,1,0,0,1.642Z" transform="translate(-94.983 -151.134)"/>
        <path id="Trazado_990019" data-name="Trazado 990019" d="M111.06,202.033h-6.191a.821.821,0,1,0,0,1.642h6.191a.821.821,0,1,0,0-1.642Z" transform="translate(-94.982 -179.922)"/>
        <path id="Trazado_990020" data-name="Trazado 990020" d="M111.06,234.358h-6.191a.821.821,0,1,0,0,1.642h6.191a.821.821,0,1,0,0-1.642Z" transform="translate(-94.982 -208.709)"/>
        <path id="Trazado_990021" data-name="Trazado 990021" d="M266.5,171.35h2.653a.821.821,0,0,0,0-1.642H266.5a.821.821,0,0,0,0,1.642Z" transform="translate(-238.92 -151.134)"/>
        <path id="Trazado_990022" data-name="Trazado 990022" d="M266.5,203.675h5.528a.821.821,0,0,0,0-1.642H266.5a.821.821,0,0,0,0,1.642Z" transform="translate(-238.92 -179.922)"/>
        <path id="Trazado_990023" data-name="Trazado 990023" d="M71.951,158.715l-2.279-.475c-.067-.3-.146-.592-.236-.883l1.735-1.55a.821.821,0,0,0,.164-1.023L70.1,152.64a.821.821,0,0,0-.968-.369L66.917,153q-.309-.334-.644-.644L67,150.143a.821.821,0,0,0-.369-.968l-1.767-1.02v-5.31a.821.821,0,1,0-1.642,0v5.526l-1.308,1.465c-.29-.09-.585-.169-.883-.236l-.475-2.279a.821.821,0,0,0-.8-.653h-.417v-6.918a2.371,2.371,0,0,0-2.369-2.369H46.8a2.371,2.371,0,0,0-2.369,2.369v12.382a2.372,2.372,0,0,0,1.522,2.212l-.254.44a.821.821,0,0,0,.164,1.023l1.735,1.55q-.135.436-.236.883l-2.279.475a.821.821,0,0,0-.653.8v2.476a.821.821,0,0,0,.653.8l2.279.475q.1.446.236.883l-1.735,1.55a.821.821,0,0,0-.164,1.023l1.238,2.145a.821.821,0,0,0,.968.369l2.213-.729q.309.334.644.644l-.729,2.213a.821.821,0,0,0,.369.968l2.145,1.238a.821.821,0,0,0,1.023-.164l1.55-1.735q.436.135.883.236l.475,2.279a.821.821,0,0,0,.8.653h2.476a.821.821,0,0,0,.8-.653l.475-2.279c.3-.067.592-.146.883-.236l1.308,1.465v2.209a1.392,1.392,0,0,1-1.391,1.39H24.245a1.392,1.392,0,0,1-1.391-1.39v-5.122a.821.821,0,1,0-1.642,0v5.122a3.036,3.036,0,0,0,3.033,3.032H61.834a3.036,3.036,0,0,0,3.033-3.032v-1.993l1.767-1.02A.821.821,0,0,0,67,171.37l-.729-2.213q.334-.309.644-.644l2.213.729a.821.821,0,0,0,.968-.369l1.238-2.145a.821.821,0,0,0-.164-1.023l-1.735-1.55q.135-.436.236-.883l2.279-.475a.821.821,0,0,0,.653-.8v-2.476A.821.821,0,0,0,71.951,158.715ZM46.8,152.86a.728.728,0,0,1-.727-.727V139.751a.728.728,0,0,1,.727-.727H56.969a.728.728,0,0,1,.727.727v6.918h-.417a.821.821,0,0,0-.8.653L56,149.6q-.446.1-.883.236l-1.55-1.735a.821.821,0,0,0-1.023-.164L50.4,149.175a.821.821,0,0,0-.369.968l.729,2.213q-.334.309-.644.644l-2.213-.729a.821.821,0,0,0-.968.369l-.127.22H46.8Zm24.165,8.467-2.157.449a.821.821,0,0,0-.641.663,9.748,9.748,0,0,1-.45,1.684.821.821,0,0,0,.224.895l1.642,1.466-.571.989-2.094-.69a.821.821,0,0,0-.886.253,9.878,9.878,0,0,1-1.233,1.232.821.821,0,0,0-.253.886l.69,2.094-.989.571-1.466-1.642a.821.821,0,0,0-.894-.224,9.745,9.745,0,0,1-1.684.45.821.821,0,0,0-.663.641l-.449,2.157H57.946l-.449-2.157a.821.821,0,0,0-.663-.641,9.745,9.745,0,0,1-1.684-.45.821.821,0,0,0-.894.224l-1.466,1.642-.989-.571.69-2.094a.821.821,0,0,0-.253-.886A9.873,9.873,0,0,1,51,167.037a.821.821,0,0,0-.886-.253l-2.094.69-.571-.989,1.642-1.466a.821.821,0,0,0,.224-.895,9.743,9.743,0,0,1-.45-1.684.821.821,0,0,0-.641-.663l-2.157-.449v-1.142l2.157-.449a.821.821,0,0,0,.641-.663,9.742,9.742,0,0,1,.45-1.684.821.821,0,0,0-.224-.894l-1.642-1.466.571-.989,2.094.69a.821.821,0,0,0,.886-.253,9.875,9.875,0,0,1,1.233-1.233.821.821,0,0,0,.253-.886l-.69-2.094.989-.571,1.466,1.642a.821.821,0,0,0,.894.224,9.739,9.739,0,0,1,1.684-.45.821.821,0,0,0,.663-.641l.449-2.157h1.142l.449,2.157a.821.821,0,0,0,.663.641,9.752,9.752,0,0,1,1.684.45.821.821,0,0,0,.894-.224l1.466-1.642.989.571-.69,2.094a.821.821,0,0,0,.253.886,9.881,9.881,0,0,1,1.233,1.232.821.821,0,0,0,.886.253l2.094-.69.571.989-1.642,1.466a.821.821,0,0,0-.224.894,9.749,9.749,0,0,1,.45,1.684.821.821,0,0,0,.641.663l2.157.449v1.141Z" transform="translate(-21.212 -122.346)"/>
        <path id="Trazado_990024" data-name="Trazado 990024" d="M333.8,319.211a3.474,3.474,0,1,0,3.474,3.474A3.478,3.478,0,0,0,333.8,319.211Zm0,5.307a1.833,1.833,0,1,1,1.833-1.833A1.835,1.835,0,0,1,333.8,324.518Z" transform="translate(-296.494 -284.275)"/>
        <path id="Trazado_990025" data-name="Trazado 990025" d="M296.916,277.8a8.007,8.007,0,1,0,8.007,8.007A8.016,8.016,0,0,0,296.916,277.8Zm0,14.372a6.365,6.365,0,1,1,6.365-6.365A6.373,6.373,0,0,1,296.916,292.167Z" transform="translate(-259.611 -247.392)"/>
        <path id="Trazado_990026" data-name="Trazado 990026" d="M92.6,33.146a.821.821,0,0,0-.821-.821H72.544a.821.821,0,0,0-.821.821v3.538a.821.821,0,0,0,.821.821H91.781a.821.821,0,0,0,.821-.821ZM90.96,35.863h-17.6v-1.9h17.6Z" transform="translate(-66.195 -28.787)"/>
        <path id="Trazado_990027" data-name="Trazado 990027" d="M72.544,437.529H86.7a.821.821,0,0,0,.821-.821v-3.538a.821.821,0,0,0-.821-.821H72.544a.821.821,0,0,0-.821.821v3.538A.821.821,0,0,0,72.544,437.529Zm.821-3.538h12.51v1.9H73.365Z" transform="translate(-66.195 -385.031)"/>
        <path id="Trazado_990028" data-name="Trazado 990028" d="M76.082,98.618a.821.821,0,1,0,0-1.642H72.544a.821.821,0,1,0,0,1.642Z" transform="translate(-66.195 -86.362)"/>
        <path id="Trazado_990029" data-name="Trazado 990029" d="M150.177,97.8a.821.821,0,0,0-.821-.821H137.195a.821.821,0,1,0,0,1.642h12.161A.821.821,0,0,0,150.177,97.8Z" transform="translate(-123.77 -86.362)"/>
        <path id="Trazado_990030" data-name="Trazado 990030" d="M160.463,329.313h-5.086a.821.821,0,0,0,0,1.642h5.086a.821.821,0,1,0,0-1.642Z" transform="translate(-139.962 -293.271)"/>
        <path id="Trazado_990031" data-name="Trazado 990031" d="M102.849,329.313a.821.821,0,0,0,0,1.642h2.211a.821.821,0,0,0,0-1.642Z" transform="translate(-93.183 -293.271)"/>
        <path id="Trazado_990032" data-name="Trazado 990032" d="M86.7,361.638H72.544a.821.821,0,0,0,0,1.642H86.7a.821.821,0,0,0,0-1.642Z" transform="translate(-66.195 -322.059)"/>
        <path id="Trazado_990033" data-name="Trazado 990033" d="M72.544,395.6h8.4a.821.821,0,1,0,0-1.642h-8.4a.821.821,0,1,0,0,1.642Z" transform="translate(-66.195 -350.846)"/>
        <path id="Trazado_990034" data-name="Trazado 990034" d="M183.853,393.963h-2.211a.821.821,0,1,0,0,1.642h2.211a.821.821,0,1,0,0-1.642Z" transform="translate(-163.353 -350.846)"/>
      </g>
    </g>
  </g>
</svg>
