<svg xmlns="http://www.w3.org/2000/svg" xmlns:xlink="http://www.w3.org/1999/xlink" width="108" height="108" viewBox="0 0 108 108">
  <defs>
    <filter id="Trazado_982550" x="0" y="0" width="108" height="108" filterUnits="userSpaceOnUse">
      <feOffset dy="3" input="SourceAlpha"/>
      <feGaussianBlur stdDeviation="3" result="blur"/>
      <feFlood flood-opacity="0.161"/>
      <feComposite operator="in" in2="blur"/>
      <feComposite in="SourceGraphic"/>
    </filter>
  </defs>
  <g id="Grupo_1157252" data-name="Grupo 1157252" transform="translate(-201 -3103)">
    <g id="Grupo_1151784" data-name="Grupo 1151784" transform="translate(0 -1682)">
      <g id="Grupo_1150789" data-name="Grupo 1150789" transform="translate(0 3180)">
        <g transform="matrix(1, 0, 0, 1, 201, 1605)" filter="url(#Trazado_982550)">
          <g id="Trazado_982550-2" data-name="Trazado 982550" transform="translate(9 6)" fill="#f3f3f3">
            <path d="M 45 88.5 C 39.12687683105469 88.5 33.43022537231445 87.35007476806641 28.06830024719238 85.08217620849609 C 22.88852500915527 82.89131164550781 18.23629951477051 79.75458526611328 14.2408504486084 75.75914764404297 C 10.24541282653809 71.76370239257812 7.108687400817871 67.11147308349609 4.917825222015381 61.93170166015625 C 2.649924993515015 56.56977462768555 1.5 50.87312316894531 1.5 45 C 1.5 39.12687683105469 2.649924993515015 33.43022537231445 4.917825222015381 28.06830024719238 C 7.108687400817871 22.88852500915527 10.24541282653809 18.23629951477051 14.2408504486084 14.2408504486084 C 18.23629951477051 10.24541282653809 22.88852500915527 7.108687400817871 28.06830024719238 4.917825222015381 C 33.43022537231445 2.649924993515015 39.12687683105469 1.5 45 1.5 C 50.87312316894531 1.5 56.56977462768555 2.649924993515015 61.93170166015625 4.917825222015381 C 67.11147308349609 7.108687400817871 71.76370239257812 10.24541282653809 75.75914764404297 14.2408504486084 C 79.75458526611328 18.23629951477051 82.89131164550781 22.88852500915527 85.08217620849609 28.06830024719238 C 87.35007476806641 33.43022537231445 88.5 39.12687683105469 88.5 45 C 88.5 50.87312316894531 87.35007476806641 56.56977462768555 85.08217620849609 61.93170166015625 C 82.89131164550781 67.11147308349609 79.75458526611328 71.76370239257812 75.75914764404297 75.75914764404297 C 71.76370239257812 79.75458526611328 67.11147308349609 82.89131164550781 61.93170166015625 85.08217620849609 C 56.56977462768555 87.35007476806641 50.87312316894531 88.5 45 88.5 Z" stroke="none"/>
            <path d="M 45 3 C 39.32871246337891 3 33.82865524291992 4.110054016113281 28.65262985229492 6.299339294433594 C 23.65165710449219 8.414573669433594 19.15968322753906 11.44334411621094 15.301513671875 15.301513671875 C 11.44334411621094 19.15968322753906 8.414573669433594 23.65165710449219 6.299339294433594 28.65262985229492 C 4.110054016113281 33.82865524291992 3 39.32871246337891 3 45 C 3 50.67128753662109 4.110054016113281 56.17134475708008 6.299339294433594 61.34737396240234 C 8.414573669433594 66.34834289550781 11.44334411621094 70.84031677246094 15.301513671875 74.698486328125 C 19.15968322753906 78.55665588378906 23.65165710449219 81.58542633056641 28.65262985229492 83.70066070556641 C 33.82865524291992 85.88994598388672 39.32871246337891 87 45 87 C 50.67128753662109 87 56.17134475708008 85.88994598388672 61.34737396240234 83.70066070556641 C 66.34834289550781 81.58542633056641 70.84031677246094 78.55665588378906 74.698486328125 74.698486328125 C 78.55665588378906 70.84031677246094 81.58542633056641 66.34834289550781 83.70066070556641 61.34737396240234 C 85.88994598388672 56.17134475708008 87 50.67128753662109 87 45 C 87 39.32871246337891 85.88994598388672 33.82865524291992 83.70066070556641 28.65262985229492 C 81.58542633056641 23.65165710449219 78.55665588378906 19.15968322753906 74.698486328125 15.301513671875 C 70.84031677246094 11.44334411621094 66.34834289550781 8.414573669433594 61.34737396240234 6.299339294433594 C 56.17134475708008 4.110054016113281 50.67128753662109 3 45 3 M 45 0 C 69.85281372070312 0 90 20.14718627929688 90 45 C 90 69.85281372070312 69.85281372070312 90 45 90 C 20.14718627929688 90 0 69.85281372070312 0 45 C 0 20.14718627929688 20.14718627929688 0 45 0 Z" stroke="none" fill="#fd7940"/>
          </g>
        </g>
      </g>
    </g>
    <g id="seguridad-alimenticia" transform="translate(225 3113.5)">
      <g id="Grupo_1157250" data-name="Grupo 1157250" transform="translate(0.837 14.337)">
        <path id="Trazado_990251" data-name="Trazado 990251" d="M156.894,36.348c0-8.477-7.724-15.348-17.251-15.348a18.234,18.234,0,0,0-12.713,4.973s-.242.3-.382.443a13.856,13.856,0,0,0-3.6,9.932c0,8.477,7.165,14.724,16.693,14.724a17.308,17.308,0,0,0,10.618-3.113,2.982,2.982,0,0,1,.945-.221A14.622,14.622,0,0,0,156.894,36.348Z" transform="translate(-110.063 -21)" fill="#91dafa"/>
        <path id="Trazado_990252" data-name="Trazado 990252" d="M143.583,87.615A15.349,15.349,0,0,1,122.559,65.35,15.351,15.351,0,0,0,142.806,87.4a3.141,3.141,0,0,1,.777.214Z" transform="translate(-104.584 -60.399)" fill="#75cff9"/>
        <path id="Trazado_990253" data-name="Trazado 990253" d="M194.329,240.774A15.351,15.351,0,0,1,175,241.787a15.624,15.624,0,0,1,1.639-2.572,2.442,2.442,0,0,1,1.919-.925,2.416,2.416,0,0,1,.421.037,14.822,14.822,0,0,1,4.722,1.739,13.049,13.049,0,0,1,2.12,1.534.336.336,0,0,0,.38.047,13.706,13.706,0,0,1,1.321-.6,15.759,15.759,0,0,1,4.912-1.05l.1,0A2.47,2.47,0,0,1,194.329,240.774Z" transform="translate(-154.367 -214.035)" fill="#75cff9"/>
        <g id="Grupo_1157249" data-name="Grupo 1157249" transform="translate(20.242 3.237)">
          <path id="Trazado_990254" data-name="Trazado 990254" d="M219.443,62.915c0-.036.061-.108.061-.108a1.572,1.572,0,0,0-1.568-1.466h-.41A1.5,1.5,0,0,0,219,59.759c0-.036.1-.1.1-.1a1.572,1.572,0,0,0-1.568-1.466h-3.515a2.588,2.588,0,0,1-2.54-3.1l.371-1.991a2.787,2.787,0,0,0-1.5-3.012.85.85,0,0,0-1.181.494L207.446,56a6.865,6.865,0,0,1-3.069,3.684l.015,8.327c0,1.167,1.1,2.126,3.8,2.126h8.4c.773,0,1.252-.331,1.252-1.1a.78.78,0,0,1,.122-.277,1.4,1.4,0,0,0-1.374-1.126l.823-.117a1.432,1.432,0,0,0,1.539-1.433c0-.035.137-.127.137-.127a1.572,1.572,0,0,0-1.568-1.466l.328-.1C218.722,64.385,219.443,62.915,219.443,62.915Z" transform="translate(-200.771 -50.002)" fill="#e3a76f"/>
          <path id="Trazado_990255" data-name="Trazado 990255" d="M218.113,201.457a1.4,1.4,0,0,1-1.4,1.4h-8.4c-2.706,0-3.8-.945-3.8-2.113V199.07c0,1.168,1.1,2.113,3.8,2.113h9.773A1.387,1.387,0,0,1,218.113,201.457Z" transform="translate(-200.889 -182.43)" fill="#d6995c"/>
          <path id="Trazado_990256" data-name="Trazado 990256" d="M173.239,124.572a1.1,1.1,0,0,1,1.1-1.1l.446-.059h.945a1.1,1.1,0,0,1,1.1,1.1v9.46l-.185.345a1.1,1.1,0,0,1-1.1,1.1l-1.13-.009a1.1,1.1,0,0,1-1.1-1.1Z" transform="translate(-173.109 -115.22)" fill="#857e87"/>
          <path id="Trazado_990257" data-name="Trazado 990257" d="M175.788,133.974v.576a1.1,1.1,0,0,1-1.1,1.1h-1.521a1.1,1.1,0,0,1-1.1-1.1V124.514a1.1,1.1,0,0,1,1.1-1.1h.576V133.3a.67.67,0,0,0,.67.67Z" transform="translate(-172.07 -115.221)" fill="#766e7a"/>
          <g id="Grupo_1157248" data-name="Grupo 1157248" transform="translate(13.773 9.661)">
            <path id="Trazado_990258" data-name="Trazado 990258" d="M300.01,192.879c0,.035,0,.07,0,.106a1.572,1.572,0,0,1-1.572,1.572H296.3a.838.838,0,0,1-.838-.838h0a.838.838,0,0,1,.838-.838Z" transform="translate(-295.46 -186.591)" fill="#d6995c"/>
            <path id="Trazado_990259" data-name="Trazado 990259" d="M295.46,137.389h0a.838.838,0,0,1,.838-.838h3.712c0,.035,0,.07,0,.106a1.571,1.571,0,0,1-1.572,1.572H296.3A.838.838,0,0,1,295.46,137.389Z" transform="translate(-295.46 -136.549)" fill="#d6995c"/>
            <path id="Trazado_990260" data-name="Trazado 990260" d="M295.706,166.141a.838.838,0,0,1,.593-1.431h4.122c0,.035,0,.07,0,.106a1.571,1.571,0,0,1-1.532,1.571H296.3A.836.836,0,0,1,295.706,166.141Z" transform="translate(-295.46 -161.567)" fill="#d6995c"/>
          </g>
        </g>
        <path id="Trazado_990261" data-name="Trazado 990261" d="M182.95,256.3a.445.445,0,0,0-.425.161,13.591,13.591,0,0,0-1.5,2.381,9.307,9.307,0,0,1-.307,1.522,10.072,10.072,0,0,0-.387,7c2.177,5.992,8.929,6.987,8.929,6.987s4.41-5.449,2.357-11.1a9.162,9.162,0,0,0-2.437-3.463,6.4,6.4,0,0,1-.615-.9A12.489,12.489,0,0,0,182.95,256.3Z" transform="translate(-158.95 -230.029)" fill="#86cc72"/>
        <path id="Trazado_990262" data-name="Trazado 990262" d="M188.356,294.638s-6.751-.995-8.929-6.987a10.744,10.744,0,0,1,.695-8.52,12.745,12.745,0,0,1,5.165,1.99.333.333,0,0,0,.445-.062,11.887,11.887,0,0,1,1.929-1.882,10.1,10.1,0,0,1,3.053,4.359C192.766,289.189,188.356,294.638,188.356,294.638Z" transform="translate(-158.048 -250.317)" fill="#79bf66"/>
        <path id="Trazado_990263" data-name="Trazado 990263" d="M248.108,271.765a.445.445,0,0,0-.4-.215c-1.162.048-5.947.478-8.832,4.285a7.672,7.672,0,0,1-.457,1.485c-3.068,5.546.288,10.968.288,10.968s6.964-.236,9.858-5.468a10.126,10.126,0,0,0,.61-7.924,7.441,7.441,0,0,1-.155-1.24A12.155,12.155,0,0,0,248.108,271.765Z" transform="translate(-209.258 -243.582)" fill="#98db7c"/>
        <path id="Trazado_990264" data-name="Trazado 990264" d="M32.45,286.635a.445.445,0,0,0-.39.233,13.953,13.953,0,0,0-1.355,3.772s.006,1.274-.021,1.968a10.064,10.064,0,0,0,1.591,5.358c3.214,5.577,9.617,5.513,9.617,5.513s3.433-6.195.4-11.456a9.434,9.434,0,0,0-2.53-2.435,8.582,8.582,0,0,1-1.026-1.222A12.544,12.544,0,0,0,32.45,286.635Z" transform="translate(-28.091 -256.983)" fill="#b8eb7c"/>
        <path id="Trazado_990265" data-name="Trazado 990265" d="M40.53,305.8a10.168,10.168,0,0,0-3.556-3.656,12.865,12.865,0,0,0-4.6,7.14.336.336,0,0,1-.556.17,9.924,9.924,0,0,1-2.876-5.036,10.5,10.5,0,0,0,1.083,7.458c3.215,5.577,10.1,5.38,10.1,5.38S42.232,308.749,40.53,305.8Z" transform="translate(-26.329 -270.758)" fill="#98db7c"/>
        <path id="Trazado_990266" data-name="Trazado 990266" d="M246.655,299.574c-2.313,4.183-7.227,5.173-9.105,5.4-.472.057-.752.067-.752.067a10.413,10.413,0,0,1-.62-1.185c-.891-1.964-2.2-6.075.022-10.09a9.677,9.677,0,0,1,.766-1.178,12.856,12.856,0,0,1,1.418,1.607.445.445,0,0,0,.705.02l.115-.139a10.625,10.625,0,0,1,7.906-3.668A10.7,10.7,0,0,1,246.655,299.574Z" transform="translate(-207.349 -260.337)" fill="#86cc72"/>
        <path id="Trazado_990267" data-name="Trazado 990267" d="M103.958,306.927a10.821,10.821,0,0,0-10.022-10.8s-.522.036-.787.036c-5.969,0-10.076,4.784-10.076,10.764Z" transform="translate(-73.724 -265.416)" fill="#e27f86"/>
        <path id="Trazado_990268" data-name="Trazado 990268" d="M88.156,295.9a10.821,10.821,0,0,0-9.971,10.8H76.51A10.818,10.818,0,0,1,87.319,295.87C87.6,295.87,87.88,295.882,88.156,295.9Z" transform="translate(-68.807 -265.188)" fill="#df646e"/>
        <path id="Trazado_990269" data-name="Trazado 990269" d="M123.2,335.811a7.2,7.2,0,0,0-1.527-4.444l-.676-.5-.5-.692a7.166,7.166,0,0,0-3.666-1.535l-.837.273-.837-.273a7.162,7.162,0,0,0-3.6,1.482l-.423.855-.766.322a7.2,7.2,0,0,0-1.58,4.511Z" transform="translate(-96.451 -294.3)" fill="#df646e"/>
        <path id="Trazado_990270" data-name="Trazado 990270" d="M281.824,308.694a.444.444,0,0,0-.356-.291,10.678,10.678,0,0,0-5.215.573l-.788.41a7.757,7.757,0,0,0-2.253,2.012c-3.288,3.926-1.189,8.747-1.189,8.747s5.34,1.039,8.441-2.664a9.084,9.084,0,0,0,1.36-8.786Z" transform="translate(-239.428 -276.232)" fill="#b8eb7c"/>
        <path id="Trazado_990271" data-name="Trazado 990271" d="M277.665,324.076a11.063,11.063,0,0,1-7.255,1.529s-2.023-5.108,1.265-9.034a7.9,7.9,0,0,1,3.2-2.294,7.8,7.8,0,0,0-1.529,1.4c-3.287,3.926-1.265,9.034-1.265,9.034A11.882,11.882,0,0,0,277.665,324.076Z" transform="translate(-238.214 -281.54)" fill="#98db7c"/>
        <path id="Trazado_990272" data-name="Trazado 990272" d="M403.543,316.879a.443.443,0,0,0-.4-.225,10.2,10.2,0,0,0-4.162,1.073s-.795.657-1.215.989a6.882,6.882,0,0,0-1.9,1.953c-2.4,4.164.3,8.554.3,8.554s5.012-.145,7.277-4.074a8.622,8.622,0,0,0,.739-1.426c.212-.63.541-1.772.541-1.772A9.31,9.31,0,0,0,403.543,316.879Z" transform="translate(-347.885 -283.651)" fill="#b8eb7c"/>
        <path id="Trazado_990273" data-name="Trazado 990273" d="M399.6,332.375a11.059,11.059,0,0,0-.618-6.109,7.644,7.644,0,0,0-3.116,2.942c-2.4,4.165.3,8.554.3,8.554h.043c.105,0,.4-.019.819-.073h0c1.593-.209,4.984-1,6.681-3.942a7.624,7.624,0,0,0,1.012-3.253,9.578,9.578,0,0,1-4.727,2.274A.335.335,0,0,1,399.6,332.375Z" transform="translate(-347.887 -292.191)" fill="#98db7c"/>
        <path id="Trazado_990274" data-name="Trazado 990274" d="M285.312,321.961a8.7,8.7,0,0,0,12.487-.121,9.038,9.038,0,0,0,1.02-11.543s-.46-.416-.714-.7a.446.446,0,0,0-.646-.014Z" transform="translate(-251.424 -277.255)" fill="#ffd05b"/>
        <path id="Trazado_990275" data-name="Trazado 990275" d="M296.819,308.853l-12.548,12.561a9.09,9.09,0,0,1-1.211-1.018l6.714-5.471,2.84-4.1,2.86-2.865a.446.446,0,0,1,.646.013A8.964,8.964,0,0,1,296.819,308.853Z" transform="translate(-249.54 -275.811)" fill="#ffc244"/>
        <path id="Trazado_990276" data-name="Trazado 990276" d="M311.594,341.057a4.508,4.508,0,0,0,6.369-6.381l-2.863,3.851Z" transform="translate(-274.991 -299.662)" fill="#ffe077"/>
        <path id="Trazado_990277" data-name="Trazado 990277" d="M318.875,336l-5.969,5.975a4.484,4.484,0,0,1-1.316-.915l6.369-6.381a4.49,4.49,0,0,1,.915,1.321Z" transform="translate(-275.009 -299.661)" fill="#ffd05b"/>
        <path id="Trazado_990278" data-name="Trazado 990278" d="M60.115,402.266l-39.538.24c-5.177,0-9.167-3.42-9.167-8.268v-1.265a1.073,1.073,0,0,1,1.106-1.036l.812-.18h55.76a1.073,1.073,0,0,1,1.106,1.036v1.265a8.259,8.259,0,0,1-.466,2.741l-.767.908-.037.766a8.962,8.962,0,0,1-1.857,2.13s-4.552,1.663-6.951,1.663Z" transform="translate(-10.974 -350.372)" fill="#dfbdf0"/>
        <path id="Trazado_990279" data-name="Trazado 990279" d="M63.792,400.6a9.754,9.754,0,0,1-6.266,2.232H16.9a9.54,9.54,0,0,1-8.129-4.362l.12-.944-.927-.73a8.238,8.238,0,0,1-.468-2.742v-1.264a1.074,1.074,0,0,1,1.11-1.036H9.892v.7c0,4.5,3.908,8.149,8.729,8.149Z" transform="translate(-7.5 -350.373)" fill="#cbb0f2"/>
      </g>
      <g id="Grupo_1157251" data-name="Grupo 1157251" transform="translate(0 13.5)">
        <path id="Trazado_990280" data-name="Trazado 990280" d="M184.983,56.252a2.4,2.4,0,0,0-.817-1.806,2.408,2.408,0,0,0-2-3.747h-3.515a1.714,1.714,0,0,1-1.343-.622,1.805,1.805,0,0,1-.374-1.492l.371-1.991a3.635,3.635,0,0,0-1.957-3.917,1.687,1.687,0,0,0-1.392-.044A1.831,1.831,0,0,0,173,43.671l-1.706,5.4a6.458,6.458,0,0,1-1.726,2.554,1.934,1.934,0,0,0-1.648-.925h-1.41a1.938,1.938,0,0,0-1.935,1.935v3.736a.837.837,0,1,0,1.674,0V52.635a.261.261,0,0,1,.261-.261h1.41a.261.261,0,0,1,.261.261V62.671a.261.261,0,0,1-.261.261h-1.41a.261.261,0,0,1-.261-.261V60.278a.837.837,0,1,0-1.674,0v2.393a1.938,1.938,0,0,0,1.935,1.935h1.41a1.931,1.931,0,0,0,1.537-.764,6.215,6.215,0,0,0,3.379.764h8.4a2.238,2.238,0,0,0,2.07-3.087,2.407,2.407,0,0,0,.864-3.46,2.4,2.4,0,0,0,.817-1.806Zm-2.409.735H180.01a.837.837,0,1,0,0,1.674h2.154a.735.735,0,1,1,0,1.469H180.01a.837.837,0,1,0,0,1.674h1.223a.563.563,0,0,1,0,1.127h-8.4c-1.857,0-2.966-.477-2.966-1.275,0,0,0-7.95-.015-8.153a7.886,7.886,0,0,0,3.019-3.88c.029-.037,1.683-5.419,1.735-5.443a1.955,1.955,0,0,1,1.051,2.108l-.371,1.991a3.474,3.474,0,0,0,.732,2.869,3.406,3.406,0,0,0,2.631,1.227h3.515a.735.735,0,1,1,0,1.469H180.01a.837.837,0,1,0,0,1.674h2.565a.735.735,0,1,1,0,1.47Z" transform="translate(-144.33 -39.267)"/>
        <path id="Trazado_990281" data-name="Trazado 990281" d="M58.9,54.886H57.857a9.161,9.161,0,0,0-1.05-8.01.907.907,0,0,0-.719-.376,11.97,11.97,0,0,0-6.193,1.754,9.849,9.849,0,0,0-2.024-2.685.934.934,0,0,0-1.263,0L44.57,47.486a8.384,8.384,0,0,0-.431-1.267.882.882,0,0,0-.638-.487,10.376,10.376,0,0,0-1.287-.144,13.286,13.286,0,0,0-1.276-3.056,15.885,15.885,0,0,0,6.756-12.846,15.408,15.408,0,0,0-3.638-9.944A.932.932,0,0,0,42.8,19.6a.8.8,0,0,0-.155,1.175,13.813,13.813,0,0,1,3.261,8.914,14.278,14.278,0,0,1-6.434,11.781,15.574,15.574,0,0,0-7.149,2.049,14.2,14.2,0,0,0-7.813-3.778.924.924,0,0,0-.769.276,12.773,12.773,0,0,0-1.465,1.993,14.347,14.347,0,0,1-7.293-12.321c0-8,6.936-14.511,15.462-14.511a15.977,15.977,0,0,1,9.406,2.993.931.931,0,0,0,1.251-.154.8.8,0,0,0-.164-1.174A17.824,17.824,0,0,0,30.448,13.5C20.938,13.5,13.2,20.761,13.2,29.686A16.015,16.015,0,0,0,21.48,43.512q-.15.329-.289.683-.287-.012-.575-.013a12.924,12.924,0,0,0-6.535,1.745A14.479,14.479,0,0,0,5.2,43.159a.9.9,0,0,0-.706.4,13.769,13.769,0,0,0-1.692,4.251.84.84,0,0,0,.7.988.946.946,0,0,0,.179.017.881.881,0,0,0,.873-.67A12.806,12.806,0,0,1,5.788,44.83a12.851,12.851,0,0,1,6.8,2.124q-.352.281-.684.589A11.308,11.308,0,0,0,8.25,54.886H5.519A8.667,8.667,0,0,1,4.4,51.747.884.884,0,0,0,3.4,51.033a.848.848,0,0,0-.761.945,10.219,10.219,0,0,0,.89,2.908H2a1.939,1.939,0,0,0-2,1.873v1.264c0,5.3,4.6,9.615,10.245,9.615H50.651c5.649,0,10.245-4.313,10.245-9.615V56.759a1.939,1.939,0,0,0-2-1.873Zm-3.345-6.7a7.338,7.338,0,0,1,.374,6.7H50.642a9.315,9.315,0,0,0-.094-5.006A9.862,9.862,0,0,1,55.555,48.19Zm-8.348-.813A7.837,7.837,0,0,1,48.8,54.886H45.564a5.113,5.113,0,0,0-.507-5.488Zm-3.435,3.229a3.517,3.517,0,0,1-.312,4.28H39.22Zm-.724-1.689L36.7,54.886H32.982a7.227,7.227,0,0,1,1.794-4.98c2.555-2.863,6.528-2.738,7.888-2.6A8.984,8.984,0,0,1,43.048,48.917Zm-3.78-5.761a11.582,11.582,0,0,1,1.1,2.451,10.192,10.192,0,0,0-6.959,3.224,8.556,8.556,0,0,0-1.46,2.26A11.578,11.578,0,0,0,30,48.223l.029-.05c2.5-4.241,7.646-4.911,9.235-5.017ZM24.78,41.477a12.421,12.421,0,0,1,6.111,3.053A10.727,10.727,0,0,0,28.7,47,12.7,12.7,0,0,0,23.019,44.4a13.073,13.073,0,0,1,1.761-2.926Zm-4.163,4.381a10.342,10.342,0,0,1,10.575,9.029H29.126a7.833,7.833,0,0,0-2.512-4.792,8.965,8.965,0,0,0-12,0,7.833,7.833,0,0,0-2.512,4.792H10.042A10.446,10.446,0,0,1,20.617,45.857Zm-5.35,6.086.943.887a.934.934,0,0,0,1.261,0,.8.8,0,0,0,0-1.184l-.937-.881a7,7,0,0,1,3.188-1.242V51.1a.894.894,0,0,0,1.784,0V49.525a6.994,6.994,0,0,1,3.26,1.295l-.881.828a.8.8,0,0,0,0,1.184.934.934,0,0,0,1.261,0l.871-.819a6.156,6.156,0,0,1,1.3,2.875H13.911A6.166,6.166,0,0,1,15.267,51.943Zm35.384,14.02H10.245a8.617,8.617,0,0,1-7.028-3.526h36.6a.839.839,0,1,0,0-1.674H2.3a7.472,7.472,0,0,1-.52-2.741V56.759A.205.205,0,0,1,2,56.56H58.9a.205.205,0,0,1,.211.2v1.264a7.473,7.473,0,0,1-.52,2.741H43.982a.839.839,0,1,0,0,1.674h13.7a8.617,8.617,0,0,1-7.028,3.526Z" transform="translate(0 -13.5)"/>
      </g>
    </g>
  </g>
</svg>
