<svg xmlns="http://www.w3.org/2000/svg" xmlns:xlink="http://www.w3.org/1999/xlink" width="108" height="108" viewBox="0 0 108 108">
  <defs>
    <filter id="Trazado_982551" x="0" y="0" width="108" height="108" filterUnits="userSpaceOnUse">
      <feOffset dy="3" input="SourceAlpha"/>
      <feGaussianBlur stdDeviation="3" result="blur"/>
      <feFlood flood-opacity="0.161"/>
      <feComposite operator="in" in2="blur"/>
      <feComposite in="SourceGraphic"/>
    </filter>
  </defs>
  <g id="Grupo_1157266" data-name="Grupo 1157266" transform="translate(-831 -3103.5)">
    <g id="Grupo_1151785" data-name="Grupo 1151785" transform="translate(0 -1681.5)">
      <g id="Grupo_1150790" data-name="Grupo 1150790" transform="translate(0 3180)">
        <g transform="matrix(1, 0, 0, 1, 831, 1605)" filter="url(#Trazado_982551)">
          <g id="Trazado_982551-2" data-name="Trazado 982551" transform="translate(9 6)" fill="#f3f3f3">
            <path d="M 45 88.5 C 39.12687683105469 88.5 33.43022537231445 87.35007476806641 28.06830024719238 85.08217620849609 C 22.88852500915527 82.89131164550781 18.23629951477051 79.75458526611328 14.2408504486084 75.75914764404297 C 10.24541282653809 71.76370239257812 7.108687400817871 67.11147308349609 4.917825222015381 61.93170166015625 C 2.649924993515015 56.56977462768555 1.5 50.87312316894531 1.5 45 C 1.5 39.12687683105469 2.649924993515015 33.43022537231445 4.917825222015381 28.06830024719238 C 7.108687400817871 22.88852500915527 10.24541282653809 18.23629951477051 14.2408504486084 14.2408504486084 C 18.23629951477051 10.24541282653809 22.88852500915527 7.108687400817871 28.06830024719238 4.917825222015381 C 33.43022537231445 2.649924993515015 39.12687683105469 1.5 45 1.5 C 50.87312316894531 1.5 56.56977462768555 2.649924993515015 61.93170166015625 4.917825222015381 C 67.11147308349609 7.108687400817871 71.76370239257812 10.24541282653809 75.75914764404297 14.2408504486084 C 79.75458526611328 18.23629951477051 82.89131164550781 22.88852500915527 85.08217620849609 28.06830024719238 C 87.35007476806641 33.43022537231445 88.5 39.12687683105469 88.5 45 C 88.5 50.87312316894531 87.35007476806641 56.56977462768555 85.08217620849609 61.93170166015625 C 82.89131164550781 67.11147308349609 79.75458526611328 71.76370239257812 75.75914764404297 75.75914764404297 C 71.76370239257812 79.75458526611328 67.11147308349609 82.89131164550781 61.93170166015625 85.08217620849609 C 56.56977462768555 87.35007476806641 50.87312316894531 88.5 45 88.5 Z" stroke="none"/>
            <path d="M 45 3 C 39.32871246337891 3 33.82865524291992 4.110054016113281 28.65262985229492 6.299339294433594 C 23.65165710449219 8.414573669433594 19.15968322753906 11.44334411621094 15.301513671875 15.301513671875 C 11.44334411621094 19.15968322753906 8.414573669433594 23.65165710449219 6.299339294433594 28.65262985229492 C 4.110054016113281 33.82865524291992 3 39.32871246337891 3 45 C 3 50.67128753662109 4.110054016113281 56.17134475708008 6.299339294433594 61.34737396240234 C 8.414573669433594 66.34834289550781 11.44334411621094 70.84031677246094 15.301513671875 74.698486328125 C 19.15968322753906 78.55665588378906 23.65165710449219 81.58542633056641 28.65262985229492 83.70066070556641 C 33.82865524291992 85.88994598388672 39.32871246337891 87 45 87 C 50.67128753662109 87 56.17134475708008 85.88994598388672 61.34737396240234 83.70066070556641 C 66.34834289550781 81.58542633056641 70.84031677246094 78.55665588378906 74.698486328125 74.698486328125 C 78.55665588378906 70.84031677246094 81.58542633056641 66.34834289550781 83.70066070556641 61.34737396240234 C 85.88994598388672 56.17134475708008 87 50.67128753662109 87 45 C 87 39.32871246337891 85.88994598388672 33.82865524291992 83.70066070556641 28.65262985229492 C 81.58542633056641 23.65165710449219 78.55665588378906 19.15968322753906 74.698486328125 15.301513671875 C 70.84031677246094 11.44334411621094 66.34834289550781 8.414573669433594 61.34737396240234 6.299339294433594 C 56.17134475708008 4.110054016113281 50.67128753662109 3 45 3 M 45 0 C 69.85281372070312 0 90 20.14718627929688 90 45 C 90 69.85281372070312 69.85281372070312 90 45 90 C 20.14718627929688 90 0 69.85281372070312 0 45 C 0 20.14718627929688 20.14718627929688 0 45 0 Z" stroke="none" fill="#fd7940"/>
          </g>
        </g>
      </g>
    </g>
    <g id="saludable" transform="translate(857.312 3115.309)">
      <g id="Grupo_1157264" data-name="Grupo 1157264" transform="translate(0.811 13.147)">
        <g id="Grupo_1157263" data-name="Grupo 1157263" transform="translate(0 0)">
          <g id="Grupo_1157256" data-name="Grupo 1157256" transform="translate(0 33.697)">
            <g id="Grupo_1157255" data-name="Grupo 1157255" transform="translate(5.154)">
              <g id="Grupo_1157253" data-name="Grupo 1157253" transform="translate(7.891)">
                <path id="Trazado_990282" data-name="Trazado 990282" d="M139.216,341.345h-11.1V332.7a1.327,1.327,0,0,1,1.325-1.325,4.351,4.351,0,0,1,4.349,4.351v.184Z" transform="translate(-128.112 -331.38)" fill="#fdb0a0"/>
              </g>
              <g id="Grupo_1157254" data-name="Grupo 1157254">
                <path id="Trazado_990283" data-name="Trazado 990283" d="M66.253,341.345H58.371l-3.222-3.222V332.7a1.327,1.327,0,0,1,1.325-1.325,4.351,4.351,0,0,1,4.349,4.351v.184Z" transform="translate(-55.149 -331.38)" fill="#ffcec0"/>
              </g>
            </g>
            <path id="Trazado_990284" data-name="Trazado 990284" d="M44.9,341.017a2.656,2.656,0,0,1-2.345-.941,5.638,5.638,0,0,0-4.308-2h-1.22a6.793,6.793,0,0,1-4.8-1.99l-3.761-3.761a3.206,3.206,0,0,0-4.534,0,2.19,2.19,0,0,0,0,3.1l4.352,4.352a4.263,4.263,0,0,1,1,1.577H18.6l-5.43-5.43v-.185a4.35,4.35,0,0,0-4.35-4.35A1.325,1.325,0,0,0,7.5,332.71v4.469a2.289,2.289,0,0,0,.67,1.618l8.918,8.918a3.618,3.618,0,0,0,2.558,1.06H61.254v-9.729Z" transform="translate(-7.5 -331.384)" fill="#ffdfd0"/>
            <path id="Trazado_990285" data-name="Trazado 990285" d="M470.577,402.658v9.286h3.669v-9.729Z" transform="translate(-420.492 -394.555)" fill="#ffcec0"/>
          </g>
          <g id="Grupo_1157262" data-name="Grupo 1157262" transform="translate(7.855)">
            <g id="Grupo_1157257" data-name="Grupo 1157257">
              <path id="Trazado_990286" data-name="Trazado 990286" d="M114.967,23.027a10.93,10.93,0,0,0-15.457,0l-.364.364-.364-.364A10.93,10.93,0,0,0,83.325,38.484L98.187,53.346a1.357,1.357,0,0,0,1.919,0l14.861-14.861A10.93,10.93,0,0,0,114.967,23.027Z" transform="translate(-80.124 -19.826)" fill="#fb3a82"/>
              <path id="Trazado_990287" data-name="Trazado 990287" d="M249.516,38.566,234.654,53.427a1.356,1.356,0,0,1-1.919,0l-1.746-1.746,14.2-14.2a10.935,10.935,0,0,0-2.961-17.566,10.929,10.929,0,0,1,7.291,18.648Z" transform="translate(-214.673 -19.908)" fill="#e01058"/>
            </g>
            <g id="Grupo_1157261" data-name="Grupo 1157261" transform="translate(25.32 16.857)">
              <g id="Grupo_1157258" data-name="Grupo 1157258">
                <path id="Trazado_990288" data-name="Trazado 990288" d="M329.946,177.009a.536.536,0,0,0-.378-.477,32.855,32.855,0,0,0-14.845,0,.537.537,0,0,0-.378.477c-.39,5.631-.244,12.9,7.622,15.7a.53.53,0,0,0,.355,0C330.19,189.907,330.336,182.64,329.946,177.009Z" transform="translate(-314.228 -175.683)" fill="#27d1b3"/>
              </g>
              <g id="Grupo_1157259" data-name="Grupo 1157259" transform="translate(6.213 0.235)">
                <path id="Trazado_990289" data-name="Trazado 990289" d="M373.552,194.65a.522.522,0,0,1-.355,0A13.846,13.846,0,0,1,371.67,194c6.379-3.243,6.48-10.566,6.117-15.812a.55.55,0,0,0-.149-.335,18.525,18.525,0,0,1,3.158.615.535.535,0,0,1,.378.476C381.565,184.578,381.419,191.846,373.552,194.65Z" transform="translate(-371.67 -177.856)" fill="#20b69f"/>
              </g>
              <path id="Trazado_990290" data-name="Trazado 990290" d="M330.188,180.982h-5.534v-5.231c-.714-.042-1.5-.068-2.366-.068s-1.652.026-2.366.068v5.231h-5.534a17.623,17.623,0,0,0,.748,4.732h4.787v6a13.369,13.369,0,0,0,2.188,1,.53.53,0,0,0,.355,0,13.364,13.364,0,0,0,2.188-1v-6h4.787A17.619,17.619,0,0,0,330.188,180.982Z" transform="translate(-314.37 -175.683)" fill="#e8edf1"/>
              <g id="Grupo_1157260" data-name="Grupo 1157260" transform="translate(6.213 5.299)">
                <path id="Trazado_990291" data-name="Trazado 990291" d="M373.552,297.75a13.365,13.365,0,0,0,2.189-1V293.46a10.257,10.257,0,0,1-4.071,3.644,13.8,13.8,0,0,0,1.527.646A.521.521,0,0,0,373.552,297.75Z" transform="translate(-371.67 -286.02)" fill="#c5d3dd"/>
                <path id="Trazado_990292" data-name="Trazado 990292" d="M425.362,224.675h-3.418a18.5,18.5,0,0,1-.841,4.732h3.511A17.614,17.614,0,0,0,425.362,224.675Z" transform="translate(-415.756 -224.675)" fill="#c5d3dd"/>
              </g>
            </g>
          </g>
        </g>
      </g>
      <g id="Grupo_1157265" data-name="Grupo 1157265" transform="translate(0 12.337)">
        <path id="Trazado_990293" data-name="Trazado 990293" d="M16.532,341.272H12.958a2.788,2.788,0,0,1-1.985-.822l-8.918-8.918a1.467,1.467,0,0,1-.433-1.044v-4.469a.514.514,0,0,1,.514-.514,3.543,3.543,0,0,1,3.539,3.539v.185a.811.811,0,0,0,.238.574l5.43,5.43a.811.811,0,0,0,.574.238h10.06a3.488,3.488,0,0,1,.057.626.811.811,0,1,0,1.622,0,5.041,5.041,0,0,0-1.486-3.588l-4.352-4.352a1.38,1.38,0,0,1,0-1.949,2.395,2.395,0,0,1,3.386,0l3.761,3.761a7.555,7.555,0,0,0,5.377,2.227h1.22a4.817,4.817,0,0,1,3.688,1.713,3.463,3.463,0,0,0,3.062,1.223l16.349-1.971a.811.811,0,0,0-.194-1.611L38.119,333.52a1.844,1.844,0,0,1-1.628-.659,6.436,6.436,0,0,0-4.928-2.289h-1.22a5.942,5.942,0,0,1-4.23-1.752l-3.761-3.761a4.019,4.019,0,0,0-4.862-.632,5.15,5.15,0,0,0-2.309-.545,2.138,2.138,0,0,0-2.136,2.136v3.469l-.6-.6a5.168,5.168,0,0,0-5.158-5.008,2.14,2.14,0,0,0-1.9,1.159,5.137,5.137,0,0,0-3.254-1.159A2.138,2.138,0,0,0,0,326.018v4.469a3.079,3.079,0,0,0,.908,2.192L9.826,341.6a4.4,4.4,0,0,0,3.132,1.3h3.574a.811.811,0,1,0,0-1.622Zm-1.864-15.254a.516.516,0,0,1,.514-.514,3.543,3.543,0,0,1,1.026.153,3.006,3.006,0,0,0,.464,3.646l4.352,4.352c.062.062.12.126.177.192H17.405l-2.738-2.738v-5.091Zm-7.739-.364a.5.5,0,0,1,.361-.149,3.543,3.543,0,0,1,3.538,3.54v.184a.811.811,0,0,0,.238.574l4.045,4.045H12.252L7.295,328.89a5.124,5.124,0,0,0-.519-2.1v-.77a.508.508,0,0,1,.153-.364Z" transform="translate(0 -290.186)"/>
        <path id="Trazado_990294" data-name="Trazado 990294" d="M213.475,484.666H178.992a.811.811,0,1,0,0,1.622h34.482a.811.811,0,1,0,0-1.622Z" transform="translate(-158.909 -433.58)"/>
        <path id="Trazado_990295" data-name="Trazado 990295" d="M316.1,99.708a.811.811,0,0,0-.811.811v.682h-.682a.811.811,0,1,0,0,1.622h.682v.682a.811.811,0,0,0,1.622,0v-.682h.682a.811.811,0,1,0,0-1.622h-.682v-.682A.811.811,0,0,0,316.1,99.708Z" transform="translate(-279.859 -90.258)"/>
        <path id="Trazado_990296" data-name="Trazado 990296" d="M82.336,38.606a.811.811,0,0,0,1.147-1.147l-4.018-4.018h4.446a.811.811,0,0,0,.787-.617L85.815,28.3l3.67,11.425a.811.811,0,0,0,.772.563l.062,0a.811.811,0,0,0,.74-.68l2.306-14.3,1.614,7.268a.811.811,0,0,0,.792.635h2.236a21.3,21.3,0,0,0,.763,7l-5.881,5.881a.546.546,0,0,1-.772,0L85.994,39.97a.811.811,0,0,0-1.147,1.147l6.122,6.122a2.171,2.171,0,0,0,3.066,0l5.379-5.379a10.985,10.985,0,0,0,4.476,4.839.809.809,0,0,0,.1.056,14.105,14.105,0,0,0,2.281,1.041,1.346,1.346,0,0,0,.9,0,14.1,14.1,0,0,0,2.281-1.041.807.807,0,0,0,.1-.056,11.076,11.076,0,0,0,5.027-6.2c.025-.073.048-.146.071-.219l0-.009a24.428,24.428,0,0,0,.681-9,1.355,1.355,0,0,0-.95-1.2,19.526,19.526,0,0,0-3.331-.647A11.743,11.743,0,0,0,98.642,12.5a.811.811,0,1,0,.269,1.6,10.119,10.119,0,0,1,10.368,15.173c-.769-.049-1.622-.079-2.561-.079a27.054,27.054,0,0,0-7.659.885,1.355,1.355,0,0,0-.95,1.2q-.011.158-.021.318H96.422L94.03,20.825a.811.811,0,0,0-1.593.047L90,36.008l-3.51-10.927a.811.811,0,0,0-.772-.563h-.028a.811.811,0,0,0-.76.616l-1.65,6.684H77.843l-.588-.588a10.119,10.119,0,0,1,14.31-14.31l.364.364a.811.811,0,0,0,1.147,0l.364-.364a10.128,10.128,0,0,1,2.374-1.765.811.811,0,1,0-.767-1.429A11.733,11.733,0,0,0,92.5,15.57,11.741,11.741,0,0,0,76.108,32.378Zm18.4,2.239h2.8v3.667A9.208,9.208,0,0,1,100.736,40.846Zm9.159,3.667V40.846H112.7A9.208,9.208,0,0,1,109.895,44.513Zm3.923-10.022h-3.923V30.942a20.779,20.779,0,0,1,3.826.633C113.786,32.556,113.825,33.532,113.818,34.491Zm-5.545-3.647V35.3a.811.811,0,0,0,.811.811h4.672a16.706,16.706,0,0,1-.5,3.11h-4.175a.811.811,0,0,0-.811.811v5.518a12.889,12.889,0,0,1-1.555.682,12.891,12.891,0,0,1-1.555-.682V40.035a.811.811,0,0,0-.811-.811h-4.175a16.7,16.7,0,0,1-.5-3.11h4.672a.811.811,0,0,0,.811-.811V30.844c.487-.018,1-.029,1.555-.029s1.068.011,1.555.029Zm-8.559.731a20.791,20.791,0,0,1,3.826-.633v3.549H99.617C99.61,33.532,99.649,32.556,99.714,31.575Z" transform="translate(-64.814 -12.337)"/>
      </g>
    </g>
  </g>
</svg>
