<svg xmlns="http://www.w3.org/2000/svg" xmlns:xlink="http://www.w3.org/1999/xlink" width="108" height="108" viewBox="0 0 108 108">
  <defs>
    <filter id="Trazado_982553" x="0" y="0" width="108" height="108" filterUnits="userSpaceOnUse">
      <feOffset dy="3" input="SourceAlpha"/>
      <feGaussianBlur stdDeviation="3" result="blur"/>
      <feFlood flood-opacity="0.161"/>
      <feComposite operator="in" in2="blur"/>
      <feComposite in="SourceGraphic"/>
    </filter>
  </defs>
  <g id="Grupo_1157272" data-name="Grupo 1157272" transform="translate(-201 -3288)">
    <g id="Grupo_1151786" data-name="Grupo 1151786" transform="translate(0 -1682)">
      <g id="Grupo_1150791" data-name="Grupo 1150791" transform="translate(0 3180)">
        <g transform="matrix(1, 0, 0, 1, 201, 1790)" filter="url(#Trazado_982553)">
          <g id="Trazado_982553-2" data-name="Trazado 982553" transform="translate(9 6)" fill="#f3f3f3">
            <path d="M 45 88.5 C 39.12687683105469 88.5 33.43022537231445 87.35007476806641 28.06830024719238 85.08217620849609 C 22.88852500915527 82.89131164550781 18.23629951477051 79.75458526611328 14.2408504486084 75.75914764404297 C 10.24541282653809 71.76370239257812 7.108687400817871 67.11147308349609 4.917825222015381 61.93170166015625 C 2.649924993515015 56.56977462768555 1.5 50.87312316894531 1.5 45 C 1.5 39.12687683105469 2.649924993515015 33.43022537231445 4.917825222015381 28.06830024719238 C 7.108687400817871 22.88852500915527 10.24541282653809 18.23629951477051 14.2408504486084 14.2408504486084 C 18.23629951477051 10.24541282653809 22.88852500915527 7.108687400817871 28.06830024719238 4.917825222015381 C 33.43022537231445 2.649924993515015 39.12687683105469 1.5 45 1.5 C 50.87312316894531 1.5 56.56977462768555 2.649924993515015 61.93170166015625 4.917825222015381 C 67.11147308349609 7.108687400817871 71.76370239257812 10.24541282653809 75.75914764404297 14.2408504486084 C 79.75458526611328 18.23629951477051 82.89131164550781 22.88852500915527 85.08217620849609 28.06830024719238 C 87.35007476806641 33.43022537231445 88.5 39.12687683105469 88.5 45 C 88.5 50.87312316894531 87.35007476806641 56.56977462768555 85.08217620849609 61.93170166015625 C 82.89131164550781 67.11147308349609 79.75458526611328 71.76370239257812 75.75914764404297 75.75914764404297 C 71.76370239257812 79.75458526611328 67.11147308349609 82.89131164550781 61.93170166015625 85.08217620849609 C 56.56977462768555 87.35007476806641 50.87312316894531 88.5 45 88.5 Z" stroke="none"/>
            <path d="M 45 3 C 39.32871246337891 3 33.82865524291992 4.110054016113281 28.65262985229492 6.299339294433594 C 23.65165710449219 8.414573669433594 19.15968322753906 11.44334411621094 15.301513671875 15.301513671875 C 11.44334411621094 19.15968322753906 8.414573669433594 23.65165710449219 6.299339294433594 28.65262985229492 C 4.110054016113281 33.82865524291992 3 39.32871246337891 3 45 C 3 50.67128753662109 4.110054016113281 56.17134475708008 6.299339294433594 61.34737396240234 C 8.414573669433594 66.34834289550781 11.44334411621094 70.84031677246094 15.301513671875 74.698486328125 C 19.15968322753906 78.55665588378906 23.65165710449219 81.58542633056641 28.65262985229492 83.70066070556641 C 33.82865524291992 85.88994598388672 39.32871246337891 87 45 87 C 50.67128753662109 87 56.17134475708008 85.88994598388672 61.34737396240234 83.70066070556641 C 66.34834289550781 81.58542633056641 70.84031677246094 78.55665588378906 74.698486328125 74.698486328125 C 78.55665588378906 70.84031677246094 81.58542633056641 66.34834289550781 83.70066070556641 61.34737396240234 C 85.88994598388672 56.17134475708008 87 50.67128753662109 87 45 C 87 39.32871246337891 85.88994598388672 33.82865524291992 83.70066070556641 28.65262985229492 C 81.58542633056641 23.65165710449219 78.55665588378906 19.15968322753906 74.698486328125 15.301513671875 C 70.84031677246094 11.44334411621094 66.34834289550781 8.414573669433594 61.34737396240234 6.299339294433594 C 56.17134475708008 4.110054016113281 50.67128753662109 3 45 3 M 45 0 C 69.85281372070312 0 90 20.14718627929688 90 45 C 90 69.85281372070312 69.85281372070312 90 45 90 C 20.14718627929688 90 0 69.85281372070312 0 45 C 0 20.14718627929688 20.14718627929688 0 45 0 Z" stroke="none" fill="#fd7940"/>
          </g>
        </g>
      </g>
    </g>
    <g id="dieta" transform="translate(225 3286.363)">
      <rect id="Rectángulo_409197" data-name="Rectángulo 409197" width="5.82" height="3.554" transform="translate(7.703 32.837)" fill="#48c1e1"/>
      <path id="Trazado_990297" data-name="Trazado 990297" d="M64.375,38.889a.581.581,0,0,1-.579.579H56.733a.581.581,0,0,1-.579-.579V34.716a.581.581,0,0,1,.579-.579H63.8a.581.581,0,0,1,.579.579v4.173Z" transform="translate(-49.651 -6.632)" fill="#046699"/>
      <g id="Grupo_1157267" data-name="Grupo 1157267" transform="translate(6.503 27.506)" opacity="0.1">
        <path id="Trazado_990298" data-name="Trazado 990298" d="M58.569,38.889V34.716a.581.581,0,0,1,.579-.579H56.733a.581.581,0,0,0-.579.579v4.173a.581.581,0,0,0,.579.579h2.415A.581.581,0,0,1,58.569,38.889Z" transform="translate(-56.154 -34.137)"/>
      </g>
      <path id="Trazado_990299" data-name="Trazado 990299" d="M33.971,138.54a.617.617,0,0,1-.087-.3c0-.771,1.582-1.4,3.534-1.4a7.9,7.9,0,0,1,1.883.215,20.977,20.977,0,0,1-.625-5.11.582.582,0,0,1,.581-.582h1.013a3.789,3.789,0,0,1-.022-.4,3.722,3.722,0,0,1,2.6-3.55,3.511,3.511,0,0,1,1.7-4.706,3.472,3.472,0,0,1-.153-.579,3.512,3.512,0,0,1,1.269-3.344V114.1a3.237,3.237,0,0,0-3.224-3.231H35.021A3.237,3.237,0,0,0,31.8,114.1v25.736A8.554,8.554,0,0,1,33.971,138.54Z" transform="translate(-28.115 -74.478)" fill="#a2dff9"/>
      <path id="Trazado_990300" data-name="Trazado 990300" d="M42.844,172.343a3.511,3.511,0,0,1,1.7-4.706,3.471,3.471,0,0,1-.153-.579,3.512,3.512,0,0,1,1.269-3.344v-2.026H31.8v11.96H41A3.718,3.718,0,0,1,42.844,172.343Z" transform="translate(-28.115 -119.412)" fill="#046699"/>
      <path id="Trazado_990301" data-name="Trazado 990301" d="M33.971,138.54a.617.617,0,0,1-.087-.3c0-.476.6-.9,1.526-1.148V114.1a3.237,3.237,0,0,1,3.224-3.231H35.021A3.237,3.237,0,0,0,31.8,114.1v25.736A8.554,8.554,0,0,1,33.971,138.54Z" transform="translate(-28.115 -74.478)" opacity="0.1"/>
      <path id="Trazado_990302" data-name="Trazado 990302" d="M239.485,140.834a3.523,3.523,0,0,1,.051.6,3.51,3.51,0,0,1,3.093,2.635,3.694,3.694,0,0,1,2.176-.98,6.3,6.3,0,0,1,1.838-4.25c.042-.042.085-.083.128-.124a7.741,7.741,0,0,0-2.151-4.149.606.606,0,0,0-.858,0l-4.855,4.866A3.492,3.492,0,0,1,239.485,140.834Z" transform="translate(-211.243 -95.272)" fill="#ef5050"/>
      <path id="Trazado_990303" data-name="Trazado 990303" d="M290.188,162.959a3.715,3.715,0,0,1,3.568,2.692,3.193,3.193,0,0,1,.342.222,3.176,3.176,0,0,1,2.815-1.42c.083-.075.165-.151.244-.231l.067-.07a3.728,3.728,0,0,1,1.116-1.578,6.309,6.309,0,0,0,.213-5.135.2.2,0,0,0-.112-.112,6.288,6.288,0,0,0-8.6,5.649C289.952,162.966,290.069,162.959,290.188,162.959Z" transform="translate(-256.273 -115.162)" fill="#89c947"/>
      <g id="Grupo_1157268" data-name="Grupo 1157268" transform="translate(12.132 46.557)">
        <path id="Trazado_990304" data-name="Trazado 990304" d="M357.169,204.7a5.762,5.762,0,0,1,2.815-1.553,3.713,3.713,0,0,0-7.216-1.742,3.166,3.166,0,0,1,2.8,3.145,3.155,3.155,0,0,1,1.341.435C356.99,204.893,357.077,204.8,357.169,204.7Z" transform="translate(-324.05 -198.658)" fill="#ffc502"/>
        <path id="Trazado_990305" data-name="Trazado 990305" d="M107.366,253.7a3.722,3.722,0,0,0-2.6,3.55,3.787,3.787,0,0,0,.022.4h5.287a5.8,5.8,0,0,1-.691-2.153A3.515,3.515,0,0,1,107.366,253.7Z" transform="translate(-104.769 -247.327)" fill="#ffc502"/>
      </g>
      <path id="Trazado_990306" data-name="Trazado 990306" d="M395.079,236.747a.183.183,0,0,0-.041-.062.185.185,0,0,0-.062-.041,5.76,5.76,0,0,0-6.215,1.285c-.092.092-.179.188-.264.285a3.162,3.162,0,0,1,1.282,4h4.659A5.793,5.793,0,0,0,395.079,236.747Z" transform="translate(-343.509 -185.326)" fill="#89c947"/>
      <path id="Trazado_990307" data-name="Trazado 990307" d="M107.366,253.7a3.722,3.722,0,0,0-2.6,3.55,3.787,3.787,0,0,0,.022.4h5.287a5.8,5.8,0,0,1-.691-2.153A3.515,3.515,0,0,1,107.366,253.7Z" transform="translate(-92.637 -200.77)" fill="#ffc502"/>
      <g id="Grupo_1157269" data-name="Grupo 1157269" transform="translate(14.384 42.653)">
        <path id="Trazado_990308" data-name="Trazado 990308" d="M126.952,174.226a.181.181,0,0,1,.041-.062.185.185,0,0,1,.062-.041,5.768,5.768,0,0,1,6.756,1.912,7.79,7.79,0,0,1-.144-1.49.607.607,0,0,1,.606-.608h5.763c0-.041,0-.082,0-.124a3.714,3.714,0,0,1,1.185-2.724,3.51,3.51,0,0,0-3.093-2.635,3.514,3.514,0,0,0-6.446-1.929,3.518,3.518,0,0,0-5.572,3.415,3.468,3.468,0,0,0,.153.579,3.509,3.509,0,0,0,.323,6.507A5.788,5.788,0,0,1,126.952,174.226Z" transform="translate(-124.215 -164.946)" fill="#368c0e"/>
        <path id="Trazado_990309" data-name="Trazado 990309" d="M332.7,228.009a3.17,3.17,0,0,0-2.845-2.615,3.174,3.174,0,0,0-5.822-1.742,3.188,3.188,0,0,0-.342-.222,3.734,3.734,0,0,1,.145,1.03c0,.042,0,.083,0,.124h1.129a.607.607,0,0,1,.606.608,7.751,7.751,0,0,1-1.531,4.634h8.441A3.156,3.156,0,0,0,332.7,228.009Z" transform="translate(-300.59 -215.594)" fill="#368c0e"/>
      </g>
      <path id="Trazado_990310" data-name="Trazado 990310" d="M268.236,213.217c0-.041,0-.082,0-.124a3.713,3.713,0,1,0-7.426,0c0,.042,0,.083,0,.124Z" transform="translate(-230.611 -161.574)" fill="#f7931e"/>
      <path id="Trazado_990311" data-name="Trazado 990311" d="M151.585,242.968a5.768,5.768,0,0,0-6.756-1.912.185.185,0,0,0-.1.1,5.8,5.8,0,0,0,.321,4.953h7.679c-.008-.138-.022-.276-.039-.414A7.745,7.745,0,0,1,151.585,242.968Z" transform="translate(-127.605 -189.227)" fill="#89c947"/>
      <path id="Trazado_990312" data-name="Trazado 990312" d="M219.828,247.822a7.751,7.751,0,0,0,1.531-4.634.607.607,0,0,0-.606-.608H206.44a.607.607,0,0,0-.606.608,7.751,7.751,0,0,0,1.531,4.634Z" transform="translate(-181.998 -190.937)" fill="#ef5050"/>
      <path id="Trazado_990313" data-name="Trazado 990313" d="M92.828,293.919a6.266,6.266,0,0,1,2.891-.594c1.951,0,3.534.625,3.534,1.4a.615.615,0,0,1-.087.3,7.864,7.864,0,0,1,4.915,6.067l17.745-6.741A3.119,3.119,0,0,1,126,296.688l.155.835,6.069-3.582a20.929,20.929,0,0,0,.728-5.51.582.582,0,0,0-.581-.582h-40.6a.582.582,0,0,0-.581.582,20.977,20.977,0,0,0,.625,5.11A4.135,4.135,0,0,1,92.828,293.919Z" transform="translate(-80.635 -230.963)" fill="#fff"/>
      <g id="Grupo_1157270" data-name="Grupo 1157270" transform="translate(10.56 56.885)" opacity="0.1">
        <path id="Trazado_990314" data-name="Trazado 990314" d="M92.828,293.919a5.945,5.945,0,0,1,2.551-.586,21,21,0,0,1-.572-4.9.582.582,0,0,1,.581-.582H91.776a.582.582,0,0,0-.581.582,20.977,20.977,0,0,0,.625,5.11A4.134,4.134,0,0,1,92.828,293.919Z" transform="translate(-91.195 -287.848)"/>
      </g>
      <path id="Trazado_990315" data-name="Trazado 990315" d="M21.328,362.111l-.03-.161a3.1,3.1,0,0,1,1.955-3.464l6.827-2.594a7.863,7.863,0,0,0-4.915-6.067,3.386,3.386,0,0,1-2.441,1.034c.894.715,1.3,1.467.939,1.878-.482.545-2.139.286-3.7-.578a7.067,7.067,0,0,1-1.137-.774,7.045,7.045,0,0,1-1.137.774c-1.56.864-3.217,1.122-3.7.578-.364-.411.045-1.163.939-1.878a3.386,3.386,0,0,1-2.44-1.034A7.754,7.754,0,0,0,7.5,356.9c0,4.281,3.775,7.752,8.431,7.752h5.788a9.193,9.193,0,0,0,1.7-.158A3.107,3.107,0,0,1,21.328,362.111Z" transform="translate(-6.633 -285.763)" fill="#ef5050"/>
      <path id="Trazado_990316" data-name="Trazado 990316" d="M126.269,355.4a3.114,3.114,0,0,0,3.067,2.541l26.3-.01a3.109,3.109,0,0,0,3.065-3.668l-1.757-9.486a3.119,3.119,0,0,0-4.177-2.338l-24.572,9.335a3.1,3.1,0,0,0-1.955,3.464Z" transform="translate(-111.575 -279.055)" fill="#f7931e"/>
      <path id="Trazado_990317" data-name="Trazado 990317" d="M11.148,356.9a7.536,7.536,0,0,1,3.261-6.121,2.86,2.86,0,0,1-1.921-.954A7.754,7.754,0,0,0,7.5,356.9c0,4.281,3.775,7.752,8.431,7.752h3.648C14.923,364.652,11.148,361.181,11.148,356.9Z" transform="translate(-6.632 -285.763)" opacity="0.1"/>
      <path id="Trazado_990318" data-name="Trazado 990318" d="M62.667,336.546c0-.771-1.582-1.4-3.534-1.4a6.267,6.267,0,0,0-2.891.593,6.264,6.264,0,0,0-2.891-.593c-1.951,0-3.534.625-3.534,1.4,0,.633,1.066,1.166,2.527,1.338-.894.715-1.3,1.467-.939,1.878.483.545,2.139.286,3.7-.578a7.044,7.044,0,0,0,1.137-.774,7.076,7.076,0,0,0,1.137.774c1.56.864,3.217,1.122,3.7.578.364-.411-.045-1.163-.939-1.878C61.6,337.712,62.667,337.179,62.667,336.546Z" transform="translate(-44.049 -272.788)" fill="#368c0e"/>
      <path id="Trazado_990319" data-name="Trazado 990319" d="M406,340.623l-.226-1.221a.779.779,0,0,0-.908-.623l-8.738,1.605,5.579-3.729a.772.772,0,0,0,.245-1.025l-.631-1.118a.781.781,0,0,0-1.077-.287l-7.129,4.208,1.392,7.514,8.177,1.469a.779.779,0,0,0,.909-.65l.188-1.262a.774.774,0,0,0-.6-.87l-6.548-1.5,8.738-1.605A.776.776,0,0,0,406,340.623Z" transform="translate(-347.596 -271.873)" fill="#89c947"/>
      <g id="Grupo_1157271" data-name="Grupo 1157271" transform="translate(14.613 74.36)" opacity="0.1">
        <path id="Trazado_990320" data-name="Trazado 990320" d="M158.546,438.754a3.113,3.113,0,0,1-2.907,1.987l-26.3.01a3.117,3.117,0,0,1-2.9-1.955,3.083,3.083,0,0,0-.2,1.784l.03.161a3.114,3.114,0,0,0,3.067,2.541l26.3-.01A3.109,3.109,0,0,0,158.7,439.6Z" transform="translate(-126.191 -438.754)"/>
      </g>
      <path id="Trazado_990321" data-name="Trazado 990321" d="M158.256,194.819h.015a.868.868,0,0,0,.868-.854.964.964,0,0,1,.982-.949.954.954,0,0,1,.7.313.869.869,0,0,0,1.282-1.172,2.7,2.7,0,0,0-4.7,1.778A.869.869,0,0,0,158.256,194.819Z" transform="translate(-139.175 -145.577)"/>
      <path id="Trazado_990322" data-name="Trazado 990322" d="M198.16,213.018a.868.868,0,0,0,1.116-.512.747.747,0,0,1,.957-.44.734.734,0,0,1,.425.405.869.869,0,0,0,1.6-.68,2.481,2.481,0,0,0-4.609.11A.869.869,0,0,0,198.16,213.018Z" transform="translate(-174.712 -162.38)"/>
      <path id="Trazado_990323" data-name="Trazado 990323" d="M267.207,157.251a.866.866,0,0,0,.615-.255l.819-.82a.868.868,0,1,0-1.229-1.227l-.819.82a.868.868,0,0,0,.615,1.482Z" transform="translate(-235.497 -113.227)"/>
      <path id="Trazado_990324" data-name="Trazado 990324" d="M224.075,253.709h-1.158a.868.868,0,1,0,0,1.737h1.158a.868.868,0,1,0,0-1.737Z" transform="translate(-196.336 -200.777)"/>
      <path id="Trazado_990325" data-name="Trazado 990325" d="M299.56,255.446h1.158a.868.868,0,1,0,0-1.737H299.56a.868.868,0,0,0,0,1.737Z" transform="translate(-264.104 -200.777)"/>
      <path id="Trazado_990326" data-name="Trazado 990326" d="M59.262,68.592l-.226-1.221a1.648,1.648,0,0,0-1.919-1.319l-4.6.846L54.6,65.5a1.641,1.641,0,0,0,.518-2.174l-.631-1.117a1.642,1.642,0,0,0-1.649-.822,21.969,21.969,0,0,0,.352-3.922,1.452,1.452,0,0,0-.863-1.326,6.66,6.66,0,0,0,.053-5.039,1.054,1.054,0,0,0-.589-.591,6.607,6.607,0,0,0-2.455-.472q-.162,0-.322.008a4.579,4.579,0,0,0-5.516-4.261,7.156,7.156,0,0,0-.4-3.822,1.068,1.068,0,0,0-.6-.606,7.138,7.138,0,0,0-6.452.592,8.59,8.59,0,0,0-2.045-3.272,1.474,1.474,0,0,0-2.087,0L27.7,42.894a4.365,4.365,0,0,0-2.914-1.109A4.392,4.392,0,0,0,21.651,43.1a4.365,4.365,0,0,0-3.238-.231V39.622a4.1,4.1,0,0,0-4.021-4.1V33.683a1.449,1.449,0,0,0,1.2-1.425V28.084a1.449,1.449,0,0,0-1.447-1.447H7.082a1.449,1.449,0,0,0-1.447,1.447v4.173a1.449,1.449,0,0,0,1.2,1.425v1.842a4.1,4.1,0,0,0-4.021,4.1V64.97A8.3,8.3,0,0,0,0,71.137c0,4.753,4.172,8.62,9.3,8.62l34.762-.01a3.975,3.975,0,0,0,3.934-4.6L54.938,76.4a1.66,1.66,0,0,0,.292.026,1.647,1.647,0,0,0,1.63-1.4l.188-1.262a1.642,1.642,0,0,0-1.261-1.845l-2.447-.561,4.6-.845a1.645,1.645,0,0,0,1.322-1.916ZM49.333,51.777a4.871,4.871,0,0,1,1.531.246,4.919,4.919,0,0,1-.415,3.994h-2.34l.747-.748a.869.869,0,0,0-1.23-1.227l-.395.4a4.028,4.028,0,0,0-.933-1.6A4.856,4.856,0,0,1,49.333,51.777Zm-4.9-4.351a2.852,2.852,0,0,1,2.845,2.853c0,.029,0,.058,0,.087A6.6,6.6,0,0,0,44.8,51.836c-.115-.043-.231-.084-.35-.117a4.029,4.029,0,0,0-2.4-2.986A2.84,2.84,0,0,1,44.435,47.426Zm-4.591-4.838a5.38,5.38,0,0,1,1.728.284,5.441,5.441,0,0,1-.215,4.011,4.612,4.612,0,0,0-1.113,1.543,4.1,4.1,0,0,0-.463.053,4.056,4.056,0,0,0-1.846.842,4.6,4.6,0,0,0-.657-.912l1.992-2a.869.869,0,0,0-1.23-1.227l-2.177,2.182a4.54,4.54,0,0,0-1.332-.4,5.42,5.42,0,0,1,5.313-4.384ZM33.189,56.017h-.753a.868.868,0,0,0-1.616,0h-.886a.868.868,0,0,0-1.355-1.067l-.819.82a.864.864,0,0,0-.172.247H25.823a6.87,6.87,0,0,1-1.114-3.505H38.487a6.87,6.87,0,0,1-1.114,3.505H35.534a.865.865,0,0,0-.172-.247l-.818-.82a.868.868,0,0,0-1.355,1.067Zm-2.02-5.242a2.842,2.842,0,0,1,5.491,0ZM32.945,40.1a6.868,6.868,0,0,1,1.64,3.067,7.153,7.153,0,0,0-1.1,1.581.863.863,0,0,0-.452-.128H31.874a.868.868,0,1,0,0,1.737h1.015a7.193,7.193,0,0,0-.134.727,4.542,4.542,0,0,0-.982.384A4.384,4.384,0,0,0,29.1,45.421v-.007a4.4,4.4,0,0,0-.349-1.112ZM19.288,44.439a2.68,2.68,0,0,1,.458-.04,2.624,2.624,0,0,1,1.581.528.869.869,0,0,0,1.244-.216,2.63,2.63,0,0,1,1.756-1.149,2.68,2.68,0,0,1,.459-.04,2.634,2.634,0,0,1,2.6,2.189,2.662,2.662,0,0,1,.038.45.869.869,0,0,0,.793.864A2.643,2.643,0,0,1,30.4,48.582a4.579,4.579,0,0,0-1,2.193H24.442a1.477,1.477,0,0,0-1.365.918,6.628,6.628,0,0,0-6.175-.67,1.053,1.053,0,0,0-.588.59,6.654,6.654,0,0,0-.405,1.544,2.643,2.643,0,0,1,.883-4.143.869.869,0,0,0,.454-1.081,2.621,2.621,0,0,1-.115-.435A2.651,2.651,0,0,1,19.288,44.439Zm.546,11.34.237.238H17.986a4.921,4.921,0,0,1-.159-3.483,4.886,4.886,0,0,1,5.343,1.581,8.58,8.58,0,0,0,.665,1.9H22.525l-1.461-1.464a.869.869,0,0,0-1.23,1.227Zm-5.448-1.744a4.366,4.366,0,0,0,1.584,1.313,6.717,6.717,0,0,0,.166.669h-3.1A2.856,2.856,0,0,1,14.386,54.035ZM7.371,28.374h6.484v3.594H7.371Zm5.283,5.331v1.817H8.572V33.705Zm-8.1,9.439h5.64a.868.868,0,1,0,0-1.737H4.551V39.622A2.362,2.362,0,0,1,6.906,37.26H14.32a2.362,2.362,0,0,1,2.355,2.363v1.785H15.054a.868.868,0,1,0,0,1.737h1.622v.771a4.377,4.377,0,0,0-1.257,3.878l0,.009a4.389,4.389,0,0,0-1.84,4.361c.017.1.039.2.063.294a4.605,4.605,0,0,0-1.158.91H4.551Zm0,11.96h6.926a4.556,4.556,0,0,0-.189.912h-.146a1.452,1.452,0,0,0-1.45,1.451,21.978,21.978,0,0,0,.377,4.057c-.25-.02-.505-.031-.766-.031a7.914,7.914,0,0,0-2.818.469c-1.172.463-1.5,1.12-1.567,1.575-.124.062-.246.127-.367.194V55.1Zm11,10.669a3.288,3.288,0,0,1,.615.616h-.032a5.4,5.4,0,0,1-2.379-.754,6.259,6.259,0,0,1-1-.677.869.869,0,0,0-1.123,0,6.223,6.223,0,0,1-1,.676,5.4,5.4,0,0,1-2.379.754H8.225a3.284,3.284,0,0,1,.615-.617A.868.868,0,0,0,8.4,64.233a4.149,4.149,0,0,1-1.634-.472,4.947,4.947,0,0,1,2.54-.53,5.413,5.413,0,0,1,2.466.482.869.869,0,0,0,.85,0,5.416,5.416,0,0,1,2.466-.482,4.947,4.947,0,0,1,2.539.53,4.147,4.147,0,0,1-1.635.472.869.869,0,0,0-.442,1.541ZM1.737,71.137a6.823,6.823,0,0,1,3.919-6.029,3.732,3.732,0,0,0,1,.512,2.057,2.057,0,0,0-.293.859,1.415,1.415,0,0,0,.345,1.071,1.971,1.971,0,0,0,1.55.578,7.173,7.173,0,0,0,3.221-.972q.38-.21.716-.442.336.232.716.442a7.176,7.176,0,0,0,3.221.972h0a1.971,1.971,0,0,0,1.549-.578,1.414,1.414,0,0,0,.345-1.071,2.058,2.058,0,0,0-.293-.859,3.739,3.739,0,0,0,1-.512,7.026,7.026,0,0,1,3.722,4.468L16.311,71.91a3.971,3.971,0,0,0-2.5,4.434l.03.161a3.955,3.955,0,0,0,.625,1.515H9.3C5.13,78.021,1.737,74.933,1.737,71.137ZM45.789,77.2a2.247,2.247,0,0,1-1.729.807h-.912l-.569-3.075a.869.869,0,0,0-1.708.316l.511,2.759H38.394l-.385-2.079a.869.869,0,0,0-1.708.316l.327,1.764-6.951,0-.523-2.824a.869.869,0,0,0-1.708.316l.465,2.508-10.149,0h0a2.245,2.245,0,0,1-2.212-1.831l-.03-.161a2.235,2.235,0,0,1,1.409-2.494l3.413-1.3L20.6,73.61a.869.869,0,0,0,.853.71.88.88,0,0,0,.159-.015.868.868,0,0,0,.7-1.012l-.312-1.683,5.067-1.925a.869.869,0,0,0-.617-1.624l-2.358.9a8.8,8.8,0,0,0-4.614-5.419c-.071-.455-.395-1.112-1.567-1.575a7.914,7.914,0,0,0-2.818-.469,8.811,8.811,0,0,0-2.022.225v-.525a.868.868,0,0,0-1.405-.682,20.289,20.289,0,0,1-.226-2.759H39.719a.868.868,0,0,0,0-1.737h-.355a8.6,8.6,0,0,0,.865-3.766A1.478,1.478,0,0,0,38.9,50.782a2.289,2.289,0,0,1,1.184-.592,2.342,2.342,0,0,1,.4-.035,2.3,2.3,0,0,1,2.266,1.907,2.323,2.323,0,0,1,.034.393.869.869,0,0,0,.793.864,2.3,2.3,0,0,1,2.065,1.9,2.27,2.27,0,0,1-.006.8H44.7a.868.868,0,1,0,0,1.737h6.75a20.019,20.019,0,0,1-.609,4.659l-4.707,2.778a3.987,3.987,0,0,0-5.25-2.616l-9.694,3.683a.869.869,0,0,0,.617,1.624l1.277-.485.4,2.141a.869.869,0,0,0,.853.711.879.879,0,0,0,.159-.015.869.869,0,0,0,.7-1.012l-.454-2.451L41.5,64.2a2.254,2.254,0,0,1,1.906.14,2.231,2.231,0,0,1,1.109,1.544l1.757,9.486A2.221,2.221,0,0,1,45.789,77.2Zm3.1-6.8a.868.868,0,0,0-.037,1.7l6.466,1.483-.162,1.084-7.5-1.347L46.488,67l6.529-3.854.544.963-5.507,3.681a.869.869,0,0,0,.64,1.576l8.651-1.589.193,1.04Z"/>
    </g>
  </g>
</svg>
